<svg id="Layer_2" height="512" viewBox="0 0 128 128" width="512" xmlns="http://www.w3.org/2000/svg" data-name="Layer 2"><g fill="rgb(0,0,0)"><path d="m126.247 75.06h-7.139l8.859-46.818a1.749 1.749 0 0 0 -1.72-2.075h-97.112l-1.727-5.667a15.664 15.664 0 0 0 -15.066-11.167h-10.595a1.75 1.75 0 0 0 -1.747 1.75v8a1.749 1.749 0 0 0 1.75 1.75h10.6a4.229 4.229 0 0 1 4.066 3.013l14.62 48.008a21.007 21.007 0 0 0 1.264 3.206h-1.15a15.137 15.137 0 1 0 0 30.273h5.6v.96a12.374 12.374 0 1 0 24.748 0v-.96h19.56v.96a12.374 12.374 0 0 0 24.748 0v-.96h12.46a1.75 1.75 0 0 0 1.75-1.75v-8a1.751 1.751 0 0 0 -1.75-1.75h-87.116a3.637 3.637 0 1 1 0-7.273h95.1a1.75 1.75 0 0 0 1.75-1.75v-8a1.749 1.749 0 0 0 -1.753-1.75zm-96.047-45.393h93.934l-8.588 45.393h-64.668a9.2 9.2 0 0 1 -8.85-6.556zm27.8 76.626a8.874 8.874 0 1 1 -17.748 0v-.96h17.748zm44.308 0a8.874 8.874 0 0 1 -17.748 0v-.96h17.748zm22.192-23.233h-93.35a7.137 7.137 0 1 0 0 14.273h85.366v4.5h-85.366a11.637 11.637 0 1 1 0-23.273h4.219a1.75 1.75 0 0 0 1.431-2.76 17.389 17.389 0 0 1 -2.424-4.967l-14.62-48.007a7.71 7.71 0 0 0 -7.414-5.493h-8.842v-4.5h8.845a12.184 12.184 0 0 1 11.719 8.682l14.62 48.009a12.68 12.68 0 0 0 12.2 9.036h73.616z"/><path d="m48.521 43h57.043a1.75 1.75 0 0 0 0-3.5h-57.043a1.75 1.75 0 0 0 0 3.5z"/><path d="m101.961 51.667h-49.836a1.75 1.75 0 0 0 0 3.5h49.836a1.75 1.75 0 0 0 0-3.5z"/><path d="m97.961 63.833h-41.836a1.75 1.75 0 0 0 0 3.5h41.836a1.75 1.75 0 0 0 0-3.5z"/></g></svg>