<?xml version="1.0" encoding="utf-8"?>
<!-- Generator: Adobe Illustrator 16.0.2, SVG Export Plug-In . SVG Version: 6.00 Build 0)  -->
<!DOCTYPE svg PUBLIC "-//W3C//DTD SVG 1.1//EN" "http://www.w3.org/Graphics/SVG/1.1/DTD/svg11.dtd">
<svg version="1.1" id="Layer_1" xmlns="http://www.w3.org/2000/svg" xmlns:xlink="http://www.w3.org/1999/xlink" x="0px" y="0px"
	 width="380px" height="70px" viewBox="60.5 208.5 380 70" enable-background="new 60.5 208.5 380 70" xml:space="preserve">
<g>
	<g transform="translate(49.89393, 204.749987)">
		<g>
			<path fill="#F41212" d="M61.277,9.938c1.042,0,1.896,0.344,2.563,1.021c0.677,0.667,1.021,1.521,1.021,2.563
				c0,1.042-0.344,1.906-1.021,2.583c-0.667,0.667-1.521,1-2.563,1H45.235v47.271c0,1.084-0.375,2-1.125,2.75
				s-1.677,1.125-2.771,1.125c-1.099,0-2.021-0.375-2.771-1.125c-0.74-0.75-1.104-1.666-1.104-2.75V17.104H21.339
				c-1.042,0-1.906-0.333-2.583-1c-0.667-0.677-1-1.542-1-2.583c0-1.042,0.333-1.896,1-2.563c0.677-0.677,1.542-1.021,2.583-1.021
				H61.277z"/>
		</g>
	</g>
</g>
<g>
	<g transform="translate(83.936759, 204.749987)">
		<g>
			<path fill="#F41212" d="M54.708,26.958c2.635,0,4.698,0.406,6.188,1.208c1.5,0.792,2.25,1.787,2.25,2.979
				c0,0.349-0.031,0.599-0.083,0.75c-0.448,1.583-1.438,2.375-2.979,2.375c-0.25,0-0.625-0.047-1.125-0.146
				c-1.99-0.344-3.604-0.521-4.854-0.521c-3.583,0-6.474,0.828-8.667,2.479c-2.182,1.641-3.271,3.849-3.271,6.625v21.813
				c0,1.197-0.313,2.119-0.938,2.77c-0.625,0.641-1.557,0.959-2.792,0.959c-1.198,0-2.12-0.313-2.771-0.938
				c-0.641-0.625-0.958-1.553-0.958-2.791V31.146c0-1.193,0.317-2.109,0.958-2.75c0.651-0.651,1.573-0.979,2.771-0.979
				c2.484,0,3.729,1.245,3.729,3.729v1.417c1.484-1.75,3.323-3.115,5.521-4.104C49.88,27.458,52.219,26.958,54.708,26.958z"/>
		</g>
	</g>
</g>
<g>
	<g transform="translate(108.180962, 204.749987)">
		<g>
			<path fill="#F41212" d="M61.29,27.104c3.833,0,7.302,0.912,10.417,2.729c3.109,1.823,5.573,4.313,7.396,7.479
				c1.817,3.156,2.729,6.677,2.729,10.563v16.646c0,1.098-0.365,2.01-1.083,2.729c-0.724,0.725-1.635,1.084-2.729,1.084
				c-1.099,0-2.01-0.359-2.729-1.084c-0.724-0.719-1.083-1.631-1.083-2.729V61.75c-1.74,2.141-3.849,3.807-6.333,5
				c-2.489,1.197-5.177,1.791-8.063,1.791c-3.583,0-6.833-0.895-9.75-2.688c-2.917-1.791-5.208-4.26-6.875-7.416
				c-1.667-3.166-2.5-6.688-2.5-10.563c0-3.885,0.896-7.406,2.688-10.563c1.792-3.167,4.261-5.656,7.417-7.479
				C53.956,28.016,57.456,27.104,61.29,27.104z M61.29,61.834c2.5,0,4.755-0.609,6.771-1.834c2.011-1.219,3.589-2.885,4.729-5
				c1.151-2.109,1.729-4.484,1.729-7.125c0-2.635-0.578-5.026-1.729-7.167c-1.141-2.151-2.719-3.833-4.729-5.042
				c-2.016-1.219-4.271-1.833-6.771-1.833c-2.49,0-4.74,0.614-6.75,1.833c-2.016,1.208-3.615,2.891-4.792,5.042
				c-1.167,2.141-1.75,4.531-1.75,7.167c0,2.641,0.583,5.016,1.75,7.125c1.177,2.115,2.776,3.781,4.792,5
				C56.55,61.225,58.8,61.834,61.29,61.834z"/>
		</g>
	</g>
</g>
<g>
	<g transform="translate(143.007689, 204.749987)">
		<g>
			<path fill="#F41212" d="M89.628,9.938c1.151,0,2.073,0.349,2.771,1.042c0.692,0.698,1.042,1.62,1.042,2.771v34.041
				c0,3.891-0.912,7.418-2.729,10.584c-1.823,3.156-4.287,5.641-7.396,7.459c-3.115,1.807-6.583,2.707-10.417,2.707
				c-3.833,0-7.333-0.9-10.5-2.707c-3.156-1.818-5.625-4.303-7.417-7.459c-1.792-3.166-2.688-6.693-2.688-10.584
				c0-3.885,0.833-7.406,2.5-10.562c1.667-3.167,3.958-5.646,6.875-7.438c2.917-1.792,6.167-2.688,9.75-2.688
				c2.886,0,5.573,0.599,8.063,1.792c2.484,1.198,4.594,2.864,6.333,5V13.75c0-1.151,0.359-2.073,1.083-2.771
				C87.617,10.287,88.528,9.938,89.628,9.938z M72.899,61.834c2.5,0,4.755-0.609,6.771-1.834c2.011-1.219,3.589-2.9,4.729-5.041
				c1.151-2.137,1.729-4.527,1.729-7.168c0-2.635-0.578-5.01-1.729-7.125c-1.141-2.125-2.719-3.792-4.729-5
				c-2.016-1.219-4.271-1.833-6.771-1.833c-2.49,0-4.74,0.614-6.75,1.833c-2.016,1.208-3.615,2.875-4.792,5
				c-1.167,2.115-1.75,4.49-1.75,7.125c0,2.641,0.583,5.031,1.75,7.168c1.177,2.141,2.776,3.822,4.792,5.041
				C68.159,61.225,70.409,61.834,72.899,61.834z"/>
		</g>
	</g>
</g>
<g>
	<g transform="translate(179.402187, 204.749987)">
		<g>
			<path fill="#F41212" d="M103.176,47.188c0,0.947-0.328,1.729-0.979,2.354c-0.641,0.625-1.458,0.938-2.458,0.938H71.384
				c0.542,3.49,2.114,6.303,4.729,8.438c2.609,2.141,5.813,3.209,9.604,3.209c1.484,0,3.031-0.271,4.646-0.813
				c1.625-0.553,2.958-1.229,4-2.021c0.708-0.551,1.531-0.832,2.479-0.832c0.943,0,1.688,0.25,2.229,0.75
				c0.901,0.75,1.354,1.598,1.354,2.541c0,0.906-0.406,1.656-1.209,2.25c-1.697,1.334-3.802,2.428-6.313,3.271
				c-2.5,0.848-4.896,1.27-7.188,1.27c-4.083,0-7.744-0.879-10.979-2.645c-3.24-1.762-5.766-4.215-7.583-7.355
				c-1.823-3.135-2.729-6.691-2.729-10.666c0-3.984,0.859-7.552,2.583-10.708c1.719-3.167,4.109-5.63,7.167-7.396
				c3.052-1.776,6.525-2.667,10.416-2.667c3.834,0,7.136,0.849,9.917,2.542c2.792,1.698,4.927,4.063,6.417,7.104
				C102.426,39.781,103.176,43.26,103.176,47.188z M84.592,33.521c-3.641,0-6.594,1-8.854,3c-2.266,1.989-3.698,4.646-4.292,7.979
				h24.875c-0.458-3.333-1.708-5.99-3.75-7.979C90.529,34.521,87.868,33.521,84.592,33.521z"/>
		</g>
	</g>
</g>
<g>
	<g transform="translate(211.205327, 204.749987)">
		<g>
			<path fill="#F41212" d="M91.985,68.541c-3.391,0-6.578-0.52-9.563-1.563c-2.989-1.041-5.328-2.406-7.021-4.104
				c-0.641-0.65-0.959-1.422-0.959-2.313c0-1.193,0.49-2.166,1.479-2.916c0.942-0.693,1.817-1.043,2.625-1.043
				c0.984,0,1.927,0.449,2.833,1.334c0.943,1.057,2.359,1.975,4.25,2.75c1.886,0.766,3.901,1.146,6.042,1.146
				c2.844,0,5.052-0.469,6.625-1.418c1.567-0.941,2.354-2.213,2.354-3.813c0-1.541-0.781-2.816-2.334-3.832
				c-1.541-1.027-4.156-1.887-7.833-2.584c-9.558-1.844-14.333-5.781-14.333-11.813c0-2.427,0.719-4.49,2.166-6.188
				c1.443-1.693,3.334-2.963,5.667-3.813c2.344-0.844,4.839-1.271,7.479-1.271c3.234,0,6.13,0.531,8.688,1.583
				c2.567,1.042,4.594,2.479,6.083,4.313c0.651,0.807,0.979,1.604,0.979,2.396c0,0.849-0.428,1.62-1.271,2.313
				c-0.541,0.406-1.239,0.604-2.083,0.604c-1.308,0-2.479-0.469-3.521-1.417c-1.24-1.151-2.558-1.964-3.959-2.438
				c-1.391-0.469-3.078-0.708-5.063-0.708c-2.291,0-4.177,0.391-5.646,1.167c-1.474,0.766-2.208,1.849-2.208,3.25
				c0,0.99,0.25,1.823,0.75,2.5c0.5,0.667,1.442,1.292,2.833,1.875c1.401,0.573,3.422,1.125,6.063,1.667
				c5.417,1.099,9.255,2.62,11.521,4.563c2.261,1.932,3.396,4.447,3.396,7.541c0,2.281-0.625,4.354-1.875,6.229
				c-1.24,1.865-3.063,3.328-5.479,4.396C98.256,68.01,95.36,68.541,91.985,68.541z"/>
		</g>
	</g>
</g>
<g>
	<g transform="translate(238.641082, 204.749987)">
		<g>
			<path fill="#F41212" d="M104.776,27.104c3.834,0,7.303,0.912,10.417,2.729c3.109,1.823,5.573,4.313,7.396,7.479
				c1.818,3.156,2.729,6.677,2.729,10.563v16.646c0,1.098-0.364,2.01-1.083,2.729c-0.725,0.725-1.636,1.084-2.729,1.084
				c-1.099,0-2.011-0.359-2.729-1.084c-0.724-0.719-1.083-1.631-1.083-2.729V61.75c-1.739,2.141-3.849,3.807-6.333,5
				c-2.49,1.197-5.178,1.791-8.063,1.791c-3.584,0-6.834-0.895-9.75-2.688c-2.917-1.791-5.209-4.26-6.875-7.416
				c-1.667-3.166-2.5-6.688-2.5-10.563c0-3.885,0.896-7.406,2.688-10.563c1.791-3.167,4.26-5.656,7.416-7.479
				C97.443,28.016,100.943,27.104,104.776,27.104z M104.776,61.834c2.5,0,4.756-0.609,6.771-1.834c2.01-1.219,3.588-2.885,4.729-5
				c1.151-2.109,1.729-4.484,1.729-7.125c0-2.635-0.578-5.026-1.729-7.167c-1.141-2.151-2.719-3.833-4.729-5.042
				c-2.016-1.219-4.271-1.833-6.771-1.833c-2.489,0-4.739,0.614-6.75,1.833c-2.016,1.208-3.614,2.891-4.791,5.042
				c-1.167,2.141-1.75,4.531-1.75,7.167c0,2.641,0.583,5.016,1.75,7.125c1.177,2.115,2.775,3.781,4.791,5
				C100.037,61.225,102.287,61.834,104.776,61.834z"/>
		</g>
	</g>
</g>
<g>
	<g transform="translate(273.467797, 204.749987)">
		<g>
			<path fill="#F41212" d="M107.572,68.25c-2.141,0-4.072-0.584-5.791-1.75c-1.709-1.166-3.037-2.803-3.979-4.916
				c-0.948-2.125-1.417-4.506-1.417-7.146V13.667c0-1.094,0.344-1.989,1.042-2.688c0.692-0.692,1.589-1.042,2.688-1.042
				c1.094,0,1.989,0.349,2.688,1.042c0.692,0.698,1.042,1.594,1.042,2.688v40.771c0,1.85,0.344,3.369,1.041,4.563
				c0.709,1.197,1.604,1.791,2.688,1.791h1.875c1,0,1.803,0.35,2.417,1.043c0.625,0.697,0.938,1.594,0.938,2.688
				c0,1.098-0.474,1.994-1.417,2.688c-0.947,0.697-2.161,1.041-3.646,1.041H107.572z"/>
		</g>
	</g>
</g>
<g>
	<g transform="translate(287.297455, 204.749987)">
		<g>
			<path fill="#F41212" d="M120.995,27.104c3.834,0,7.303,0.912,10.417,2.729c3.109,1.823,5.573,4.313,7.396,7.479
				c1.818,3.156,2.729,6.677,2.729,10.563v16.646c0,1.098-0.364,2.01-1.083,2.729c-0.725,0.725-1.636,1.084-2.729,1.084
				c-1.099,0-2.011-0.359-2.729-1.084c-0.724-0.719-1.083-1.631-1.083-2.729V61.75c-1.739,2.141-3.849,3.807-6.333,5
				c-2.49,1.197-5.178,1.791-8.063,1.791c-3.584,0-6.834-0.895-9.75-2.688c-2.917-1.791-5.209-4.26-6.875-7.416
				c-1.667-3.166-2.5-6.688-2.5-10.563c0-3.885,0.896-7.406,2.688-10.563c1.791-3.167,4.26-5.656,7.416-7.479
				C113.662,28.016,117.162,27.104,120.995,27.104z M120.995,61.834c2.5,0,4.756-0.609,6.771-1.834c2.01-1.219,3.588-2.885,4.729-5
				c1.151-2.109,1.729-4.484,1.729-7.125c0-2.635-0.578-5.026-1.729-7.167c-1.141-2.151-2.719-3.833-4.729-5.042
				c-2.016-1.219-4.271-1.833-6.771-1.833c-2.489,0-4.739,0.614-6.75,1.833c-2.016,1.208-3.614,2.891-4.791,5.042
				c-1.167,2.141-1.75,4.531-1.75,7.167c0,2.641,0.583,5.016,1.75,7.125c1.177,2.115,2.775,3.781,4.791,5
				C116.255,61.225,118.505,61.834,120.995,61.834z"/>
		</g>
	</g>
</g>
</svg>
