<?xml version="1.0" encoding="utf-8"?>
<!-- Generator: Adobe Illustrator 16.0.2, SVG Export Plug-In . SVG Version: 6.00 Build 0)  -->
<!DOCTYPE svg PUBLIC "-//W3C//DTD SVG 1.1//EN" "http://www.w3.org/Graphics/SVG/1.1/DTD/svg11.dtd">
<svg version="1.1" id="Layer_1" xmlns="http://www.w3.org/2000/svg" xmlns:xlink="http://www.w3.org/1999/xlink" x="0px" y="0px"
	 width="235px" height="38px" viewBox="0 0 235 38" enable-background="new 0 0 235 38" xml:space="preserve">
<g>
	<g transform="translate(49.89393, 204.749987)">
		<g>
			<path fill="#F41212" d="M-21.648-202.979c0.608,0,1.107,0.201,1.496,0.596c0.395,0.389,0.595,0.887,0.595,1.495
				c0,0.608-0.201,1.113-0.595,1.508c-0.389,0.389-0.888,0.584-1.496,0.584h-9.362v27.588c0,0.632-0.219,1.167-0.656,1.605
				c-0.438,0.437-0.979,0.655-1.617,0.655c-0.642,0-1.179-0.219-1.617-0.655c-0.432-0.438-0.645-0.974-0.645-1.605v-27.588h-9.411
				c-0.608,0-1.112-0.195-1.507-0.584c-0.389-0.395-0.584-0.899-0.584-1.508c0-0.608,0.195-1.106,0.584-1.495
				c0.395-0.395,0.899-0.596,1.507-0.596H-21.648z"/>
		</g>
	</g>
</g>
<g>
	<g transform="translate(83.936759, 204.749987)">
		<g>
			<path fill="#F41212" d="M-39.656-193.045c1.538,0,2.742,0.237,3.611,0.705c0.875,0.462,1.313,1.042,1.313,1.738
				c0,0.204-0.018,0.35-0.048,0.438c-0.261,0.924-0.839,1.386-1.738,1.386c-0.146,0-0.365-0.027-0.657-0.085
				c-1.162-0.2-2.104-0.304-2.833-0.304c-2.091,0-3.778,0.484-5.057,1.447c-1.274,0.958-1.909,2.245-1.909,3.866v12.73
				c0,0.7-0.183,1.236-0.547,1.616c-0.364,0.374-0.908,0.56-1.629,0.56c-0.699,0-1.237-0.182-1.617-0.547
				c-0.374-0.365-0.559-0.906-0.559-1.629v-19.479c0-0.696,0.185-1.231,0.559-1.604c0.38-0.38,0.918-0.572,1.617-0.572
				c1.45,0,2.176,0.727,2.176,2.177v0.827c0.866-1.021,1.939-1.818,3.222-2.396C-42.474-192.753-41.109-193.045-39.656-193.045z"/>
		</g>
	</g>
</g>
<g>
	<g transform="translate(108.180962, 204.749987)">
		<g>
			<path fill="#F41212" d="M-45.91-192.96c2.237,0,4.261,0.532,6.079,1.592c1.814,1.065,3.252,2.518,4.316,4.365
				c1.061,1.842,1.593,3.897,1.593,6.164v9.716c0,0.64-0.213,1.172-0.633,1.592c-0.422,0.422-0.954,0.634-1.592,0.634
				c-0.641,0-1.173-0.212-1.593-0.634c-0.423-0.42-0.632-0.952-0.632-1.592v-1.618c-1.015,1.25-2.246,2.223-3.696,2.919
				c-1.453,0.698-3.021,1.047-4.706,1.047c-2.091,0-3.988-0.523-5.69-1.57c-1.703-1.045-3.04-2.485-4.013-4.328
				c-0.972-1.847-1.458-3.902-1.458-6.165c0-2.267,0.523-4.321,1.568-6.164c1.045-1.848,2.487-3.3,4.328-4.365
				C-50.191-192.428-48.148-192.96-45.91-192.96z M-45.91-172.691c1.459,0,2.775-0.355,3.951-1.07
				c1.173-0.711,2.094-1.685,2.761-2.919c0.671-1.229,1.009-2.616,1.009-4.158c0-1.537-0.337-2.932-1.009-4.182
				c-0.667-1.255-1.587-2.237-2.761-2.942c-1.176-0.711-2.492-1.07-3.951-1.07c-1.453,0-2.766,0.358-3.939,1.07
				c-1.177,0.705-2.11,1.688-2.797,2.942c-0.68,1.25-1.021,2.645-1.021,4.182c0,1.542,0.341,2.93,1.021,4.158
				c0.688,1.234,1.621,2.208,2.797,2.919C-48.677-173.047-47.364-172.691-45.91-172.691z"/>
		</g>
	</g>
</g>
<g>
	<g transform="translate(143.007689, 204.749987)">
		<g>
			<path fill="#F41212" d="M-43.873-202.979c0.671,0,1.209,0.204,1.617,0.608c0.403,0.408,0.607,0.945,0.607,1.617v19.867
				c0,2.271-0.532,4.328-1.593,6.176c-1.063,1.843-2.501,3.293-4.316,4.354c-1.818,1.054-3.842,1.581-6.079,1.581
				c-2.238,0-4.28-0.527-6.128-1.581c-1.842-1.062-3.283-2.512-4.328-4.354c-1.046-1.848-1.569-3.904-1.569-6.176
				c0-2.267,0.487-4.321,1.459-6.165c0.973-1.848,2.31-3.294,4.012-4.34c1.703-1.045,3.6-1.568,5.691-1.568
				c1.684,0,3.252,0.35,4.705,1.045c1.45,0.7,2.681,1.672,3.696,2.918v-11.757c0-0.672,0.21-1.209,0.632-1.617
				C-45.047-202.775-44.516-202.979-43.873-202.979z M-53.637-172.691c1.458,0,2.774-0.355,3.951-1.07
				c1.173-0.711,2.095-1.693,2.76-2.94c0.672-1.25,1.009-2.645,1.009-4.185c0-1.537-0.337-2.925-1.009-4.157
				c-0.666-1.241-1.587-2.214-2.76-2.919c-1.176-0.711-2.492-1.07-3.951-1.07c-1.454,0-2.767,0.358-3.94,1.07
				c-1.176,0.705-2.11,1.678-2.796,2.919c-0.681,1.232-1.021,2.62-1.021,4.157c0,1.54,0.34,2.935,1.021,4.185
				c0.687,1.247,1.62,2.229,2.796,2.94C-56.403-173.047-55.09-172.691-53.637-172.691z"/>
		</g>
	</g>
</g>
<g>
	<g transform="translate(179.402187, 204.749987)">
		<g>
			<path fill="#F41212" d="M-51.121-181.239c0,0.553-0.191,1.008-0.572,1.373c-0.373,0.365-0.851,0.547-1.435,0.547h-16.547
				c0.315,2.036,1.232,3.68,2.759,4.924c1.523,1.251,3.393,1.874,5.604,1.874c0.867,0,1.771-0.158,2.713-0.474
				c0.947-0.322,1.726-0.719,2.333-1.18c0.414-0.322,0.895-0.486,1.448-0.486c0.55,0,0.983,0.146,1.301,0.437
				c0.525,0.439,0.79,0.935,0.79,1.483c0,0.529-0.237,0.968-0.706,1.314c-0.99,0.777-2.218,1.417-3.683,1.908
				c-1.46,0.494-2.857,0.743-4.196,0.743c-2.382,0-4.519-0.515-6.405-1.546c-1.892-1.028-3.366-2.458-4.427-4.292
				c-1.064-1.829-1.593-3.904-1.593-6.226c0-2.324,0.502-4.406,1.508-6.249c1.003-1.848,2.399-3.286,4.183-4.316
				c1.78-1.037,3.809-1.556,6.079-1.556c2.237,0,4.164,0.496,5.787,1.484c1.63,0.99,2.876,2.37,3.745,4.146
				C-51.559-185.561-51.121-183.531-51.121-181.239z M-61.967-189.215c-2.126,0-3.849,0.583-5.168,1.75
				c-1.321,1.161-2.158,2.709-2.504,4.657h14.517c-0.267-1.947-0.997-3.496-2.188-4.657
				C-58.502-188.631-60.055-189.215-61.967-189.215z"/>
		</g>
	</g>
</g>
<g>
	<g transform="translate(211.205327, 204.749987)">
		<g>
			<path fill="#F41212" d="M-70.896-168.775c-1.979,0-3.838-0.306-5.579-0.914c-1.745-0.608-3.11-1.404-4.099-2.394
				c-0.373-0.38-0.559-0.831-0.559-1.351c0-0.696,0.285-1.264,0.862-1.701c0.551-0.405,1.062-0.609,1.532-0.609
				c0.575,0,1.125,0.264,1.654,0.779c0.55,0.617,1.376,1.153,2.48,1.604c1.1,0.447,2.276,0.67,3.525,0.67
				c1.659,0,2.948-0.272,3.867-0.827c0.914-0.551,1.373-1.292,1.373-2.226c0-0.899-0.455-1.642-1.362-2.237
				c-0.899-0.599-2.425-1.1-4.57-1.507c-5.578-1.076-8.365-3.374-8.365-6.894c0-1.417,0.42-2.62,1.265-3.611
				c0.842-0.988,1.944-1.729,3.308-2.225c1.367-0.493,2.823-0.742,4.364-0.742c1.888,0,3.577,0.31,5.07,0.924
				c1.497,0.608,2.681,1.447,3.549,2.517c0.381,0.471,0.572,0.936,0.572,1.399c0,0.495-0.25,0.945-0.741,1.35
				c-0.316,0.237-0.724,0.353-1.217,0.353c-0.763,0-1.447-0.274-2.055-0.827c-0.723-0.671-1.492-1.146-2.311-1.422
				c-0.812-0.274-1.795-0.414-2.954-0.414c-1.337,0-2.438,0.228-3.295,0.681c-0.859,0.447-1.288,1.079-1.288,1.897
				c0,0.578,0.146,1.063,0.438,1.46c0.291,0.389,0.842,0.754,1.654,1.093c0.817,0.335,1.996,0.657,3.537,0.975
				c3.161,0.642,5.401,1.527,6.725,2.661c1.318,1.127,1.981,2.596,1.981,4.401c0,1.331-0.365,2.539-1.095,3.636
				c-0.724,1.087-1.787,1.942-3.197,2.564C-67.236-169.087-68.925-168.775-70.896-168.775z"/>
		</g>
	</g>
</g>
<g>
	<g transform="translate(238.641082, 204.749987)">
		<g>
			<path fill="#F41212" d="M-74.854-192.96c2.237,0,4.263,0.532,6.079,1.592c1.815,1.065,3.253,2.518,4.316,4.365
				c1.062,1.842,1.593,3.897,1.593,6.164v9.716c0,0.64-0.213,1.172-0.633,1.592c-0.422,0.422-0.954,0.634-1.592,0.634
				c-0.642,0-1.174-0.212-1.593-0.634c-0.423-0.42-0.633-0.952-0.633-1.592v-1.618c-1.014,1.25-2.246,2.223-3.696,2.919
				c-1.452,0.698-3.021,1.047-4.705,1.047c-2.091,0-3.988-0.523-5.689-1.57c-1.703-1.045-3.041-2.485-4.013-4.328
				c-0.973-1.847-1.459-3.902-1.459-6.165c0-2.267,0.522-4.321,1.568-6.164c1.045-1.848,2.486-3.3,4.329-4.365
				C-79.134-192.428-77.091-192.96-74.854-192.96z M-74.854-172.691c1.459,0,2.775-0.355,3.952-1.07
				c1.173-0.711,2.094-1.685,2.759-2.919c0.673-1.229,1.01-2.616,1.01-4.158c0-1.537-0.337-2.932-1.01-4.182
				c-0.665-1.255-1.586-2.237-2.759-2.942c-1.177-0.711-2.493-1.07-3.952-1.07c-1.453,0-2.767,0.358-3.939,1.07
				c-1.177,0.705-2.108,1.688-2.797,2.942c-0.68,1.25-1.021,2.645-1.021,4.182c0,1.542,0.341,2.93,1.021,4.158
				c0.688,1.234,1.62,2.208,2.797,2.919C-77.621-173.047-76.307-172.691-74.854-172.691z"/>
		</g>
	</g>
</g>
<g>
	<g transform="translate(273.467797, 204.749987)">
		<g>
			<path fill="#F41212" d="M-87.724-168.947c-1.249,0-2.377-0.343-3.38-1.022c-0.997-0.68-1.772-1.634-2.322-2.869
				c-0.554-1.238-0.827-2.627-0.827-4.17v-23.794c0-0.638,0.201-1.16,0.608-1.568c0.403-0.404,0.927-0.608,1.568-0.608
				c0.638,0,1.161,0.204,1.568,0.608c0.403,0.408,0.608,0.93,0.608,1.568v23.794c0,1.08,0.2,1.969,0.607,2.665
				c0.413,0.698,0.937,1.045,1.568,1.045h1.094c0.584,0,1.052,0.202,1.411,0.607c0.365,0.407,0.547,0.931,0.547,1.568
				c0,0.64-0.275,1.163-0.828,1.57c-0.552,0.405-1.261,0.605-2.127,0.605H-87.724z"/>
		</g>
	</g>
</g>
<g>
	<g transform="translate(287.297455, 204.749987)">
		<g>
			<path fill="#F41212" d="M-85.649-192.96c2.237,0,4.263,0.532,6.079,1.592c1.815,1.065,3.252,2.518,4.316,4.365
				c1.061,1.842,1.593,3.897,1.593,6.164v9.716c0,0.64-0.213,1.172-0.632,1.592c-0.423,0.422-0.954,0.634-1.593,0.634
				c-0.642,0-1.174-0.212-1.593-0.634c-0.422-0.42-0.633-0.952-0.633-1.592v-1.618c-1.015,1.25-2.246,2.223-3.696,2.919
				c-1.452,0.698-3.021,1.047-4.705,1.047c-2.091,0-3.988-0.523-5.689-1.57c-1.703-1.045-3.04-2.485-4.013-4.328
				c-0.973-1.847-1.459-3.902-1.459-6.165c0-2.267,0.522-4.321,1.568-6.164c1.045-1.848,2.486-3.3,4.329-4.365
				C-89.929-192.428-87.886-192.96-85.649-192.96z M-85.649-172.691c1.459,0,2.775-0.355,3.952-1.07
				c1.173-0.711,2.094-1.685,2.759-2.919c0.673-1.229,1.01-2.616,1.01-4.158c0-1.537-0.337-2.932-1.01-4.182
				c-0.665-1.255-1.586-2.237-2.759-2.942c-1.177-0.711-2.493-1.07-3.952-1.07c-1.452,0-2.767,0.358-3.94,1.07
				c-1.175,0.705-2.108,1.688-2.795,2.942c-0.682,1.25-1.021,2.645-1.021,4.182c0,1.542,0.34,2.93,1.021,4.158
				c0.687,1.234,1.62,2.208,2.795,2.919C-88.416-173.047-87.101-172.691-85.649-172.691z"/>
		</g>
	</g>
</g>
</svg>
