<svg xmlns="http://www.w3.org/2000/svg" xmlns:xlink="http://www.w3.org/1999/xlink" width="1080" zoomAndPan="magnify" viewBox="0 0 810 809.999993" height="1080" preserveAspectRatio="xMidYMid meet" version="1.0"><defs><clipPath id="86d69d1435"><path d="M 28.289062 122 L 782.039062 122 L 782.039062 712 L 28.289062 712 Z M 28.289062 122 " clip-rule="nonzero"/></clipPath></defs><g clip-path="url(#86d69d1435)"><path fill="#01062e" d="M 134.285156 122.507812 C 114.871094 122.507812 98.953125 138.425781 98.953125 157.839844 L 98.953125 240.28125 L 87.175781 240.28125 C 54.648438 240.28125 28.289062 266.640625 28.289062 299.167969 L 28.289062 652.488281 C 28.289062 685.011719 54.648438 711.375 87.175781 711.375 L 228.503906 711.375 C 261.027344 711.375 287.390625 685.011719 287.390625 652.488281 L 287.390625 593.601562 L 377.558594 593.601562 L 349.265625 687.820312 L 322.722656 687.820312 C 316.1875 687.820312 310.945312 693.109375 310.945312 699.597656 C 310.945312 706.082031 316.1875 711.375 322.722656 711.375 L 581.824219 711.375 C 588.355469 711.375 593.601562 706.082031 593.601562 699.597656 C 593.601562 693.109375 588.355469 687.820312 581.824219 687.820312 L 555.277344 687.820312 L 526.984375 593.601562 L 746.707031 593.601562 C 766.121094 593.601562 782.039062 577.683594 782.039062 558.269531 L 782.039062 157.839844 C 782.039062 138.425781 766.121094 122.507812 746.707031 122.507812 Z M 134.285156 146.0625 L 746.707031 146.0625 C 753.191406 146.0625 758.484375 151.351562 758.484375 157.839844 L 758.484375 169.617188 L 122.507812 169.617188 L 122.507812 157.839844 C 122.507812 151.351562 127.796875 146.0625 134.285156 146.0625 Z M 122.507812 193.171875 L 758.484375 193.171875 L 758.484375 334.5 C 751.949219 334.5 746.707031 339.789062 746.707031 346.277344 L 746.707031 369.832031 C 746.707031 376.316406 751.949219 381.609375 758.484375 381.609375 L 758.484375 499.382812 L 512.125 499.382812 C 505.59375 499.382812 500.347656 504.671875 500.347656 511.160156 C 500.347656 517.644531 505.59375 522.9375 512.125 522.9375 L 758.484375 522.9375 L 758.484375 558.269531 C 758.484375 564.753906 753.191406 570.046875 746.707031 570.046875 L 287.390625 570.046875 L 287.390625 522.9375 L 394.304688 522.9375 C 400.929688 522.9375 406.082031 517.644531 406.082031 511.160156 C 406.082031 504.671875 400.929688 499.382812 394.304688 499.382812 L 287.390625 499.382812 L 287.390625 381.609375 C 293.921875 381.609375 299.167969 376.316406 299.167969 369.832031 L 299.167969 346.277344 C 299.167969 339.789062 293.921875 334.5 287.390625 334.5 L 287.390625 299.167969 C 287.390625 266.640625 261.027344 240.28125 228.503906 240.28125 L 122.507812 240.28125 Z M 87.175781 263.835938 L 228.503906 263.835938 C 247.917969 263.835938 263.835938 279.753906 263.835938 299.167969 L 263.835938 310.945312 L 51.84375 310.945312 L 51.84375 299.167969 C 51.84375 279.753906 67.761719 263.835938 87.175781 263.835938 Z M 146.0625 275.613281 C 139.527344 275.613281 134.285156 280.902344 134.285156 287.390625 C 134.285156 293.875 139.527344 299.167969 146.0625 299.167969 L 157.839844 299.167969 C 164.371094 299.167969 169.617188 293.875 169.617188 287.390625 C 169.617188 280.902344 164.371094 275.613281 157.839844 275.613281 Z M 51.84375 334.5 L 263.835938 334.5 L 263.835938 593.601562 L 51.84375 593.601562 Z M 346.277344 334.5 C 339.742188 334.5 334.5 339.789062 334.5 346.277344 L 334.5 369.832031 C 334.5 376.316406 339.742188 381.609375 346.277344 381.609375 C 352.808594 381.609375 358.054688 376.316406 358.054688 369.832031 L 358.054688 346.277344 C 358.054688 339.789062 352.808594 334.5 346.277344 334.5 Z M 405.164062 334.5 C 398.628906 334.5 393.386719 339.789062 393.386719 346.277344 L 393.386719 369.832031 C 393.386719 376.316406 398.628906 381.609375 405.164062 381.609375 C 411.695312 381.609375 416.941406 376.316406 416.941406 369.832031 L 416.941406 346.277344 C 416.941406 339.789062 411.695312 334.5 405.164062 334.5 Z M 464.050781 334.5 C 457.515625 334.5 452.273438 339.789062 452.273438 346.277344 L 452.273438 369.832031 C 452.273438 376.316406 457.515625 381.609375 464.050781 381.609375 C 470.582031 381.609375 475.828125 376.316406 475.828125 369.832031 L 475.828125 346.277344 C 475.828125 339.789062 470.582031 334.5 464.050781 334.5 Z M 522.9375 334.5 C 516.402344 334.5 511.160156 339.789062 511.160156 346.277344 L 511.160156 369.832031 C 511.160156 376.316406 516.402344 381.609375 522.9375 381.609375 C 529.46875 381.609375 534.714844 376.316406 534.714844 369.832031 L 534.714844 346.277344 C 534.714844 339.789062 529.46875 334.5 522.9375 334.5 Z M 581.824219 334.5 C 575.289062 334.5 570.046875 339.789062 570.046875 346.277344 L 570.046875 369.832031 C 570.046875 376.316406 575.289062 381.609375 581.824219 381.609375 C 588.355469 381.609375 593.601562 376.316406 593.601562 369.832031 L 593.601562 346.277344 C 593.601562 339.789062 588.355469 334.5 581.824219 334.5 Z M 640.710938 334.5 C 634.175781 334.5 628.933594 339.789062 628.933594 346.277344 L 628.933594 369.832031 C 628.933594 376.316406 634.175781 381.609375 640.710938 381.609375 C 647.242188 381.609375 652.488281 376.316406 652.488281 369.832031 L 652.488281 346.277344 C 652.488281 339.789062 647.242188 334.5 640.710938 334.5 Z M 699.597656 334.5 C 693.0625 334.5 687.820312 339.789062 687.820312 346.277344 L 687.820312 369.832031 C 687.820312 376.316406 693.0625 381.609375 699.597656 381.609375 C 706.128906 381.609375 711.375 376.316406 711.375 369.832031 L 711.375 346.277344 C 711.375 339.789062 706.128906 334.5 699.597656 334.5 Z M 441.460938 499.382812 C 434.929688 499.382812 429.683594 504.671875 429.683594 511.160156 C 429.683594 517.644531 434.929688 522.9375 441.460938 522.9375 L 464.050781 522.9375 C 470.582031 522.9375 475.828125 517.644531 475.828125 511.160156 C 475.828125 504.671875 470.582031 499.382812 464.050781 499.382812 Z M 402.171875 593.601562 L 502.371094 593.601562 L 530.664062 687.820312 L 373.878906 687.820312 Z M 51.84375 617.15625 L 263.835938 617.15625 L 263.835938 652.488281 C 263.835938 671.902344 247.917969 687.820312 228.503906 687.820312 L 87.175781 687.820312 C 67.761719 687.820312 51.84375 671.902344 51.84375 652.488281 Z M 157.839844 628.933594 C 144.820312 628.933594 134.285156 639.46875 134.285156 652.488281 C 134.285156 665.507812 144.820312 676.042969 157.839844 676.042969 C 170.859375 676.042969 181.394531 665.507812 181.394531 652.488281 C 181.394531 639.46875 170.859375 628.933594 157.839844 628.933594 Z M 157.839844 628.933594 " fill-opacity="1" fill-rule="nonzero"/></g></svg>