<svg xmlns="http://www.w3.org/2000/svg" xmlns:xlink="http://www.w3.org/1999/xlink" width="1080" zoomAndPan="magnify" viewBox="0 0 810 809.999993" height="1080" preserveAspectRatio="xMidYMid meet" version="1.0"><path fill="#01062e" d="M 405.144531 50.417969 C 359.453125 50.417969 316.289062 72.636719 289.671875 109.859375 C 287 113.597656 282.515625 115.46875 277.988281 114.710938 C 270.289062 113.433594 262.417969 112.769531 254.59375 112.769531 C 216.707031 112.769531 181.085938 127.511719 154.316406 154.292969 C 122.011719 186.597656 107.214844 232.851562 114.710938 277.988281 C 115.457031 282.515625 113.597656 287 109.882812 289.671875 C 72.648438 316.289062 50.417969 359.453125 50.417969 405.144531 C 50.417969 450.832031 72.636719 494.007812 109.859375 520.613281 C 113.585938 523.285156 115.46875 527.769531 114.710938 532.300781 C 107.203125 577.445312 122 623.675781 154.316406 655.96875 C 181.097656 682.761719 216.707031 697.515625 254.59375 697.515625 C 262.40625 697.515625 270.277344 696.863281 277.988281 695.574219 C 282.527344 694.84375 287.011719 696.664062 289.671875 700.402344 C 316.289062 737.636719 359.453125 759.871094 405.144531 759.871094 C 450.832031 759.871094 493.996094 737.648438 520.613281 700.425781 C 523.285156 696.6875 527.78125 694.84375 532.300781 695.574219 C 539.996094 696.851562 547.867188 697.515625 555.695312 697.515625 C 593.578125 697.515625 629.199219 682.773438 655.96875 655.992188 C 688.273438 623.6875 703.070312 577.433594 695.574219 532.300781 C 694.832031 527.769531 696.6875 523.285156 700.402344 520.613281 C 737.636719 493.996094 759.871094 450.832031 759.871094 405.144531 C 759.871094 359.453125 737.648438 316.277344 700.425781 289.671875 C 696.699219 287 694.820312 282.515625 695.574219 277.988281 C 703.082031 232.839844 688.285156 186.609375 655.96875 154.316406 C 629.1875 127.523438 593.578125 112.769531 555.695312 112.769531 C 547.878906 112.769531 540.007812 113.421875 532.300781 114.710938 C 527.78125 115.457031 523.273438 113.621094 520.613281 109.882812 C 493.996094 72.648438 450.832031 50.417969 405.144531 50.417969 Z M 405.144531 74.066406 C 443.21875 74.066406 479.195312 92.597656 501.375 123.625 C 509.191406 134.550781 522.640625 140.292969 536.15625 138.035156 C 542.589844 136.972656 549.15625 136.417969 555.671875 136.417969 C 587.242188 136.417969 616.9375 148.726562 639.25 171.039062 C 666.160156 197.960938 678.503906 236.492188 672.25 274.128906 C 670.015625 287.632812 675.523438 300.953125 686.660156 308.910156 C 717.699219 331.09375 736.222656 367.070312 736.222656 405.144531 C 736.222656 443.21875 717.699219 479.183594 686.660156 501.375 C 675.546875 509.335938 670.015625 522.652344 672.25 536.15625 C 678.503906 573.792969 666.160156 612.324219 639.25 639.25 C 616.925781 661.574219 587.265625 673.867188 555.695312 673.867188 C 549.167969 673.867188 542.601562 673.316406 536.179688 672.25 C 522.664062 670.003906 509.214844 675.734375 501.398438 686.660156 C 479.207031 717.6875 443.21875 736.222656 405.144531 736.222656 C 367.070312 736.222656 331.09375 717.6875 308.910156 686.660156 C 302.242188 677.332031 291.441406 671.765625 280.019531 671.765625 C 278.066406 671.765625 276.105469 671.941406 274.128906 672.273438 C 267.699219 673.335938 261.128906 673.867188 254.613281 673.867188 C 223.042969 673.867188 193.351562 661.585938 171.039062 639.273438 C 144.125 612.347656 131.78125 573.792969 138.035156 536.15625 C 140.269531 522.652344 134.761719 509.335938 123.625 501.375 C 92.585938 479.183594 74.066406 443.21875 74.066406 405.144531 C 74.066406 367.070312 92.585938 331.105469 123.625 308.910156 C 134.738281 300.953125 140.269531 287.632812 138.035156 274.128906 C 131.78125 236.492188 144.125 197.960938 171.039062 171.039062 C 193.363281 148.714844 223.019531 136.417969 254.59375 136.417969 C 261.117188 136.417969 267.675781 136.972656 274.105469 138.035156 C 287.65625 140.304688 301.082031 134.550781 308.886719 123.625 C 331.082031 92.597656 367.070312 74.066406 405.144531 74.066406 Z M 405.144531 156.835938 C 398.605469 156.835938 393.320312 162.132812 393.320312 168.660156 L 393.320312 192.308594 C 393.320312 198.835938 398.605469 204.132812 405.144531 204.132812 C 411.683594 204.132812 416.96875 198.835938 416.96875 192.308594 L 416.96875 168.660156 C 416.96875 162.132812 411.683594 156.835938 405.144531 156.835938 Z M 345.558594 164.988281 C 344.039062 164.777344 342.449219 164.859375 340.871094 165.285156 C 334.570312 166.976562 330.820312 173.453125 332.511719 179.765625 L 338.632812 202.605469 C 340.039062 207.894531 344.8125 211.382812 350.039062 211.382812 C 351.058594 211.382812 352.082031 211.25 353.113281 210.96875 C 359.414062 209.277344 363.164062 202.800781 361.472656 196.488281 L 355.351562 173.648438 C 354.082031 168.910156 350.125 165.617188 345.558594 164.988281 Z M 464.75 164.988281 C 460.191406 165.621094 456.203125 168.910156 454.933594 173.648438 L 448.8125 196.488281 C 447.136719 202.800781 450.871094 209.277344 457.175781 210.96875 C 458.203125 211.238281 459.230469 211.382812 460.246094 211.382812 C 465.460938 211.382812 470.246094 207.894531 471.652344 202.605469 L 477.773438 179.765625 C 479.464844 173.464844 475.714844 166.976562 469.414062 165.285156 C 467.847656 164.863281 466.269531 164.777344 464.75 164.988281 Z M 285.421875 188.613281 C 283.902344 188.800781 282.394531 189.296875 280.988281 190.113281 C 275.324219 193.375 273.394531 200.605469 276.671875 206.257812 L 288.496094 226.742188 C 290.695312 230.535156 294.65625 232.652344 298.75 232.652344 C 300.757812 232.652344 302.78125 232.136719 304.636719 231.058594 C 310.300781 227.796875 312.230469 220.566406 308.957031 214.917969 L 297.132812 194.433594 C 294.675781 190.183594 289.988281 188.042969 285.421875 188.613281 Z M 524.839844 188.613281 C 520.265625 188.046875 515.601562 190.191406 513.15625 194.433594 L 501.332031 214.894531 C 498.066406 220.546875 499.996094 227.796875 505.648438 231.058594 C 507.503906 232.136719 509.527344 232.628906 511.539062 232.628906 C 515.628906 232.628906 519.605469 230.511719 521.792969 226.71875 L 533.617188 206.257812 C 536.890625 200.617188 534.960938 193.367188 529.296875 190.089844 C 527.882812 189.273438 526.363281 188.800781 524.839844 188.613281 Z M 237.917969 226.09375 C 234.894531 226.09375 231.871094 227.253906 229.558594 229.558594 C 224.933594 234.167969 224.933594 241.65625 229.558594 246.277344 L 246.277344 263 C 248.582031 265.304688 251.609375 266.460938 254.636719 266.460938 C 257.664062 266.460938 260.691406 265.304688 263 263 C 267.621094 258.375 267.621094 250.878906 263 246.253906 L 246.277344 229.558594 C 243.964844 227.253906 240.941406 226.09375 237.917969 226.09375 Z M 572.367188 226.09375 C 569.34375 226.09375 566.320312 227.253906 564.007812 229.558594 L 547.289062 246.277344 C 542.664062 250.902344 542.664062 258.398438 547.289062 263.023438 C 549.59375 265.316406 552.621094 266.460938 555.648438 266.460938 C 558.675781 266.460938 561.703125 265.316406 564.007812 263.023438 L 580.726562 246.300781 C 585.351562 241.679688 585.351562 234.179688 580.726562 229.558594 C 578.417969 227.246094 575.390625 226.09375 572.367188 226.09375 Z M 201.796875 275.144531 C 197.222656 274.574219 192.5625 276.742188 190.113281 280.988281 C 186.835938 286.640625 188.769531 293.867188 194.433594 297.132812 L 214.894531 308.957031 C 216.75 310.03125 218.796875 310.550781 220.804688 310.550781 C 224.898438 310.550781 228.871094 308.433594 231.058594 304.636719 C 234.324219 298.984375 232.371094 291.757812 226.71875 288.496094 L 206.257812 276.671875 C 204.839844 275.847656 203.324219 275.335938 201.796875 275.144531 Z M 608.464844 275.144531 C 606.941406 275.335938 605.4375 275.847656 604.03125 276.671875 L 583.570312 288.496094 C 577.90625 291.757812 575.953125 298.984375 579.226562 304.636719 C 581.425781 308.433594 585.390625 310.550781 589.480469 310.550781 C 591.492188 310.550781 593.535156 310.03125 595.394531 308.957031 L 615.855469 297.132812 C 621.519531 293.867188 623.449219 286.640625 620.171875 280.988281 C 617.714844 276.742188 613.03125 274.574219 608.464844 275.144531 Z M 534.976562 310.433594 C 533.441406 310.480469 531.972656 310.8125 530.566406 311.429688 C 529.160156 312.050781 527.921875 312.910156 526.847656 314.011719 L 369.671875 471.191406 L 307.085938 408.605469 C 306.539062 408.039062 305.945312 407.53125 305.296875 407.082031 C 304.652344 406.632812 303.96875 406.253906 303.246094 405.941406 C 302.523438 405.628906 301.777344 405.394531 301.007812 405.230469 C 300.238281 405.066406 299.460938 404.980469 298.675781 404.972656 C 297.890625 404.964844 297.109375 405.035156 296.335938 405.183594 C 295.5625 405.328125 294.8125 405.550781 294.085938 405.847656 C 293.355469 406.148438 292.664062 406.511719 292.011719 406.949219 C 291.355469 407.382812 290.75 407.878906 290.191406 408.433594 C 289.636719 408.992188 289.140625 409.597656 288.707031 410.253906 C 288.269531 410.90625 287.90625 411.597656 287.605469 412.328125 C 287.308594 413.054688 287.085938 413.804688 286.941406 414.578125 C 286.792969 415.351562 286.722656 416.132812 286.730469 416.917969 C 286.738281 417.703125 286.824219 418.480469 286.988281 419.25 C 287.152344 420.019531 287.386719 420.765625 287.699219 421.488281 C 288.011719 422.210938 288.390625 422.894531 288.839844 423.542969 C 289.289062 424.1875 289.796875 424.78125 290.363281 425.328125 L 361.308594 496.273438 C 361.859375 496.820312 362.457031 497.3125 363.101562 497.742188 C 363.746094 498.171875 364.429688 498.539062 365.144531 498.835938 C 365.863281 499.132812 366.601562 499.355469 367.363281 499.507812 C 368.125 499.660156 368.894531 499.734375 369.671875 499.734375 C 370.445312 499.734375 371.214844 499.660156 371.976562 499.507812 C 372.738281 499.355469 373.476562 499.132812 374.195312 498.835938 C 374.910156 498.539062 375.59375 498.171875 376.238281 497.742188 C 376.882812 497.3125 377.480469 496.820312 378.03125 496.273438 L 543.570312 330.734375 C 544.425781 329.902344 545.136719 328.964844 545.707031 327.917969 C 546.277344 326.875 546.679688 325.765625 546.917969 324.597656 C 547.152344 323.429688 547.210938 322.253906 547.09375 321.070312 C 546.972656 319.882812 546.683594 318.742188 546.21875 317.644531 C 545.753906 316.546875 545.136719 315.542969 544.367188 314.632812 C 543.601562 313.722656 542.714844 312.945312 541.714844 312.300781 C 540.710938 311.65625 539.636719 311.175781 538.488281 310.859375 C 537.339844 310.539062 536.167969 310.398438 534.976562 310.433594 Z M 635.207031 332.210938 C 633.683594 332 632.105469 332.085938 630.519531 332.511719 L 607.679688 338.632812 C 601.375 340.335938 597.628906 346.808594 599.320312 353.113281 C 600.726562 358.398438 605.5 361.886719 610.726562 361.886719 C 611.746094 361.886719 612.769531 361.753906 613.800781 361.472656 L 636.640625 355.351562 C 642.941406 353.660156 646.691406 347.1875 645 340.871094 C 643.730469 336.136719 639.777344 332.84375 635.207031 332.210938 Z M 175.101562 332.234375 C 170.539062 332.867188 166.578125 336.136719 165.308594 340.871094 C 163.621094 347.175781 167.367188 353.648438 173.671875 355.351562 L 196.511719 361.496094 C 197.539062 361.765625 198.566406 361.910156 199.582031 361.910156 C 204.796875 361.910156 209.582031 358.421875 210.992188 353.136719 C 212.679688 346.832031 208.933594 340.347656 202.628906 338.65625 L 179.789062 332.511719 C 178.214844 332.089844 176.625 332.023438 175.101562 332.234375 Z M 168.660156 393.320312 C 162.121094 393.320312 156.835938 398.617188 156.835938 405.144531 C 156.835938 411.671875 162.121094 416.96875 168.660156 416.96875 L 192.308594 416.96875 C 198.847656 416.96875 204.132812 411.671875 204.132812 405.144531 C 204.132812 398.617188 198.847656 393.320312 192.308594 393.320312 Z M 617.980469 393.320312 C 611.441406 393.320312 606.15625 398.617188 606.15625 405.144531 C 606.15625 411.671875 611.441406 416.96875 617.980469 416.96875 L 641.628906 416.96875 C 648.167969 416.96875 653.453125 411.671875 653.453125 405.144531 C 653.453125 398.617188 648.167969 393.320312 641.628906 393.320312 Z M 201.175781 448.515625 C 199.652344 448.300781 198.066406 448.394531 196.488281 448.8125 L 173.648438 454.933594 C 167.34375 456.625 163.597656 463.101562 165.285156 469.414062 C 166.695312 474.699219 171.46875 478.191406 176.695312 478.191406 C 177.710938 478.191406 178.738281 478.058594 179.765625 477.773438 L 202.605469 471.65625 C 208.910156 469.953125 212.65625 463.476562 210.96875 457.175781 C 209.699219 452.4375 205.742188 449.148438 201.175781 448.515625 Z M 609.109375 448.515625 C 604.550781 449.152344 600.5625 452.414062 599.296875 457.152344 C 597.605469 463.453125 601.355469 469.941406 607.65625 471.632812 L 630.496094 477.773438 C 631.523438 478.046875 632.550781 478.191406 633.566406 478.191406 C 638.78125 478.191406 643.570312 474.699219 644.976562 469.414062 C 646.667969 463.113281 642.917969 456.636719 636.617188 454.933594 L 613.777344 448.792969 C 612.210938 448.375 610.628906 448.300781 609.109375 448.515625 Z M 219.351562 499.828125 C 217.828125 500.019531 216.300781 500.511719 214.894531 501.332031 L 194.433594 513.15625 C 188.769531 516.417969 186.835938 523.644531 190.113281 529.296875 C 192.3125 533.09375 196.277344 535.210938 200.367188 535.210938 C 202.378906 535.210938 204.398438 534.691406 206.257812 533.617188 L 226.71875 521.792969 C 232.382812 518.527344 234.335938 511.300781 231.058594 505.648438 C 228.601562 501.402344 223.917969 499.257812 219.351562 499.828125 Z M 590.9375 499.828125 C 586.363281 499.257812 581.675781 501.402344 579.226562 505.648438 C 575.964844 511.300781 577.917969 518.527344 583.570312 521.792969 L 604.03125 533.617188 C 605.898438 534.691406 607.910156 535.210938 609.917969 535.210938 C 614.011719 535.210938 617.984375 533.09375 620.171875 529.296875 C 623.449219 523.644531 621.519531 516.417969 615.855469 513.15625 L 595.394531 501.332031 C 593.980469 500.511719 592.460938 500.019531 590.9375 499.828125 Z M 254.636719 543.824219 C 251.613281 543.820312 248.589844 544.980469 246.277344 547.289062 L 229.558594 564.007812 C 224.933594 568.632812 224.933594 576.105469 229.558594 580.726562 C 231.863281 583.035156 234.890625 584.191406 237.917969 584.191406 C 240.945312 584.191406 243.972656 583.046875 246.277344 580.75 L 263 564.03125 C 267.621094 559.40625 267.621094 551.910156 263 547.289062 C 260.6875 544.976562 257.664062 543.824219 254.636719 543.824219 Z M 555.648438 543.824219 C 552.625 543.824219 549.597656 544.980469 547.289062 547.289062 C 542.664062 551.898438 542.664062 559.382812 547.289062 564.007812 L 564.007812 580.726562 C 566.3125 583.035156 569.339844 584.191406 572.367188 584.191406 C 575.394531 584.191406 578.421875 583.035156 580.726562 580.726562 C 585.351562 576.105469 585.351562 568.609375 580.726562 563.984375 L 564.007812 547.289062 C 561.695312 544.980469 558.671875 543.824219 555.648438 543.824219 Z M 300.179688 577.726562 C 295.605469 577.160156 290.941406 579.304688 288.496094 583.546875 L 276.671875 604.03125 C 273.40625 609.683594 275.335938 616.910156 280.988281 620.171875 C 282.84375 621.25 284.867188 621.765625 286.878906 621.765625 C 290.96875 621.765625 294.945312 619.648438 297.132812 615.855469 L 308.957031 595.371094 C 312.230469 589.71875 310.300781 582.503906 304.636719 579.226562 C 303.222656 578.410156 301.703125 577.914062 300.179688 577.726562 Z M 510.082031 577.726562 C 508.558594 577.917969 507.054688 578.40625 505.648438 579.226562 C 499.984375 582.492188 498.054688 589.71875 501.332031 595.371094 L 513.15625 615.855469 C 515.355469 619.648438 519.316406 621.765625 523.410156 621.765625 C 525.417969 621.765625 527.441406 621.25 529.296875 620.171875 C 534.960938 616.910156 536.890625 609.683594 533.617188 604.03125 L 521.792969 583.546875 C 519.34375 579.296875 514.652344 577.15625 510.082031 577.726562 Z M 348.445312 599.019531 C 343.886719 599.65625 339.898438 602.945312 338.632812 607.679688 L 332.511719 630.519531 C 330.820312 636.820312 334.570312 643.308594 340.871094 645 C 341.902344 645.269531 342.925781 645.414062 343.945312 645.414062 C 349.15625 645.414062 353.945312 641.925781 355.351562 636.640625 L 361.472656 613.800781 C 363.152344 607.484375 359.414062 601.011719 353.113281 599.320312 C 351.542969 598.902344 349.96875 598.804688 348.445312 599.019531 Z M 461.863281 599.019531 C 460.339844 598.808594 458.753906 598.898438 457.175781 599.320312 C 450.871094 601.011719 447.125 607.484375 448.8125 613.800781 L 454.933594 636.640625 C 456.339844 641.925781 461.117188 645.414062 466.34375 645.414062 C 467.359375 645.414062 468.386719 645.28125 469.414062 645 C 475.714844 643.308594 479.464844 636.832031 477.773438 630.519531 L 471.652344 607.679688 C 470.386719 602.945312 466.429688 599.652344 461.863281 599.019531 Z M 405.144531 606.15625 C 398.605469 606.15625 393.320312 611.453125 393.320312 617.980469 L 393.320312 641.628906 C 393.320312 648.15625 398.605469 653.453125 405.144531 653.453125 C 411.683594 653.453125 416.96875 648.15625 416.96875 641.628906 L 416.96875 617.980469 C 416.96875 611.453125 411.683594 606.15625 405.144531 606.15625 Z M 405.144531 606.15625 " fill-opacity="1" fill-rule="nonzero"/></svg>