<svg xmlns="http://www.w3.org/2000/svg" xmlns:xlink="http://www.w3.org/1999/xlink" width="1080" zoomAndPan="magnify" viewBox="0 0 810 809.999993" height="1080" preserveAspectRatio="xMidYMid meet" version="1.0"><defs><clipPath id="2a646c7f92"><path d="M 40.5 40.5 L 769.5 40.5 L 769.5 769.5 L 40.5 769.5 Z M 40.5 40.5 " clip-rule="nonzero"/></clipPath></defs><path fill="#000000" d="M 137.699219 635.851562 L 162 635.851562 L 162 587.25 L 137.699219 587.25 Z M 137.699219 635.851562 " fill-opacity="1" fill-rule="nonzero"/><g clip-path="url(#2a646c7f92)"><path fill="#000000" d="M 757.351562 210.601562 C 764.058594 210.601562 769.5 205.15625 769.5 198.449219 L 769.5 101.25 C 769.5 94.542969 764.058594 89.101562 757.351562 89.101562 L 757.351562 64.800781 C 757.308594 51.390625 746.457031 40.539062 733.050781 40.5 L 76.949219 40.5 C 63.542969 40.539062 52.691406 51.390625 52.648438 64.800781 L 52.648438 89.101562 C 45.941406 89.101562 40.5 94.542969 40.5 101.25 L 40.5 198.449219 C 40.5 205.15625 45.941406 210.601562 52.648438 210.601562 L 52.648438 745.199219 L 40.5 745.199219 L 40.5 769.5 L 769.5 769.5 L 769.5 745.199219 L 757.351562 745.199219 Z M 76.949219 64.800781 L 733.050781 64.800781 L 733.050781 89.101562 L 76.949219 89.101562 Z M 247.050781 745.199219 L 125.550781 745.199219 L 125.550781 502.199219 L 247.050781 502.199219 Z M 247.050781 477.898438 L 125.550781 477.898438 L 125.550781 465.75 L 247.050781 465.75 Z M 247.050781 441.449219 L 125.550781 441.449219 L 125.550781 429.300781 L 247.050781 429.300781 Z M 733.050781 745.199219 L 271.351562 745.199219 L 271.351562 417.148438 C 271.351562 410.441406 265.90625 405 259.199219 405 L 113.398438 405 C 106.691406 405 101.25 410.441406 101.25 417.148438 L 101.25 745.199219 L 76.949219 745.199219 L 76.949219 319.585938 C 87.382812 327.664062 100.207031 332.0625 113.398438 332.101562 C 132.589844 332.027344 150.609375 322.878906 162 307.4375 C 173.34375 322.941406 191.394531 332.101562 210.601562 332.101562 C 229.804688 332.101562 247.855469 322.941406 259.199219 307.4375 C 270.542969 322.941406 288.59375 332.101562 307.800781 332.101562 C 327.003906 332.101562 345.058594 322.941406 356.398438 307.4375 C 367.742188 322.941406 385.792969 332.101562 405 332.101562 C 424.207031 332.101562 442.257812 322.941406 453.601562 307.4375 C 464.941406 322.941406 482.992188 332.101562 502.199219 332.101562 C 521.40625 332.101562 539.457031 322.941406 550.800781 307.4375 C 562.144531 322.941406 580.195312 332.101562 599.398438 332.101562 C 618.605469 332.101562 636.65625 322.941406 648 307.4375 C 659.390625 322.878906 677.410156 332.027344 696.601562 332.101562 C 709.792969 332.0625 722.617188 327.664062 733.050781 319.585938 Z M 76.949219 271.351562 L 76.949219 210.601562 L 149.851562 210.601562 L 149.851562 271.351562 C 149.851562 291.480469 133.53125 307.800781 113.398438 307.800781 C 93.269531 307.800781 76.949219 291.480469 76.949219 271.351562 Z M 174.148438 271.351562 L 174.148438 210.601562 L 247.050781 210.601562 L 247.050781 271.351562 C 247.050781 291.480469 230.730469 307.800781 210.601562 307.800781 C 190.46875 307.800781 174.148438 291.480469 174.148438 271.351562 Z M 271.351562 271.351562 L 271.351562 210.601562 L 344.25 210.601562 L 344.25 271.351562 C 344.25 291.480469 327.929688 307.800781 307.800781 307.800781 C 287.667969 307.800781 271.351562 291.480469 271.351562 271.351562 Z M 368.550781 271.351562 L 368.550781 210.601562 L 441.449219 210.601562 L 441.449219 271.351562 C 441.449219 291.480469 425.132812 307.800781 405 307.800781 C 384.867188 307.800781 368.550781 291.480469 368.550781 271.351562 Z M 465.75 271.351562 L 465.75 210.601562 L 538.648438 210.601562 L 538.648438 271.351562 C 538.648438 291.480469 522.332031 307.800781 502.199219 307.800781 C 482.070312 307.800781 465.75 291.480469 465.75 271.351562 Z M 562.949219 271.351562 L 562.949219 210.601562 L 635.851562 210.601562 L 635.851562 271.351562 C 635.851562 291.480469 619.53125 307.800781 599.398438 307.800781 C 579.269531 307.800781 562.949219 291.480469 562.949219 271.351562 Z M 733.050781 271.351562 C 733.050781 291.480469 716.730469 307.800781 696.601562 307.800781 C 676.46875 307.800781 660.148438 291.480469 660.148438 271.351562 L 660.148438 210.601562 L 733.050781 210.601562 Z M 745.199219 186.300781 L 64.800781 186.300781 L 64.800781 113.398438 L 745.199219 113.398438 Z M 745.199219 186.300781 " fill-opacity="1" fill-rule="nonzero"/></g><path fill="#000000" d="M 696.601562 356.398438 L 307.800781 356.398438 C 301.09375 356.398438 295.648438 361.84375 295.648438 368.550781 L 295.648438 708.75 C 295.648438 715.457031 301.09375 720.898438 307.800781 720.898438 L 696.601562 720.898438 C 703.308594 720.898438 708.75 715.457031 708.75 708.75 L 708.75 368.550781 C 708.75 361.84375 703.308594 356.398438 696.601562 356.398438 Z M 684.449219 696.601562 L 319.949219 696.601562 L 319.949219 380.699219 L 684.449219 380.699219 Z M 684.449219 696.601562 " fill-opacity="1" fill-rule="nonzero"/><path fill="#000000" d="M 417.757812 683.808594 C 447.890625 683.9375 473.476562 661.773438 477.65625 631.925781 L 540.304688 569.277344 C 571.675781 574.917969 603.570312 562.507812 622.878906 537.148438 C 642.1875 511.78125 645.667969 477.742188 631.878906 448.996094 C 629.988281 445.128906 626.191406 442.550781 621.90625 442.21875 C 618.28125 441.941406 614.722656 443.269531 612.183594 445.863281 L 572.425781 485.628906 L 555.222656 468.425781 L 594.84375 428.816406 C 597.785156 426.082031 599.195312 422.070312 598.601562 418.097656 C 598.007812 414.128906 595.484375 410.710938 591.871094 408.964844 C 563.125 395.183594 529.078125 398.664062 503.71875 417.972656 C 478.359375 437.28125 465.949219 469.175781 471.578125 500.546875 L 408.9375 563.195312 C 377.503906 567.816406 354.96875 595.910156 357.285156 627.601562 C 359.605469 659.289062 385.984375 683.808594 417.757812 683.808594 Z M 391.988281 597.3125 C 398.253906 591.140625 406.550781 587.449219 415.332031 586.933594 C 418.257812 586.734375 421.019531 585.476562 423.089844 583.398438 L 493.453125 513.039062 C 496.511719 509.976562 497.714844 505.523438 496.609375 501.339844 C 491.703125 483.105469 495.554688 463.628906 507.03125 448.648438 C 518.519531 433.660156 536.316406 424.871094 555.199219 424.863281 C 558.078125 424.863281 560.949219 425.078125 563.804688 425.488281 L 529.449219 459.832031 C 524.710938 464.578125 524.710938 472.269531 529.449219 477.015625 L 563.835938 511.398438 C 568.582031 516.136719 576.269531 516.136719 581.015625 511.398438 L 615.363281 477.046875 C 618.257812 497.242188 610.804688 517.539062 595.539062 531.0625 C 580.265625 544.589844 559.222656 549.542969 539.527344 544.242188 C 535.335938 543.128906 530.875 544.328125 527.8125 547.398438 L 457.453125 617.769531 C 455.378906 619.839844 454.121094 622.59375 453.925781 625.511719 C 453.125 637.417969 446.527344 648.167969 436.285156 654.28125 C 426.03125 660.394531 413.441406 661.097656 402.578125 656.15625 C 391.726562 651.210938 383.976562 641.253906 381.863281 629.515625 C 379.742188 617.777344 383.515625 605.734375 391.964844 597.3125 Z M 391.988281 597.3125 " fill-opacity="1" fill-rule="nonzero"/><path fill="#000000" d="M 441.449219 623.699219 C 441.449219 637.125 430.574219 648 417.148438 648 C 403.726562 648 392.851562 637.125 392.851562 623.699219 C 392.851562 610.277344 403.726562 599.398438 417.148438 599.398438 C 430.574219 599.398438 441.449219 610.277344 441.449219 623.699219 Z M 441.449219 623.699219 " fill-opacity="1" fill-rule="nonzero"/></svg>