<svg xmlns="http://www.w3.org/2000/svg" xmlns:xlink="http://www.w3.org/1999/xlink" width="1080" zoomAndPan="magnify" viewBox="0 0 810 809.999993" height="1080" preserveAspectRatio="xMidYMid meet" version="1.0"><path fill="#000000" d="M 620.800781 50.644531 C 618.21875 50.734375 615.683594 51.757812 613.679688 53.714844 L 557.304688 106.574219 C 481.753906 63.503906 394.054688 51.980469 309.914062 74.09375 C 224.484375 96.429688 152.9375 150.757812 108.398438 226.84375 C 63.859375 303.0625 51.667969 392.007812 74.09375 477.304688 C 95.851562 560.6875 148.265625 630.855469 221.503906 675.527344 L 185.375 741.601562 C 182.792969 746.496094 184.039062 752.636719 188.445312 756.0625 C 190.535156 757.664062 192.894531 758.464844 195.386719 758.464844 C 198.234375 758.464844 200.992188 757.441406 203.171875 755.484375 L 265.332031 698.175781 C 306 715.261719 349.292969 724.070312 393.03125 724.070312 C 421.152344 724.070312 449.40625 720.421875 477.304688 713.125 C 562.734375 690.789062 634.28125 636.460938 678.820312 560.375 C 723.359375 484.15625 735.550781 395.210938 713.125 309.914062 C 694.570312 239.035156 653.992188 177.632812 597.261719 133.582031 L 631.566406 67.152344 C 634.058594 62.257812 632.679688 56.207031 628.230469 52.914062 C 626.050781 51.269531 623.378906 50.511719 620.800781 50.644531 Z M 394.1875 85.972656 C 444.644531 85.972656 494.523438 98.476562 539.863281 122.992188 L 284.285156 362.507812 C 280.859375 365.710938 279.703125 370.695312 281.4375 375.054688 C 283.128906 379.371094 287.355469 382.21875 291.984375 382.21875 L 334.699219 382.21875 L 225.953125 523.355469 C 223.328125 526.78125 222.882812 531.410156 224.707031 535.28125 C 226.621094 539.195312 230.625 541.6875 234.941406 541.6875 L 294.742188 541.6875 L 265.464844 595.304688 C 214.296875 562.824219 177.675781 513.121094 162.238281 454.300781 C 146.042969 392.453125 154.851562 328.070312 187.109375 272.894531 C 219.367188 217.722656 271.160156 178.433594 332.964844 162.238281 C 350.9375 157.519531 369.402344 154.894531 387.78125 154.40625 C 394.054688 154.273438 399.039062 149.023438 398.902344 142.75 C 398.726562 136.476562 393.429688 131.226562 387.203125 131.625 C 367.046875 132.160156 346.84375 135.050781 327.179688 140.167969 C 259.503906 157.921875 202.773438 200.992188 167.441406 261.371094 C 132.113281 321.796875 122.460938 392.363281 140.167969 460.039062 C 157.210938 524.957031 197.789062 579.820312 254.476562 615.371094 L 232.539062 655.460938 C 199.613281 635.4375 171.269531 609.675781 148.488281 579.597656 C 124.328125 547.828125 106.574219 511.386719 96.117188 471.609375 C 75.25 392.140625 86.640625 309.292969 128.066406 238.367188 C 169.535156 167.488281 236.1875 116.941406 315.609375 96.117188 C 341.683594 89.265625 367.980469 85.972656 394.1875 85.972656 Z M 581.109375 115.429688 L 578.707031 120.144531 L 568.207031 140.523438 L 544.402344 186.621094 L 537.816406 199.390625 L 487.359375 297.234375 C 485.535156 300.75 485.625 304.976562 487.714844 308.402344 C 489.761719 311.828125 493.5 313.875 497.503906 313.875 L 552.054688 314.007812 L 445.980469 432.097656 C 443.042969 435.433594 442.242188 440.195312 444.15625 444.289062 C 445.980469 448.382812 449.984375 451.007812 454.523438 451.007812 L 499.996094 451.007812 L 261.148438 671.210938 L 243.128906 687.71875 L 238.722656 691.8125 L 241.4375 686.785156 L 252.339844 666.851562 L 324.019531 535.769531 C 325.976562 532.253906 325.84375 527.894531 323.796875 524.46875 C 321.707031 521.085938 317.96875 518.90625 314.007812 518.90625 L 258.035156 518.90625 L 366.957031 377.769531 C 369.582031 374.34375 370.027344 369.714844 368.113281 365.84375 C 366.289062 361.929688 362.285156 359.4375 357.96875 359.4375 L 320.816406 359.4375 L 560.152344 135.183594 L 577.238281 119.078125 Z M 438.816406 135.496094 C 432.585938 134.429688 426.757812 138.566406 425.644531 144.75 C 424.53125 150.9375 428.714844 156.855469 434.898438 157.964844 C 443.265625 159.433594 451.675781 161.347656 459.863281 163.707031 C 460.929688 164.015625 461.996094 164.195312 463.019531 164.195312 C 468.003906 164.195312 472.5 160.945312 473.964844 155.964844 C 475.703125 149.914062 472.230469 143.59375 466.179688 141.859375 C 457.191406 139.234375 448.027344 137.097656 438.816406 135.496094 Z M 586.671875 154.183594 C 637.707031 195.207031 674.28125 251.226562 691.144531 315.609375 C 711.96875 395.078125 700.578125 477.925781 659.152344 548.851562 C 617.683594 619.730469 551.03125 670.277344 471.609375 691.144531 C 408.648438 707.519531 343.597656 703.914062 284.019531 681 L 536.882812 448.070312 C 540.308594 444.867188 541.464844 439.839844 539.730469 435.523438 C 538.171875 431.207031 533.945312 428.226562 529.183594 428.226562 L 480.0625 428.226562 L 586.003906 310.226562 C 588.984375 306.800781 589.742188 302.039062 587.960938 297.902344 C 586.136719 293.808594 582 291.226562 577.59375 291.226562 L 516.191406 291.09375 L 554.546875 216.699219 C 637.128906 291.804688 657.195312 416.613281 600.242188 514.101562 C 597.039062 519.574219 598.863281 526.515625 604.335938 529.71875 C 606.160156 530.742188 608.074219 531.1875 610.03125 531.1875 C 614.035156 531.1875 617.773438 529.273438 619.953125 525.625 C 683.359375 416.96875 659.597656 277.300781 565.269531 195.742188 Z M 551.34375 557.039062 C 548.40625 557.039062 545.515625 558.105469 543.289062 560.332031 C 538.796875 564.734375 538.75 571.945312 543.15625 576.4375 L 559.175781 592.632812 C 561.398438 594.902344 564.335938 596.015625 567.273438 596.015625 C 570.164062 596.015625 573.054688 594.902344 575.28125 592.722656 C 579.773438 588.316406 579.773438 581.109375 575.371094 576.617188 L 559.351562 560.417969 C 557.171875 558.195312 554.28125 557.039062 551.34375 557.039062 Z M 503.734375 592.144531 C 502.265625 592.324219 500.796875 592.765625 499.417969 593.566406 C 493.945312 596.683594 492.074219 603.625 495.191406 609.097656 L 506.449219 628.898438 C 508.539062 632.589844 512.367188 634.636719 516.371094 634.636719 C 518.285156 634.636719 520.195312 634.148438 521.976562 633.167969 C 527.449219 630.054688 529.363281 623.066406 526.246094 617.640625 L 514.992188 597.796875 C 512.632812 593.703125 508.136719 591.609375 503.734375 592.144531 Z M 453.007812 614.082031 C 451.542969 613.859375 450.027344 613.945312 448.472656 614.347656 C 442.421875 615.949219 438.769531 622.179688 440.375 628.230469 L 446.113281 650.300781 C 447.492188 655.414062 452.074219 658.796875 457.148438 658.796875 C 458.125 658.796875 459.0625 658.664062 460.039062 658.441406 C 466.136719 656.839844 469.785156 650.609375 468.183594 644.515625 L 462.398438 622.488281 C 461.195312 617.90625 457.414062 614.703125 453.007812 614.082031 Z M 393.832031 621.242188 C 387.601562 621.242188 382.484375 626.273438 382.441406 632.589844 L 382.351562 655.371094 C 382.308594 661.644531 387.378906 666.761719 393.652344 666.804688 L 393.742188 666.804688 C 400.015625 666.804688 405.089844 661.734375 405.132812 655.460938 L 405.222656 632.679688 C 405.265625 626.40625 400.195312 621.242188 393.921875 621.242188 Z M 393.832031 621.242188 " fill-opacity="1" fill-rule="nonzero"/></svg>