<svg xmlns="http://www.w3.org/2000/svg" xmlns:xlink="http://www.w3.org/1999/xlink" width="1080" zoomAndPan="magnify" viewBox="0 0 810 809.999993" height="1080" preserveAspectRatio="xMidYMid meet" version="1.0"><defs><clipPath id="3f5764e085"><path d="M 96 25.382812 L 714 25.382812 L 714 737 L 96 737 Z M 96 25.382812 " clip-rule="nonzero"/></clipPath></defs><g clip-path="url(#3f5764e085)"><path fill="#01062e" d="M 393.023438 25.382812 C 268.777344 25.382812 167.695312 126.464844 167.695312 250.710938 L 167.695312 310.007812 L 132.117188 310.007812 C 112.523438 310.007812 96.539062 325.992188 96.539062 345.585938 L 96.539062 701.367188 C 96.539062 720.964844 112.523438 736.945312 132.117188 736.945312 L 677.648438 736.945312 C 697.246094 736.945312 713.226562 720.964844 713.226562 701.367188 L 713.226562 345.585938 C 713.226562 325.992188 697.246094 310.007812 677.648438 310.007812 L 642.070312 310.007812 L 642.070312 250.710938 C 642.070312 126.464844 540.988281 25.382812 416.742188 25.382812 Z M 393.023438 49.101562 L 416.742188 49.101562 C 420.773438 49.101562 424.664062 49.472656 428.601562 49.703125 L 428.601562 97.140625 C 424.664062 96.816406 420.773438 96.539062 416.742188 96.539062 L 393.023438 96.539062 C 388.996094 96.539062 385.101562 96.816406 381.164062 97.140625 L 381.164062 49.703125 C 385.101562 49.472656 388.996094 49.101562 393.023438 49.101562 Z M 357.445312 52.4375 L 357.445312 100.847656 C 289.578125 116.96875 238.851562 177.980469 238.851562 250.710938 L 238.851562 310.007812 L 191.414062 310.007812 L 191.414062 250.710938 C 191.414062 151.714844 263.21875 69.300781 357.445312 52.4375 Z M 452.320312 52.4375 C 546.546875 69.300781 618.351562 151.714844 618.351562 250.710938 L 618.351562 310.007812 L 570.914062 310.007812 L 570.914062 250.710938 C 570.914062 177.980469 520.1875 116.96875 452.320312 100.847656 Z M 393.023438 120.257812 L 416.742188 120.257812 C 488.6875 120.257812 547.195312 178.769531 547.195312 250.710938 L 547.195312 310.007812 L 262.570312 310.007812 L 262.570312 250.710938 C 262.570312 178.769531 321.082031 120.257812 393.023438 120.257812 Z M 132.117188 333.726562 L 677.648438 333.726562 C 684.179688 333.726562 689.507812 339.054688 689.507812 345.585938 L 689.507812 701.367188 C 689.507812 707.898438 684.179688 713.226562 677.648438 713.226562 L 132.117188 713.226562 C 125.585938 713.226562 120.257812 707.898438 120.257812 701.367188 L 120.257812 345.585938 C 120.257812 339.054688 125.585938 333.726562 132.117188 333.726562 Z M 522.550781 393.023438 C 517.917969 393.394531 513.796875 396.453125 512.21875 401.132812 C 510.136719 407.339844 513.519531 414.054688 519.726562 416.140625 L 547.195312 425.265625 L 547.195312 487.898438 L 535.335938 487.898438 C 528.804688 487.898438 523.476562 493.179688 523.476562 499.757812 C 523.476562 506.335938 528.804688 511.617188 535.335938 511.617188 L 547.195312 511.617188 L 547.195312 574.25 L 519.726562 583.375 C 513.519531 585.460938 510.183594 592.179688 512.21875 598.386719 C 513.886719 603.34375 518.519531 606.492188 523.476562 606.492188 C 524.726562 606.492188 525.980469 606.261719 527.230469 605.890625 L 559.054688 595.28125 L 590.882812 605.890625 C 592.132812 606.308594 593.382812 606.492188 594.632812 606.492188 C 599.589844 606.492188 604.222656 603.34375 605.890625 598.386719 C 607.976562 592.179688 604.59375 585.460938 598.386719 583.375 L 570.914062 574.25 L 570.914062 511.617188 L 582.773438 511.617188 C 589.304688 511.617188 594.632812 506.335938 594.632812 499.757812 C 594.632812 493.179688 589.304688 487.898438 582.773438 487.898438 L 570.914062 487.898438 L 570.914062 425.265625 L 598.386719 416.140625 C 604.59375 414.054688 607.929688 407.339844 605.890625 401.132812 C 603.804688 394.925781 597.136719 391.542969 590.882812 393.625 L 559.054688 404.234375 L 527.230469 393.625 C 525.65625 393.117188 524.078125 392.933594 522.550781 393.023438 Z M 238.851562 476.039062 C 225.742188 476.039062 215.132812 486.648438 215.132812 499.757812 C 215.132812 512.867188 225.742188 523.476562 238.851562 523.476562 C 251.960938 523.476562 262.570312 512.867188 262.570312 499.757812 C 262.570312 486.648438 251.960938 476.039062 238.851562 476.039062 Z M 345.585938 476.039062 C 332.476562 476.039062 321.867188 486.648438 321.867188 499.757812 C 321.867188 512.867188 332.476562 523.476562 345.585938 523.476562 C 358.695312 523.476562 369.304688 512.867188 369.304688 499.757812 C 369.304688 486.648438 358.695312 476.039062 345.585938 476.039062 Z M 452.320312 476.039062 C 439.210938 476.039062 428.601562 486.648438 428.601562 499.757812 C 428.601562 512.867188 439.210938 523.476562 452.320312 523.476562 C 465.429688 523.476562 476.039062 512.867188 476.039062 499.757812 C 476.039062 486.648438 465.429688 476.039062 452.320312 476.039062 Z M 155.835938 665.789062 C 149.304688 665.789062 143.976562 671.070312 143.976562 677.648438 C 143.976562 684.226562 149.304688 689.507812 155.835938 689.507812 L 559.054688 689.507812 C 565.585938 689.507812 570.914062 684.226562 570.914062 677.648438 C 570.914062 671.070312 565.585938 665.789062 559.054688 665.789062 Z M 606.492188 665.789062 C 599.960938 665.789062 594.632812 671.070312 594.632812 677.648438 C 594.632812 684.226562 599.960938 689.507812 606.492188 689.507812 L 653.929688 689.507812 C 660.460938 689.507812 665.789062 684.226562 665.789062 677.648438 C 665.789062 671.070312 660.460938 665.789062 653.929688 665.789062 Z M 606.492188 665.789062 " fill-opacity="1" fill-rule="nonzero"/></g></svg>