<svg xmlns="http://www.w3.org/2000/svg" xmlns:xlink="http://www.w3.org/1999/xlink" width="1080" zoomAndPan="magnify" viewBox="0 0 810 809.999993" height="1080" preserveAspectRatio="xMidYMid meet" version="1.0"><defs><clipPath id="d2b13614ab"><path d="M 96 75.726562 L 714 75.726562 L 714 734.226562 L 96 734.226562 Z M 96 75.726562 " clip-rule="nonzero"/></clipPath></defs><g clip-path="url(#d2b13614ab)"><path fill="#01062e" d="M 312.375 75.726562 C 289.890625 75.726562 270.914062 82.039062 255.925781 90.359375 C 255.335938 90.6875 254.785156 91.070312 254.269531 91.507812 C 253.753906 91.945312 253.285156 92.425781 252.867188 92.957031 C 252.445312 93.488281 252.082031 94.050781 251.773438 94.652344 C 251.464844 95.253906 251.21875 95.878906 251.035156 96.53125 C 250.847656 97.179688 250.726562 97.839844 250.671875 98.515625 C 250.617188 99.1875 250.628906 99.859375 250.707031 100.53125 C 250.785156 101.203125 250.925781 101.859375 251.132812 102.503906 C 251.339844 103.148438 251.609375 103.765625 251.9375 104.355469 C 252.265625 104.945312 252.648438 105.496094 253.085938 106.011719 C 253.523438 106.527344 254.007812 106.996094 254.539062 107.414062 C 255.066406 107.835938 255.632812 108.199219 256.234375 108.507812 C 256.835938 108.816406 257.460938 109.0625 258.109375 109.246094 C 258.761719 109.433594 259.421875 109.554688 260.09375 109.609375 C 260.769531 109.664062 261.441406 109.652344 262.113281 109.574219 C 262.785156 109.496094 263.441406 109.355469 264.085938 109.148438 C 264.726562 108.941406 265.34375 108.671875 265.933594 108.34375 C 278.378906 101.433594 293.703125 96.304688 312.375 96.304688 C 369.539062 96.304688 407.992188 134.449219 407.992188 134.449219 C 408.46875 134.925781 408.988281 135.351562 409.550781 135.726562 C 410.113281 136.101562 410.707031 136.417969 411.328125 136.675781 C 411.953125 136.9375 412.597656 137.128906 413.257812 137.261719 C 413.921875 137.394531 414.589844 137.460938 415.265625 137.460938 C 415.941406 137.460938 416.609375 137.394531 417.273438 137.261719 C 417.9375 137.128906 418.578125 136.9375 419.203125 136.675781 C 419.828125 136.417969 420.421875 136.101562 420.980469 135.726562 C 421.542969 135.351562 422.0625 134.925781 422.542969 134.449219 C 422.542969 134.449219 440.417969 116.882812 466.710938 116.882812 C 493.007812 116.882812 510.882812 134.449219 510.882812 134.449219 C 511.355469 134.941406 511.875 135.382812 512.4375 135.773438 C 513 136.164062 513.59375 136.496094 514.222656 136.765625 C 514.851562 137.039062 515.5 137.246094 516.167969 137.386719 C 516.839844 137.527344 517.515625 137.605469 518.199219 137.609375 C 518.886719 137.617188 519.5625 137.558594 520.234375 137.429688 C 520.90625 137.300781 521.5625 137.105469 522.195312 136.847656 C 522.828125 136.589844 523.429688 136.269531 524 135.890625 C 524.570312 135.511719 525.097656 135.082031 525.582031 134.597656 C 526.066406 134.113281 526.496094 133.585938 526.875 133.015625 C 527.253906 132.445312 527.574219 131.84375 527.832031 131.210938 C 528.089844 130.578125 528.285156 129.921875 528.414062 129.25 C 528.542969 128.578125 528.601562 127.902344 528.59375 127.214844 C 528.585938 126.53125 528.511719 125.855469 528.371094 125.183594 C 528.230469 124.515625 528.023438 123.867188 527.75 123.238281 C 527.480469 122.609375 527.148438 122.015625 526.757812 121.453125 C 526.367188 120.890625 525.925781 120.371094 525.433594 119.898438 C 525.433594 119.898438 502.152344 96.304688 466.710938 96.304688 C 439.269531 96.304688 422.945312 108.1875 415.246094 114.574219 C 406.214844 106.332031 370.683594 75.726562 312.375 75.726562 Z M 230.34375 113.730469 C 228.828125 113.699219 227.375 113.996094 225.988281 114.609375 C 224.597656 115.222656 223.40625 116.101562 222.40625 117.246094 C 214.972656 125.503906 210.953125 132.175781 210.953125 132.175781 C 210.578125 132.757812 210.265625 133.367188 210.011719 134.011719 C 209.761719 134.652344 209.574219 135.316406 209.457031 135.996094 C 209.339844 136.675781 209.289062 137.359375 209.308594 138.050781 C 209.328125 138.742188 209.414062 139.421875 209.570312 140.09375 C 209.726562 140.769531 209.949219 141.417969 210.238281 142.046875 C 210.523438 142.671875 210.871094 143.265625 211.277344 143.824219 C 211.683594 144.382812 212.144531 144.894531 212.652344 145.359375 C 213.164062 145.824219 213.714844 146.234375 214.304688 146.589844 C 214.898438 146.945312 215.519531 147.238281 216.171875 147.46875 C 216.820312 147.699219 217.488281 147.859375 218.171875 147.957031 C 218.855469 148.050781 219.542969 148.078125 220.234375 148.035156 C 220.921875 147.992188 221.601562 147.878906 222.265625 147.699219 C 222.933594 147.519531 223.574219 147.277344 224.191406 146.96875 C 224.8125 146.660156 225.390625 146.292969 225.933594 145.867188 C 226.480469 145.441406 226.976562 144.964844 227.421875 144.441406 C 227.871094 143.917969 228.261719 143.351562 228.597656 142.746094 C 228.597656 142.746094 231.425781 138.003906 237.71875 131.011719 C 238.394531 130.28125 238.953125 129.472656 239.394531 128.582031 C 239.835938 127.691406 240.140625 126.757812 240.308594 125.777344 C 240.480469 124.800781 240.507812 123.816406 240.394531 122.828125 C 240.277344 121.84375 240.027344 120.890625 239.636719 119.980469 C 239.246094 119.066406 238.734375 118.226562 238.101562 117.460938 C 237.46875 116.695312 236.738281 116.035156 235.914062 115.480469 C 235.089844 114.925781 234.203125 114.5 233.257812 114.199219 C 232.308594 113.902344 231.339844 113.746094 230.34375 113.730469 Z M 425.554688 156.855469 C 406.558594 156.855469 393.503906 167.027344 383.214844 175.042969 C 372.925781 183.054688 365.402344 188.90625 353.53125 188.90625 C 346.488281 188.90625 341.042969 187.671875 336.710938 185.972656 C 336.078125 185.707031 335.425781 185.503906 334.753906 185.367188 C 334.082031 185.230469 333.398438 185.164062 332.714844 185.160156 C 332.027344 185.160156 331.347656 185.230469 330.671875 185.363281 C 330 185.5 329.347656 185.703125 328.714844 185.96875 C 328.082031 186.234375 327.480469 186.5625 326.914062 186.949219 C 326.34375 187.335938 325.820312 187.773438 325.339844 188.265625 C 324.863281 188.757812 324.4375 189.292969 324.0625 189.867188 C 323.691406 190.445312 323.378906 191.054688 323.128906 191.691406 C 322.875 192.332031 322.691406 192.988281 322.574219 193.667969 C 322.453125 194.34375 322.402344 195.023438 322.417969 195.710938 C 322.4375 196.398438 322.523438 197.074219 322.675781 197.746094 C 322.828125 198.414062 323.046875 199.0625 323.328125 199.6875 C 323.613281 200.316406 323.953125 200.90625 324.355469 201.464844 C 324.757812 202.019531 325.210938 202.53125 325.714844 203 C 326.214844 203.464844 326.761719 203.878906 327.347656 204.238281 C 327.933594 204.59375 328.550781 204.890625 329.195312 205.125 C 335.894531 207.75 344.03125 209.484375 353.53125 209.484375 C 372.527344 209.484375 385.585938 199.292969 395.875 191.277344 C 406.164062 183.261719 413.683594 177.433594 425.554688 177.433594 C 442.304688 177.433594 448.765625 185.492188 448.765625 185.492188 C 449.214844 186.007812 449.707031 186.472656 450.25 186.890625 C 450.789062 187.308594 451.367188 187.667969 451.976562 187.96875 C 452.589844 188.273438 453.226562 188.511719 453.886719 188.6875 C 454.546875 188.863281 455.214844 188.972656 455.898438 189.015625 C 456.578125 189.058594 457.257812 189.03125 457.933594 188.9375 C 458.609375 188.847656 459.269531 188.6875 459.917969 188.464844 C 460.5625 188.238281 461.175781 187.953125 461.765625 187.605469 C 462.355469 187.261719 462.902344 186.859375 463.410156 186.402344 C 463.917969 185.945312 464.375 185.445312 464.785156 184.898438 C 465.191406 184.351562 465.542969 183.765625 465.835938 183.152344 C 466.128906 182.535156 466.355469 181.894531 466.523438 181.230469 C 466.6875 180.570312 466.785156 179.894531 466.816406 179.214844 C 466.847656 178.53125 466.808594 177.855469 466.707031 177.179688 C 466.601562 176.503906 466.433594 175.847656 466.199219 175.203125 C 465.964844 174.5625 465.667969 173.953125 465.3125 173.371094 C 464.953125 172.789062 464.542969 172.246094 464.078125 171.746094 C 464.078125 171.746094 449.960938 156.855469 425.554688 156.855469 Z M 157.355469 157.941406 C 156.421875 157.992188 155.511719 158.171875 154.625 158.472656 C 153.738281 158.777344 152.910156 159.191406 152.136719 159.71875 C 151.363281 160.25 150.675781 160.871094 150.074219 161.589844 C 149.472656 162.304688 148.976562 163.089844 148.585938 163.941406 C 148.199219 164.792969 147.929688 165.679688 147.785156 166.605469 C 147.636719 167.53125 147.617188 168.457031 147.726562 169.390625 C 147.832031 170.320312 148.0625 171.21875 148.414062 172.085938 C 148.765625 172.953125 149.230469 173.757812 149.800781 174.5 C 149.800781 174.5 183.417969 219.773438 240.351562 219.773438 C 265.222656 219.773438 284.027344 212.996094 297.023438 205.324219 C 297.621094 204.992188 298.179688 204.597656 298.695312 204.152344 C 299.214844 203.707031 299.683594 203.210938 300.105469 202.671875 C 300.527344 202.132812 300.890625 201.554688 301.195312 200.941406 C 301.5 200.328125 301.742188 199.691406 301.917969 199.03125 C 302.097656 198.371094 302.207031 197.695312 302.253906 197.015625 C 302.296875 196.332031 302.273438 195.648438 302.179688 194.972656 C 302.089844 194.292969 301.929688 193.628906 301.707031 192.984375 C 301.480469 192.335938 301.195312 191.71875 300.847656 191.128906 C 300.5 190.539062 300.097656 189.988281 299.640625 189.480469 C 299.183594 188.96875 298.679688 188.511719 298.128906 188.101562 C 297.582031 187.691406 296.996094 187.339844 296.378906 187.050781 C 295.757812 186.757812 295.117188 186.527344 294.453125 186.363281 C 293.785156 186.199219 293.113281 186.101562 292.429688 186.074219 C 291.746094 186.042969 291.0625 186.082031 290.386719 186.1875 C 289.710938 186.292969 289.050781 186.464844 288.410156 186.703125 C 287.769531 186.941406 287.15625 187.242188 286.574219 187.601562 C 276.421875 193.59375 261.539062 199.195312 240.351562 199.195312 C 194.394531 199.195312 166.28125 162.160156 166.28125 162.160156 C 165.773438 161.460938 165.1875 160.839844 164.523438 160.289062 C 163.859375 159.738281 163.136719 159.277344 162.355469 158.910156 C 161.578125 158.542969 160.765625 158.273438 159.917969 158.109375 C 159.070312 157.945312 158.21875 157.890625 157.355469 157.941406 Z M 497.578125 158.039062 C 496.933594 158.039062 496.292969 158.101562 495.65625 158.21875 C 495.023438 158.339844 494.40625 158.519531 493.804688 158.757812 C 493.203125 158.992188 492.628906 159.285156 492.082031 159.628906 C 491.535156 159.972656 491.027344 160.367188 490.554688 160.808594 C 490.082031 161.25 489.65625 161.730469 489.273438 162.25 C 488.890625 162.773438 488.5625 163.324219 488.285156 163.910156 C 488.007812 164.492188 487.785156 165.097656 487.621094 165.722656 C 487.457031 166.347656 487.355469 166.980469 487.308594 167.625 L 481.582031 250.640625 L 240.351562 250.640625 C 239.464844 250.640625 238.589844 250.757812 237.730469 250.984375 C 236.871094 251.210938 236.054688 251.542969 235.28125 251.980469 C 234.507812 252.417969 233.804688 252.949219 233.167969 253.570312 C 232.535156 254.191406 231.988281 254.882812 231.53125 255.644531 L 200.664062 307.089844 C 200.195312 307.871094 199.839844 308.699219 199.589844 309.574219 C 199.34375 310.449219 199.214844 311.34375 199.203125 312.253906 C 199.191406 313.160156 199.300781 314.058594 199.527344 314.9375 C 199.753906 315.820312 200.089844 316.65625 200.539062 317.445312 C 200.988281 318.238281 201.53125 318.957031 202.171875 319.605469 C 202.808594 320.253906 203.523438 320.804688 204.308594 321.261719 C 205.09375 321.722656 205.925781 322.070312 206.804688 322.308594 C 207.683594 322.546875 208.574219 322.664062 209.484375 322.664062 L 219.773438 322.664062 L 219.773438 355.460938 C 216.535156 354.292969 213.105469 353.53125 209.484375 353.53125 C 196.136719 353.53125 186.71875 363.226562 182.457031 375.195312 C 181.089844 375 180.042969 374.109375 178.617188 374.109375 C 161.691406 374.109375 147.75 388.050781 147.75 404.976562 C 147.75 411.542969 150.328125 417.238281 153.859375 422.261719 C 150.339844 427.789062 147.75 433.953125 147.75 440.988281 C 147.75 446.523438 149.140625 451.71875 151.410156 456.421875 L 106.59375 456.421875 C 105.917969 456.421875 105.25 456.488281 104.585938 456.621094 C 103.925781 456.753906 103.28125 456.949219 102.65625 457.207031 C 102.035156 457.464844 101.441406 457.78125 100.878906 458.15625 C 100.316406 458.53125 99.796875 458.960938 99.320312 459.4375 C 98.84375 459.914062 98.414062 460.433594 98.039062 460.996094 C 97.664062 461.558594 97.347656 462.152344 97.089844 462.773438 C 96.832031 463.398438 96.636719 464.042969 96.503906 464.703125 C 96.371094 465.367188 96.304688 466.035156 96.304688 466.710938 L 96.304688 506.320312 C 96.183594 507.179688 96.171875 508.042969 96.265625 508.902344 C 96.363281 509.765625 96.5625 510.601562 96.871094 511.414062 C 97.179688 512.226562 97.582031 512.988281 98.082031 513.695312 C 98.582031 514.40625 99.160156 515.042969 99.824219 515.605469 L 264.449219 659.652344 C 265.042969 660.175781 265.691406 660.625 266.390625 660.996094 C 267.09375 661.371094 267.824219 661.660156 268.59375 661.863281 C 269.359375 662.066406 270.140625 662.183594 270.933594 662.207031 C 271.726562 662.230469 272.511719 662.160156 273.289062 662.003906 L 317 653 L 334.039062 687.101562 C 334.851562 688.722656 336.011719 690.035156 337.515625 691.042969 L 399.25 732.480469 C 400.058594 733.023438 400.929688 733.441406 401.859375 733.738281 C 402.789062 734.03125 403.742188 734.191406 404.714844 734.21875 C 405.691406 734.242188 406.648438 734.132812 407.59375 733.882812 C 408.535156 733.636719 409.425781 733.261719 410.261719 732.761719 L 513.152344 671.027344 C 514.871094 670 516.175781 668.59375 517.070312 666.804688 L 534.796875 631.335938 L 579.890625 631.335938 C 581.179688 631.335938 582.421875 631.101562 583.621094 630.632812 C 584.824219 630.164062 585.898438 629.496094 586.84375 628.625 L 710.3125 515.445312 C 711.035156 514.828125 711.660156 514.125 712.191406 513.335938 C 712.71875 512.550781 713.128906 511.703125 713.425781 510.800781 C 713.71875 509.898438 713.886719 508.972656 713.921875 508.023438 C 713.960938 507.074219 713.871094 506.140625 713.648438 505.214844 L 713.648438 466.710938 C 713.648438 466.035156 713.582031 465.367188 713.453125 464.703125 C 713.320312 464.042969 713.125 463.398438 712.867188 462.773438 C 712.609375 462.152344 712.289062 461.558594 711.914062 460.996094 C 711.539062 460.433594 711.113281 459.914062 710.636719 459.4375 C 710.15625 458.960938 709.636719 458.53125 709.078125 458.15625 C 708.515625 457.78125 707.921875 457.464844 707.296875 457.207031 C 706.671875 456.949219 706.03125 456.753906 705.367188 456.621094 C 704.707031 456.488281 704.035156 456.421875 703.359375 456.421875 L 639.695312 456.421875 C 640.867188 453.183594 641.625 449.753906 641.625 446.132812 C 641.625 444.710938 640.734375 443.664062 640.539062 442.296875 C 652.511719 438.035156 662.203125 428.617188 662.203125 415.265625 C 662.203125 401.917969 652.511719 392.5 640.539062 388.238281 C 640.734375 386.871094 641.625 385.824219 641.625 384.398438 C 641.625 367.472656 627.683594 353.53125 610.757812 353.53125 C 609.335938 353.53125 608.289062 354.421875 606.921875 354.617188 C 602.660156 342.648438 593.242188 332.953125 579.890625 332.953125 C 578.664062 332.953125 577.691406 333.738281 576.496094 333.878906 L 559.253906 167.265625 C 559.1875 166.636719 559.066406 166.019531 558.886719 165.417969 C 558.707031 164.8125 558.476562 164.226562 558.191406 163.667969 C 557.90625 163.105469 557.570312 162.574219 557.1875 162.074219 C 556.804688 161.570312 556.378906 161.109375 555.910156 160.6875 C 555.441406 160.265625 554.9375 159.890625 554.402344 159.558594 C 553.863281 159.230469 553.300781 158.953125 552.710938 158.726562 C 552.125 158.5 551.519531 158.328125 550.898438 158.214844 C 550.28125 158.097656 549.65625 158.039062 549.023438 158.039062 Z M 507.183594 178.617188 L 539.738281 178.617188 L 557.847656 353.53125 L 507.867188 353.53125 L 507.867188 322.664062 L 518.15625 322.664062 C 519.066406 322.664062 519.960938 322.546875 520.839844 322.308594 C 521.71875 322.070312 522.550781 321.722656 523.335938 321.261719 C 524.121094 320.804688 524.832031 320.253906 525.472656 319.605469 C 526.109375 318.957031 526.65625 318.238281 527.101562 317.445312 C 527.550781 316.65625 527.890625 315.820312 528.117188 314.9375 C 528.34375 314.058594 528.449219 313.160156 528.4375 312.253906 C 528.429688 311.34375 528.300781 310.449219 528.050781 309.574219 C 527.804688 308.699219 527.445312 307.871094 526.980469 307.089844 L 501.277344 264.246094 Z M 246.179688 271.21875 L 481.460938 271.21875 L 499.992188 302.085938 L 227.652344 302.085938 Z M 240.351562 322.664062 L 487.289062 322.664062 L 487.289062 456.421875 L 240.351562 456.421875 Z M 579.890625 353.53125 C 585.707031 353.53125 590.179688 358.007812 590.179688 363.820312 C 590.179688 363.84375 590.152344 364.261719 590 365.25 C 589.847656 366.214844 589.835938 367.183594 589.960938 368.15625 C 590.085938 369.125 590.34375 370.0625 590.734375 370.957031 C 591.125 371.855469 591.636719 372.679688 592.261719 373.433594 C 592.890625 374.183594 593.609375 374.832031 594.421875 375.378906 C 595.234375 375.925781 596.105469 376.347656 597.039062 376.644531 C 597.972656 376.945312 598.929688 377.105469 599.90625 377.128906 C 600.886719 377.152344 601.847656 377.042969 602.796875 376.789062 C 603.742188 376.539062 604.636719 376.164062 605.472656 375.65625 C 607.15625 374.644531 608.882812 374.109375 610.757812 374.109375 C 616.574219 374.109375 621.046875 378.585938 621.046875 384.398438 C 621.046875 386.273438 620.515625 388.003906 619.5 389.683594 C 618.996094 390.523438 618.617188 391.417969 618.367188 392.363281 C 618.117188 393.308594 618.003906 394.273438 618.027344 395.25 C 618.054688 396.230469 618.214844 397.1875 618.511719 398.117188 C 618.808594 399.050781 619.230469 399.925781 619.777344 400.738281 C 620.324219 401.546875 620.972656 402.269531 621.726562 402.894531 C 622.476562 403.523438 623.300781 404.03125 624.199219 404.421875 C 625.097656 404.816406 626.03125 405.074219 627.003906 405.199219 C 627.972656 405.324219 628.941406 405.308594 629.910156 405.160156 C 630.898438 405.003906 631.316406 404.976562 631.335938 404.976562 C 637.152344 404.976562 641.625 409.453125 641.625 415.265625 C 641.625 421.082031 637.152344 425.554688 631.335938 425.554688 C 631.316406 425.554688 630.898438 425.527344 629.910156 425.375 C 628.941406 425.222656 627.972656 425.210938 627.003906 425.335938 C 626.03125 425.460938 625.097656 425.71875 624.199219 426.109375 C 623.300781 426.5 622.476562 427.011719 621.726562 427.636719 C 620.972656 428.265625 620.324219 428.984375 619.777344 429.796875 C 619.230469 430.609375 618.808594 431.480469 618.511719 432.414062 C 618.214844 433.347656 618.054688 434.304688 618.027344 435.28125 C 618.003906 436.261719 618.117188 437.222656 618.367188 438.171875 C 618.617188 439.117188 618.996094 440.011719 619.5 440.847656 C 620.515625 442.53125 621.046875 444.257812 621.046875 446.132812 C 621.046875 451.949219 616.574219 456.421875 610.757812 456.421875 L 589.175781 456.421875 L 578.566406 353.894531 C 579.035156 353.828125 579.394531 353.53125 579.890625 353.53125 Z M 209.484375 374.109375 C 215.300781 374.109375 219.773438 378.585938 219.773438 384.398438 L 219.773438 456.421875 L 183.761719 456.421875 C 175.113281 456.421875 168.328125 449.640625 168.328125 440.988281 C 168.328125 436.375 170.324219 432.417969 173.613281 429.515625 C 173.90625 429.257812 174.179688 428.988281 174.441406 428.699219 C 174.699219 428.410156 174.945312 428.109375 175.171875 427.796875 C 175.394531 427.480469 175.605469 427.152344 175.792969 426.816406 C 175.980469 426.476562 176.152344 426.128906 176.300781 425.773438 C 176.449219 425.414062 176.582031 425.050781 176.6875 424.675781 C 176.796875 424.304688 176.882812 423.929688 176.949219 423.546875 C 177.015625 423.164062 177.0625 422.78125 177.082031 422.394531 C 177.105469 422.003906 177.105469 421.617188 177.085938 421.230469 C 177.0625 420.84375 177.019531 420.460938 176.957031 420.078125 C 176.890625 419.695312 176.804688 419.316406 176.699219 418.945312 C 176.589844 418.574219 176.464844 418.207031 176.316406 417.851562 C 176.167969 417.492188 175.996094 417.144531 175.808594 416.804688 C 175.621094 416.464844 175.414062 416.136719 175.191406 415.824219 C 174.964844 415.507812 174.722656 415.203125 174.464844 414.917969 C 174.207031 414.628906 173.929688 414.355469 173.640625 414.097656 C 173.351562 413.839844 173.046875 413.601562 172.730469 413.378906 C 170.050781 411.492188 168.328125 408.503906 168.328125 404.976562 C 168.328125 399.164062 172.804688 394.6875 178.617188 394.6875 C 180.492188 394.6875 182.222656 395.222656 183.902344 396.234375 C 184.742188 396.742188 185.636719 397.117188 186.582031 397.367188 C 187.527344 397.617188 188.492188 397.730469 189.46875 397.707031 C 190.449219 397.683594 191.40625 397.523438 192.335938 397.222656 C 193.269531 396.925781 194.144531 396.503906 194.957031 395.957031 C 195.765625 395.410156 196.488281 394.761719 197.113281 394.011719 C 197.742188 393.257812 198.25 392.433594 198.640625 391.535156 C 199.035156 390.640625 199.292969 389.707031 199.417969 388.734375 C 199.542969 387.761719 199.527344 386.792969 199.378906 385.828125 C 199.222656 384.839844 199.195312 384.421875 199.195312 384.398438 C 199.195312 378.585938 203.671875 374.109375 209.484375 374.109375 Z M 507.867188 374.109375 L 559.976562 374.109375 L 562.105469 394.6875 L 507.867188 394.6875 Z M 507.867188 415.265625 L 564.238281 415.265625 L 568.496094 456.421875 L 507.867188 456.421875 Z M 116.882812 477 L 693.070312 477 L 693.070312 497.578125 L 610.757812 497.578125 C 605.078125 497.578125 600.46875 502.1875 600.46875 507.867188 C 600.46875 513.546875 605.078125 518.15625 610.757812 518.15625 L 676.914062 518.15625 L 621.046875 569.363281 L 621.046875 549.023438 C 621.046875 543.355469 616.429688 538.734375 610.757812 538.734375 C 605.089844 538.734375 600.46875 543.355469 600.46875 549.023438 L 600.46875 569.601562 C 600.46875 574.921875 604.589844 579.167969 609.773438 579.691406 L 575.894531 610.757812 L 528.445312 610.757812 C 527.492188 610.757812 526.554688 610.890625 525.632812 611.148438 C 524.714844 611.410156 523.847656 611.792969 523.035156 612.296875 C 522.222656 612.796875 521.496094 613.402344 520.851562 614.105469 C 520.207031 614.8125 519.667969 615.589844 519.242188 616.445312 L 500.011719 654.929688 L 405.277344 711.761719 L 351.242188 675.46875 L 331.867188 636.742188 C 331.617188 636.238281 331.328125 635.757812 330.996094 635.304688 C 330.667969 634.847656 330.300781 634.421875 329.902344 634.023438 C 329.5 633.628906 329.070312 633.269531 328.613281 632.941406 C 328.152344 632.617188 327.671875 632.332031 327.164062 632.085938 C 326.65625 631.839844 326.136719 631.632812 325.59375 631.472656 C 325.054688 631.3125 324.507812 631.199219 323.949219 631.128906 C 323.390625 631.058594 322.828125 631.03125 322.265625 631.054688 C 321.703125 631.078125 321.148438 631.144531 320.59375 631.257812 L 274.152344 640.800781 L 203.4375 578.925781 C 206.984375 577.300781 209.484375 573.75 209.484375 569.601562 L 209.484375 549.023438 C 209.484375 543.355469 204.867188 538.734375 199.195312 538.734375 C 193.527344 538.734375 188.90625 543.355469 188.90625 549.023438 L 188.90625 566.226562 L 133.964844 518.15625 L 507.867188 518.15625 C 513.546875 518.15625 518.15625 513.546875 518.15625 507.867188 C 518.15625 502.1875 513.546875 497.578125 507.867188 497.578125 L 116.882812 497.578125 Z M 549.023438 497.578125 C 543.34375 497.578125 538.734375 502.1875 538.734375 507.867188 C 538.734375 513.546875 543.34375 518.15625 549.023438 518.15625 L 569.601562 518.15625 C 575.28125 518.15625 579.890625 513.546875 579.890625 507.867188 C 579.890625 502.1875 575.28125 497.578125 569.601562 497.578125 Z M 250.640625 538.734375 C 244.972656 538.734375 240.351562 543.355469 240.351562 549.023438 L 240.351562 569.601562 C 240.351562 575.273438 244.972656 579.890625 250.640625 579.890625 C 256.3125 579.890625 260.929688 575.273438 260.929688 569.601562 L 260.929688 549.023438 C 260.929688 543.355469 256.3125 538.734375 250.640625 538.734375 Z M 302.085938 538.734375 C 296.417969 538.734375 291.796875 543.355469 291.796875 549.023438 L 291.796875 569.601562 C 291.796875 575.273438 296.417969 579.890625 302.085938 579.890625 C 307.757812 579.890625 312.375 575.273438 312.375 569.601562 L 312.375 549.023438 C 312.375 543.355469 307.757812 538.734375 302.085938 538.734375 Z M 353.53125 538.734375 C 347.863281 538.734375 343.242188 543.355469 343.242188 549.023438 L 343.242188 569.601562 C 343.242188 575.273438 347.863281 579.890625 353.53125 579.890625 C 359.203125 579.890625 363.820312 575.273438 363.820312 569.601562 L 363.820312 549.023438 C 363.820312 543.355469 359.203125 538.734375 353.53125 538.734375 Z M 404.976562 538.734375 C 399.308594 538.734375 394.6875 543.355469 394.6875 549.023438 L 394.6875 569.601562 C 394.6875 575.273438 399.308594 579.890625 404.976562 579.890625 C 410.648438 579.890625 415.265625 575.273438 415.265625 569.601562 L 415.265625 549.023438 C 415.265625 543.355469 410.648438 538.734375 404.976562 538.734375 Z M 456.421875 538.734375 C 450.753906 538.734375 446.132812 543.355469 446.132812 549.023438 L 446.132812 569.601562 C 446.132812 575.273438 450.753906 579.890625 456.421875 579.890625 C 462.09375 579.890625 466.710938 575.273438 466.710938 569.601562 L 466.710938 549.023438 C 466.710938 543.355469 462.09375 538.734375 456.421875 538.734375 Z M 507.867188 538.734375 C 502.199219 538.734375 497.578125 543.355469 497.578125 549.023438 L 497.578125 569.601562 C 497.578125 575.273438 502.199219 579.890625 507.867188 579.890625 C 513.539062 579.890625 518.15625 575.273438 518.15625 569.601562 L 518.15625 549.023438 C 518.15625 543.355469 513.539062 538.734375 507.867188 538.734375 Z M 559.3125 538.734375 C 553.644531 538.734375 549.023438 543.355469 549.023438 549.023438 L 549.023438 569.601562 C 549.023438 575.273438 553.644531 579.890625 559.3125 579.890625 C 564.984375 579.890625 569.601562 575.273438 569.601562 569.601562 L 569.601562 549.023438 C 569.601562 543.355469 564.984375 538.734375 559.3125 538.734375 Z M 559.3125 538.734375 " fill-opacity="1" fill-rule="nonzero"/></g></svg>