<svg xmlns="http://www.w3.org/2000/svg" xmlns:xlink="http://www.w3.org/1999/xlink" width="1080" zoomAndPan="magnify" viewBox="0 0 810 809.999993" height="1080" preserveAspectRatio="xMidYMid meet" version="1.0"><defs><clipPath id="f851a207b8"><path d="M 16.464844 89 L 793.464844 89 L 793.464844 721 L 16.464844 721 Z M 16.464844 89 " clip-rule="nonzero"/></clipPath></defs><g clip-path="url(#f851a207b8)"><path fill="#000000" d="M 233.667969 89.308594 C 113.898438 89.308594 16.464844 186.742188 16.464844 306.511719 C 16.464844 369.570312 49.960938 438.128906 116.007812 510.269531 C 199.039062 601.542969 311.890625 675.496094 371.742188 711.445312 C 381.648438 717.441406 393.003906 720.597656 404.585938 720.597656 L 405.34375 720.597656 C 416.925781 720.597656 428.289062 717.441406 438.160156 711.46875 C 498.050781 675.496094 610.878906 601.542969 693.871094 510.292969 C 759.953125 438.128906 793.464844 369.570312 793.464844 306.511719 C 793.464844 186.742188 696.027344 89.308594 576.261719 89.308594 C 518.800781 89.308594 464.65625 111.574219 423.769531 152.050781 C 420.464844 155.339844 411.53125 162.152344 404.964844 162.152344 C 398.394531 162.152344 389.453125 155.339844 386.113281 152.003906 C 345.257812 111.574219 291.128906 89.308594 233.667969 89.308594 Z M 233.667969 113.589844 C 284.695312 113.589844 332.765625 133.367188 368.992188 169.21875 C 371.859375 172.09375 387.105469 186.433594 404.964844 186.433594 C 422.824219 186.433594 438.070312 172.09375 440.886719 169.265625 C 477.164062 133.367188 525.234375 113.589844 576.261719 113.589844 C 682.636719 113.589844 769.183594 200.136719 769.183594 306.511719 C 769.183594 363.292969 737.816406 426.332031 675.921875 493.910156 C 591.984375 586.214844 472.929688 662.238281 425.617188 690.671875 C 419.4375 694.421875 412.574219 696.253906 405.058594 696.316406 L 404.871094 696.316406 C 397.21875 696.316406 390.503906 694.425781 384.261719 690.648438 C 336.976562 662.238281 217.933594 586.214844 133.957031 493.886719 C 72.101562 426.335938 40.746094 363.304688 40.746094 306.511719 C 40.746094 200.136719 127.292969 113.589844 233.667969 113.589844 Z M 574.933594 150.011719 C 568.230469 150.011719 562.792969 155.4375 562.792969 162.152344 C 562.792969 168.867188 568.230469 174.292969 574.933594 174.292969 C 588.492188 174.292969 601.867188 176.308594 614.652344 180.292969 C 615.851562 180.65625 617.066406 180.835938 618.253906 180.835938 C 623.425781 180.835938 628.222656 177.507812 629.851562 172.300781 C 631.839844 165.902344 628.269531 159.09375 621.859375 157.101562 C 606.730469 152.390625 590.945312 150.011719 574.933594 150.011719 Z M 658.089844 177.613281 C 655.023438 178.109375 652.15625 179.785156 650.195312 182.496094 C 646.273438 187.9375 647.507812 195.503906 652.945312 199.425781 C 678.625 217.929688 696.945312 244.9375 704.542969 275.472656 C 705.914062 280.996094 710.867188 284.695312 716.304688 284.695312 C 717.277344 284.695312 718.261719 284.570312 719.246094 284.339844 C 725.753906 282.714844 729.703125 276.109375 728.089844 269.613281 C 719.105469 233.507812 697.476562 201.585938 667.148438 179.722656 C 664.429688 177.78125 661.160156 177.117188 658.089844 177.613281 Z M 174.625 416.582031 C 171.523438 416.351562 168.339844 417.308594 165.804688 419.5 L 147.378906 435.339844 C 142.304688 439.710938 141.75 447.371094 146.121094 452.460938 C 148.515625 455.253906 151.910156 456.679688 155.324219 456.679688 C 158.128906 456.679688 160.949219 455.730469 163.242188 453.738281 L 181.644531 437.902344 C 186.71875 433.53125 187.292969 425.867188 182.921875 420.78125 C 180.746094 418.242188 177.722656 416.816406 174.625 416.582031 Z M 214.792969 460.546875 C 211.683594 460.511719 208.570312 461.675781 206.183594 464.03125 L 188.828125 481.03125 C 184.03125 485.730469 183.964844 493.40625 188.660156 498.199219 C 191.027344 500.617188 194.195312 501.828125 197.339844 501.828125 C 200.410156 501.828125 203.472656 500.699219 205.828125 498.367188 L 223.1875 481.363281 C 227.980469 476.667969 228.050781 468.992188 223.351562 464.195312 C 221.003906 461.800781 217.902344 460.578125 214.792969 460.546875 Z M 258.28125 501.117188 C 255.179688 501.285156 252.132812 502.636719 249.886719 505.125 L 233.667969 523.191406 C 229.1875 528.183594 229.601562 535.871094 234.59375 540.335938 C 236.910156 542.425781 239.8125 543.441406 242.703125 543.441406 C 246.015625 543.441406 249.34375 542.082031 251.734375 539.414062 L 267.957031 521.34375 C 272.433594 516.355469 272.019531 508.667969 267.03125 504.199219 C 264.535156 501.964844 261.382812 500.949219 258.28125 501.117188 Z M 303.949219 538.914062 C 300.867188 539.289062 297.933594 540.839844 295.863281 543.46875 L 280.855469 562.554688 C 276.703125 567.824219 277.613281 575.453125 282.894531 579.605469 C 285.117188 581.363281 287.765625 582.210938 290.386719 582.210938 C 293.992188 582.210938 297.550781 580.613281 299.941406 577.566406 L 314.953125 558.476562 C 319.105469 553.207031 318.195312 545.578125 312.914062 541.425781 C 310.265625 539.34375 307.03125 538.539062 303.949219 538.914062 Z M 351.847656 574.054688 C 348.792969 574.621094 345.964844 576.34375 344.070312 579.105469 L 330.316406 599.121094 C 326.53125 604.65625 327.925781 612.203125 333.449219 616.003906 C 335.546875 617.445312 337.957031 618.136719 340.324219 618.136719 C 344.183594 618.136719 347.988281 616.296875 350.332031 612.871094 L 364.085938 592.859375 C 367.871094 587.324219 366.476562 579.777344 360.953125 575.976562 C 358.1875 574.082031 354.90625 573.488281 351.847656 574.054688 Z M 406.503906 605.285156 C 401.820312 604.636719 396.988281 606.792969 394.414062 611.117188 L 381.988281 631.984375 C 378.5625 637.75 380.441406 645.195312 386.207031 648.628906 C 388.148438 649.796875 390.308594 650.335938 392.421875 650.335938 C 396.558594 650.335938 400.582031 648.234375 402.855469 644.410156 L 415.277344 623.542969 C 418.703125 617.777344 416.824219 610.332031 411.058594 606.898438 C 409.621094 606.039062 408.066406 605.5 406.503906 605.285156 Z M 406.503906 605.285156 " fill-opacity="1" fill-rule="nonzero"/></g></svg>