<svg xmlns="http://www.w3.org/2000/svg" width="348.529" height="255.118" viewBox="0 0 348.529 255.118">
  <g id="Group_596" data-name="Group 596" transform="translate(-527.453 -2983.016)">
    <g id="Splendid_reviews_in_background_check" data-name="Splendid reviews in background check" transform="translate(508 2979)">
      <path id="Path_32084" data-name="Path 32084" d="M177.291,415.811Z" transform="translate(-149.029 -157.004)" fill="#f2f2f2"/>
      <path id="Path_32085" data-name="Path 32085" d="M668.65,711.311h56.645v15.326l-56.63.238Z" transform="translate(-514.02 -546.359)" fill="#acb0b5"/>
      <path id="Path_32086" data-name="Path 32086" d="M788.3,695.949h47.762a2.291,2.291,0,1,1,0,4.583H788.3" transform="translate(-598.064 -535.568)" fill="#80848b"/>
      <path id="Path_32087" data-name="Path 32087" d="M445.523,711.639h-2.342v93.718h2.342Z" transform="translate(-355.646 -546.589)" fill="#acb0b5"/>
      <path id="Path_32088" data-name="Path 32088" d="M475.812,718.969H451.05v91.456h24.762Z" transform="translate(-361.174 -551.738)" fill="#61656d"/>
      <path id="Path_32089" data-name="Path 32089" d="M475.812,711.639H451.05v93.718h24.762Z" transform="translate(-361.174 -546.589)" fill="#80848b"/>
      <path id="Path_32090" data-name="Path 32090" d="M788.3,695.949h47.762a2.291,2.291,0,1,1,0,4.583H788.3" transform="translate(-598.064 -535.568)" fill="#61656d"/>
      <path id="Path_32091" data-name="Path 32091" d="M427.69,695.99H559.495a2.279,2.279,0,0,1,0,4.559H427.69a2.279,2.279,0,1,1,0-4.559Z" transform="translate(-343.164 -535.597)" fill="#acb0b5"/>
      <path id="Path_32092" data-name="Path 32092" d="M752.384,711.309H668.65v.777h83.734Z" transform="translate(-514.02 -546.357)" opacity="0.5"/>
      <path id="Path_32093" data-name="Path 32093" d="M470.285,718.969h-27.1v.777h27.1Z" transform="translate(-355.646 -551.738)" opacity="0.5"/>
      <path id="Path_32094" data-name="Path 32094" d="M454.555,828.039H443.181v2.28h11.707Z" transform="translate(-355.646 -628.351)" opacity="0.5"/>
      <path id="Path_32095" data-name="Path 32095" d="M520.408,828.039h-5.553l-.315,2.28h5.868Z" transform="translate(-405.77 -628.351)" opacity="0.5"/>
      <path id="Path_32096" data-name="Path 32096" d="M484,501.777l-.9,12.933a2.418,2.418,0,0,1-1.857,2.155l-1.491.357,3.294,2.2a12.606,12.606,0,0,0,11.115,1.518,12.382,12.382,0,0,0,1.97-.86l3.761-2.038-1.634-.536a2.388,2.388,0,0,1-1.643-2.086l-1.045-15.462Z" transform="translate(-381.333 -397.901)" fill="#f59696"/>
      <path id="Path_32097" data-name="Path 32097" d="M526.79,541.35a11.86,11.86,0,0,0,2.643-.911l.137,2.137Z" transform="translate(-414.375 -426.335)" opacity="0.15"/>
      <path id="Path_32098" data-name="Path 32098" d="M502.987,491.08l-.613.036a7.974,7.974,0,0,1-8.314-7.63l-.467-11.2a2.658,2.658,0,0,1,2.556-2.771l10.475-.467a3.463,3.463,0,0,1,3.6,3.312l.432,10.4A8.049,8.049,0,0,1,502.987,491.08Z" transform="translate(-391.054 -376.191)" fill="#f59696"/>
      <path id="Path_32099" data-name="Path 32099" d="M550.416,505.818a14.974,14.974,0,0,1,1.345,2.366c.366.952-1.351.982-1.351.982Z" transform="translate(-430.966 -402.017)" fill="#f59696"/>
      <path id="Path_32100" data-name="Path 32100" d="M544.513,496.1a.863.863,0,1,1-.863.863A.864.864,0,0,1,544.513,496.1Z" transform="translate(-426.218 -395.191)" fill="#21252b"/>
      <path id="Path_32101" data-name="Path 32101" d="M547.339,497.789a.179.179,0,1,1-.179.179A.177.177,0,0,1,547.339,497.789Z" transform="translate(-428.683 -396.377)" fill="#fff"/>
      <g id="Group_546" data-name="Group 546" transform="translate(102.586 107.762)" opacity="0.15">
        <g id="Group_545" data-name="Group 545" opacity="0.15">
          <path id="Path_32102" data-name="Path 32102" d="M493.831,519.129h1.223l-1.294,2.592Z" transform="translate(-493.76 -519.129)" opacity="0.15"/>
        </g>
      </g>
      <path id="Path_32103" data-name="Path 32103" d="M538.7,491.677a3.481,3.481,0,1,0,.5,1.547,3.394,3.394,0,0,0-.289-1.116C538.865,492,538.761,491.781,538.7,491.677Zm-2.663,4.824a3.015,3.015,0,1,1,2.771-3.241A3.022,3.022,0,0,1,536.035,496.5Z" transform="translate(-418.207 -390.914)" fill="#fff"/>
      <g id="Group_548" data-name="Group 548" transform="translate(116.849 107.842)" opacity="0.15">
        <g id="Group_547" data-name="Group 547" opacity="0.15">
          <path id="Path_32104" data-name="Path 32104" d="M541.69,519.4a4.112,4.112,0,0,0,2.464,1.622" transform="translate(-541.69 -519.398)" fill="none" stroke="#000" stroke-miterlimit="10" stroke-width="6" opacity="0.15"/>
        </g>
      </g>
      <path id="Path_32105" data-name="Path 32105" d="M445.622,718.959H443.28v91.459h2.342Z" transform="translate(-355.716 -551.731)" fill="#acb0b5"/>
      <path id="Path_32106" data-name="Path 32106" d="M475.912,718.959H451.15v91.456h24.762Z" transform="translate(-361.244 -551.731)" fill="#61656d"/>
      <path id="Path_32107" data-name="Path 32107" d="M475.912,718.959H451.15v91.456h24.762Z" transform="translate(-361.244 -551.731)" fill="#80848b"/>
      <g id="Group_550" data-name="Group 550" transform="translate(87.564 167.228)" opacity="0.5">
        <g id="Group_549" data-name="Group 549" opacity="0.5">
          <path id="Path_32108" data-name="Path 32108" d="M470.384,718.959h-27.1v.777h27.1Z" transform="translate(-443.28 -718.959)" opacity="0.5"/>
        </g>
      </g>
      <path id="Path_32109" data-name="Path 32109" d="M469.829,576.754l6.618,7.568,9.68-6.886L477.013,562.5c-2.443-3.577-4.857-6.029-9.186-6.094l-15.415-.232h-6.333a9.75,9.75,0,0,0-9.749,9.749v45.09h37.778l-.054-14.582a2.178,2.178,0,0,1,.607-1.527c1.735-1.809,4.33-3.913,2.753-9.484" transform="translate(-350.834 -437.385)" fill="#c92027"/>
      <path id="Path_32110" data-name="Path 32110" d="M449,458.424s-2.538,8.273,1.708,12.957c2.44,2.693,4.279.488,8.189,5.889,0,0-3.845.381-5.723,2.053-3.384,3.015-9.094,19.274-19.941,19.676s-15.575-2.309-15.769-6.428c-.536-11.451,10.329-13.1,10.99-20.75.4-4.72-2.291-24.054,10.65-28.6,12.219-4.3,19.346,2.544,19.221,5.023S458.63,454.2,449,458.424Z" transform="translate(-337.57 -357.072)"/>
      <path id="Path_32111" data-name="Path 32111" d="M637.744,816.824l-4.413-3.044V795.4l-.018-.036c-.089-27.479-.542-44.367-1.744-54.663-1.14-9.752-11.21-1.69-14.028-3.015-1.69-.795-2.812-3.958-6.193-4.125-5.952-.292-7.91-4.627-7.91-4.627l-2.8,18.977,15.394.684c-.423,15.915,6.086,27.75,9.073,44.471a6.665,6.665,0,0,0-2.854,5.946c7.249,2.41,6.461,15.662,6.461,15.662Z" transform="translate(-466.249 -558.735)" fill="#f59696"/>
      <g id="Group_552" data-name="Group 552" transform="translate(134.392 170.198)" opacity="0.2">
        <g id="Group_551" data-name="Group 551" opacity="0.2">
          <path id="Path_32112" data-name="Path 32112" d="M672.607,753.9c1.244.583,3.9-.661,6.577-1.393-2.018-1.1-4.97-.1-7.493.726A3.518,3.518,0,0,0,672.607,753.9Z" transform="translate(-650.547 -745.153)" opacity="0.2"/>
          <path id="Path_32113" data-name="Path 32113" d="M616.035,748.6c-.423,15.915,6.083,27.75,9.07,44.471a6.664,6.664,0,0,0-2.854,5.946c7.249,2.411,6.461,15.662,6.461,15.662l9.029,2.155-4.413-3.044V802.341h0a33.213,33.213,0,0,1-3.753-9.27c-2.988-16.721-9.517-28.505-9.1-44.417l-14.939-.461,2.893-15.537c-3.345-2.14-5.434-3.717-5.434-3.717l-2.36,18.977" transform="translate(-600.641 -728.939)" opacity="0.2"/>
        </g>
      </g>
      <path id="Path_32114" data-name="Path 32114" d="M688.169,969.9h-7.5a2.1,2.1,0,0,1-2.077-1.8c-.536-3.7-2.1-12.142-5.639-16.26,0,0-1.074-4.282,2.854-5.949,0,0,3.931,2.6,2.663,10.35l2.181,8.383s5.315,1.672,7.859,4.52A.455.455,0,0,1,688.169,969.9Z" transform="translate(-516.949 -711.13)" fill="#c92027"/>
      <path id="Path_32115" data-name="Path 32115" d="M671.359,964.43l-.809,18.492h.756l2.024-18.492Z" transform="translate(-515.354 -724.154)" fill="#c92027"/>
      <path id="Path_32116" data-name="Path 32116" d="M556.029,817.47l-4.413-3.044V796.041l-.018-.036c-.089-27.479-.542-44.367-1.744-54.663-1.14-9.752-11.21-1.69-14.028-3.014-1.69-.795-2.812-3.958-6.193-4.125-5.952-.292-15.1-4.354-15.1-4.354l-3.5,20.557,23.28.536c-.423,15.915,6.086,26.044,9.073,42.766a6.664,6.664,0,0,0-2.854,5.946c7.249,2.41,6.46,15.662,6.46,15.662Z" transform="translate(-403.312 -559.381)" fill="#f59696"/>
      <g id="Group_554" data-name="Group 554" transform="translate(107.728 170.472)" opacity="0.2">
        <g id="Group_553" data-name="Group 553" opacity="0.2">
          <path id="Path_32117" data-name="Path 32117" d="M609.5,753.9c1.244.583,3.9-.661,6.577-1.393-2.018-1.1-4.97-.1-7.493.726A3.567,3.567,0,0,0,609.5,753.9Z" transform="translate(-579.554 -745.427)" opacity="0.2"/>
          <path id="Path_32118" data-name="Path 32118" d="M551.615,802.984a33.215,33.215,0,0,1-3.753-9.27c-2.988-16.721-8.806-26.854-8.386-42.766l-23.28-.536,2.91-17.114a26.51,26.51,0,0,1-4.571-3.44l-3.5,20.557,23.28.536c-.423,15.915,6.086,26.044,9.073,42.766a6.664,6.664,0,0,0-2.854,5.946c7.249,2.41,6.46,15.662,6.46,15.662l9.029,2.154-4.413-3.044Z" transform="translate(-511.04 -729.859)" opacity="0.2"/>
        </g>
      </g>
      <path id="Path_32119" data-name="Path 32119" d="M625.068,969.9h-7.5a2.1,2.1,0,0,1-2.077-1.8c-.536-3.7-2.1-12.142-5.639-16.26,0,0-1.074-4.282,2.854-5.949,0,0,3.931,2.6,2.663,10.35l2.181,8.383s5.315,1.672,7.859,4.52A.456.456,0,0,1,625.068,969.9Z" transform="translate(-472.625 -711.13)" fill="#c92027"/>
      <path id="Path_32120" data-name="Path 32120" d="M608.306,964.43l-.785,18.492h.753l2-18.492Z" transform="translate(-471.082 -724.154)" fill="#c92027"/>
      <path id="Path_32121" data-name="Path 32121" d="M501.754,783.819c-3.47-15.013-9.207-26.062-8.544-41.474l-31.785-.259a8.573,8.573,0,0,1-8.5-8.463l-.164-12.749s26.893-.292,32.844,0c3.381.167,7.591,8.85,9.282,9.645,2.818,1.324,12.888-6.737,14.028,3.015s1.6,25.369,1.726,50.283Z" transform="translate(-362.375 -552.985)" fill="#3f4249"/>
      <g id="Group_555" data-name="Group 555" transform="translate(107.725 170.469)" opacity="0.4">
        <path id="Path_32122" data-name="Path 32122" d="M546.689,790.2c-3.131-15.5-8.776-24.021-8.374-39.263l-23.28-.536,3.241-19.051c-2.217-.824-3.75-1.5-3.75-1.5l-3.5,20.557,23.28.536c-.4,15.242,5.246,23.765,8.377,39.272Z" transform="translate(-511.03 -729.85)" opacity="0.2"/>
      </g>
      <path id="Path_32123" data-name="Path 32123" d="M555.2,749.561l-.336-19.45a9.706,9.706,0,0,0-9.692-9.538l-54.883-.054.315,13.335a8.575,8.575,0,0,0,8.472,8.371l39.445.461c-.339,15.117,4.618,24.062,8.285,40.462h8.978C555.714,769.267,555.538,758.265,555.2,749.561Z" transform="translate(-388.737 -552.827)" fill="#3f4249"/>
      <path id="Path_32124" data-name="Path 32124" d="M524.781,783.318c-3.113-15.427-9.02-25.345-8.68-40.462l-49.634-.557a11.324,11.324,0,0,1-11.118-11.32V720.692l-2.931,0-.378,9.844c0,6.172,2.523,11.766,9.978,11.766l49.634.557c-.339,15.117,5.172,24.985,8.288,40.412l8.975.051Z" transform="translate(-361.869 -552.946)" opacity="0.2"/>
      <path id="Path_32125" data-name="Path 32125" d="M487.3,708.093a72.946,72.946,0,0,0-13.457,4.077c-8.972,3.553-18.682.1-18.682.1V702.8Z" transform="translate(-364.061 -540.38)" fill="#c92027"/>
      <path id="Path_32126" data-name="Path 32126" d="M434.24,583.241s5.249,6.907,19.578,6.115l-4.119-8.648Z" transform="translate(-349.366 -454.622)"/>
      <path id="Path_32127" data-name="Path 32127" d="M330.845,873.05l11.522-60.385c.223-1.506-.488-2.464,1.033-2.464h25.155a3.4,3.4,0,0,1,3.22,2.776l8.794,59.99H383.8l-8.3-60.314c-.381-2.559-3.735-4.642-6.324-4.642h-26.4a5.622,5.622,0,0,0-5.386,4.642L325.5,873.05Z" transform="translate(-272.985 -614.282)" fill="#acb0b5"/>
      <g id="Group_557" data-name="Group 557" transform="translate(64.436 195.103)" opacity="0.5">
        <g id="Group_556" data-name="Group 556" opacity="0.5">
          <path id="Path_32128" data-name="Path 32128" d="M367.382,812.629H373.2v.812h-1.655c-1.47,0-.857.9-1.015,2.312h-4.967A5.5,5.5,0,0,1,367.382,812.629Z" transform="translate(-365.561 -812.629)" opacity="0.5"/>
        </g>
      </g>
      <path id="Path_32129" data-name="Path 32129" d="M339.031,873.053h-1.97l11.725-60.618a4.892,4.892,0,0,1,4.613-3.806h27.029a4.673,4.673,0,0,1,4.482,3.872l8.969,60.9h-1.955l-8.817-60.639a2.83,2.83,0,0,0-2.678-2.312H353.4a3.038,3.038,0,0,0-2.824,2.33Z" transform="translate(-281.106 -614.717)" fill="#acb0b5"/>
      <g id="Group_559" data-name="Group 559" transform="translate(55.866 193.912)" opacity="0.5">
        <g id="Group_558" data-name="Group 558" opacity="0.5">
          <path id="Path_32130" data-name="Path 32130" d="M338.754,873.484H336.76l11.811-61.049a4.892,4.892,0,0,1,4.613-3.806h27.029a4.673,4.673,0,0,1,4.482,3.872l8.969,60.9h-1.955l-8.817-60.639a2.83,2.83,0,0,0-2.678-2.312H353.184a3.038,3.038,0,0,0-2.824,2.33Z" transform="translate(-336.76 -808.629)" opacity="0.5"/>
        </g>
      </g>
      <path id="Path_32131" data-name="Path 32131" d="M348.823,773.95c-4.973-.33-1.11-11.5-1.857-15.971l-.149-.9,1.8-.3.149.9c1.107,6.636-2.2,14.451.06,14.451,1.056,0,2.592-.051,4.72-.116,5.577-.179,14.912-.479,31.716-.479h.911v1.821h-.911c-16.778,0-26.092.3-31.66.476C351.456,773.9,349.909,773.95,348.823,773.95Z" transform="translate(-287.55 -578.296)" fill="#acb0b5"/>
      <path id="Path_32132" data-name="Path 32132" d="M391.47,774.729H354.8c-2.91,0-2.866-2.44-2.092-6.749a26.4,26.4,0,0,0,.235-8.939l1.8-.3c1.08,6.5-2.232,14.168.06,14.168H391.47Z" transform="translate(-291.783 -579.674)" fill="#80848b"/>
      <path id="Path_32133" data-name="Path 32133" d="M439.767,805.961a19.284,19.284,0,0,1-9.689,2.657H381.637c-10.781,0-22.345-.783-24.065-5.157S431.6,800.67,431.6,800.67s5.973,1.071,6.6,1.542S439.767,805.961,439.767,805.961Z" transform="translate(-295.493 -608.93)" fill="#80848b"/>
      <path id="Path_32134" data-name="Path 32134" d="M333.023,624.921l-6.431-46.953c-.122-.818-4.163-1.155-4-1.881.58-2.6,3.062-6.737,9.573-6.737h32.814a8.24,8.24,0,0,1,7.883,6.8s6.99,46.191,6.728,47.209-1.2,3.125-2.916,3.125-43.364.313-43.364.313Z" transform="translate(-270.938 -446.643)" fill="#acb0b5"/>
      <path id="Path_32135" data-name="Path 32135" d="M396.243,798.361h-38.65a3.281,3.281,0,1,1,0-6.562h38.65a3.281,3.281,0,1,1,0,6.562Z" transform="translate(-293.223 -602.895)" fill="#acb0b5"/>
      <path id="Path_32136" data-name="Path 32136" d="M533.322,804.6a2.738,2.738,0,0,1-2.708-2.381c-.057-.259-.821-3.125-7.139-3.125H490a2.8,2.8,0,0,1-2.821-2.553,2.734,2.734,0,0,1,2.729-2.916h33.573c10.082,0,12.522,6.044,12.582,8.16a2.738,2.738,0,0,1-2.577,2.809A1.5,1.5,0,0,1,533.322,804.6Zm-2.735-2.744a2.054,2.054,0,0,0,.027.357c-.006-.051-.012-.1-.015-.149A1.664,1.664,0,0,1,530.587,801.86Zm5.458-.262v0Z" transform="translate(-386.545 -604.18)" fill="#afb3b8"/>
      <g id="Group_561" data-name="Group 561" transform="translate(103.151 189.449)" opacity="0.15">
        <g id="Group_560" data-name="Group 560" opacity="0.15">
          <path id="Path_32137" data-name="Path 32137" d="M539.285,804.6a2.738,2.738,0,0,1-2.708-2.381c-.057-.259-.821-3.125-7.139-3.125H498.487a2.8,2.8,0,0,1-2.821-2.553,2.734,2.734,0,0,1,2.729-2.916h31.047c10.082,0,12.522,6.044,12.582,8.16a2.738,2.738,0,0,1-2.577,2.809A1.5,1.5,0,0,1,539.285,804.6Zm-2.735-2.744a2.06,2.06,0,0,0,.027.357c-.006-.051-.012-.1-.015-.149A1.664,1.664,0,0,1,536.551,801.86Zm5.458-.262v0Z" transform="translate(-495.66 -793.629)" fill="#80848b" opacity="0.15"/>
        </g>
      </g>
      <path id="Path_32138" data-name="Path 32138" d="M532.73,773.345H496.344a2.119,2.119,0,0,1-2.077-2.223c.051-3.931,1.458-5.99.179-13.665l-.515-.387,2.128-.3.149.9c1.274,7.633-1.875,13.855.128,13.855H532.73Z" transform="translate(-391.294 -578.29)" fill="#acb0b5"/>
      <path id="Path_32139" data-name="Path 32139" d="M537.456,775.027H501.3c-4.493,0-.336-7.892-1.9-15.95l1.839-.336c1.107,6.645-1.592,14.465.664,14.465h35.549Z" transform="translate(-394.953 -579.674)" fill="#80848b"/>
      <path id="Path_32140" data-name="Path 32140" d="M533.352,868.561l-8.806-62.808a2.809,2.809,0,0,0-2.663-2.309H494.853a2.812,2.812,0,0,0-2.663,2.309l-8.755,62.377H481.48l8.9-62.633a4.651,4.651,0,0,1,4.467-3.877H521.88a4.65,4.65,0,0,1,4.467,3.877l8.969,63.073Z" transform="translate(-382.548 -609.793)" fill="#acb0b5"/>
      <path id="Path_32141" data-name="Path 32141" d="M475.423,868.049l8.556-62.388c.223-1.506-.488-3.017,1.033-3.017l25.155.553a3.4,3.4,0,0,1,3.22,2.776l8.788,62.159h3.214l-8.276-62.48c-.381-2.559-3.827-4.547-6.416-4.547l-26.309-.1A5.622,5.622,0,0,0,479,805.652l-8.859,62.4Z" transform="translate(-374.584 -609.365)" fill="#acb0b5"/>
      <g id="Group_563" data-name="Group 563" transform="translate(98.878 191.826)" opacity="0.5">
        <g id="Group_562" data-name="Group 562" opacity="0.5">
          <path id="Path_32142" data-name="Path 32142" d="M533.225,868.561l-8.805-62.808a2.809,2.809,0,0,0-2.663-2.309H494.727a2.812,2.812,0,0,0-2.663,2.309l-8.8,62.725H481.3l8.957-62.981a4.651,4.651,0,0,1,4.467-3.877h27.029a4.65,4.65,0,0,1,4.467,3.877l8.969,63.073Z" transform="translate(-481.3 -801.619)" opacity="0.5"/>
        </g>
      </g>
      <path id="Path_32143" data-name="Path 32143" d="M328.881,629.2l-6.434-46.953c-.122-.818-2.913-1.155-2.753-1.881.58-2.6,5.663-4.922,8.618-4.922h32.814a8.237,8.237,0,0,1,7.883,6.8l6.33,48.39-1.875.44h-44.3Z" transform="translate(-268.902 -450.927)" fill="#80848b"/>
      <path id="Path_32144" data-name="Path 32144" d="M328.323,575.449h32.814a8.2,8.2,0,0,1,6.461,3.416.874.874,0,0,1-.417-.292c-.937-1.042-1.771,1.146-1.771,1.979,0,.658-29.52,3.464-42.531,4.559l-.423-2.86c-.122-.818-2.913-1.155-2.753-1.881C320.283,577.767,325.368,575.449,328.323,575.449Z" transform="translate(-268.91 -450.927)" fill="#80848b"/>
      <path id="Path_32145" data-name="Path 32145" d="M323.311,635.515l-6.434-46.956a5.77,5.77,0,0,1,5.868-6.8h34.377a8.237,8.237,0,0,1,7.883,6.8l6.434,46.956s-10.21,2.6-26.461,2.6S323.311,635.515,323.311,635.515Z" transform="translate(-266.877 -455.36)" fill="#acb0b5"/>
      <g id="Group_565" data-name="Group 565" transform="translate(62.55 195.353)" opacity="0.5">
        <g id="Group_564" data-name="Group 564" opacity="0.5">
          <path id="Path_32146" data-name="Path 32146" d="M401.323,813.469h-42.1l.646.679h41.269Z" transform="translate(-359.221 -813.469)" opacity="0.5"/>
        </g>
      </g>
      <g id="Group_567" data-name="Group 567" transform="translate(87.564 199.685)" opacity="0.5">
        <g id="Group_566" data-name="Group 566" opacity="0.5">
          <path id="Path_32147" data-name="Path 32147" d="M454.654,828.029H443.28v2.279h11.707Z" transform="translate(-443.28 -828.029)" opacity="0.5"/>
        </g>
      </g>
      <g id="Group_569" data-name="Group 569" transform="translate(108.8 199.685)" opacity="0.5">
        <g id="Group_568" data-name="Group 568" opacity="0.5">
          <path id="Path_32148" data-name="Path 32148" d="M520.509,828.029h-5.553l-.315,2.279h5.868v-2.279Z" transform="translate(-514.641 -828.029)" opacity="0.5"/>
        </g>
      </g>
      <path id="Path_32149" data-name="Path 32149" d="M516.3,498.919a3.949,3.949,0,0,1-4.041-3.259c-.6-3.431,3.63-3.9,4.1-.452l.229,3.744Z" transform="translate(-404.124 -392.904)" fill="#f59696"/>
      <path id="Path_32150" data-name="Path 32150" d="M547.25,623.18l8.073,9.3a12.02,12.02,0,0,1,.482,3.163Z" transform="translate(-428.746 -484.454)" opacity="0.15"/>
      <path id="Path_32151" data-name="Path 32151" d="M520.658,507.39a.679.679,0,1,1,.592.756A.679.679,0,0,1,520.658,507.39Z" transform="translate(-410.065 -402.702)" fill="#c92027"/>
      <g id="Group_571" data-name="Group 571" transform="translate(109.119 100.742)" opacity="0.15">
        <g id="Group_570" data-name="Group 570" opacity="0.15">
          <path id="Path_32152" data-name="Path 32152" d="M515.85,495.8a1.336,1.336,0,0,1,1.039-.235,1.25,1.25,0,0,1,.8.681,2.511,2.511,0,0,1,.327,1.342l-.009.357c0,.262-.464.336-.458.009l-.018-.393a2.377,2.377,0,0,0-.259-1.107.962.962,0,0,0-.527-.488.951.951,0,0,0-.705.176.247.247,0,0,1-.318-.071A.253.253,0,0,1,515.85,495.8Z" transform="translate(-515.714 -495.539)" opacity="0.15"/>
        </g>
      </g>
      <g id="Group_573" data-name="Group 573" transform="translate(110.59 104.236)" opacity="0.15">
        <g id="Group_572" data-name="Group 572" opacity="0.15">
          <path id="Path_32153" data-name="Path 32153" d="M521.566,508.425a.736.736,0,0,1-.723-.771.757.757,0,0,1,.143-.375.759.759,0,0,0-.327.548.667.667,0,0,0,.667.7.606.606,0,0,0,.4-.113C521.667,508.4,521.6,508.395,521.566,508.425Z" transform="translate(-520.658 -507.279)" opacity="0.15"/>
        </g>
      </g>
      <path id="Path_32154" data-name="Path 32154" d="M642.909,691.41h24.179a.379.379,0,0,1,.369.369v.613a.379.379,0,0,1-.369.369H642.909a.379.379,0,0,1-.369-.369v-.613A.362.362,0,0,1,642.909,691.41Z" transform="translate(-495.68 -532.38)" fill="#21252b"/>
      <g id="Group_575" data-name="Group 575" transform="translate(146.86 159.03)" opacity="0.6">
        <g id="Group_574" data-name="Group 574" opacity="0.6">
          <path id="Path_32155" data-name="Path 32155" d="M642.909,691.41h24.179a.379.379,0,0,1,.369.369v.613a.379.379,0,0,1-.369.369H642.909a.379.379,0,0,1-.369-.369v-.613A.362.362,0,0,1,642.909,691.41Z" transform="translate(-642.54 -691.41)" opacity="0.6"/>
        </g>
      </g>
      <path id="Path_32156" data-name="Path 32156" d="M699.93,691.41h42.153a.379.379,0,0,1,.369.369v.613a.379.379,0,0,1-.369.369H699.93a.379.379,0,0,1-.369-.369v-.613A.4.4,0,0,1,699.93,691.41Z" transform="translate(-535.732 -532.38)" fill="#21252b"/>
      <g id="Group_577" data-name="Group 577" transform="translate(163.349 159.03)" opacity="0.6">
        <g id="Group_576" data-name="Group 576" opacity="0.6">
          <path id="Path_32157" data-name="Path 32157" d="M740.983,691.654H698.072a.122.122,0,0,1,0-.244h42.911a.114.114,0,0,1,.122.122A.129.129,0,0,1,740.983,691.654Z" transform="translate(-697.95 -691.41)" opacity="0.6"/>
        </g>
      </g>
      <path id="Path_32158" data-name="Path 32158" d="M698.933,620.563h40.778a1.022,1.022,0,0,0,1.006-.833l5.321-27.979a1.012,1.012,0,0,0-1.006-1.2H704.281a1.022,1.022,0,0,0-1.006.833l-5.321,27.979A1,1,0,0,0,698.933,620.563Z" transform="translate(-534.59 -461.534)" fill="#21252b"/>
      <path id="Path_32159" data-name="Path 32159" d="M702.171,621.518H741.4a.977.977,0,0,0,.958-.795l5.071-26.657a.965.965,0,0,0-.958-1.146h-39.2a.977.977,0,0,0-.958.795l-5.071,26.657A.948.948,0,0,0,702.171,621.518Z" transform="translate(-536.896 -463.199)" fill="#c92027"/>
      <path id="Path_32160" data-name="Path 32160" d="M611.106,639.219c.952-.4,3.092-1.866,2.806-2.768,0,0,.958-.756.664-1.181l-1.348.568s1.91-1.238,1.574-2.348c0,0,.2-.378-.006-.61s-1.19.47-1.925.914l-1.419.571a2.971,2.971,0,0,1-1.946.1c-.31-.092-.914-.351-.842-.667.155-.685,1.024-1.857.574-3.4,0,0-.5-.292-.884.4-.491.881-1.479,1.863-1.836,2.5-.205.366-.53.908-.762,1.342a5.033,5.033,0,0,1-1.467,1.235l-13.028,7.377-10.439-15.632-9.68,6.886,15.915,18.042a3.7,3.7,0,0,0,5.109.42l15.54-13.21A11.053,11.053,0,0,0,611.106,639.219Z" transform="translate(-445.528 -487.572)" fill="#fb9c9c"/>
      <g id="Group_578" data-name="Group 578" transform="translate(166.643 145.802)" opacity="0.15">
        <path id="Path_32161" data-name="Path 32161" d="M709.129,648.809a.109.109,0,0,1-.1-.074.113.113,0,0,1,.068-.143,7.5,7.5,0,0,0,2.476-1.6.111.111,0,0,1,.158.157,7.555,7.555,0,0,1-2.562,1.655A.076.076,0,0,1,709.129,648.809Z" transform="translate(-709.019 -646.957)" opacity="0.15"/>
      </g>
      <g id="Group_579" data-name="Group 579" transform="translate(167.013 148.765)" opacity="0.15">
        <path id="Path_32162" data-name="Path 32162" d="M710.375,657.679a.112.112,0,0,1-.027-.22,5.656,5.656,0,0,0,1.229-.527.109.109,0,0,1,.152.042.112.112,0,0,1-.042.152,5.88,5.88,0,0,1-1.291.551A.051.051,0,0,1,710.375,657.679Z" transform="translate(-710.262 -656.916)" opacity="0.15"/>
      </g>
      <path id="Path_32163" data-name="Path 32163" d="M678.125,382.6H662.8v31.722h15.326Z" transform="translate(-509.911 -315.467)" fill="#fff"/>
      <path id="Path_32164" data-name="Path 32164" d="M735.337,491.1H716.5v28.6h18.837Z" transform="translate(-547.63 -391.679)" fill="#fff"/>
      <path id="Path_32165" data-name="Path 32165" d="M678.125,197.937V171.661L662.8,170.5v27.437Z" transform="translate(-509.911 -166.484)" fill="#fff"/>
      <path id="Path_32166" data-name="Path 32166" d="M678.125,264.6H662.8v32.823h15.326Z" transform="translate(-509.911 -232.581)" fill="#fff"/>
      <path id="Path_32167" data-name="Path 32167" d="M678.125,491.1H662.8v28.6h15.326Z" transform="translate(-509.911 -391.679)" fill="#fff"/>
      <path id="Path_32168" data-name="Path 32168" d="M1056.585,217.675V199.939L1038.7,198.6v19.075Z" transform="translate(-773.949 -186.222)" fill="#fff"/>
      <path id="Path_32169" data-name="Path 32169" d="M967.7,214.022h18.837V194.8L967.7,193.4Z" transform="translate(-724.078 -182.569)" fill="#fff"/>
      <path id="Path_32170" data-name="Path 32170" d="M929.326,211.213V190.531L914,189.4v21.843h15.326Z" transform="translate(-686.358 -179.76)" fill="#fff"/>
      <path id="Path_32171" data-name="Path 32171" d="M1101,220.977h16.575V204.551L1101,203.3Z" transform="translate(-817.71 -189.524)" fill="#fff"/>
      <path id="Path_32172" data-name="Path 32172" d="M716.5,200.817h18.837V176L716.5,174.6Z" transform="translate(-547.63 -169.364)" fill="#fff"/>
      <path id="Path_32173" data-name="Path 32173" d="M849.8,207.771h16.575V185.75L849.8,184.5Z" transform="translate(-641.263 -176.318)" fill="#fff"/>
      <path id="Path_32174" data-name="Path 32174" d="M805.485,204.54v-23.3L787.6,179.9v24.64Z" transform="translate(-597.572 -173.087)" fill="#fff"/>
      <path id="Path_32175" data-name="Path 32175" d="M866.375,491.1H849.8v28.6h16.575Z" transform="translate(-641.263 -391.679)" fill="#fff"/>
      <path id="Path_32176" data-name="Path 32176" d="M986.537,264.6H967.7v32.823h18.837Z" transform="translate(-724.078 -232.581)" fill="#fff"/>
      <path id="Path_32177" data-name="Path 32177" d="M1056.585,491.1H1038.7v28.6h17.885Z" transform="translate(-773.949 -391.679)" fill="#fff"/>
      <path id="Path_32178" data-name="Path 32178" d="M986.537,382.6H967.7v31.722h18.837Z" transform="translate(-724.078 -315.467)" fill="#fff"/>
      <path id="Path_32179" data-name="Path 32179" d="M1056.585,382.6H1038.7v31.722h17.885Z" transform="translate(-773.949 -315.467)" fill="#fff"/>
      <path id="Path_32180" data-name="Path 32180" d="M1117.575,382.6H1101v31.722h16.575Z" transform="translate(-817.71 -315.467)" fill="#fff"/>
      <path id="Path_32181" data-name="Path 32181" d="M1056.585,264.6H1038.7v32.823h17.885Z" transform="translate(-773.949 -232.581)" fill="#fff"/>
      <path id="Path_32182" data-name="Path 32182" d="M1117.575,264.6H1101v32.823h16.575Z" transform="translate(-817.71 -232.581)" fill="#fff"/>
      <path id="Path_32183" data-name="Path 32183" d="M986.537,491.1H967.7v28.6h18.837Z" transform="translate(-724.078 -391.679)" fill="#fff"/>
      <path id="Path_32184" data-name="Path 32184" d="M1117.575,491.1H1101v28.6h16.575Z" transform="translate(-817.71 -391.679)" fill="#fff"/>
      <path id="Path_32185" data-name="Path 32185" d="M929.326,382.6H914v31.722h15.326Z" transform="translate(-686.358 -315.467)" fill="#fff"/>
      <path id="Path_32186" data-name="Path 32186" d="M805.485,382.6H787.6v31.722h17.885Z" transform="translate(-597.572 -315.467)" fill="#fff"/>
      <path id="Path_32187" data-name="Path 32187" d="M805.485,264.6H787.6v32.823h17.885Z" transform="translate(-597.572 -232.581)" fill="#fff"/>
      <path id="Path_32188" data-name="Path 32188" d="M805.485,491.1H787.6v28.6h17.885Z" transform="translate(-597.572 -391.679)" fill="#fff"/>
      <path id="Path_32189" data-name="Path 32189" d="M735.337,264.6H716.5v32.823h18.837Z" transform="translate(-547.63 -232.581)" fill="#fff"/>
      <path id="Path_32190" data-name="Path 32190" d="M929.326,491.1H914v28.6h15.326Z" transform="translate(-686.358 -391.679)" fill="#fff"/>
      <path id="Path_32191" data-name="Path 32191" d="M735.337,382.6H716.5v31.722h18.837Z" transform="translate(-547.63 -315.467)" fill="#fff"/>
      <path id="Path_32192" data-name="Path 32192" d="M866.375,382.6H849.8v31.722h16.575Z" transform="translate(-641.263 -315.467)" fill="#fff"/>
      <path id="Path_32193" data-name="Path 32193" d="M929.326,264.6H914v32.823h15.326Z" transform="translate(-686.358 -232.581)" fill="#fff"/>
      <path id="Path_32194" data-name="Path 32194" d="M866.375,264.6H849.8v32.823h16.575Z" transform="translate(-641.263 -232.581)" fill="#fff"/>
      <path id="Path_32195" data-name="Path 32195" d="M1226.4,750.3l.625,14.909h2.291l-.684-14.909Z" transform="translate(-905.793 -573.746)" fill="#acb0b5"/>
      <path id="Path_32196" data-name="Path 32196" d="M1220.7,750.3l.625,14.909h2.291L1222.9,750.3Z" transform="translate(-901.789 -573.746)" fill="#80848b"/>
      <path id="Path_32197" data-name="Path 32197" d="M1085.6,750.3l.625,14.909h2.292l-.685-14.909Z" transform="translate(-806.893 -573.746)" fill="#acb0b5"/>
      <path id="Path_32198" data-name="Path 32198" d="M1079.8,750.3l.625,14.909h2.291l-.684-14.909Z" transform="translate(-802.819 -573.746)" fill="#80848b"/>
      <path id="Path_32199" data-name="Path 32199" d="M1130.461,614.181a5.568,5.568,0,0,0,4.375-5l3.63-44.37a7.86,7.86,0,0,0-7.826-8.511h-33.032a8.649,8.649,0,0,0-8.3,7.172l-5.505,49.518s10.772,2.738,27.913,2.738A91.764,91.764,0,0,0,1130.461,614.181Z" transform="translate(-805.628 -437.477)" fill="#acb0b5"/>
      <path id="Path_32200" data-name="Path 32200" d="M1015.495,874.005l-11.457-59.963c-.238-1.518.476-2.47-1.042-2.47h-17.26a3.4,3.4,0,0,0-3.214,2.768l-8.779,59.7H970.5l8.273-59.993c.387-2.559,3.72-4.642,6.309-4.642h18.51a5.625,5.625,0,0,1,5.386,4.642l11.784,59.963Z" transform="translate(-726.044 -615.258)" fill="#acb0b5"/>
      <path id="Path_32201" data-name="Path 32201" d="M1080,814h-5.8v.8h1.667c1.458,0,.863.893,1.012,2.321h4.97A5.628,5.628,0,0,0,1080,814Z" transform="translate(-798.885 -618.489)" opacity="0.5"/>
      <path id="Path_32202" data-name="Path 32202" d="M1010.859,874.427h1.964L1001.1,813.809A4.916,4.916,0,0,0,996.485,810H977.351a4.7,4.7,0,0,0-4.493,3.869L963.9,874.486h1.964l8.808-60.35a2.826,2.826,0,0,1,2.678-2.321h19.135a3.046,3.046,0,0,1,2.827,2.321Z" transform="translate(-721.408 -615.68)" fill="#acb0b5"/>
      <g id="Group_580" data-name="Group 580" transform="translate(242.492 194.32)" opacity="0.5">
        <path id="Path_32203" data-name="Path 32203" d="M1010.859,874.427h1.964L1001.1,813.809A4.916,4.916,0,0,0,996.485,810H977.351a4.7,4.7,0,0,0-4.493,3.869L963.9,874.486h1.964l8.808-60.35a2.826,2.826,0,0,1,2.678-2.321h19.135a3.046,3.046,0,0,1,2.827,2.321Z" transform="translate(-963.9 -810)" opacity="0.5"/>
      </g>
      <path id="Path_32204" data-name="Path 32204" d="M1081.7,869.51l8.779-62.373a2.826,2.826,0,0,1,2.678-2.321h27.021a2.82,2.82,0,0,1,2.648,2.321l8.749,62.373h1.964l-8.9-62.641a4.643,4.643,0,0,0-4.464-3.869h-27.021a4.643,4.643,0,0,0-4.464,3.869l-8.9,62.641Z" transform="translate(-802.819 -610.763)" fill="#acb0b5"/>
      <path id="Path_32205" data-name="Path 32205" d="M1136.2,869.445l-8.541-62.4c-.238-1.518.476-3.006-1.042-3.006l-25.146.565a3.4,3.4,0,0,0-3.214,2.768l-8.749,61.719H1086.3l8.243-62.046c.387-2.559,3.839-4.553,6.428-4.553l26.306-.089a5.625,5.625,0,0,1,5.386,4.642l8.868,62.4Z" transform="translate(-807.384 -610.341)" fill="#acb0b5"/>
      <g id="Group_581" data-name="Group 581" transform="translate(276.981 192.237)" opacity="0.5">
        <path id="Path_32206" data-name="Path 32206" d="M1081.7,869.51l8.779-62.373a2.826,2.826,0,0,1,2.678-2.321h27.021a2.82,2.82,0,0,1,2.648,2.321l8.808,62.73h1.964l-8.957-63a4.643,4.643,0,0,0-4.464-3.869h-27.021a4.643,4.643,0,0,0-4.464,3.869l-8.9,62.641Z" transform="translate(-1079.8 -803)" opacity="0.5"/>
      </g>
      <path id="Path_32207" data-name="Path 32207" d="M991.4,807.713a15.846,15.846,0,0,0,9.374,3.095h61.689a3.924,3.924,0,0,0,3.928-3.928l-.03-3.273c1.726-4.374-67.135-.744-67.135-.744s-5.981,1.071-6.606,1.547C992.025,804.857,991.4,807.713,991.4,807.713Z" transform="translate(-740.725 -609.673)" fill="#80848b"/>
      <path id="Path_32208" data-name="Path 32208" d="M1116.487,803.9h33.3a2.349,2.349,0,0,0,1.964-1.042,2.846,2.846,0,0,0-2.262-4.553h-32.913a2.863,2.863,0,0,0-2.887,2.619A2.818,2.818,0,0,0,1116.487,803.9Z" transform="translate(-826.62 -607.462)" fill="#acb0b5"/>
      <path id="Path_32209" data-name="Path 32209" d="M1039.06,798.3H991.715a15.461,15.461,0,0,0-8.689,2.2,2.613,2.613,0,0,0-.03,4.345c.06.06.149.089.208.149a2.66,2.66,0,0,0,2.916.03,10.317,10.317,0,0,1,5.595-1.25h47.256a2.8,2.8,0,0,0,2.827-2.559A2.738,2.738,0,0,0,1039.06,798.3Z" transform="translate(-734.017 -607.462)" fill="#afb3b8"/>
      <path id="Path_32210" data-name="Path 32210" d="M1129.18,619.858a5.219,5.219,0,0,0,4.136-4.732l4.315-46.572a7.185,7.185,0,0,0-7.172-7.856h-33.716a8.26,8.26,0,0,0-7.886,6.785l-3.958,51.244s10.207,2.619,26.455,2.619A86.233,86.233,0,0,0,1129.18,619.858Z" transform="translate(-806.401 -440.566)" fill="#80848b"/>
      <path id="Path_32211" data-name="Path 32211" d="M1038.673,798.5H991.715a15.635,15.635,0,0,0-8.689,2.2,2.613,2.613,0,0,0-.03,4.345c.06.06.149.089.208.149a2.66,2.66,0,0,0,2.916.03,10.318,10.318,0,0,1,5.595-1.25h46.839a2.8,2.8,0,0,0,2.827-2.559A2.7,2.7,0,0,0,1038.673,798.5Z" transform="translate(-734.017 -607.602)" fill="#acb0b5"/>
      <path id="Path_32212" data-name="Path 32212" d="M1118.491,622.88a5.568,5.568,0,0,0,4.374-5l3.66-45.709a6.076,6.076,0,0,0-6.19-7.172H1084.09a8.649,8.649,0,0,0-8.3,7.172l-3.988,49.518s10.772,2.738,27.913,2.738A89.738,89.738,0,0,0,1118.491,622.88Z" transform="translate(-797.199 -443.587)" fill="#acb0b5"/>
      <path id="Path_32213" data-name="Path 32213" d="M1072.5,811.109l-.03-2.41-.149.655a2.355,2.355,0,0,1-2.291,1.845l-67.016-.089a6.564,6.564,0,0,0-2.916.684h72.372Z" transform="translate(-746.836 -614.766)" opacity="0.5"/>
      <path id="Path_32214" data-name="Path 32214" d="M861.984,949.074l-3.184,9.017,5.267,4.82,6.517-2.975,3.363-6.249-6.934-7.886Z" transform="translate(-647.584 -711.069)" fill="#fb9c9c"/>
      <path id="Path_32215" data-name="Path 32215" d="M868.5,798.606l11.933,4.672,28.211-52.7H947.33V730.4H901.175a8.776,8.776,0,0,0-8.124,5.446Z" transform="translate(-654.398 -559.767)" fill="#c92027"/>
      <path id="Path_32216" data-name="Path 32216" d="M868.5,798.606l11.933,4.672,28.211-52.7H947.33V730.4H901.175a8.776,8.776,0,0,0-8.124,5.446Z" transform="translate(-654.398 -559.767)" fill="#fff" opacity="0.2"/>
      <path id="Path_32217" data-name="Path 32217" d="M884.3,809.259h4.047l31.573-58.683h41.394V730.4H925.069a8.776,8.776,0,0,0-8.124,5.446Z" transform="translate(-665.496 -559.767)" opacity="0.2"/>
      <path id="Path_32218" data-name="Path 32218" d="M963.244,949,960,958.2l5.327,4.643,6.279-2.53,3.6-6.725-6.934-7.886Z" transform="translate(-718.669 -710.997)" fill="#fb9c9c"/>
      <path id="Path_32219" data-name="Path 32219" d="M970.9,796.789l11.963,4.612,27.824-51.809h24.074a7.207,7.207,0,0,0,7.2-7.2V729l-38.745.446a8.776,8.776,0,0,0-8.124,5.446Z" transform="translate(-726.325 -558.784)" fill="#c92027"/>
      <path id="Path_32220" data-name="Path 32220" d="M970.9,796.789l11.963,4.612,27.824-51.809h24.074a7.207,7.207,0,0,0,7.2-7.2V729l-38.745.446a8.776,8.776,0,0,0-8.124,5.446Z" transform="translate(-726.325 -558.784)" fill="#fff" opacity="0.2"/>
      <path id="Path_32221" data-name="Path 32221" d="M1007.264,745.378c2.024-3.928,4.255-5.089,8.689-5.089l25.414.387-.149-11.576h5.089v13.213a7.347,7.347,0,0,1-7.35,7.35h-23.9L982.237,810.7,977,809Z" transform="translate(-730.61 -558.854)" opacity="0.2"/>
      <path id="Path_32222" data-name="Path 32222" d="M834.595,985.392a7.167,7.167,0,0,1-6.517-.06s-1.012-3.095-3.809-1.28a16.468,16.468,0,0,1-8.035,4.583c-6.636,1.339-6.934,4.434-6.934,4.434h27.288a61.12,61.12,0,0,0-.536-6.874A1.075,1.075,0,0,0,834.595,985.392Z" transform="translate(-612.815 -737.536)"/>
      <path id="Path_32223" data-name="Path 32223" d="M816.493,1000.61s1.854.533,3.253,6.038L809.3,1005.1C809.3,1005.13,809.291,1002.009,816.493,1000.61Z" transform="translate(-612.815 -749.567)" fill="#3f4249"/>
      <path id="Path_32224" data-name="Path 32224" d="M809.3,1018.865h27.288V1015.8H809.3Z" transform="translate(-612.815 -760.237)" fill="#3f4249"/>
      <path id="Path_32225" data-name="Path 32225" d="M844.915,998.066a.245.245,0,0,0,.179.119.225.225,0,0,0,.119-.03.231.231,0,0,0,.089-.3A2.914,2.914,0,0,0,843.7,996.4c-.208.089-.387.208-.6.3.03.03.06.03.119.03C843.219,996.727,844.141,996.727,844.915,998.066Z" transform="translate(-636.556 -746.61)" fill="#fff"/>
      <path id="Path_32226" data-name="Path 32226" d="M849.415,995.5a.245.245,0,0,0,.179.119.225.225,0,0,0,.119-.03.231.231,0,0,0,.089-.3,3.006,3.006,0,0,0-1.666-1.488c-.179.119-.357.208-.536.327.03.03.06.03.119.03C847.749,994.158,848.671,994.188,849.415,995.5Z" transform="translate(-639.717 -744.785)" fill="#fff"/>
      <path id="Path_32227" data-name="Path 32227" d="M854.045,992.626a.245.245,0,0,0,.178.119.225.225,0,0,0,.119-.03.206.206,0,0,0,.089-.3,2.819,2.819,0,0,0-1.786-1.518c-.149.119-.3.208-.446.327a.227.227,0,0,0,.149.06S853.271,991.287,854.045,992.626Z" transform="translate(-642.948 -742.747)" fill="#fff"/>
      <path id="Path_32228" data-name="Path 32228" d="M819.8,1015H809.3a.521.521,0,0,1,.03-.149.522.522,0,0,0,.03-.149h10.415a.141.141,0,0,1,.149.149C819.924,1014.938,819.894,1015,819.8,1015Z" transform="translate(-612.815 -759.464)"/>
      <path id="Path_32229" data-name="Path 32229" d="M934.924,985.992a7.165,7.165,0,0,1-6.517-.06s-1.012-3.095-3.809-1.28a16.289,16.289,0,0,1-8.035,4.583c-6.666,1.339-6.963,4.434-6.963,4.434h27.288a60.322,60.322,0,0,0-.536-6.844A1.025,1.025,0,0,0,934.924,985.992Z" transform="translate(-683.267 -737.958)"/>
      <path id="Path_32230" data-name="Path 32230" d="M913.6,998.3s3.035,1.4,4.434,6.9l-11.338-.476C906.7,1004.758,906.4,999.7,913.6,998.3Z" transform="translate(-681.226 -747.945)" fill="#3f4249"/>
      <path id="Path_32231" data-name="Path 32231" d="M909.7,1019.465h27.288V1016.4H909.7Z" transform="translate(-683.337 -760.659)" fill="#3f4249"/>
      <path id="Path_32232" data-name="Path 32232" d="M945.315,998.066a.245.245,0,0,0,.179.119.225.225,0,0,0,.119-.03.206.206,0,0,0,.089-.3A2.914,2.914,0,0,0,944.1,996.4c-.208.089-.387.208-.6.3.03.03.059.03.119.03C943.619,996.727,944.542,996.727,945.315,998.066Z" transform="translate(-707.079 -746.61)" fill="#fff"/>
      <path id="Path_32233" data-name="Path 32233" d="M949.815,995.5a.245.245,0,0,0,.179.119.225.225,0,0,0,.119-.03.206.206,0,0,0,.089-.3,3.006,3.006,0,0,0-1.666-1.488c-.179.119-.357.208-.536.327.03.03.059.03.119.03C948.149,994.158,949.071,994.188,949.815,995.5Z" transform="translate(-710.24 -744.785)" fill="#fff"/>
      <path id="Path_32234" data-name="Path 32234" d="M954.445,992.626a.245.245,0,0,0,.179.119.225.225,0,0,0,.119-.03.231.231,0,0,0,.089-.3,2.818,2.818,0,0,0-1.785-1.518c-.149.119-.3.208-.446.327a.227.227,0,0,0,.149.06S953.671,991.287,954.445,992.626Z" transform="translate(-713.471 -742.747)" fill="#fff"/>
      <path id="Path_32235" data-name="Path 32235" d="M920.2,1015H909.7a.521.521,0,0,1,.03-.149.521.521,0,0,0,.03-.149h10.415a.141.141,0,0,1,.149.149C920.324,1014.938,920.294,1015,920.2,1015Z" transform="translate(-683.337 -759.464)"/>
      <path id="Path_32236" data-name="Path 32236" d="M1056.1,616.368l4.464-37.614c.565-3.839,1.1-7.142,4.851-8.035l10.624-2.619,14.552.149,13.421,3.214a9.435,9.435,0,0,1,7.142,10.594l-1.577,10.3-2.649,5.714c-.119.327-.208.655-.3.982l-2.44,13.391a4.954,4.954,0,0,1-4.91,4.077" transform="translate(-786.171 -445.765)" fill="#21252b"/>
      <path id="Path_32237" data-name="Path 32237" d="M916.744,551.722c1.19.119,1.756,1.964,2.321,3.273l5.3-4.345.268-1.547c-2.47-3.958-8.63-5.3-9.225-5.357-1.547-.149-2.262-.3-2.41-.089-.119.208-.506,1.577,1.756,1.875,2.827.357.952,2.619-4.791.446-1.428-.536-4.136.149-3.154,1.22C907.906,548.359,910.108,551.156,916.744,551.722Z" transform="translate(-681.157 -428.524)" fill="#f69797"/>
      <path id="Path_32238" data-name="Path 32238" d="M1000.458,563.915l-5.892,1.339a44.4,44.4,0,0,0-14.7,6.279l-12.737,8.422L954.065,562.1l-5.565,5.922,13.927,22.914a5.22,5.22,0,0,0,7.291,1.845l16.159-10.088Z" transform="translate(-710.591 -441.55)" fill="#21252b"/>
      <path id="Path_32239" data-name="Path 32239" d="M1082.689,717l-.089.03Z" transform="translate(-804.785 -550.355)" opacity="0.2"/>
      <path id="Path_32240" data-name="Path 32240" d="M1046.7,698.761h-6.964a1.93,1.93,0,0,1-1.934-1.934V685.4h10.862v11.427A1.975,1.975,0,0,1,1046.7,698.761Z" transform="translate(-773.317 -528.159)" fill="#21252b"/>
      <path id="Path_32241" data-name="Path 32241" d="M1046.7,698.761h-6.964a1.93,1.93,0,0,1-1.934-1.934V685.4h10.862v11.427A1.975,1.975,0,0,1,1046.7,698.761Z" transform="translate(-773.317 -528.159)" opacity="0.6"/>
      <g id="Group_582" data-name="Group 582" transform="translate(275.315 158.818)" opacity="0.6">
        <path id="Path_32242" data-name="Path 32242" d="M1075.9,698.585h-1.7v-.833h1.7a.788.788,0,0,0,.774-.774v-4.672a.768.768,0,0,0-.774-.774h-1.7V690.7h1.7a1.587,1.587,0,0,1,1.577,1.577v4.672A1.582,1.582,0,0,1,1075.9,698.585Z" transform="translate(-1074.2 -690.699)" opacity="0.6"/>
      </g>
      <path id="Path_32243" data-name="Path 32243" d="M1075.9,698.585h-1.7v-.833h1.7a.788.788,0,0,0,.774-.774v-4.672a.768.768,0,0,0-.774-.774h-1.7V690.7h1.7a1.587,1.587,0,0,1,1.577,1.577v4.672A1.582,1.582,0,0,1,1075.9,698.585Z" transform="translate(-798.885 -531.881)" opacity="0.6"/>
      <path id="Path_32244" data-name="Path 32244" d="M1051.091,687.639v-.833h-.744V685.2h-2.381v11.249a1.74,1.74,0,0,1-1.756,1.756H1040.2a1.914,1.914,0,0,0,1.22.446h6.963a1.93,1.93,0,0,0,1.934-1.934v-1.964h.744v-.833h-.744V687.7Z" transform="translate(-775.003 -528.017)" opacity="0.2"/>
      <path id="Path_32245" data-name="Path 32245" d="M1039.8,662.857a.141.141,0,0,1-.149-.149,1.886,1.886,0,0,0-1.875-1.875h-.922a1.458,1.458,0,0,1,0-2.916h5.178a1.19,1.19,0,1,0,0-2.381h-1.25a1.492,1.492,0,0,1-1.488-1.488.136.136,0,0,1,.119-.149.159.159,0,0,1,.149.149,1.207,1.207,0,0,0,1.22,1.22h1.25a1.458,1.458,0,1,1,0,2.916h-5.178a1.19,1.19,0,1,0,0,2.381h.922a2.153,2.153,0,0,1,2.143,2.143A.136.136,0,0,1,1039.8,662.857Z" transform="translate(-771.631 -506.032)" fill="#fff"/>
      <path id="Path_32246" data-name="Path 32246" d="M1056.68,669.918c-.089,0-.119-.06-.119-.149v-.327a.415.415,0,0,0-.446-.417.7.7,0,0,1-.714-.714v-.565a.7.7,0,0,1,.714-.714h.863a2.153,2.153,0,0,0,2.143-2.143v-1.042a.136.136,0,0,1,.119-.149.159.159,0,0,1,.149.149v1.012a2.419,2.419,0,0,1-2.41,2.41h-.863a.407.407,0,0,0-.417.417v.565a.432.432,0,0,0,.417.446.7.7,0,0,1,.714.714v.327C1056.8,669.859,1056.739,669.918,1056.68,669.918Z" transform="translate(-785.68 -512.915)" fill="#fff"/>
      <path id="Path_32247" data-name="Path 32247" d="M1064.286,636.908l-.238,12.082H1061.4l1.815-14.909C1063.691,632.058,1064.286,636.611,1064.286,636.908Z" transform="translate(-789.894 -491.749)" opacity="0.2"/>
      <path id="Path_32248" data-name="Path 32248" d="M1123.175,560.116c.208-2.143,3.482-3.6,7.321-3.244s7.558,2.113,7.38,4.285c-.208,2.143-4.226,3.869-8.094,3.511S1122.967,562.288,1123.175,560.116Z" transform="translate(-833.279 -437.84)" fill="#f19292"/>
      <path id="Path_32249" data-name="Path 32249" d="M1134.24,568.42a1.567,1.567,0,0,1-.6,1.637,11.944,11.944,0,0,1-10,1.488,11.223,11.223,0,0,1-3.273-1.607,1.68,1.68,0,0,1-.684-1.1V568.3l-1.488.357a3.079,3.079,0,0,0,.893,2.083,13.31,13.31,0,0,0,14.968.8,2.681,2.681,0,0,0,1.577-2.767Z" transform="translate(-829.791 -445.906)" fill="#21252b"/>
      <path id="Path_32250" data-name="Path 32250" d="M1134.24,568.42a1.567,1.567,0,0,1-.6,1.637,11.944,11.944,0,0,1-10,1.488,11.223,11.223,0,0,1-3.273-1.607,1.68,1.68,0,0,1-.684-1.1V568.3l-1.488.357a3.079,3.079,0,0,0,.893,2.083,13.31,13.31,0,0,0,14.968.8,2.681,2.681,0,0,0,1.577-2.767Z" transform="translate(-829.791 -445.906)" opacity="0.2"/>
      <path id="Path_32251" data-name="Path 32251" d="M1183.3,681.11l1.339-.119a.542.542,0,0,0,.446-.8l-1.428-2.887Z" transform="translate(-875.519 -522.47)" opacity="0.15"/>
      <path id="Path_32252" data-name="Path 32252" d="M1094.8,658.933l26.336-3.363,1.518-14.671,14.462.744-2.946,18.748a7.251,7.251,0,0,1-7.142,6.13h-29.58Z" transform="translate(-813.355 -496.901)" fill="#21252b"/>
      <path id="Path_32253" data-name="Path 32253" d="M1067.6,711.045l1.042-.744Z" transform="translate(-794.249 -545.649)" fill="#9473e9"/>
      <path id="Path_32254" data-name="Path 32254" d="M1097.419,700.4l-2.619.327,2.589,7.529h3.244Z" transform="translate(-813.355 -538.695)" opacity="0.6"/>
      <path id="Path_32255" data-name="Path 32255" d="M1102.1,620.421l.446,1.309h29.58a7.206,7.206,0,0,0,7.142-6.13l4.226-27.11a9.436,9.436,0,0,0-7.142-10.594l-2.5-.6a9.407,9.407,0,0,1,5.505,10.029l-3.9,24.967a7.251,7.251,0,0,1-7.142,6.13Z" transform="translate(-818.482 -452.228)" opacity="0.15"/>
      <path id="Path_32256" data-name="Path 32256" d="M1062.3,698.017c-1.012.417-2.44,1.845-1.994,3.006s1.875,1.28,2.321,2.024a9.613,9.613,0,0,0,2.023,2.143c.238.179,1.964,1.488,2.44,1.845s6.577-.3,6.577-.3L1070.925,699S1063.307,697.6,1062.3,698.017Z" transform="translate(-789.064 -536.966)" fill="#f69797"/>
      <path id="Path_32257" data-name="Path 32257" d="M1158.534,474.355c3.779.357,4.672,4.7,4.2,9.82s-1.875,8-5.654,7.678c-3.779-.357-6.577-3.631-6.1-8.749S1154.755,474.028,1158.534,474.355Z" transform="translate(-852.776 -379.904)" fill="#3f4249"/>
      <path id="Path_32258" data-name="Path 32258" d="M1125.49,503.65s12.975-6.577,12.618,2.887l-.03,2.44-.268,12.409c-.03.357-14.7.357-14.611-.089l2.172-8.392a10.533,10.533,0,0,1-.06-2.2C1125.52,507.013,1125.49,503.65,1125.49,503.65Z" transform="translate(-833.302 -398.932)" fill="#f19292"/>
      <path id="Path_32259" data-name="Path 32259" d="M1118.466,490.832a4.166,4.166,0,1,0-4.166-4.166A4.178,4.178,0,0,0,1118.466,490.832Z" transform="translate(-827.052 -385.638)" fill="#3f4249"/>
      <path id="Path_32260" data-name="Path 32260" d="M1123.741,486.1s-6.041,17.914,3.244,20c8.035,1.815,10.088-10.772,10.088-10.772l.357-8.243Z" transform="translate(-832.326 -388.167)" fill="#f19292"/>
      <path id="Path_32261" data-name="Path 32261" d="M1136.057,503.219a12.313,12.313,0,0,1-2.291,6.785c-9.939-2.291-11.665-.565-11.665-.565s.149,5.059,4.2,6.547c4.047,1.458,10.534-.536,11.04-6.19.119-1.4-1.488-9.2-1.488-9.2Z" transform="translate(-832.531 -398.352)" fill="#3f4249"/>
      <g id="Group_583" data-name="Group 583" transform="translate(294.087 113.914)" opacity="0.3">
        <path id="Path_32262" data-name="Path 32262" d="M1137.465,540.307c0,.03.03.03,0,0,.774.119,1.131.179,1.131.179a.287.287,0,0,0,.3-.208.245.245,0,0,0-.208-.3s-.357-.06-1.1-.179a.275.275,0,0,0-.3.179C1137.257,540.188,1137.346,540.307,1137.465,540.307Z" transform="translate(-1137.281 -539.801)" opacity="0.3"/>
      </g>
      <path id="Path_32263" data-name="Path 32263" d="M1134.135,533.788a3.075,3.075,0,0,0,3.422-1.042c.059-.119.059-.565-.059-.655a37.742,37.742,0,0,0-4.523.744c-.03.119,0,.565.119.625A6.778,6.778,0,0,0,1134.135,533.788Z" transform="translate(-840.162 -420.469)" fill="#fff"/>
      <path id="Path_32264" data-name="Path 32264" d="M1135.789,466.213c.268-2.916-2.5-5.565-6.19-5.892s-6.874,1.756-7.142,4.672,2.5,5.565,6.19,5.892C1132.337,471.242,1135.522,469.13,1135.789,466.213Z" transform="translate(-832.769 -370.035)" fill="#3f4249"/>
      <path id="Path_32265" data-name="Path 32265" d="M1163.472,474.467c2.321.208,3.958,2.738,3.69,5.654s-2.411,5.714-4.7,5.505c-2.321-.208-3.9-3.363-3.63-6.279S1161.181,474.259,1163.472,474.467Z" transform="translate(-858.31 -379.986)" fill="#3f4249"/>
      <path id="Path_32266" data-name="Path 32266" d="M1170.09,527.887a2.03,2.03,0,0,1-1.19-.387l1.131,2.172Z" transform="translate(-865.404 -417.247)" opacity="0.15"/>
      <path id="Path_32267" data-name="Path 32267" d="M1169.383,509.764a2.74,2.74,0,0,1,3.184-.6c1.964,1.1,1.131,5.684-2.381,5.654-1.815,0-1.369-1.042-.923-2.41A17.671,17.671,0,0,0,1169.383,509.764Z" transform="translate(-865.381 -404.153)" fill="#f19292"/>
      <path id="Path_32268" data-name="Path 32268" d="M1175.721,513.147a1.348,1.348,0,0,0-.982-.357,1.158,1.158,0,0,0-.833.565,2.727,2.727,0,0,0-.446,1.25l-.06.387a.21.21,0,0,0,.417.06l.06-.387a2.506,2.506,0,0,1,.357-1.042,1.042,1.042,0,0,1,.565-.417,1.108,1.108,0,0,1,.655.238.225.225,0,0,0,.3-.03C1175.84,513.355,1175.81,513.236,1175.721,513.147Z" transform="translate(-868.565 -406.911)" opacity="0.3"/>
      <path id="Path_32269" data-name="Path 32269" d="M1125.349,487.767a8.748,8.748,0,0,0,1.1.744.227.227,0,0,0,.268-.06.188.188,0,0,0-.06-.268s-1.042-.744-1.131-.833a6.207,6.207,0,0,1-.774-.863.194.194,0,1,0-.327.208A4.6,4.6,0,0,0,1125.349,487.767Z" transform="translate(-834.144 -388.375)" fill="#f19292"/>
      <path id="Path_32270" data-name="Path 32270" d="M1126.1,550.128l.863-2.827a6.377,6.377,0,0,0,5.118,1.934,10.121,10.121,0,0,0,3.72-.8c.149-.06.238-.06.3,0a.161.161,0,0,1-.06.238,9.29,9.29,0,0,1-4.077.982A7.1,7.1,0,0,1,1126.1,550.128Z" transform="translate(-835.341 -431.155)" opacity="0.15"/>
      <path id="Path_32271" data-name="Path 32271" d="M1146.544,515.888a.744.744,0,1,0-.744-.744A.737.737,0,0,0,1146.544,515.888Z" transform="translate(-849.178 -408.045)" fill="#21252b"/>
      <path id="Path_32272" data-name="Path 32272" d="M1146.949,515.8a.149.149,0,1,0-.149-.149A.159.159,0,0,0,1146.949,515.8Z" transform="translate(-849.881 -408.818)" fill="#fff"/>
      <path id="Path_32273" data-name="Path 32273" d="M1126.54,514.187a.744.744,0,1,0-.744-.744A.719.719,0,0,0,1126.54,514.187Z" transform="translate(-835.126 -406.85)" fill="#21252b"/>
      <path id="Path_32274" data-name="Path 32274" d="M1126.849,514.1a.149.149,0,1,0-.149-.149A.159.159,0,0,0,1126.849,514.1Z" transform="translate(-835.762 -407.624)" fill="#fff"/>
      <path id="Path_32275" data-name="Path 32275" d="M1117.46,508.924l-.089.833a2.958,2.958,0,1,0,5.892.536l.089-.833a1.105,1.105,0,0,0-.149-.684l1.131.119a1.029,1.029,0,0,0-.3.625l-.089.833a2.958,2.958,0,0,0,5.892.536l.089-.833a1.1,1.1,0,0,0-.982-1.19l-3.66-.3h-.03l-2.857-.268-.446-.03-3.273-.3A1.066,1.066,0,0,0,1117.46,508.924Zm7.708.089,3.72.327a.664.664,0,0,1,.6.714l-.089.833a2.527,2.527,0,0,1-5.029-.506l.089-.833A.679.679,0,0,1,1125.168,509.014Zm-7.321,0a.664.664,0,0,1,.714-.6l3.273.3.446.03a.664.664,0,0,1,.6.714l-.089.833a2.538,2.538,0,0,1-2.767,2.262,2.5,2.5,0,0,1-2.262-2.768Z" transform="translate(-829.201 -403.522)" fill="#21252b"/>
      <path id="Path_32276" data-name="Path 32276" d="M859,711.35v93.724h2.351V711.35Z" transform="translate(-647.725 -546.386)" fill="#acb0b5"/>
      <path id="Path_32277" data-name="Path 32277" d="M891.559,719H866.8v91.447h24.759Z" transform="translate(-653.204 -551.76)" fill="#61656d"/>
      <path id="Path_32278" data-name="Path 32278" d="M891.559,713.91H866.8v92.962h24.759Z" transform="translate(-653.204 -548.184)" fill="#80848b"/>
      <g id="Group_584" data-name="Group 584" transform="translate(182.213 170.647)" opacity="0.5">
        <path id="Path_32279" data-name="Path 32279" d="M764.779,731.777a1.76,1.76,0,0,1-2.083,2.113,1.743,1.743,0,1,1,.8-3.392A1.7,1.7,0,0,1,764.779,731.777Z" transform="translate(-761.339 -730.45)" opacity="0.5"/>
      </g>
      <path id="Path_32280" data-name="Path 32280" d="M752.41,711.311H668.7v.774h83.71Z" transform="translate(-514.055 -546.359)" opacity="0.5"/>
      <path id="Path_32281" data-name="Path 32281" d="M562.721,1026.957H214.579a.171.171,0,0,1-.179-.179.158.158,0,0,1,.179-.178H562.75a.172.172,0,0,1,.179.178A.2.2,0,0,1,562.721,1026.957Z" transform="translate(-194.947 -767.823)" fill="#b0b4b9"/>
      <path id="Path_32282" data-name="Path 32282" d="M1215.625,873.215a.268.268,0,0,1-.149-.03.783.783,0,0,1-.6-.863l.982-4.91a.76.76,0,0,1,.684-.6l7.053-.417a.81.81,0,0,1,.625.268l3.928,4.821a.739.739,0,0,1-1.131.952l-3.69-4.523-6.1.357-.863,4.345A.787.787,0,0,1,1215.625,873.215Z" transform="translate(-897.696 -655.296)" fill="#3f4249"/>
      <path id="Path_32283" data-name="Path 32283" d="M1151.139,908.9s-8.124,5.565-9.582,18.569c-1.488,13,8.927,16.486,8.927,16.486l1.547-4.464s-8.779.179-8-11.278,9.225-15.445,9.225-15.445Z" transform="translate(-846.095 -685.149)" fill="#3f4249"/>
      <path id="Path_32284" data-name="Path 32284" d="M1187.69,928.474l17.468-.119a3.621,3.621,0,0,0,3.541-4.285l-1.726-9.136c-3.928-23.45-32.347-27.437-35.2-28.181-4.136-1.071-1.637,41.6-1.637,41.6Z" transform="translate(-865.744 -669.578)" fill="#3f4249"/>
      <path id="Path_32285" data-name="Path 32285" d="M1176.738,884.5a.634.634,0,0,0-.238,0v-.03s21.545-1.726,31.931-.506c0,0,7.053,8.779,6.844,24.1a4.694,4.694,0,0,1-4.7,4.613l-20.146-.119a4.676,4.676,0,0,1-4.613-4.017C1184.624,899.711,1180.25,885.427,1176.738,884.5Z" transform="translate(-870.742 -667.33)" fill="#61656d"/>
      <path id="Path_32286" data-name="Path 32286" d="M1282.957,874.774l1.309-3.392-1.667-.982Z" transform="translate(-945.269 -658.106)" fill="#3f4249"/>
      <path id="Path_32287" data-name="Path 32287" d="M1239.7,927c0,.625,2.678,4.255,3.482,4.255.774,0,3.3-3.69,3.184-4.255s-2.559-4.2-3.69-4.2C1241.6,922.8,1239.7,926.372,1239.7,927Z" transform="translate(-915.135 -694.913)" fill="#3f4249"/>
      <path id="Path_32288" data-name="Path 32288" d="M1249.438,934.407c.357-.03.6-.893.565-1.934-.059-1.071-.387-1.9-.744-1.875s-.6.893-.565,1.934C1248.754,933.574,1249.081,934.437,1249.438,934.407Z" transform="translate(-921.451 -700.389)" fill="#61656d"/>
      <path id="Path_32289" data-name="Path 32289" d="M487.446,207.352a15.632,15.632,0,0,0-13.9-15.534V191.7h-1.726a15.623,15.623,0,0,0,0,31.246h1.726v-.089A15.6,15.6,0,0,0,487.446,207.352Z" transform="translate(-364.791 -181.374)" fill="#b0b4b9"/>
      <path id="Path_32290" data-name="Path 32290" d="M477.523,223.047A15.623,15.623,0,1,0,461.9,207.424,15.621,15.621,0,0,0,477.523,223.047Z" transform="translate(-368.795 -181.446)" fill="#84888f"/>
      <path id="Path_32291" data-name="Path 32291" d="M481.6,225.394a13.9,13.9,0,1,0-13.9-13.9A13.894,13.894,0,0,0,481.6,225.394Z" transform="translate(-372.869 -185.519)" fill="#fff"/>
      <path id="Path_32292" data-name="Path 32292" d="M481.6,225.394a13.9,13.9,0,1,0-13.9-13.9A13.894,13.894,0,0,0,481.6,225.394Z" transform="translate(-372.869 -185.519)" fill="#84888f"/>
      <path id="Path_32293" data-name="Path 32293" d="M481.6,225.394a13.9,13.9,0,1,0-13.9-13.9A13.894,13.894,0,0,0,481.6,225.394Z" transform="translate(-372.869 -185.519)" fill="#fff" opacity="0.9"/>
      <path id="Path_32294" data-name="Path 32294" d="M512.644,197.6a6.473,6.473,0,0,0-.744.03,13.887,13.887,0,0,1,0,27.735c.238,0,.476.03.744.03a13.9,13.9,0,0,0,0-27.794Z" transform="translate(-403.916 -185.519)" fill="#b0b4b9"/>
      <path id="Path_32295" data-name="Path 32295" d="M503.832,223.8l-4.613-9.2a.71.71,0,0,1,.3-.952.748.748,0,0,1,.952.3l3.958,7.886,5.267-2.589a.719.719,0,0,1,.6,1.309Z" transform="translate(-394.955 -196.75)" fill="#c92027"/>
      <path id="Path_32296" data-name="Path 32296" d="M523.634,218.569a13.9,13.9,0,0,0-11.9-21.069c-.387,0-.744.03-1.131.03Z" transform="translate(-403.003 -185.449)" fill="#fff" opacity="0.5"/>
      <path id="Path_32297" data-name="Path 32297" d="M498.864,198.8a18.953,18.953,0,0,0-1.964.625l14.4,23.33a13.546,13.546,0,0,0,1.547-1.637Z" transform="translate(-393.38 -186.363)" fill="#fff" opacity="0.5"/>
      <path id="Path_32298" data-name="Path 32298" d="M1228.641,596.189a.422.422,0,0,1-.178-.06l-1.547-1.458a.253.253,0,0,1,.357-.357l1.547,1.458a.243.243,0,0,1,0,.357A.251.251,0,0,1,1228.641,596.189Z" transform="translate(-906.099 -464.123)" fill="#fff"/>
      <path id="Path_32299" data-name="Path 32299" d="M1227.293,596.18a.422.422,0,0,1-.178-.06.243.243,0,0,1,0-.357l1.458-1.547a.243.243,0,0,1,.357,0c.089.119.119.268,0,.357l-1.458,1.548A.319.319,0,0,1,1227.293,596.18Z" transform="translate(-906.24 -464.054)" fill="#fff"/>
      <path id="Path_32300" data-name="Path 32300" d="M1167.941,618.789a.424.424,0,0,1-.179-.06l-1.547-1.458a.253.253,0,0,1,.357-.357l1.547,1.458a.243.243,0,0,1,0,.357A.319.319,0,0,1,1167.941,618.789Z" transform="translate(-863.463 -479.998)" fill="#fff"/>
      <path id="Path_32301" data-name="Path 32301" d="M1166.593,618.68a.424.424,0,0,1-.179-.059.244.244,0,0,1,0-.357l1.458-1.547a.243.243,0,0,1,.357,0c.089.119.119.267,0,.357l-1.458,1.548A.422.422,0,0,1,1166.593,618.68Z" transform="translate(-863.603 -479.858)" fill="#fff"/>
      <path id="Path_32302" data-name="Path 32302" d="M989.741,613.689a.423.423,0,0,1-.179-.06l-1.547-1.458a.252.252,0,0,1,.357-.357l1.547,1.458a.243.243,0,0,1,0,.357A.32.32,0,0,1,989.741,613.689Z" transform="translate(-738.292 -476.416)" fill="#fff"/>
      <path id="Path_32303" data-name="Path 32303" d="M988.393,613.578a.423.423,0,0,1-.178-.06.243.243,0,0,1,0-.357l1.458-1.547a.253.253,0,0,1,.357.357l-1.458,1.547A.423.423,0,0,1,988.393,613.578Z" transform="translate(-738.432 -476.275)" fill="#fff"/>
      <path id="Path_32304" data-name="Path 32304" d="M1116.045,592.19a1.845,1.845,0,0,1,0-3.69,1.845,1.845,0,1,1,0,3.69Zm0-3.214a1.365,1.365,0,0,0-1.369,1.369,1.347,1.347,0,0,0,1.369,1.369,1.365,1.365,0,0,0,1.369-1.369A1.347,1.347,0,0,0,1116.045,588.976Z" transform="translate(-826.982 -460.094)" fill="#fff"/>
      <path id="Path_32305" data-name="Path 32305" d="M1128.852,682.513a.243.243,0,0,1-.238-.268,1.369,1.369,0,1,0-2.738,0,.24.24,0,1,1-.476,0,1.845,1.845,0,0,1,3.69,0A.262.262,0,0,1,1128.852,682.513Z" transform="translate(-834.849 -524.646)" fill="#fff"/>
      <path id="Path_32306" data-name="Path 32306" d="M1052.152,602.583a.262.262,0,0,1-.268-.238,1.359,1.359,0,0,0-1.339-1.369,1.34,1.34,0,0,0-1.339,1.369.235.235,0,0,1-.238.238.262.262,0,0,1-.268-.238,1.835,1.835,0,0,1,1.845-1.845,1.854,1.854,0,0,1,1.845,1.845C1052.42,602.494,1052.3,602.583,1052.152,602.583Z" transform="translate(-780.973 -468.523)" fill="#fff"/>
      <path id="Path_32307" data-name="Path 32307" d="M1103.738,639.163a.235.235,0,0,1-.238-.238c0-.625.476-.863.8-1.071.3-.149.446-.238.446-.417a.235.235,0,0,1,.238-.238.256.256,0,0,1,.238.238c0,.476-.387.684-.684.863-.357.179-.536.3-.536.625A.243.243,0,0,1,1103.738,639.163Z" transform="translate(-819.466 -494.301)" fill="#fff"/>
      <path id="Path_32308" data-name="Path 32308" d="M1103.738,629.364a.235.235,0,0,1-.238-.238c0-.625.476-.863.8-1.071.3-.149.446-.238.446-.417a.235.235,0,0,1,.238-.238.256.256,0,0,1,.238.238c0,.476-.387.684-.684.863-.357.179-.536.3-.536.625A.262.262,0,0,1,1103.738,629.364Z" transform="translate(-819.466 -487.418)" fill="#fff"/>
      <path id="Path_32309" data-name="Path 32309" d="M1105.058,634.265a.235.235,0,0,1-.238-.238c0-.149-.119-.238-.417-.417a1.178,1.178,0,0,1-.8-1.071.243.243,0,0,1,.268-.238.235.235,0,0,1,.238.238c0,.3.208.446.536.625.3.179.684.387.684.863A.316.316,0,0,1,1105.058,634.265Z" transform="translate(-819.536 -490.861)" fill="#fff"/>
      <path id="Path_32310" data-name="Path 32310" d="M1105.058,624.364a.235.235,0,0,1-.238-.238c0-.149-.119-.238-.417-.417a1.178,1.178,0,0,1-.8-1.071.243.243,0,0,1,.268-.238.235.235,0,0,1,.238.238c0,.3.208.446.536.625.3.179.684.387.684.863A.282.282,0,0,1,1105.058,624.364Z" transform="translate(-819.536 -483.906)" fill="#fff"/>
      <path id="Path_32311" data-name="Path 32311" d="M1204.169,671.576h-3.63a.238.238,0,0,1,0-.476h3.63a.235.235,0,0,1,.238.238C1204.436,671.457,1204.317,671.576,1204.169,671.576Z" transform="translate(-887.46 -518.114)" fill="#fff"/>
      <path id="Path_32312" data-name="Path 32312" d="M1165.769,587.2h-3.63a.235.235,0,0,1-.238-.238.262.262,0,0,1,.238-.268h3.63a.267.267,0,0,1,.268.268A.262.262,0,0,1,1165.769,587.2Z" transform="translate(-860.487 -458.829)" fill="#fff"/>
      <path id="Path_32313" data-name="Path 32313" d="M1219.02,625.117a.424.424,0,0,1-.179-.06.272.272,0,0,1,0-.357l2.559-2.559a.253.253,0,0,1,.357.357l-2.559,2.559A.424.424,0,0,1,1219.02,625.117Z" transform="translate(-900.437 -483.677)" fill="#fff"/>
      <path id="Path_32314" data-name="Path 32314" d="M1124.266,596.833a1.666,1.666,0,1,1,1.667-1.666A1.664,1.664,0,0,1,1124.266,596.833Zm0-3.214a1.556,1.556,0,0,0-1.547,1.547,1.576,1.576,0,0,0,1.547,1.547,1.547,1.547,0,1,0,0-3.095Z" transform="translate(-832.882 -463.606)" fill="#fff"/>
      <path id="Path_32315" data-name="Path 32315" d="M1135.673,678.967h-.089a1.556,1.556,0,0,0-1.547-1.547,1.537,1.537,0,0,0-1.547,1.547h-.089a1.637,1.637,0,1,1,3.273,0Z" transform="translate(-839.766 -522.47)" fill="#fff"/>
      <path id="Path_32316" data-name="Path 32316" d="M1060.473,607.266h-.089a1.547,1.547,0,1,0-3.095,0h-.089a1.664,1.664,0,0,1,1.667-1.667A1.693,1.693,0,0,1,1060.473,607.266Z" transform="translate(-786.944 -472.106)" fill="#fff"/>
      <path id="Path_32317" data-name="Path 32317" d="M1184.392,697.083a.235.235,0,0,1-.238-.238,1.359,1.359,0,0,0-1.339-1.369,1.34,1.34,0,0,0-1.339,1.369.235.235,0,0,1-.238.238.256.256,0,0,1-.238-.238,1.835,1.835,0,0,1,1.845-1.845,1.854,1.854,0,0,1,1.845,1.845A.32.32,0,0,1,1184.392,697.083Z" transform="translate(-873.903 -534.902)" fill="#fff"/>
      <path id="Path_32318" data-name="Path 32318" d="M1192.573,701.766h-.089a1.547,1.547,0,1,0-3.095,0h-.089a1.637,1.637,0,1,1,3.273,0Z" transform="translate(-879.733 -538.484)" fill="#fff"/>
      <path id="Path_32319" data-name="Path 32319" d="M1111.989,643.988h-.089c0-.506.357-.714.714-.893.3-.149.536-.3.536-.6h.089c0,.357-.3.536-.6.684C1112.317,643.393,1111.989,643.542,1111.989,643.988Z" transform="translate(-825.366 -498.025)" fill="#fff"/>
      <path id="Path_32320" data-name="Path 32320" d="M1111.989,634.187h-.089c0-.506.357-.714.714-.893.3-.149.536-.3.536-.6h.089c0,.357-.3.536-.6.684C1112.317,633.562,1111.989,633.74,1111.989,634.187Z" transform="translate(-825.366 -491.14)" fill="#fff"/>
      <path id="Path_32321" data-name="Path 32321" d="M1113.239,639.088h-.089c0-.3-.238-.417-.536-.6-.327-.178-.714-.387-.714-.893h.089c0,.446.327.625.655.8C1112.942,638.552,1113.239,638.731,1113.239,639.088Z" transform="translate(-825.366 -494.583)" fill="#fff"/>
      <path id="Path_32322" data-name="Path 32322" d="M1113.239,629.187h-.089c0-.3-.238-.417-.536-.6-.327-.178-.714-.387-.714-.893h.089c0,.446.327.625.655.8C1112.942,628.681,1113.239,628.83,1113.239,629.187Z" transform="translate(-825.366 -487.628)" fill="#fff"/>
      <path id="Path_32323" data-name="Path 32323" d="M964.168,592.594a.262.262,0,0,1-.268-.238c0-.625.476-.863.8-1.071.3-.149.446-.238.446-.417a.262.262,0,0,1,.238-.268.267.267,0,0,1,.268.268c0,.476-.387.685-.685.863-.357.179-.536.3-.536.625A.262.262,0,0,1,964.168,592.594Z" transform="translate(-721.408 -461.569)" fill="#fff"/>
      <path id="Path_32324" data-name="Path 32324" d="M964.168,582.765a.262.262,0,0,1-.268-.238c0-.625.476-.863.8-1.071.3-.149.446-.238.446-.417a.235.235,0,0,1,.238-.238.262.262,0,0,1,.268.238c0,.476-.387.684-.685.863-.357.179-.536.3-.536.625A.262.262,0,0,1,964.168,582.765Z" transform="translate(-721.408 -454.686)" fill="#fff"/>
      <path id="Path_32325" data-name="Path 32325" d="M965.488,587.693a.235.235,0,0,1-.238-.238c0-.149-.119-.238-.446-.417a1.178,1.178,0,0,1-.8-1.071.267.267,0,0,1,.268-.268.243.243,0,0,1,.238.268c0,.3.208.446.536.625.3.179.684.387.684.863A.235.235,0,0,1,965.488,587.693Z" transform="translate(-721.479 -458.127)" fill="#fff"/>
      <path id="Path_32326" data-name="Path 32326" d="M965.488,577.795a.235.235,0,0,1-.238-.238c0-.149-.119-.238-.446-.417a1.178,1.178,0,0,1-.8-1.071.267.267,0,0,1,.268-.268.243.243,0,0,1,.238.268c0,.3.208.446.536.625.3.179.684.387.684.863A.235.235,0,0,1,965.488,577.795Z" transform="translate(-721.479 -451.174)" fill="#fff"/>
      <path id="Path_32327" data-name="Path 32327" d="M972.489,597.488H972.4c0-.506.357-.714.714-.893.3-.149.536-.3.536-.6h.089c0,.357-.3.536-.6.684C972.817,596.863,972.489,597.042,972.489,597.488Z" transform="translate(-727.379 -465.362)" fill="#fff"/>
      <path id="Path_32328" data-name="Path 32328" d="M972.489,587.588H972.4c0-.506.357-.714.714-.893.3-.149.536-.3.536-.6h.089c0,.357-.3.536-.6.684C972.817,586.963,972.489,587.141,972.489,587.588Z" transform="translate(-727.379 -458.408)" fill="#fff"/>
      <path id="Path_32329" data-name="Path 32329" d="M973.739,592.488h-.089c0-.3-.238-.446-.536-.6-.327-.178-.714-.387-.714-.893h.089c0,.446.327.625.655.8C973.442,591.982,973.739,592.131,973.739,592.488Z" transform="translate(-727.379 -461.85)" fill="#fff"/>
      <path id="Path_32330" data-name="Path 32330" d="M973.739,582.687h-.089c0-.3-.238-.446-.536-.6-.327-.179-.714-.387-.714-.893h.089c0,.446.327.625.655.8C973.442,582.151,973.739,582.33,973.739,582.687Z" transform="translate(-727.379 -454.966)" fill="#fff"/>
      <path id="Path_32331" data-name="Path 32331" d="M1211.63,678.5H1208v.089h3.63Z" transform="translate(-892.868 -523.312)" fill="#fff"/>
      <path id="Path_32332" data-name="Path 32332" d="M1174.13,591.9h-3.63v.089h3.63Z" transform="translate(-866.528 -462.482)" fill="#fff"/>
      <path id="Path_32333" data-name="Path 32333" d="M1025.969,629.406h-3.63a.243.243,0,0,1-.238-.268.235.235,0,0,1,.238-.238h3.63a.235.235,0,0,1,.238.238A.228.228,0,0,1,1025.969,629.406Z" transform="translate(-762.289 -488.472)" fill="#fff"/>
      <path id="Path_32334" data-name="Path 32334" d="M1034.331,634.1H1030.7v.089h3.631Z" transform="translate(-768.33 -492.124)" fill="#fff"/>
      <path id="Path_32335" data-name="Path 32335" d="M1229.759,627.3l-2.559,2.559.059.06,2.559-2.559Z" transform="translate(-906.355 -487.349)" fill="#fff"/>
      <path id="Path_32336" data-name="Path 32336" d="M1149.438,652.5a.582.582,0,0,1-.208-.03.936.936,0,0,1-.565-.387.873.873,0,0,1-.119-.655.936.936,0,0,1,.387-.565.871.871,0,0,1,.655-.119.936.936,0,0,1,.565.387.872.872,0,0,1,.119.655.936.936,0,0,1-.387.565A.8.8,0,0,1,1149.438,652.5Zm0-1.28a.552.552,0,0,0-.208.06.461.461,0,0,0-.178.238.366.366,0,0,0,.059.3.463.463,0,0,0,.238.179.366.366,0,0,0,.3-.06.462.462,0,0,0,.178-.238.367.367,0,0,0-.059-.3.463.463,0,0,0-.238-.179Z" transform="translate(-851.09 -503.799)" fill="#fff"/>
      <path id="Path_32337" data-name="Path 32337" d="M1134.838,704.1a.581.581,0,0,1-.208-.03.936.936,0,0,1-.565-.387.873.873,0,0,1-.119-.655.936.936,0,0,1,.387-.565.872.872,0,0,1,.655-.119,1.028,1.028,0,0,1,.566.387.872.872,0,0,1,.119.655.937.937,0,0,1-.387.565A.585.585,0,0,1,1134.838,704.1Zm0-1.25a.552.552,0,0,0-.208.06.463.463,0,0,0-.179.238.367.367,0,0,0,.06.3.463.463,0,0,0,.238.179.367.367,0,0,0,.3-.06.463.463,0,0,0,.179-.238.367.367,0,0,0-.06-.3.463.463,0,0,0-.238-.179Z" transform="translate(-840.834 -540.045)" fill="#fff"/>
      <path id="Path_32338" data-name="Path 32338" d="M1101.336,664.6a.58.58,0,0,1-.208-.03.935.935,0,0,1-.565-.387.881.881,0,0,1,.922-1.339,1.028,1.028,0,0,1,.565.387.872.872,0,0,1,.119.655.936.936,0,0,1-.387.565A.627.627,0,0,1,1101.336,664.6Zm0-1.25a.552.552,0,0,0-.208.059.388.388,0,0,0-.119.536.463.463,0,0,0,.238.179.366.366,0,0,0,.3-.06.463.463,0,0,0,.179-.238.367.367,0,0,0-.06-.3.462.462,0,0,0-.238-.178Z" transform="translate(-817.302 -512.3)" fill="#fff"/>
      <path id="Path_32339" data-name="Path 32339" d="M1089.638,596.6a.507.507,0,0,1-.208-.03.936.936,0,0,1-.565-.387.872.872,0,0,1-.119-.655.936.936,0,0,1,.387-.565.872.872,0,0,1,.655-.119.935.935,0,0,1,.565.387.872.872,0,0,1,.119.655.936.936,0,0,1-.387.565A.626.626,0,0,1,1089.638,596.6Zm0-1.28a.553.553,0,0,0-.208.06.463.463,0,0,0-.179.238.366.366,0,0,0,.06.3.462.462,0,0,0,.238.179.366.366,0,0,0,.3-.06.463.463,0,0,0,.179-.238.367.367,0,0,0-.06-.3.463.463,0,0,0-.238-.179C1089.7,595.352,1089.667,595.322,1089.638,595.322Z" transform="translate(-809.085 -464.535)" fill="#fff"/>
      <path id="Path_32340" data-name="Path 32340" d="M1003.538,646.3a.582.582,0,0,1-.208-.03.935.935,0,0,1-.565-.387.872.872,0,0,1-.119-.655.936.936,0,0,1,.387-.565.872.872,0,0,1,.655-.119.936.936,0,0,1,.565.387.872.872,0,0,1,.119.655.936.936,0,0,1-.387.565A.584.584,0,0,1,1003.538,646.3Zm0-1.25a.552.552,0,0,0-.208.06.463.463,0,0,0-.179.238.366.366,0,0,0,.06.3.463.463,0,0,0,.238.179.367.367,0,0,0,.3-.06.463.463,0,0,0,.179-.238.366.366,0,0,0-.06-.3.463.463,0,0,0-.238-.179Z" transform="translate(-748.607 -499.445)" fill="#fff"/>
      <path id="Path_32341" data-name="Path 32341" d="M1195.208,596.6a.849.849,0,0,1-.744-.417.872.872,0,0,1-.119-.655.936.936,0,0,1,.387-.565.872.872,0,0,1,.655-.119.936.936,0,0,1,.565.387.872.872,0,0,1,.119.655.935.935,0,0,1-.387.565A.749.749,0,0,1,1195.208,596.6Zm0-1.28a.553.553,0,0,0-.208.06.464.464,0,0,0-.178.238.367.367,0,0,0,.059.3.388.388,0,0,0,.536.119.463.463,0,0,0,.179-.238.366.366,0,0,0-.059-.3.464.464,0,0,0-.238-.179C1195.267,595.352,1195.238,595.322,1195.208,595.322Z" transform="translate(-883.26 -464.535)" fill="#fff"/>
      <path id="Path_32342" data-name="Path 32342" d="M1128.831,618.609a.213.213,0,0,0-.417-.089l-6.4,21.039-18.986,2.768a.2.2,0,0,0-.149.238.22.22,0,0,0,.179.149h.03l18.807-2.738,4.88-.714.03-.417Z" transform="translate(-819.026 -481.067)" opacity="0.2"/>
      <path id="Path_32343" data-name="Path 32343" d="M1001.913,256.1H940.224a5.639,5.639,0,0,0-5.624,5.624v43.864a5.639,5.639,0,0,0,5.624,5.624h55.35a3.989,3.989,0,0,1,.6.03,11.455,11.455,0,0,1,8.3,4.4l1.726,2.172h1.369V261.724A5.645,5.645,0,0,0,1001.913,256.1Z" transform="translate(-700.828 -226.611)" fill="#c92027"/>
      <path id="Path_32344" data-name="Path 32344" d="M1001.713,256.1H940.024a5.639,5.639,0,0,0-5.624,5.624v43.864a5.639,5.639,0,0,0,5.624,5.624h55.35a3.99,3.99,0,0,1,.6.03,11.541,11.541,0,0,1,8.273,4.345l1.815,2.232h1.369l-.06-56.094A5.664,5.664,0,0,0,1001.713,256.1Z" transform="translate(-700.687 -226.611)" fill="#fff" opacity="0.5"/>
      <path id="Path_32345" data-name="Path 32345" d="M997.313,256.1H935.624A5.639,5.639,0,0,0,930,261.724v43.864a5.639,5.639,0,0,0,5.624,5.624h55.35a11.659,11.659,0,0,1,7.648,2.857l4.315,3.75V261.724A5.62,5.62,0,0,0,997.313,256.1Z" transform="translate(-697.596 -226.611)" fill="#c92027"/>
      <path id="Path_32346" data-name="Path 32346" d="M997.313,256.1H935.624A5.639,5.639,0,0,0,930,261.724v43.864a5.639,5.639,0,0,0,5.624,5.624h55.35a11.659,11.659,0,0,1,7.648,2.857l4.315,3.75V261.724A5.62,5.62,0,0,0,997.313,256.1Z" transform="translate(-697.596 -226.611)" fill="#fff" opacity="0.7"/>
      <path id="Path_32347" data-name="Path 32347" d="M1014.883,283.809H962.568a2.667,2.667,0,0,1-2.768-2.559v-7.291a2.686,2.686,0,0,1,2.768-2.559h52.315a2.667,2.667,0,0,1,2.767,2.559v7.32A2.644,2.644,0,0,1,1014.883,283.809Z" transform="translate(-718.528 -237.358)" fill="#c92027"/>
      <path id="Path_32348" data-name="Path 32348" d="M1014.883,283.809H962.568a2.667,2.667,0,0,1-2.768-2.559v-7.291a2.686,2.686,0,0,1,2.768-2.559h52.315a2.667,2.667,0,0,1,2.767,2.559v7.32A2.644,2.644,0,0,1,1014.883,283.809Z" transform="translate(-718.528 -237.358)" fill="#c92027"/>
      <path id="Path_32349" data-name="Path 32349" d="M1015.1,352.739H957.133c-.476,0-.833-.952-.833-2.083V325.183c0-1.161.387-2.083.833-2.083h58c.476,0,.833.952.833,2.083v25.473C1015.965,351.817,1015.578,352.739,1015.1,352.739Z" transform="translate(-716.07 -273.673)" fill="#c92027"/>
      <path id="Path_32350" data-name="Path 32350" d="M1015.1,352.739H957.133c-.476,0-.833-.952-.833-2.083V325.183c0-1.161.387-2.083.833-2.083h58c.476,0,.833.952.833,2.083v25.473C1015.965,351.817,1015.578,352.739,1015.1,352.739Z" transform="translate(-716.07 -273.673)" fill="#fff" opacity="0.5"/>
      <path id="Path_32351" data-name="Path 32351" d="M952.5,351.1V324.766a1.664,1.664,0,0,1,1.667-1.666h56.392a1.664,1.664,0,0,1,1.667,1.666V351.1a1.664,1.664,0,0,1-1.667,1.666H954.167A1.7,1.7,0,0,1,952.5,351.1Z" transform="translate(-713.401 -273.673)" fill="#fff"/>
      <path id="Path_32352" data-name="Path 32352" d="M985.53,353.38h-4.88a1.257,1.257,0,0,1-1.25-1.25v-4.88a1.257,1.257,0,0,1,1.25-1.25h4.88a1.257,1.257,0,0,1,1.25,1.25v4.88A1.238,1.238,0,0,1,985.53,353.38Z" transform="translate(-732.296 -289.758)" fill="#c92027"/>
      <path id="Path_32353" data-name="Path 32353" d="M985.53,353.38h-4.88a1.257,1.257,0,0,1-1.25-1.25v-4.88a1.257,1.257,0,0,1,1.25-1.25h4.88a1.257,1.257,0,0,1,1.25,1.25v4.88A1.238,1.238,0,0,1,985.53,353.38Z" transform="translate(-732.296 -289.758)" fill="#fff" opacity="0.4"/>
      <path id="Path_32354" data-name="Path 32354" d="M988.041,351.823l-2.351-2.351a.324.324,0,0,1,0-.446l.625-.625a.323.323,0,0,1,.446,0l1.518,1.518,3.63-3.631a.324.324,0,0,1,.446,0l.625.625a.324.324,0,0,1,0,.446l-4.464,4.464A.361.361,0,0,1,988.041,351.823Z" transform="translate(-736.652 -289.898)" fill="#c92027"/>
      <path id="Path_32355" data-name="Path 32355" d="M1050.983,350.588h-32.258a.61.61,0,0,1-.625-.625v-.238a.61.61,0,0,1,.625-.625h32.258a.61.61,0,0,1,.625.625v.238A.61.61,0,0,1,1050.983,350.588Z" transform="translate(-759.479 -291.936)" fill="#acb0b5"/>
      <path id="Path_32356" data-name="Path 32356" d="M1028.962,364.85h-10.237a.625.625,0,0,1,0-1.25h10.237a.61.61,0,0,1,.625.625A.629.629,0,0,1,1028.962,364.85Z" transform="translate(-759.479 -302.121)" fill="#acb0b5" opacity="0.5"/>
      <path id="Path_32357" data-name="Path 32357" d="M985.53,392.28h-4.88a1.257,1.257,0,0,1-1.25-1.25v-4.88a1.257,1.257,0,0,1,1.25-1.25h4.88a1.257,1.257,0,0,1,1.25,1.25v4.88A1.238,1.238,0,0,1,985.53,392.28Z" transform="translate(-732.296 -317.082)" fill="#c92027"/>
      <path id="Path_32358" data-name="Path 32358" d="M985.53,392.28h-4.88a1.257,1.257,0,0,1-1.25-1.25v-4.88a1.257,1.257,0,0,1,1.25-1.25h4.88a1.257,1.257,0,0,1,1.25,1.25v4.88A1.238,1.238,0,0,1,985.53,392.28Z" transform="translate(-732.296 -317.082)" fill="#fff" opacity="0.4"/>
      <path id="Path_32359" data-name="Path 32359" d="M988.041,390.724l-2.351-2.351a.324.324,0,0,1,0-.446l.625-.625a.324.324,0,0,1,.446,0l1.518,1.518,3.63-3.63a.324.324,0,0,1,.446,0l.625.625a.324.324,0,0,1,0,.446l-4.464,4.464A.361.361,0,0,1,988.041,390.724Z" transform="translate(-736.652 -317.223)" fill="#c92027"/>
      <path id="Path_32360" data-name="Path 32360" d="M1050.983,389.488h-32.258a.61.61,0,0,1-.625-.625v-.238a.61.61,0,0,1,.625-.625h32.258a.61.61,0,0,1,.625.625v.238A.61.61,0,0,1,1050.983,389.488Z" transform="translate(-759.479 -319.26)" fill="#acb0b5"/>
      <path id="Path_32361" data-name="Path 32361" d="M1028.962,403.75h-10.237a.625.625,0,0,1,0-1.25h10.237a.61.61,0,0,1,.625.625A.629.629,0,0,1,1028.962,403.75Z" transform="translate(-759.479 -329.445)" fill="#acb0b5" opacity="0.5"/>
      <path id="Path_32362" data-name="Path 32362" d="M1010.682,283.839H958.367a2.667,2.667,0,0,1-2.767-2.559v-7.32a2.686,2.686,0,0,1,2.767-2.559h52.315a2.667,2.667,0,0,1,2.768,2.559v7.32A2.667,2.667,0,0,1,1010.682,283.839Z" transform="translate(-715.578 -237.358)" fill="#c92027"/>
      <path id="Path_32363" data-name="Path 32363" d="M1010.682,283.809H958.367a2.667,2.667,0,0,1-2.767-2.559v-7.291a2.686,2.686,0,0,1,2.767-2.559h52.315a2.667,2.667,0,0,1,2.768,2.559v7.32A2.644,2.644,0,0,1,1010.682,283.809Z" transform="translate(-715.578 -237.358)" fill="#fff" opacity="0.4"/>
      <path id="Path_32364" data-name="Path 32364" d="M977.568,283.591l-.655-2.053a.155.155,0,0,0-.3,0l-.684,2.053a.2.2,0,0,1-.149.119l-2.143-.03a.147.147,0,0,0-.089.268l1.726,1.28a.143.143,0,0,1,.06.179l-.684,2.053a.155.155,0,0,0,.238.179l1.756-1.25a.19.19,0,0,1,.179,0l1.726,1.28a.158.158,0,0,0,.238-.179l-.655-2.053c-.03-.06,0-.119.06-.179l1.756-1.25a.147.147,0,0,0-.089-.268l-2.143-.03A.3.3,0,0,1,977.568,283.591Z" transform="translate(-728.143 -244.4)" fill="#ececec"/>
      <path id="Path_32365" data-name="Path 32365" d="M1012.268,283.591l-.655-2.053a.155.155,0,0,0-.3,0l-.684,2.053a.2.2,0,0,1-.149.119l-2.143-.03a.147.147,0,0,0-.089.268l1.726,1.28a.143.143,0,0,1,.06.179l-.685,2.053a.155.155,0,0,0,.238.179l1.756-1.25a.19.19,0,0,1,.179,0l1.726,1.28a.158.158,0,0,0,.238-.179l-.655-2.053c-.03-.06,0-.119.06-.179l1.756-1.25a.147.147,0,0,0-.089-.268l-2.143-.03C1012.327,283.68,1012.268,283.65,1012.268,283.591Z" transform="translate(-752.517 -244.4)" fill="#ececec"/>
      <path id="Path_32366" data-name="Path 32366" d="M1046.868,283.591l-.655-2.053a.155.155,0,0,0-.3,0l-.684,2.053a.2.2,0,0,1-.149.119l-2.143-.03a.147.147,0,0,0-.089.268l1.726,1.28a.143.143,0,0,1,.059.179l-.684,2.053a.155.155,0,0,0,.238.179l1.756-1.25a.19.19,0,0,1,.179,0l1.726,1.28a.158.158,0,0,0,.238-.179l-.655-2.053c-.03-.06,0-.119.059-.179l1.756-1.25a.147.147,0,0,0-.089-.268l-2.143-.03A.3.3,0,0,1,1046.868,283.591Z" transform="translate(-776.82 -244.4)" fill="#ececec"/>
      <path id="Path_32367" data-name="Path 32367" d="M1081.468,283.591l-.655-2.053a.155.155,0,0,0-.3,0l-.684,2.053a.2.2,0,0,1-.149.119l-2.143-.03a.147.147,0,0,0-.089.268l1.726,1.28a.143.143,0,0,1,.06.179l-.685,2.053a.155.155,0,0,0,.238.179l1.756-1.25a.19.19,0,0,1,.178,0l1.726,1.28a.158.158,0,0,0,.238-.179l-.655-2.053c-.03-.06,0-.119.06-.179l1.756-1.25a.147.147,0,0,0-.089-.268l-2.143-.03A.3.3,0,0,1,1081.468,283.591Z" transform="translate(-801.124 -244.4)" fill="#c92027"/>
      <path id="Path_32368" data-name="Path 32368" d="M1116.168,283.591l-.655-2.053a.155.155,0,0,0-.3,0l-.684,2.053a.2.2,0,0,1-.149.119l-2.143-.03a.147.147,0,0,0-.089.268l1.726,1.28a.143.143,0,0,1,.06.179l-.685,2.053a.155.155,0,0,0,.238.179l1.756-1.25a.19.19,0,0,1,.178,0l1.726,1.28a.158.158,0,0,0,.238-.179l-.655-2.053c-.03-.06,0-.119.06-.179l1.756-1.25a.147.147,0,0,0-.089-.268l-2.143-.03C1116.227,283.68,1116.168,283.65,1116.168,283.591Z" transform="translate(-825.498 -244.4)" fill="#c92027"/>
      <path id="Path_32369" data-name="Path 32369" d="M977.568,283.591l-.655-2.053a.155.155,0,0,0-.3,0l-.684,2.053a.2.2,0,0,1-.149.119l-2.143-.03a.147.147,0,0,0-.089.268l1.726,1.28a.143.143,0,0,1,.06.179l-.684,2.053a.155.155,0,0,0,.238.179l1.756-1.25a.19.19,0,0,1,.179,0l1.726,1.28a.158.158,0,0,0,.238-.179l-.655-2.053c-.03-.06,0-.119.06-.179l1.756-1.25a.147.147,0,0,0-.089-.268l-2.143-.03A.3.3,0,0,1,977.568,283.591Z" transform="translate(-728.143 -244.4)" fill="#c92027"/>
      <path id="Path_32370" data-name="Path 32370" d="M1012.268,283.591l-.655-2.053a.155.155,0,0,0-.3,0l-.684,2.053a.2.2,0,0,1-.149.119l-2.143-.03a.147.147,0,0,0-.089.268l1.726,1.28a.143.143,0,0,1,.06.179l-.685,2.053a.155.155,0,0,0,.238.179l1.756-1.25a.19.19,0,0,1,.179,0l1.726,1.28a.158.158,0,0,0,.238-.179l-.655-2.053c-.03-.06,0-.119.06-.179l1.756-1.25a.147.147,0,0,0-.089-.268l-2.143-.03C1012.327,283.68,1012.268,283.65,1012.268,283.591Z" transform="translate(-752.517 -244.4)" fill="#c92027"/>
      <path id="Path_32371" data-name="Path 32371" d="M1046.868,283.591l-.655-2.053a.155.155,0,0,0-.3,0l-.684,2.053a.2.2,0,0,1-.149.119l-2.143-.03a.147.147,0,0,0-.089.268l1.726,1.28a.143.143,0,0,1,.059.179l-.684,2.053a.155.155,0,0,0,.238.179l1.756-1.25a.19.19,0,0,1,.179,0l1.726,1.28a.158.158,0,0,0,.238-.179l-.655-2.053c-.03-.06,0-.119.059-.179l1.756-1.25a.147.147,0,0,0-.089-.268l-2.143-.03A.3.3,0,0,1,1046.868,283.591Z" transform="translate(-776.82 -244.4)" fill="#c92027"/>
      <path id="Path_32372" data-name="Path 32372" d="M573.478,300.7h53.148a6.261,6.261,0,0,1,6.279,6.279v28.33a6.261,6.261,0,0,1-6.279,6.279H580.56a5.262,5.262,0,0,0-.684.03,12.661,12.661,0,0,0-9.255,4.94l-1.9,2.41H565.8l1.4-13.629v-28.33A6.306,6.306,0,0,1,573.478,300.7Z" transform="translate(-441.776 -257.938)" fill="#c92027"/>
      <path id="Path_32373" data-name="Path 32373" d="M573.507,300.7h53.148a6.261,6.261,0,0,1,6.279,6.279v28.33a6.261,6.261,0,0,1-6.279,6.279H580.59a5.263,5.263,0,0,0-.684.03,12.759,12.759,0,0,0-9.225,4.851l-1.964,2.5H565.8l1.428-13.629v-28.33A6.287,6.287,0,0,1,573.507,300.7Z" transform="translate(-441.776 -257.938)" fill="#fff" opacity="0.5"/>
      <path id="Path_32374" data-name="Path 32374" d="M572.079,300.7h53.148a6.261,6.261,0,0,1,6.279,6.279v28.33a6.261,6.261,0,0,1-6.279,6.279H579.161a13.09,13.09,0,0,0-8.541,3.184l-4.821,4.166V306.978A6.28,6.28,0,0,1,572.079,300.7Z" transform="translate(-441.776 -257.938)" fill="#c92027"/>
      <path id="Path_32375" data-name="Path 32375" d="M572.079,300.7h53.148a6.261,6.261,0,0,1,6.279,6.279v28.33a6.261,6.261,0,0,1-6.279,6.279H579.161a13.09,13.09,0,0,0-8.541,3.184l-4.821,4.166V306.978A6.28,6.28,0,0,1,572.079,300.7Z" transform="translate(-441.776 -257.938)" fill="#fff" opacity="0.7"/>
      <path id="Path_32376" data-name="Path 32376" d="M644.75,350.4H595.441a1.049,1.049,0,0,1-1.042-1.012V322.012A1.029,1.029,0,0,1,595.441,321h49.28a1.049,1.049,0,0,1,1.042,1.012v27.378A1,1,0,0,1,644.75,350.4Z" transform="translate(-461.865 -272.198)" fill="#c92027"/>
      <path id="Path_32377" data-name="Path 32377" d="M644.75,350.4H595.441a1.049,1.049,0,0,1-1.042-1.012V322.012A1.029,1.029,0,0,1,595.441,321h49.28a1.049,1.049,0,0,1,1.042,1.012v27.378A1,1,0,0,1,644.75,350.4Z" transform="translate(-461.865 -272.198)" fill="#fff" opacity="0.5"/>
      <path id="Path_32378" data-name="Path 32378" d="M589.9,349.6V321.8c0-.446.893-.8,2.024-.8h47.345c1.1,0,2.024.357,2.024.8V349.6c0,.446-.893.8-2.024.8H591.923C590.792,350.4,589.9,350.044,589.9,349.6Z" transform="translate(-458.704 -272.198)" fill="#fff"/>
      <path id="Path_32379" data-name="Path 32379" d="M629.032,398.953a7.065,7.065,0,0,1,1.756,3.988H601s.417-6.279,5.148-6.577l6.071-.387,7.826-.179,3.452.357A8.391,8.391,0,0,1,629.032,398.953Z" transform="translate(-466.501 -324.738)" fill="#21252b"/>
      <path id="Path_32380" data-name="Path 32380" d="M634.025,395.967H633.4c.357,1.547,2.5,3.244,4.91,3.244s4.077-1.339,4.494-2.946a3.3,3.3,0,0,0,.06-.565" transform="translate(-489.26 -324.668)" fill="#c92027"/>
      <path id="Path_32381" data-name="Path 32381" d="M635.45,369.917l-.149,7.44a.779.779,0,0,0,.149.506l.06.119a4.782,4.782,0,0,0,7.678.625,2.168,2.168,0,0,0,.506-1.28l-.952-7.826Z" transform="translate(-490.595 -306.265)" fill="#f99a9a"/>
      <path id="Path_32382" data-name="Path 32382" d="M641,351.221s1.19,9.82-4.2,10.058c-5.267.238-5.148-9.642-5.148-9.642l-.06-2.827,6.815-1.012,1.7.923Z" transform="translate(-487.996 -291.022)" fill="#f99a9a"/>
      <path id="Path_32383" data-name="Path 32383" d="M644.589,384.308l-.327-2.708c-.536,1.726-1.577,3.125-3.363,3.363h.03c-.119,0-.268.03-.387.03a3.727,3.727,0,0,1-3.422-2.024c-.03-.06-.119-.089-.149-.03s-.089.119-.03.149a3.871,3.871,0,0,0,3.63,2.172,3.151,3.151,0,0,0,.923-.149A4.187,4.187,0,0,0,644.589,384.308Z" transform="translate(-491.729 -314.764)" opacity="0.15"/>
      <path id="Path_32384" data-name="Path 32384" d="M659.1,351.084a1.616,1.616,0,0,1,2.5.893,4.219,4.219,0,0,1-.565,3.422l-.982-.149a.671.671,0,0,1-.714-.625Z" transform="translate(-507.312 -293.116)" fill="#21252b"/>
      <path id="Path_32385" data-name="Path 32385" d="M637.269,340.323a2.2,2.2,0,0,1-2.172,2.351l-5.327.3a.82.82,0,0,0-.774.833l.03,1.7a.427.427,0,0,1-.387.446l-.327.03-.387.446c-2.083-.565-2.768-6.517,1.1-7.588a1.807,1.807,0,0,0,.982-.774c.6-1.131,2.887-1.369,4.017-.06a1.089,1.089,0,0,0,.922.417A2.116,2.116,0,0,1,637.269,340.323Z" transform="translate(-484.231 -283.516)" fill="#21252b"/>
      <path id="Path_32386" data-name="Path 32386" d="M628.851,366.972a.868.868,0,0,0-1.4-.625l-.03.03a1.909,1.909,0,0,0,1.607,3.125Z" transform="translate(-484.74 -303.916)" fill="#f99a9a"/>
      <path id="Path_32387" data-name="Path 32387" d="M663.97,365.061a.89.89,0,0,0-1.369.744l.03,2.381A1.821,1.821,0,0,0,663.97,365.061Z" transform="translate(-509.771 -303.046)" fill="#f99a9a"/>
      <path id="Path_32388" data-name="Path 32388" d="M632.584,366.246a.235.235,0,0,1-.238.238.3.3,0,0,1-.268-.179L631.9,364.7l.655.03Z" transform="translate(-488.206 -302.893)" fill="#21252b"/>
      <path id="Path_32389" data-name="Path 32389" d="M662.384,364.947a.235.235,0,0,1-.238.238.3.3,0,0,1-.268-.179L661.7,363.4l.655.03Z" transform="translate(-509.138 -301.98)" fill="#21252b"/>
      <path id="Path_32390" data-name="Path 32390" d="M655.287,354.517h-.268a.119.119,0,0,1,0-.238,1.849,1.849,0,0,0,1.547-.6.1.1,0,0,1,.149-.03c.03.03.06.119.03.149A1.723,1.723,0,0,1,655.287,354.517Z" transform="translate(-504.362 -295.121)" fill="#f99a9a"/>
      <path id="Path_32391" data-name="Path 32391" d="M641.606,371.089a.476.476,0,1,0-.489.463A.476.476,0,0,0,641.606,371.089Z" transform="translate(-494.355 -307.037)" fill="#21252b"/>
      <path id="Path_32392" data-name="Path 32392" d="M641.362,371.693a.119.119,0,1,0-.122.116A.119.119,0,0,0,641.362,371.693Z" transform="translate(-494.685 -307.719)" fill="#fff"/>
      <path id="Path_32393" data-name="Path 32393" d="M653.8,370.57a.476.476,0,1,0-.489.462A.476.476,0,0,0,653.8,370.57Z" transform="translate(-502.922 -306.673)" fill="#21252b"/>
      <path id="Path_32394" data-name="Path 32394" d="M653.512,371.238a.119.119,0,1,0-.122.116A.119.119,0,0,0,653.512,371.238Z" transform="translate(-503.219 -307.4)" fill="#fff"/>
      <g id="Group_585" data-name="Group 585" transform="translate(148.128 65.229)" opacity="0.3">
        <path id="Path_32395" data-name="Path 32395" d="M647.426,377.3l.387-.03a.135.135,0,0,0-.03-.268l-.387.03a.283.283,0,1,1-.03-.565.135.135,0,0,0-.03-.268.567.567,0,0,0-.536.6A.669.669,0,0,0,647.426,377.3Z" transform="translate(-646.801 -376.199)" opacity="0.3"/>
      </g>
      <path id="Path_32396" data-name="Path 32396" d="M642.184,367.6l-2.053.06h-.268l-1.785.06h-.03l-2.291.06a.675.675,0,0,0-.655.714l.03.536a1.831,1.831,0,1,0,3.66-.089l-.03-.536a.566.566,0,0,0-.149-.387l.714-.03a.63.63,0,0,0-.119.417l.03.536a1.831,1.831,0,0,0,3.66-.089l-.03-.536A.664.664,0,0,0,642.184,367.6Zm-3.66.774.03.536a1.563,1.563,0,0,1-3.125.089l-.03-.536a.421.421,0,0,1,.387-.417l2.292-.06h.03A.383.383,0,0,1,638.523,368.374Zm4.107.417a1.563,1.563,0,1,1-3.125.089l-.03-.536a.421.421,0,0,1,.387-.417h.268l2.053-.06a.421.421,0,0,1,.417.387Z" transform="translate(-490.454 -304.93)" fill="#21252b"/>
      <g id="Group_586" data-name="Group 586" transform="translate(142.794 62.935)" opacity="0.3">
        <path id="Path_32397" data-name="Path 32397" d="M629.655,369.893a.2.2,0,0,1-.149-.119l-.03-.3a.946.946,0,0,0-.238-.625.386.386,0,0,0-.208-.089c-.06.03-.149-.03-.149-.119-.03-.06.03-.149.119-.149a.6.6,0,0,1,.417.119,1.086,1.086,0,0,1,.327.833l.03.3C629.8,369.8,629.745,369.863,629.655,369.893Z" transform="translate(-628.874 -368.492)" opacity="0.3"/>
      </g>
      <g id="Group_587" data-name="Group 587" transform="translate(153.388 62.402)" opacity="0.3">
        <path id="Path_32398" data-name="Path 32398" d="M664.6,368.157a.136.136,0,0,0,.119-.149v-.3a.958.958,0,0,1,.178-.655.208.208,0,0,1,.208-.089.135.135,0,1,0,.03-.268.509.509,0,0,0-.387.179,1.2,1.2,0,0,0-.268.863v.3C664.453,368.1,664.513,368.157,664.6,368.157Z" transform="translate(-664.475 -366.699)" opacity="0.3"/>
      </g>
      <g id="Group_588" data-name="Group 588" transform="translate(148.801 67.568)" opacity="0.3">
        <path id="Path_32399" data-name="Path 32399" d="M649.847,384.34h0a6.055,6.055,0,0,0-.6.238.141.141,0,1,1-.089-.268,6.051,6.051,0,0,1,.6-.238.132.132,0,0,1,.179.06A.154.154,0,0,1,649.847,384.34Z" transform="translate(-649.063 -384.061)" opacity="0.3"/>
      </g>
      <g id="Group_589" data-name="Group 589" transform="translate(147.578 66.608)" opacity="0.3">
        <path id="Path_32400" data-name="Path 32400" d="M647.018,381.389a1.734,1.734,0,0,1-2.024-.208c-.06-.06-.06-.119,0-.208.06-.06.119-.06.208,0,.238.238,1.012.714,2.2-.119.06-.03.149-.03.179.03s.03.149-.03.179A1.305,1.305,0,0,1,647.018,381.389Z" transform="translate(-644.95 -380.834)" opacity="0.3"/>
      </g>
      <path id="Path_32401" data-name="Path 32401" d="M714.767,358.785h-3.836V358.4a4.72,4.72,0,0,1,.223-1.589,3.549,3.549,0,0,1,.661-1.116,20.144,20.144,0,0,1,1.973-1.777q.817-.665.818-1.22a1.132,1.132,0,0,0-.327-.863,1.41,1.41,0,0,0-.994-.307A1.606,1.606,0,0,0,712.1,352a2.794,2.794,0,0,0-.6,1.655l-3.916-.485a5.33,5.33,0,0,1,1.568-3.476,5.846,5.846,0,0,1,4.193-1.318,6.208,6.208,0,0,1,3.553.92,3.821,3.821,0,0,1,1.836,3.309,3.2,3.2,0,0,1-.473,1.655,8.179,8.179,0,0,1-1.937,1.949,5.146,5.146,0,0,0-1.286,1.3A2.693,2.693,0,0,0,714.767,358.785Zm-3.967,1.021h4.107v3.625H710.8Z" transform="translate(-541.365 -291.429)" fill="#c92027"/>
      <g id="Group_590" data-name="Group 590" transform="translate(117.208 108.139)" opacity="0.15">
        <path id="Path_32402" data-name="Path 32402" d="M544.862,521.7a4.2,4.2,0,0,1-1.9-.922.223.223,0,0,1,.307-.324,3.81,3.81,0,0,0,1.723.818s-.036.131-.065.22S544.862,521.7,544.862,521.7Z" transform="translate(-542.897 -520.396)" opacity="0.15"/>
      </g>
      <path id="Path_32403" data-name="Path 32403" d="M759.525,665.906h-13.1a.458.458,0,0,1,0-.917h13.1a.458.458,0,1,1,0,.917Z" transform="translate(-568.331 -513.822)" fill="#c92027"/>
      <path id="Path_32404" data-name="Path 32404" d="M750.906,677.677h-5.9a.458.458,0,1,1,0-.917h5.9a.458.458,0,1,1,0,.917Z" transform="translate(-567.333 -522.09)" fill="#c92027"/>
      <path id="Path_32405" data-name="Path 32405" d="M759.525,665.906h-13.1a.458.458,0,0,1,0-.917h13.1a.458.458,0,1,1,0,.917Z" transform="translate(-568.331 -513.822)" fill="#fff"/>
      <path id="Path_32406" data-name="Path 32406" d="M750.906,677.677h-5.9a.458.458,0,1,1,0-.917h5.9a.458.458,0,1,1,0,.917Z" transform="translate(-567.333 -522.09)" fill="#fff"/>
      <path id="Path_32407" data-name="Path 32407" d="M799.612,665.906h-1.574a.458.458,0,0,1,0-.917h1.574a.458.458,0,0,1,0,.917Z" transform="translate(-604.582 -513.822)" fill="#c92027"/>
      <path id="Path_32408" data-name="Path 32408" d="M734.218,665.246h-1.187a.342.342,0,0,1-.336-.411l.238-1.2a.344.344,0,0,1,.336-.277h1.187a.342.342,0,0,1,.336.411l-.238,1.2A.344.344,0,0,1,734.218,665.246Z" transform="translate(-559.001 -512.677)" fill="#c92027"/>
      <path id="Path_32409" data-name="Path 32409" d="M734.218,665.246h-1.187a.342.342,0,0,1-.336-.411l.238-1.2a.344.344,0,0,1,.336-.277h1.187a.342.342,0,0,1,.336.411l-.238,1.2A.344.344,0,0,1,734.218,665.246Z" transform="translate(-559.001 -512.677)" fill="#fff"/>
      <path id="Path_32410" data-name="Path 32410" d="M732.118,676.647h-1.187a.342.342,0,0,1-.336-.411l.238-1.2a.344.344,0,0,1,.336-.277h1.187a.342.342,0,0,1,.336.411l-.238,1.2A.344.344,0,0,1,732.118,676.647Z" transform="translate(-557.526 -520.685)" fill="#c92027"/>
      <path id="Path_32411" data-name="Path 32411" d="M763.358,620.3H748.1c-.125,0-.229-.25-.229-.539l2.675-13.829c0-.312.1-.539.229-.539h15.26c.125,0,.229.25.229.539l-2.675,13.829C763.584,620.068,763.48,620.3,763.358,620.3Z" transform="translate(-569.665 -471.959)" fill="#c92027"/>
      <path id="Path_32412" data-name="Path 32412" d="M763.308,620.3h-15.26c-.125,0-.229-.25-.229-.539l2.675-13.829c0-.312.1-.539.229-.539h15.26c.125,0,.229.25.229.539l-2.675,13.829C763.537,620.068,763.433,620.3,763.308,620.3Z" transform="translate(-569.629 -471.959)" fill="#fff" opacity="0.5"/>
      <path id="Path_32413" data-name="Path 32413" d="M746.85,619.812l2.675-14.058a.424.424,0,0,1,.434-.434h14.846a.424.424,0,0,1,.434.434l-2.675,14.058a.424.424,0,0,1-.434.435H747.284A.424.424,0,0,1,746.85,619.812Z" transform="translate(-568.949 -471.909)" fill="#fff"/>
      <path id="Path_32414" data-name="Path 32414" d="M763.465,622.66a5.535,5.535,0,1,0-5.535-5.535A5.534,5.534,0,0,0,763.465,622.66Z" transform="translate(-576.732 -476.313)" fill="#c92027"/>
      <path id="Path_32415" data-name="Path 32415" d="M766.935,644.041a5.547,5.547,0,0,0,4.044-1.762H770.9l-2.675-.167-3.443-.083-1.515.146c-.125.021-.271.042-.393.063A5.482,5.482,0,0,0,766.935,644.041Z" transform="translate(-580.201 -497.694)" fill="#21252b"/>
      <path id="Path_32416" data-name="Path 32416" d="M773.156,642.084h.271a2.258,2.258,0,0,1-2.157,1.431,1.886,1.886,0,0,1-1.97-1.306.932.932,0,0,1-.021-.25" transform="translate(-584.703 -497.645)" fill="#c92027"/>
      <path id="Path_32417" data-name="Path 32417" d="M773.546,630.635l.063,3.276a.42.42,0,0,1-.062.229l-.042.063a2.106,2.106,0,0,1-3.381.271.951.951,0,0,1-.229-.56l.414-3.443Z" transform="translate(-585.134 -489.575)" fill="#f99a9a"/>
      <path id="Path_32418" data-name="Path 32418" d="M770.007,622.421s-.518,4.312,1.845,4.416c2.321.1,2.259-4.229,2.259-4.229l.021-1.244-3.006-.434-.747.414Z" transform="translate(-585.181 -482.874)" fill="#f99a9a"/>
      <path id="Path_32419" data-name="Path 32419" d="M770.26,637.011l.146-1.181a1.942,1.942,0,0,0,1.473,1.494c.062,0,.1.021.167.021a1.577,1.577,0,0,0,1.494-.893c.021-.021.042-.042.063-.021s.042.042.021.062a1.729,1.729,0,0,1-1.6.955,2.778,2.778,0,0,1-.414-.062A2.089,2.089,0,0,1,770.26,637.011Z" transform="translate(-585.392 -493.34)" opacity="0.15"/>
      <path id="Path_32420" data-name="Path 32420" d="M769.083,622.353a.714.714,0,0,0-1.1.393,1.852,1.852,0,0,0,.247,1.494l.434-.062c.187-.021.312-.1.312-.271Z" transform="translate(-583.739 -483.782)" fill="#21252b"/>
      <path id="Path_32421" data-name="Path 32421" d="M770.046,617.662A.974.974,0,0,0,771,618.7l2.342.125a.35.35,0,0,1,.33.372l-.021.747a.2.2,0,0,0,.167.208l.146.021.167.187c.914-.25,1.223-2.863-.476-3.339a.679.679,0,0,1-.435-.351,1.154,1.154,0,0,0-1.762-.021.482.482,0,0,1-.393.187A.9.9,0,0,0,770.046,617.662Z" transform="translate(-585.241 -479.588)" fill="#21252b"/>
      <path id="Path_32422" data-name="Path 32422" d="M783.022,629.335a.377.377,0,0,1,.622-.271.837.837,0,0,1-.705,1.369Z" transform="translate(-594.298 -488.523)" fill="#f99a9a"/>
      <path id="Path_32423" data-name="Path 32423" d="M767.734,628.5a.389.389,0,0,1,.6.33l-.021,1.036A.8.8,0,0,1,767.734,628.5Z" transform="translate(-583.446 -488.15)" fill="#f99a9a"/>
      <path id="Path_32424" data-name="Path 32424" d="M782.87,629a.1.1,0,0,0,.1.1.141.141,0,0,0,.125-.083l.083-.705-.292.021Z" transform="translate(-594.25 -488.058)" fill="#21252b"/>
      <path id="Path_32425" data-name="Path 32425" d="M769.7,628.434a.1.1,0,0,0,.1.1.141.141,0,0,0,.125-.083l.083-.705-.292.021Z" transform="translate(-584.998 -487.664)" fill="#21252b"/>
      <path id="Path_32426" data-name="Path 32426" d="M771.593,623.816h.125c.021,0,.042-.021.042-.062,0-.021-.021-.042-.062-.042a.809.809,0,0,1-.684-.271.077.077,0,0,0-.062-.021c-.021.021-.042.042-.021.083A.794.794,0,0,0,771.593,623.816Z" transform="translate(-585.857 -484.623)" fill="#f99a9a"/>
      <path id="Path_32427" data-name="Path 32427" d="M778.828,631.366a.208.208,0,1,0-.208-.208A.2.2,0,0,0,778.828,631.366Z" transform="translate(-591.265 -489.911)" fill="#21252b"/>
      <path id="Path_32428" data-name="Path 32428" d="M779.491,631.522a.042.042,0,1,0-.042-.042A.047.047,0,0,0,779.491,631.522Z" transform="translate(-591.847 -490.255)" fill="#fff"/>
      <path id="Path_32429" data-name="Path 32429" d="M773.458,631.087a.208.208,0,1,0-.208-.208A.209.209,0,0,0,773.458,631.087Z" transform="translate(-587.492 -489.715)" fill="#21252b"/>
      <path id="Path_32430" data-name="Path 32430" d="M774.132,631.313a.042.042,0,1,0-.042-.042A.045.045,0,0,0,774.132,631.313Z" transform="translate(-588.083 -490.109)" fill="#fff"/>
      <g id="Group_591" data-name="Group 591" transform="translate(186.463 141.723)" opacity="0.3">
        <path id="Path_32431" data-name="Path 32431" d="M775.849,633.771l-.167-.021a.055.055,0,0,1-.062-.062.094.094,0,0,1,.063-.062h.167a.11.11,0,0,0,.125-.125.12.12,0,0,0-.125-.125.055.055,0,0,1-.063-.062.094.094,0,0,1,.063-.062.262.262,0,0,1,0,.521Z" transform="translate(-775.62 -633.25)" opacity="0.3"/>
      </g>
      <path id="Path_32432" data-name="Path 32432" d="M770.949,629.917v.229a.824.824,0,0,0,.789.83.81.81,0,0,0,.83-.789v-.229a.5.5,0,0,0-.042-.187h.313a.255.255,0,0,0-.062.187v.229a.81.81,0,1,0,1.619.042l.021-.229a.3.3,0,0,0-.292-.312l-1.015-.021-.789-.021H772.2l-.893-.021A.294.294,0,0,0,770.949,629.917Zm2.095-.125,1.015.021a.17.17,0,0,1,.167.188v.229a.677.677,0,0,1-.705.664.667.667,0,0,1-.664-.705v-.229A.17.17,0,0,1,773.044,629.792Zm-1.991.125a.159.159,0,0,1,.188-.167l.893.021h.125a.17.17,0,0,1,.167.187v.229a.677.677,0,0,1-.705.664.667.667,0,0,1-.664-.705Z" transform="translate(-585.876 -488.98)" fill="#21252b"/>
      <g id="Group_592" data-name="Group 592" transform="translate(188.921 140.765)" opacity="0.3">
        <path id="Path_32433" data-name="Path 32433" d="M783.931,630.638a.055.055,0,0,0,.063-.062l.021-.125c.021-.125.042-.229.1-.271a.162.162,0,0,1,.1-.042c.042,0,.062-.021.062-.042s-.021-.062-.042-.062a.221.221,0,0,0-.187.063.433.433,0,0,0-.146.351l-.021.125C783.869,630.6,783.89,630.638,783.931,630.638Z" transform="translate(-783.881 -630.031)" opacity="0.3"/>
      </g>
      <g id="Group_593" data-name="Group 593" transform="translate(184.284 140.517)" opacity="0.3">
        <path id="Path_32434" data-name="Path 32434" d="M768.612,629.845a.066.066,0,0,1-.062-.062v-.125a.377.377,0,0,0-.083-.292.135.135,0,0,0-.1-.042.063.063,0,0,1,0-.125.289.289,0,0,1,.188.083.427.427,0,0,1,.1.372v.125C768.675,629.824,768.654,629.845,768.612,629.845Z" transform="translate(-768.3 -629.199)" opacity="0.3"/>
      </g>
      <g id="Group_594" data-name="Group 594" transform="translate(186.278 142.779)" opacity="0.3">
        <path id="Path_32435" data-name="Path 32435" d="M775.042,636.926h0a2.331,2.331,0,0,1,.271.1c.042,0,.063,0,.083-.042,0-.042,0-.062-.042-.083a2.322,2.322,0,0,0-.271-.1c-.042,0-.062,0-.083.042C775,636.887,775,636.926,775.042,636.926Z" transform="translate(-775 -636.801)" opacity="0.3"/>
      </g>
      <g id="Group_595" data-name="Group 595" transform="translate(186.043 142.398)" opacity="0.3">
        <path id="Path_32436" data-name="Path 32436" d="M774.467,635.738a.761.761,0,0,0,.893-.083.059.059,0,0,0-.083-.083c-.1.1-.434.312-.973-.042-.021-.021-.062,0-.083.021s0,.063.021.084A2.061,2.061,0,0,0,774.467,635.738Z" transform="translate(-774.211 -635.521)" opacity="0.3"/>
      </g>
    </g>
  </g>
</svg>
