<svg xmlns="http://www.w3.org/2000/svg" width="929" height="445.919" viewBox="0 0 929 445.919">
  <g id="Group_598" data-name="Group 598" transform="translate(-110 -1806.405)">
    <g id="Group_597" data-name="Group 597" transform="translate(110 1806.405)">
      <g id="undraw_Chat_bot_re_e2gj" transform="translate(0 0)">
        <path id="Path_32083" data-name="Path 32083" d="M18.637,119.8a11.486,11.486,0,0,0,6.3-7.686,10.5,10.5,0,0,0-2.472-9.3L39.376.958,17.288,0,4.109,101.434a10.6,10.6,0,0,0-1.764,15.017A13.435,13.435,0,0,0,18.637,119.8Z" transform="translate(196.678 56.269) rotate(-11)" fill="#ffb7b7"/>
        <path id="Path_32055" data-name="Path 32055" d="M214.513,646.018c-19.8,16.88-23.905,44.566-23.905,44.566s27.987.318,47.784-16.563S262.3,629.455,262.3,629.455,234.31,629.137,214.513,646.018Z" transform="translate(-163.776 -245.414)" fill="#f2f2f2"/>
        <path id="Path_32056" data-name="Path 32056" d="M223.986,654.494c-8.433,24.612-32.676,38.6-32.676,38.6s-10.572-25.916-2.139-50.528,32.676-38.6,32.676-38.6S232.418,629.883,223.986,654.494Z" transform="translate(-164.101 -247.174)" fill="#f2f2f2"/>
        <path id="Path_32057" data-name="Path 32057" d="M420.181,311.6c-4.439-5.545-10.711-10.676-11.109-17.518-.364-6.276,4.489-12.507,2.442-18.511-1.574-4.616-6.766-7.4-11.84-8.877a47.631,47.631,0,0,0-29.572,1.1l.514-.349c-5.776-1.984-12.527.064-17.071,3.857s-7.245,9.05-9.341,14.319-3.72,10.73-6.631,15.669-7.37,9.431-13.253,11.138c1.969,3.787,8.125,5.086,11.736,2.477a14.568,14.568,0,0,0,2.469-2.461l7.224-8.469c2.478,4.249-1.224,10.113,1.822,14.046,1.57,2.028,4.439,2.8,7.1,3.351a133.089,133.089,0,0,0,62.852-2.248c1.642-.467,3.454-1.109,4.136-2.542C422.448,314.927,421.348,313.062,420.181,311.6Z" transform="translate(-154.541 -264.859)" fill="#2f2e41"/>
        <path id="Path_32058" data-name="Path 32058" d="M475.012,332.371a11.263,11.263,0,0,0-.256,1.753l-45.924,26.494-11.163-6.426-11.9,15.579,18.656,13.3a8.553,8.553,0,0,0,10.261-.25l47.356-37.359a11.222,11.222,0,1,0-7.03-13.087Z" transform="translate(-148.915 -266.531)" fill="#ffb7b7"/>
        <path id="Path_32059" data-name="Path 32059" d="M428.754,360.812l-14.843,19.237a4.811,4.811,0,0,1-7.274.4L389.834,363a13.361,13.361,0,1,1,16.385-21.108l21.075,11.784a4.811,4.811,0,0,1,1.46,7.137Z" transform="translate(-150.373 -265.469)" fill="#c92027"/>
        <path id="Path_32060" data-name="Path 32060" d="M241.288,463.533h13.107l6.235-50.554H241.286Z" transform="translate(16.665 -33.012)" fill="#ffb7b7"/>
        <path id="Path_32061" data-name="Path 32061" d="M403.67,668.929h25.813a16.45,16.45,0,0,1,16.449,16.448v.536l-42.261,0Z" transform="translate(-149.06 -242.687)" fill="#2f2e41"/>
        <path id="Path_32062" data-name="Path 32062" d="M157.288,463.533h13.107l6.235-50.554H157.286Z" transform="translate(10.864 -33.012)" fill="#ffb7b7"/>
        <path id="Path_32063" data-name="Path 32063" d="M319.67,668.929h25.813a16.45,16.45,0,0,1,16.449,16.448v.536l-42.261,0Z" transform="translate(-154.862 -242.687)" fill="#2f2e41"/>
        <circle id="Ellipse_409" data-name="Ellipse 409" cx="22.651" cy="22.651" r="22.651" transform="translate(202.58 59.354) rotate(-83.735)" fill="#ffb7b7"/>
        <path id="Path_32064" data-name="Path 32064" d="M395.922,333.391,409.266,340s14.91,25.911,6.357,50.5c-4.152,11.938,7.541,49.993,7.541,49.993s18.117,172.374,18.174,225.574c-22.508,3.461-43.889,7.737-44.958-2.954S383.608,526.02,383.608,526.02s-16.093,140.3-28.922,142.44-38.486-1.069-38.486-1.069,20.369-205.515,34.267-218.343l2.138-10.691-.057-95.963,16.012-7.641Z" transform="translate(-155.102 -265.862)" fill="#2f2e41"/>
        <path id="Path_32065" data-name="Path 32065" d="M347.224,477.523a11.485,11.485,0,0,0,3.518-17.255l15.519-103.445-20.276-.973-12.1,103.017a11.547,11.547,0,0,0,13.336,18.657Z" transform="translate(-154.141 -264.311)" fill="#ffb7b7"/>
        <path id="Path_32066" data-name="Path 32066" d="M365.372,383.815l-24.249-1.531a4.811,4.811,0,0,1-4.4-5.8l5.053-23.691a13.361,13.361,0,0,1,26.663,1.762l2.032,24.06a4.811,4.811,0,0,1-5.1,5.2Z" transform="translate(-153.692 -265.385)" fill="#c92027"/>
        <path id="Path_32067" data-name="Path 32067" d="M1025.994,289.249H489.756A14.76,14.76,0,0,0,475,304.009V602.791a14.759,14.759,0,0,0,14.759,14.76h536.238a14.76,14.76,0,0,0,14.76-14.76V304.009A14.76,14.76,0,0,0,1025.994,289.249Z" transform="translate(-144.134 -268.911)" fill="#3f3d56"/>
        <rect id="Rectangle_439" data-name="Rectangle 439" width="526.181" height="296.82" transform="translate(350.65 46.422)" fill="#fff"/>
        <circle id="Ellipse_410" data-name="Ellipse 410" cx="5.397" cy="5.397" r="5.397" transform="translate(607.895 27.533)" fill="#fff"/>
        <path id="Path_32068" data-name="Path 32068" d="M703.7,397.8H328V100.983Z" transform="translate(22.654 -54.561)" fill="#f2f2f2" style="isolation: isolate"/>
        <path id="Path_32069" data-name="Path 32069" d="M1056.98,586.53h-51.352v-3.7a.733.733,0,0,0-.734-.733H987.288a.734.734,0,0,0-.734.734v3.7h-11v-3.7a.734.734,0,0,0-.734-.733H957.211a.734.734,0,0,0-.734.734h0v3.7h-11v-3.7a.733.733,0,0,0-.734-.733H927.133a.734.734,0,0,0-.734.734h0v3.7h-11v-3.7a.733.733,0,0,0-.734-.733H897.056a.734.734,0,0,0-.734.734v3.7h-11v-3.7a.733.733,0,0,0-.734-.733H866.979a.734.734,0,0,0-.734.734h0v3.7h-11v-3.7a.734.734,0,0,0-.734-.733H836.9a.734.734,0,0,0-.734.734h0v3.7h-11v-3.7a.734.734,0,0,0-.734-.733H686.513a.734.734,0,0,0-.734.734h0v3.7h-11v-3.7a.733.733,0,0,0-.734-.733H656.436a.734.734,0,0,0-.734.734h0v3.7h-11v-3.7a.733.733,0,0,0-.734-.733H626.358a.734.734,0,0,0-.734.734h0v3.7h-11v-3.7a.733.733,0,0,0-.734-.733H596.281a.734.734,0,0,0-.733.734h0v3.7h-11v-3.7a.733.733,0,0,0-.734-.733H566.2a.734.734,0,0,0-.734.734h0v3.7h-11v-3.7a.733.733,0,0,0-.734-.733H536.126a.734.734,0,0,0-.734.734v3.7h-11v-3.7a.733.733,0,0,0-.734-.733H506.048a.734.734,0,0,0-.734.734h0v3.7H471.569a17.606,17.606,0,0,0-17.606,17.606V612.1A17.606,17.606,0,0,0,471.569,629.7H1056.98a17.606,17.606,0,0,0,17.606-17.606v-7.961a17.606,17.606,0,0,0-17.606-17.606Z" transform="translate(-145.587 -248.685)" fill="#3f3d56"/>
        <path id="Path_32070" data-name="Path 32070" d="M751,555.447a12.926,12.926,0,0,1-.592,1.222,15.571,15.571,0,0,1-29.27-7.4v-2.513h2.133A54.46,54.46,0,0,0,751,555.447Z" transform="translate(-127.133 -251.126)" fill="#3f3d56"/>
        <path id="Path_32071" data-name="Path 32071" d="M779.459,547.443v1.777a15.565,15.565,0,0,1-29.233,7.452,12.991,12.991,0,0,1-.617-1.253c.455.013.9.019,1.359.019a54.54,54.54,0,0,0,28.49-7.994Z" transform="translate(-125.167 -251.078)" fill="#3f3d56"/>
        <path id="Path_32072" data-name="Path 32072" d="M797.243,371.665c-.468-.069-.941-.112-1.415-.143a52.366,52.366,0,0,1,1.042,39.1c.474-.056.941-.131,1.409-.218a19.644,19.644,0,0,0-1.035-38.742Z" transform="translate(-121.974 -263.229)" fill="#3f3d56"/>
        <path id="Path_32073" data-name="Path 32073" d="M707.119,371.522c-.474.031-.948.075-1.415.143a19.644,19.644,0,0,0-1.035,38.742c.468.087.935.162,1.409.218a52.369,52.369,0,0,1,1.042-39.1Z" transform="translate(-129.369 -263.229)" fill="#3f3d56"/>
        <path id="Path_32074" data-name="Path 32074" d="M803.812,373.783a53.62,53.62,0,1,0,4.159,20.7,53.62,53.62,0,0,0-4.159-20.7Zm-.374,38.96a52.366,52.366,0,1,1,3.286-18.258A52.365,52.365,0,0,1,803.438,412.743Z" transform="translate(-128.543 -265.347)" fill="#3f3d56"/>
        <path id="Path_32075" data-name="Path 32075" d="M780.795,379.647H725.922a10.912,10.912,0,0,0,0,21.825h54.873a10.912,10.912,0,1,0,0-21.825Z" transform="translate(-127.556 -262.668)" fill="#3f3d56"/>
        <path id="Path_32076" data-name="Path 32076" d="M803.6,480.054q-.3-.552-.618-1.085c-.006-.013-.012-.019-.018-.031a56.1,56.1,0,1,0-50.989,84.337c.592.031,1.191.05,1.789.05.25.012.493.012.742.012a55.708,55.708,0,0,0,28.49-7.788,56.494,56.494,0,0,0,21.787-23.415c.006-.013.013-.019.019-.031.187-.374.368-.755.549-1.141A56.04,56.04,0,0,0,803.6,480.054Zm.536,50.565q-.271.58-.561,1.141A55.257,55.257,0,0,1,782.994,554.1a54.54,54.54,0,0,1-28.49,7.994c-.456,0-.9-.006-1.359-.019q-.29,0-.58-.019a54.871,54.871,0,1,1,49.149-82.765c.006.013.013.019.019.031.218.355.43.717.63,1.079a54.8,54.8,0,0,1,1.771,50.222Z" transform="translate(-128.702 -257.73)" fill="#3f3d56"/>
        <path id="Path_32077" data-name="Path 32077" d="M793.468,479.814a6.485,6.485,0,0,0-3.741-1.2H765.2a6.441,6.441,0,1,0,0,12.883h24.525a6.367,6.367,0,0,0,1.3-.131,7.075,7.075,0,0,0,1.247-.393,6.439,6.439,0,0,0,1.191-11.156Z" transform="translate(-124.534 -255.832)" fill="#3f3d56"/>
        <circle id="Ellipse_411" data-name="Ellipse 411" cx="3.27" cy="3.27" r="3.27" transform="translate(639.03 225.95)" fill="#f1f1f1"/>
        <circle id="Ellipse_412" data-name="Ellipse 412" cx="3.27" cy="3.27" r="3.27" transform="translate(649.658 225.95)" fill="#f1f1f1"/>
        <circle id="Ellipse_413" data-name="Ellipse 413" cx="3.27" cy="3.27" r="3.27" transform="translate(660.287 225.95)" fill="#c92027"/>
        <path id="Path_32081" data-name="Path 32081" d="M573.894,686H166.579a1.069,1.069,0,1,1,0-2.138H573.894a1.069,1.069,0,1,1,0,2.138Z" transform="translate(-165.51 -241.656)" fill="#cbcbcb"/>
        <path id="Path_32082" data-name="Path 32082" d="M403.814,288.848c-.883-4-3.75-7.322-7.052-9.751a28.883,28.883,0,0,0-36.923,2.245,18.868,18.868,0,0,0-5.7,9.14,11.21,11.21,0,0,0,2.389,10.208l.453.283c-.41-1.74.942-3.48,2.557-4.247a20.428,20.428,0,0,1,5.215-1.169,19.173,19.173,0,0,0,13-9.171,21.653,21.653,0,0,0,12.409,12.932c2.994,1.171,11.216,2.781,14.067,1.294C407.858,298.716,404.7,292.852,403.814,288.848Z" transform="translate(-152.282 -267.007)" fill="#2f2e41"/>
      </g>
    </g>
    <rect id="Rectangle_440" data-name="Rectangle 440" width="520" height="283" transform="translate(464 1855)" fill="#fff"/>
    
  </g>
</svg>
