<svg xmlns="http://www.w3.org/2000/svg" width="869.491" height="582.249" viewBox="0 0 869.491 582.249">
  <g id="Group_544" data-name="Group 544" transform="translate(-366 -1363.302)">
    <g id="Discuss_product_requirements" data-name="Discuss product requirements" transform="translate(366 1363.302)">
      <path id="Path_31719" data-name="Path 31719" d="M1203.938,794.1H1164.8a2,2,0,0,1,1.961,1.961h32.125v1.961h5.052a2,2,0,0,0,1.961-1.961A1.947,1.947,0,0,0,1203.938,794.1Z" transform="translate(-441.682 -388.388)" fill="#b2b6bb"/>
      <path id="Path_31720" data-name="Path 31720" d="M1163.423,799.3H1159.2l6.184,4.072H1159.2V934.965h38.309V799.3Z" transform="translate(-440.305 -389.667)" fill="#b2b6bb"/>
      <path id="Path_31721" data-name="Path 31721" d="M1166.761,796.8a2,2,0,0,1-1.961,1.961h34.086V796.8Z" transform="translate(-441.682 -389.052)" fill="#b2b6bb"/>
      <path id="Path_31722" data-name="Path 31722" d="M839.7,916.2v37.4H969.784V916.2Zm108.215,12.971a4.321,4.321,0,0,1-.83.829,3.093,3.093,0,0,1-1.659.528,1.282,1.282,0,0,1-.528-.075,1473.231,1473.231,0,0,1-.453-.151,3,3,0,0,1,0-5.731.277.277,0,0,0,.226-.075c.075,0,.151-.075.226-.075.151,0,.377-.075.528-.075a1.662,1.662,0,0,1,.6.075,1.4,1.4,0,0,1,.528.151,3.63,3.63,0,0,1,1.207.9,2.607,2.607,0,0,1,.528.905,2.4,2.4,0,0,1,.151,1.056A3.587,3.587,0,0,1,947.915,929.171Z" transform="translate(-361.744 -418.411)" fill="#dadddf"/>
      <path id="Path_31723" data-name="Path 31723" d="M836.756,926.3V811.98H967.745v-8.974L831.1,801.8V935.579H967.745V926.3Z" transform="translate(-359.629 -390.281)" fill="#dadddf"/>
      <path id="Path_31724" data-name="Path 31724" d="M969.86,816.5H839.7V853H969.784V816.5Zm-21.643,12.594a5.61,5.61,0,0,1-.528.9,3.629,3.629,0,0,1-1.207.9,1.089,1.089,0,0,1-.528.151,1.661,1.661,0,0,1-.6.075,1.118,1.118,0,0,1-.528-.075,1473.231,1473.231,0,0,0-.453-.151,3,3,0,0,1,0-5.731.277.277,0,0,0,.226-.075c.075,0,.151-.075.226-.075.151,0,.377-.075.528-.075a1.662,1.662,0,0,1,.6.075,3.282,3.282,0,0,1,1.433.754l.075.075a3.024,3.024,0,0,1,.905,2.112A1.812,1.812,0,0,1,948.217,829.094Z" transform="translate(-361.744 -393.896)" fill="#dadddf"/>
      <path id="Path_31725" data-name="Path 31725" d="M969.86,866H839.7v36.951H969.784V866Zm-21.643,12.367a5.616,5.616,0,0,1-.528.9,3.629,3.629,0,0,1-1.207.9,1.089,1.089,0,0,1-.528.151,1.662,1.662,0,0,1-.6.075,1.119,1.119,0,0,1-.528-.075,2951.595,2951.595,0,0,1-.453-.151,3,3,0,0,1,0-5.731.277.277,0,0,0,.226-.075c.075,0,.151-.076.226-.076.151,0,.377-.075.528-.075a1.664,1.664,0,0,1,.6.075,1.4,1.4,0,0,1,.528.151,3.63,3.63,0,0,1,1.207.9,2.605,2.605,0,0,1,.528.9,3.769,3.769,0,0,1,0,2.112Z" transform="translate(-361.744 -406.067)" fill="#dadddf"/>
      <path id="Path_31726" data-name="Path 31726" d="M1012.3,803.4v8.974h104.67V926.7H1012.3v9.276h110.779V804.38Z" transform="translate(-404.184 -390.675)" fill="#dadddf"/>
      <path id="Path_31727" data-name="Path 31727" d="M1116.066,916.2H1012.3v37.4h103.766Z" transform="translate(-404.184 -418.411)" fill="#dadddf"/>
      <path id="Path_31728" data-name="Path 31728" d="M1116.066,866H1012.3v36.951h103.766Z" transform="translate(-404.184 -406.067)" fill="#dadddf"/>
      <path id="Path_31729" data-name="Path 31729" d="M1116.066,816.5H1012.3V853h103.766Z" transform="translate(-404.184 -393.896)" fill="#dadddf"/>
      <path id="Path_31730" data-name="Path 31730" d="M838.6,852.7h.83V816.2h130.16v-.9H838.6Z" transform="translate(-361.474 -393.601)" fill="#b2b6bb"/>
      <path id="Path_31731" data-name="Path 31731" d="M839.43,953.529V916.2h-.83v38.234H969.589v-.905Z" transform="translate(-361.474 -418.411)" fill="#b2b6bb"/>
      <path id="Path_31732" data-name="Path 31732" d="M839.5,866h-.9v36.951h.9Z" transform="translate(-361.474 -406.067)" fill="#b2b6bb"/>
      <path id="Path_31733" data-name="Path 31733" d="M1116.066,816.2v36.5h.9V815.3H1012.3v.9Z" transform="translate(-404.184 -393.601)" fill="#b2b6bb"/>
      <path id="Path_31734" data-name="Path 31734" d="M1150.805,866h-.905v36.951h.905Z" transform="translate(-438.019 -406.067)" fill="#b2b6bb"/>
      <path id="Path_31735" data-name="Path 31735" d="M1116.066,953.529H1012.3v.905h104.67V916.2h-.9Z" transform="translate(-404.184 -418.411)" fill="#b2b6bb"/>
      <path id="Path_31736" data-name="Path 31736" d="M965.63,796.161h115V794.2H824.461a1.961,1.961,0,0,0,0,3.921h4.449v-1.961Z" transform="translate(-357.515 -388.413)" fill="#dadddf"/>
      <path id="Path_31737" data-name="Path 31737" d="M1164.775,796.161h1.961a2,2,0,0,0-1.961-1.961h-.075v1.961Z" transform="translate(-441.658 -388.413)" fill="#dadddf"/>
      <path id="Path_31738" data-name="Path 31738" d="M1163.423,796.8H1159.2v1.961h4.223Z" transform="translate(-440.305 -389.052)" fill="#dadddf"/>
      <path id="Path_31739" data-name="Path 31739" d="M1164.8,798.661a1.947,1.947,0,0,0,1.961-1.961H1164.8Z" transform="translate(-441.682 -389.027)" fill="#dadddf"/>
      <path id="Path_31740" data-name="Path 31740" d="M967.745,796.8H831.1v1.961H967.745Z" transform="translate(-359.629 -389.052)" fill="#dadddf"/>
      <path id="Path_31741" data-name="Path 31741" d="M1123.079,796.8H1012.3v1.961h110.779Z" transform="translate(-404.184 -389.052)" fill="#dadddf"/>
      <path id="Path_31742" data-name="Path 31742" d="M969.784,915H839.7v.9H969.784Z" transform="translate(-361.744 -418.116)" fill="#b2b6bb"/>
      <path id="Path_31743" data-name="Path 31743" d="M1116.066,915H1012.3v.9h103.766Z" transform="translate(-404.184 -418.116)" fill="#b2b6bb"/>
      <path id="Path_31744" data-name="Path 31744" d="M839.5,915h-.9v.9h.9Z" transform="translate(-361.474 -418.116)" fill="#b2b6bb"/>
      <path id="Path_31745" data-name="Path 31745" d="M1150.805,915h-.905v.9h.905Z" transform="translate(-438.019 -418.116)" fill="#b2b6bb"/>
      <path id="Path_31746" data-name="Path 31746" d="M969.784,864.9H839.7v.9H969.784Z" transform="translate(-361.744 -405.797)" fill="#b2b6bb"/>
      <path id="Path_31747" data-name="Path 31747" d="M1116.066,864.9H1012.3v.9h103.766Z" transform="translate(-404.184 -405.797)" fill="#b2b6bb"/>
      <path id="Path_31748" data-name="Path 31748" d="M839.5,864.9h-.9v.9h.9Z" transform="translate(-361.474 -405.797)" fill="#b2b6bb"/>
      <path id="Path_31749" data-name="Path 31749" d="M1150.805,864.9h-.905v.9h.905Z" transform="translate(-438.019 -405.797)" fill="#b2b6bb"/>
      <path id="Path_31750" data-name="Path 31750" d="M983.6,831.212a2.738,2.738,0,0,0-.9-2.112A2.889,2.889,0,0,1,983.6,831.212Z" transform="translate(-396.906 -396.994)" fill="#b2b6bb"/>
      <path id="Path_31751" data-name="Path 31751" d="M979.948,830.966a2.945,2.945,0,0,0-2.036-2.866,3,3,0,0,0,0,5.731A3.088,3.088,0,0,0,979.948,830.966Z" transform="translate(-395.21 -396.748)" fill="#b2b6bb"/>
      <path id="Path_31752" data-name="Path 31752" d="M978.6,828.075a.277.277,0,0,0,.226-.075C978.675,828,978.6,828,978.6,828.075Z" transform="translate(-395.898 -396.724)" fill="#dadddf"/>
      <path id="Path_31753" data-name="Path 31753" d="M978.6,828.075a.277.277,0,0,0,.226-.075C978.675,828,978.6,828,978.6,828.075Z" transform="translate(-395.898 -396.724)" opacity="0.15"/>
      <path id="Path_31754" data-name="Path 31754" d="M978.6,835.7a.277.277,0,0,1,.226.075C978.675,835.7,978.675,835.7,978.6,835.7Z" transform="translate(-395.898 -398.617)" fill="#dadddf"/>
      <path id="Path_31755" data-name="Path 31755" d="M978.6,835.7a.277.277,0,0,1,.226.075C978.675,835.7,978.675,835.7,978.6,835.7Z" transform="translate(-395.898 -398.617)" opacity="0.15"/>
      <path id="Path_31756" data-name="Path 31756" d="M981.641,828.63a2.655,2.655,0,0,0-1.433-.754,1.659,1.659,0,0,0-.6-.075,1.118,1.118,0,0,0-.528.075.277.277,0,0,0-.226.075c-.075,0-.151,0-.151.075a3.035,3.035,0,0,1,0,5.731.263.263,0,0,1,.151.075c.075,0,.151.075.226.075.151,0,.377.075.528.075a1.66,1.66,0,0,0,.6-.075,1.4,1.4,0,0,0,.528-.151,3.632,3.632,0,0,0,1.207-.9,2.608,2.608,0,0,0,.528-.9,2.394,2.394,0,0,0,.151-1.056,2.739,2.739,0,0,0-.905-2.112C981.641,828.7,981.641,828.7,981.641,828.63Z" transform="translate(-395.923 -396.674)" fill="#b2b6bb"/>
      <path id="Path_31757" data-name="Path 31757" d="M981.641,828.63a2.655,2.655,0,0,0-1.433-.754,1.659,1.659,0,0,0-.6-.075,1.118,1.118,0,0,0-.528.075.277.277,0,0,0-.226.075c-.075,0-.151,0-.151.075a3.035,3.035,0,0,1,0,5.731.263.263,0,0,1,.151.075c.075,0,.151.075.226.075.151,0,.377.075.528.075a1.66,1.66,0,0,0,.6-.075,1.4,1.4,0,0,0,.528-.151,3.632,3.632,0,0,0,1.207-.9,2.608,2.608,0,0,0,.528-.9,2.394,2.394,0,0,0,.151-1.056,2.739,2.739,0,0,0-.905-2.112C981.641,828.7,981.641,828.7,981.641,828.63Z" transform="translate(-395.923 -396.674)" opacity="0.15"/>
      <path id="Path_31758" data-name="Path 31758" d="M979.948,880.166a2.945,2.945,0,0,0-2.036-2.866,3,3,0,0,0,0,5.731A3.088,3.088,0,0,0,979.948,880.166Z" transform="translate(-395.21 -408.846)" fill="#b2b6bb"/>
      <path id="Path_31759" data-name="Path 31759" d="M978.6,877.175h0a.277.277,0,0,0,.226-.076A.584.584,0,0,1,978.6,877.175Z" transform="translate(-395.898 -408.797)" fill="#dadddf"/>
      <path id="Path_31760" data-name="Path 31760" d="M978.6,877.175h0a.277.277,0,0,0,.226-.076A.584.584,0,0,1,978.6,877.175Z" transform="translate(-395.898 -408.797)" opacity="0.15"/>
      <path id="Path_31761" data-name="Path 31761" d="M978.6,884.889a.277.277,0,0,1,.226.075c-.151-.075-.151-.075-.226-.075Z" transform="translate(-395.898 -410.704)" fill="#dadddf"/>
      <path id="Path_31762" data-name="Path 31762" d="M978.6,884.889a.277.277,0,0,1,.226.075c-.151-.075-.151-.075-.226-.075Z" transform="translate(-395.898 -410.704)" opacity="0.15"/>
      <path id="Path_31763" data-name="Path 31763" d="M981.843,878.131a3.629,3.629,0,0,0-1.207-.9,1.09,1.09,0,0,0-.528-.151,1.662,1.662,0,0,0-.6-.075,1.119,1.119,0,0,0-.528.075.277.277,0,0,0-.226.076c-.075,0-.151,0-.151.075a3.035,3.035,0,0,1,0,5.731.263.263,0,0,1,.151.075c.075,0,.151.075.226.075.151,0,.377.076.528.076a1.659,1.659,0,0,0,.6-.076,1.4,1.4,0,0,0,.528-.151,3.63,3.63,0,0,0,1.207-.9,2.61,2.61,0,0,0,.528-.9,2.4,2.4,0,0,0,.151-1.056,4.448,4.448,0,0,0-.151-1.056A1.81,1.81,0,0,0,981.843,878.131Z" transform="translate(-395.898 -408.772)" fill="#b2b6bb"/>
      <path id="Path_31764" data-name="Path 31764" d="M981.843,878.131a3.629,3.629,0,0,0-1.207-.9,1.09,1.09,0,0,0-.528-.151,1.662,1.662,0,0,0-.6-.075,1.119,1.119,0,0,0-.528.075.277.277,0,0,0-.226.076c-.075,0-.151,0-.151.075a3.035,3.035,0,0,1,0,5.731.263.263,0,0,1,.151.075c.075,0,.151.075.226.075.151,0,.377.076.528.076a1.659,1.659,0,0,0,.6-.076,1.4,1.4,0,0,0,.528-.151,3.63,3.63,0,0,0,1.207-.9,2.61,2.61,0,0,0,.528-.9,2.4,2.4,0,0,0,.151-1.056,4.448,4.448,0,0,0-.151-1.056A1.81,1.81,0,0,0,981.843,878.131Z" transform="translate(-395.898 -408.772)" opacity="0.15"/>
      <path id="Path_31765" data-name="Path 31765" d="M979.948,930.166a2.945,2.945,0,0,0-2.036-2.866,3,3,0,0,0,0,5.731A2.945,2.945,0,0,0,979.948,930.166Z" transform="translate(-395.21 -421.14)" fill="#b2b6bb"/>
      <path id="Path_31766" data-name="Path 31766" d="M982.1,934.13a4.325,4.325,0,0,0,.829-.83A2.182,2.182,0,0,1,982.1,934.13Z" transform="translate(-396.759 -422.616)" fill="#b2b6bb"/>
      <path id="Path_31767" data-name="Path 31767" d="M978.6,927.275a.277.277,0,0,0,.226-.075A.585.585,0,0,1,978.6,927.275Z" transform="translate(-395.898 -421.116)" fill="#dadddf"/>
      <path id="Path_31768" data-name="Path 31768" d="M978.6,927.275a.277.277,0,0,0,.226-.075A.585.585,0,0,1,978.6,927.275Z" transform="translate(-395.898 -421.116)" opacity="0.15"/>
      <path id="Path_31769" data-name="Path 31769" d="M978.6,934.9a.277.277,0,0,1,.226.075C978.675,934.975,978.675,934.9,978.6,934.9Z" transform="translate(-395.898 -423.009)" fill="#dadddf"/>
      <path id="Path_31770" data-name="Path 31770" d="M978.6,934.9a.277.277,0,0,1,.226.075C978.675,934.975,978.675,934.9,978.6,934.9Z" transform="translate(-395.898 -423.009)" opacity="0.15"/>
      <path id="Path_31771" data-name="Path 31771" d="M981.843,928.231a3.631,3.631,0,0,0-1.207-.9,1.09,1.09,0,0,0-.528-.151,1.659,1.659,0,0,0-.6-.076,1.116,1.116,0,0,0-.528.076.277.277,0,0,0-.226.075c-.075,0-.151,0-.151.075a3.035,3.035,0,0,1,0,5.731.263.263,0,0,1,.151.075c.075,0,.151.075.226.075.151,0,.377.075.528.075a3.093,3.093,0,0,0,1.659-.528,4.32,4.32,0,0,0,.83-.829,3.094,3.094,0,0,0,.528-1.659,4.449,4.449,0,0,0-.151-1.056A1.755,1.755,0,0,0,981.843,928.231Z" transform="translate(-395.898 -421.091)" fill="#b2b6bb"/>
      <path id="Path_31772" data-name="Path 31772" d="M981.843,928.231a3.631,3.631,0,0,0-1.207-.9,1.09,1.09,0,0,0-.528-.151,1.659,1.659,0,0,0-.6-.076,1.116,1.116,0,0,0-.528.076.277.277,0,0,0-.226.075c-.075,0-.151,0-.151.075a3.035,3.035,0,0,1,0,5.731.263.263,0,0,1,.151.075c.075,0,.151.075.226.075.151,0,.377.075.528.075a3.093,3.093,0,0,0,1.659-.528,4.32,4.32,0,0,0,.83-.829,3.094,3.094,0,0,0,.528-1.659,4.449,4.449,0,0,0-.151-1.056A1.755,1.755,0,0,0,981.843,928.231Z" transform="translate(-395.898 -421.091)" opacity="0.15"/>
      <path id="Path_31773" data-name="Path 31773" d="M1165.384,803.372,1159.2,799.3v4.072Z" transform="translate(-440.305 -389.667)" fill="#b2b6bb"/>
      <path id="Path_31774" data-name="Path 31774" d="M967.745,799.3H831.1v1.885l136.645,1.207Z" transform="translate(-359.629 -389.667)" fill="#b2b6bb"/>
      <path id="Path_31775" data-name="Path 31775" d="M1012.3,802.392l110.779.98V799.3H1012.3Z" transform="translate(-404.184 -389.667)" fill="#b2b6bb"/>
      <path id="Path_31776" data-name="Path 31776" d="M1193.3,1004l4.072,16.063a2.016,2.016,0,0,0,1.885,1.357,2.228,2.228,0,0,0,.754-.151L1197,1004.98Z" transform="translate(-448.69 -440)" fill="#dadddf"/>
      <path id="Path_31777" data-name="Path 31777" d="M1187,979.2l4.751,18.7Z" transform="translate(-447.141 -433.902)" fill="#b2b6bb"/>
      <path id="Path_31778" data-name="Path 31778" d="M1191.751,997.951l3.7.905,3.016,16.289c.076,0,.076-.075.151-.075a.263.263,0,0,0,.151-.075c.076,0,.076-.075.151-.075l.151-.151.075-.076c.075-.075.151-.226.226-.3a.074.074,0,0,1,.075-.075c0-.075.075-.151.075-.226v-.151a.569.569,0,0,1,.076-.3v-.151a.564.564,0,0,0-.076-.377l-2.79-30.919-.226-2.79H1187Z" transform="translate(-447.141 -433.951)" fill="#b2b6bb"/>
      <path id="Path_31779" data-name="Path 31779" d="M1142.3,981.915l-.9-2.715,8.823,34.689a2.016,2.016,0,0,0,1.885,1.358,2.229,2.229,0,0,0,.754-.151l-5.128-32.2Z" transform="translate(-435.929 -433.902)" fill="#dadddf"/>
      <path id="Path_31780" data-name="Path 31780" d="M1157.29,1014.2v-.377L1154.5,982.9l2.79,30.919Z" transform="translate(-439.15 -434.812)" fill="#b2b6bb"/>
      <path id="Path_31781" data-name="Path 31781" d="M1141.4,979.2l.9,2.715,5.43,1.056,5.128,32.2c.075,0,.075-.075.151-.075a.263.263,0,0,0,.151-.076c.075,0,.075-.075.151-.075l.151-.151.075-.075c.075-.076.151-.226.226-.3a.074.074,0,0,1,.075-.075c0-.075.075-.151.075-.226v-.151a.571.571,0,0,1,.075-.3v-.151a.567.567,0,0,0-.075-.377l-2.79-30.919-.226-2.79Z" transform="translate(-435.929 -433.902)" fill="#b2b6bb"/>
      <path id="Path_31782" data-name="Path 31782" d="M886.44,1002.73l-3.243-.83-1.508,16.59a2.031,2.031,0,0,0,1.961,2.413h-.075Z" transform="translate(-372.06 -439.484)" fill="#dadddf"/>
      <path id="Path_31783" data-name="Path 31783" d="M885.431,1026.6a2.031,2.031,0,0,1-1.131.377A2.868,2.868,0,0,0,885.431,1026.6Z" transform="translate(-372.711 -445.557)" fill="#b2b6bb"/>
      <path id="Path_31784" data-name="Path 31784" d="M886.751,1013.989a.57.57,0,0,1-.151.3c.076-.151.076-.226.151-.3l8.823-34.689Z" transform="translate(-373.276 -433.927)" fill="#b2b6bb"/>
      <path id="Path_31785" data-name="Path 31785" d="M894.861,979.2h-9.577L883.7,996.318l3.243.83-2.866,18.1h.075a1.851,1.851,0,0,0,1.131-.377,2.562,2.562,0,0,0,.453-.452c.075-.075.151-.151.151-.226.075-.075.075-.151.151-.3Z" transform="translate(-372.563 -433.902)" fill="#b2b6bb"/>
      <path id="Path_31786" data-name="Path 31786" d="M841.676,982.854l-3.921-.754-2.866,31.522a2.031,2.031,0,0,0,1.961,2.413h-.075Z" transform="translate(-360.553 -434.615)" fill="#dadddf"/>
      <path id="Path_31787" data-name="Path 31787" d="M838.4,1026.8a1.422,1.422,0,0,1-.6.151A1.422,1.422,0,0,0,838.4,1026.8Z" transform="translate(-361.277 -445.606)" fill="#b2b6bb"/>
      <path id="Path_31788" data-name="Path 31788" d="M838.3,981.387h.3l.151-2.187Z" transform="translate(-361.4 -433.902)" fill="#b2b6bb"/>
      <path id="Path_31789" data-name="Path 31789" d="M838.482,979.2l-.226,2.187,3.921.754-4.977,33.106h.377a1.773,1.773,0,0,0,.6-.151c.075-.076.151-.076.226-.151a2.558,2.558,0,0,0,.453-.452,1.893,1.893,0,0,0,.3-.528l8.823-34.689Z" transform="translate(-361.129 -433.902)" fill="#b2b6bb"/>
      <path id="Path_31790" data-name="Path 31790" d="M960.969,383.868c.3-11.236.829-35.066,1.131-46.3a6.214,6.214,0,0,0-6.033-6.335l-46.3-1.131a6.214,6.214,0,0,0-6.335,6.033l-1.131,46.3a6.214,6.214,0,0,0,6.033,6.335c11.236.3,35.066.83,46.3,1.131A6.262,6.262,0,0,0,960.969,383.868Z" transform="translate(-377.136 -274.295)" fill="#ddd"/>
      <path id="Path_31791" data-name="Path 31791" d="M960.969,383.868c.3-11.236.829-35.066,1.131-46.3a6.214,6.214,0,0,0-6.033-6.335l-46.3-1.131a6.214,6.214,0,0,0-6.335,6.033l-1.131,46.3a6.214,6.214,0,0,0,6.033,6.335c11.236.3,35.066.83,46.3,1.131A6.262,6.262,0,0,0,960.969,383.868Z" transform="translate(-377.136 -274.295)" fill="none" stroke="#858990" stroke-miterlimit="10" stroke-width="1.356" stroke-dasharray="2.4 2.4"/>
      <path id="Path_31792" data-name="Path 31792" d="M948.831,369.454c-.754-11.236-2.262-34.991-3.016-46.227a6.161,6.161,0,0,0-6.561-5.731l-46.227,3.016a6.161,6.161,0,0,0-5.731,6.561l3.016,46.227a6.161,6.161,0,0,0,6.561,5.731c11.236-.754,34.991-2.262,46.227-3.016A6.117,6.117,0,0,0,948.831,369.454Z" transform="translate(-373.444 -271.193)" fill="#fff"/>
      <path id="Path_31793" data-name="Path 31793" d="M921.609,340.225l-3.092,8.6a.724.724,0,0,1-.679.528l-8.974,1.508a.84.84,0,0,0-.377,1.508l7.164,5.58a.9.9,0,0,1,.3.83l-1.357,9.049a.821.821,0,0,0,1.282.83l7.541-5.128a.826.826,0,0,1,.83-.075l8.144,4.072a.854.854,0,0,0,1.207-.98l-2.489-8.748a.851.851,0,0,1,.226-.829l6.41-6.485a.841.841,0,0,0-.6-1.433l-9.125-.3a.83.83,0,0,1-.754-.452l-4.223-8.069A.746.746,0,0,0,921.609,340.225Z" transform="translate(-378.573 -276.653)" fill="#858990"/>
      <path id="Path_31794" data-name="Path 31794" d="M783.343,596.7H663.967a3.186,3.186,0,0,1-3.167-3.167V527.167A3.186,3.186,0,0,1,663.967,524h119.3a3.186,3.186,0,0,1,3.167,3.167v66.362A3.075,3.075,0,0,1,783.343,596.7Z" transform="translate(-317.755 -321.974)" fill="#858990"/>
      <path id="Path_31795" data-name="Path 31795" d="M779.568,596.7h-119.3a3.186,3.186,0,0,1-3.167-3.167V527.167A3.186,3.186,0,0,1,660.267,524h119.3a3.186,3.186,0,0,1,3.167,3.167v66.362A3.186,3.186,0,0,1,779.568,596.7Z" transform="translate(-316.845 -321.974)" fill="#ddd"/>
      <path id="Path_31796" data-name="Path 31796" d="M704.635,552.1h-4.449L689.1,567.71l11.086,15.61h4.449l4.3-4.3L697.622,567.71,708.933,556.4Z" transform="translate(-324.713 -328.883)" fill="#858990"/>
      <path id="Path_31797" data-name="Path 31797" d="M698.71,552.1,683.1,567.71l15.61,15.61,4.3-4.3L691.7,567.71,703.009,556.4Z" transform="translate(-323.238 -328.883)" fill="#3f4249"/>
      <path id="Path_31798" data-name="Path 31798" d="M777.949,552.1H773.5l.528,4.675,10.935,10.935-10.935,10.935-.528,4.676h4.449l15.61-15.61Z" transform="translate(-345.466 -328.883)" fill="#858990"/>
      <path id="Path_31799" data-name="Path 31799" d="M772.1,552.1l-4.3,4.3,11.312,11.312L767.8,579.022l4.3,4.3,15.61-15.61Z" transform="translate(-344.065 -328.883)" fill="#3f4249"/>
      <path id="Path_31800" data-name="Path 31800" d="M740.159,536.4,724.7,589.339h4.449l21.115-50.6-5.656-2.338Z" transform="translate(-333.467 -325.023)" fill="#858990"/>
      <path id="Path_31801" data-name="Path 31801" d="M717.2,587l5.656,2.338,21.115-50.6-5.656-2.338Z" transform="translate(-331.623 -325.023)" fill="#3f4249"/>
      <path id="Path_31802" data-name="Path 31802" d="M1298.825,632.05a22.925,22.925,0,1,1,22.925-22.925A22.915,22.915,0,0,1,1298.825,632.05Z" transform="translate(-469.001 -337.268)" fill="#ddd"/>
      <path id="Path_31803" data-name="Path 31803" d="M1310.43,610.762a2.389,2.389,0,0,0-1.734.679l-7.39-4.3c0-.151.075-.3.075-.453a2.79,2.79,0,1,0-5.58,0,2.738,2.738,0,0,0,2.79,2.79,2.389,2.389,0,0,0,1.734-.679l7.39,4.3c0,.151-.076.3-.076.453a.955.955,0,0,0,.076.453l-7.39,4.3a2.747,2.747,0,0,0-1.734-.679,2.784,2.784,0,0,0-2.79,2.79,2.737,2.737,0,0,0,2.79,2.79,2.784,2.784,0,0,0,2.79-2.79.957.957,0,0,0-.075-.452l7.39-4.3a2.746,2.746,0,0,0,1.734.679,2.79,2.79,0,0,0,0-5.581Z" transform="translate(-473.894 -341.62)" fill="#858990"/>
      <path id="Path_31804" data-name="Path 31804" d="M1103.8,368.116V489.453a3.025,3.025,0,0,0,3.016,3.016h186.341a3.025,3.025,0,0,0,3.017-3.016V368.116a3.025,3.025,0,0,0-3.017-3.016H1106.817A3.025,3.025,0,0,0,1103.8,368.116Z" transform="translate(-426.683 -282.902)" fill="#c92027"/>
      <path id="Path_31805" data-name="Path 31805" d="M1103.8,368.116V489.453a3.025,3.025,0,0,0,3.016,3.016h186.341a3.025,3.025,0,0,0,3.017-3.016V368.116a3.025,3.025,0,0,0-3.017-3.016H1106.817A3.025,3.025,0,0,0,1103.8,368.116Z" transform="translate(-426.683 -282.902)" fill="#fff" opacity="0.3"/>
      <path id="Path_31806" data-name="Path 31806" d="M1099.3,368.116V489.453a3.025,3.025,0,0,0,3.016,3.016h186.341a3.025,3.025,0,0,0,3.016-3.016V368.116a3.025,3.025,0,0,0-3.016-3.016H1102.317A2.978,2.978,0,0,0,1099.3,368.116Z" transform="translate(-425.577 -282.902)" fill="#c92027"/>
      <path id="Path_31807" data-name="Path 31807" d="M1099.3,368.116V489.453a3.025,3.025,0,0,0,3.016,3.016h186.341a3.025,3.025,0,0,0,3.016-3.016V368.116a3.025,3.025,0,0,0-3.016-3.016H1102.317A2.978,2.978,0,0,0,1099.3,368.116Z" transform="translate(-425.577 -282.902)" fill="#fff" opacity="0.7"/>
      <path id="Path_31808" data-name="Path 31808" d="M1235.538,442.469a21.869,21.869,0,1,1-21.869-21.869A21.885,21.885,0,0,1,1235.538,442.469Z" transform="translate(-448.321 -296.549)" fill="#c92027"/>
      <path id="Path_31809" data-name="Path 31809" d="M1215.1,455.776V437.3l13.725,9.276Z" transform="translate(-454.051 -300.655)" fill="#fff"/>
      <path id="Path_31810" data-name="Path 31810" d="M1288.657,530.435H1102.241a2.945,2.945,0,0,1-2.941-2.941V519.5h192.374v7.994A3.062,3.062,0,0,1,1288.657,530.435Z" transform="translate(-425.577 -320.867)" fill="#fff"/>
      <path id="Path_31811" data-name="Path 31811" d="M1276.821,525.7H1117.1v1.961h159.721Z" transform="translate(-429.954 -322.392)" fill="#b1b5ba"/>
      <path id="Path_31812" data-name="Path 31812" d="M1108.356,528.859H1103.3a.649.649,0,0,1-.6-.6V523.2a.649.649,0,0,1,.6-.6h5.052a.649.649,0,0,1,.6.6v5.052A.555.555,0,0,1,1108.356,528.859Z" transform="translate(-426.413 -321.629)" fill="#b1b5ba"/>
      <path id="Path_31813" data-name="Path 31813" d="M1106.005,524.7h-.905v3.092h.905Z" transform="translate(-427.003 -322.146)" fill="#61656d"/>
      <path id="Path_31814" data-name="Path 31814" d="M1108.205,524.7h-.905v3.092h.905Z" transform="translate(-427.544 -322.146)" fill="#61656d"/>
      <path id="Path_31815" data-name="Path 31815" d="M1348.656,529.159H1343.6a.649.649,0,0,1-.6-.6V523.5a.649.649,0,0,1,.6-.6h5.053a.649.649,0,0,1,.6.6v5.053A.6.6,0,0,1,1348.656,529.159Z" transform="translate(-485.5 -321.703)" fill="#c7c7c7"/>
      <path id="Path_31816" data-name="Path 31816" d="M1345.407,526H1344.2v1.508h1.207Z" transform="translate(-485.795 -322.465)" fill="#61656d"/>
      <path id="Path_31817" data-name="Path 31817" d="M1347.01,528.244l-1.81-.98V525.68l1.81-.98Z" transform="translate(-486.041 -322.146)" fill="#61656d"/>
      <path id="Path_31818" data-name="Path 31818" d="M1348.8,525.4l.3-.3a2.073,2.073,0,0,1,.6,1.131,1.865,1.865,0,0,1-.6,1.735l-.3-.3a1.536,1.536,0,0,0,.453-1.131A1.128,1.128,0,0,0,1348.8,525.4Z" transform="translate(-486.926 -322.244)" fill="#61656d"/>
      <path id="Path_31819" data-name="Path 31819" d="M1348.4,527.61l-.3-.3a.918.918,0,0,0,0-1.207l.3-.3A1.376,1.376,0,0,1,1348.4,527.61Z" transform="translate(-486.754 -322.416)" fill="#61656d"/>
      <path id="Path_31820" data-name="Path 31820" d="M1149.151,526.78a1.517,1.517,0,0,0,.3.98H1116.8V525.8h32.653A1.391,1.391,0,0,0,1149.151,526.78Z" transform="translate(-429.88 -322.416)" fill="#61656d"/>
      <path id="Path_31821" data-name="Path 31821" d="M1161.858,526.141a2.48,2.48,0,0,1-.3,1.282,3.057,3.057,0,0,1-2.715,1.659,2.86,2.86,0,0,1-2.639-1.659,2.478,2.478,0,0,1-.3-1.282,3.548,3.548,0,0,1,.3-1.282,2.942,2.942,0,0,1,2.639-1.659,2.861,2.861,0,0,1,2.64,1.659A1.854,1.854,0,0,1,1161.858,526.141Z" transform="translate(-439.494 -321.777)" fill="#61656d"/>
      <path id="Path_31822" data-name="Path 31822" d="M1107.585,374.671a1.885,1.885,0,1,0-1.885-1.885A1.885,1.885,0,0,0,1107.585,374.671Z" transform="translate(-427.15 -284.328)" fill="#c92027"/>
      <path id="Path_31823" data-name="Path 31823" d="M1116.785,374.671a1.885,1.885,0,1,0-1.885-1.885A1.886,1.886,0,0,0,1116.785,374.671Z" transform="translate(-429.413 -284.328)" fill="#61656d"/>
      <path id="Path_31824" data-name="Path 31824" d="M1125.885,374.671a1.885,1.885,0,1,0-1.885-1.885A1.886,1.886,0,0,0,1125.885,374.671Z" transform="translate(-431.65 -284.328)" fill="#21252b"/>
      <path id="Path_31825" data-name="Path 31825" d="M1130.83,665.6h77.6a5.407,5.407,0,0,1,5.43,5.43V773.136a5.407,5.407,0,0,1-5.43,5.43h-77.6a5.407,5.407,0,0,1-5.43-5.43V671.03A5.455,5.455,0,0,1,1130.83,665.6Z" transform="translate(-431.995 -356.791)" fill="#b1b5ba"/>
      <path id="Path_31826" data-name="Path 31826" d="M1127.43,665.6h77.6a5.407,5.407,0,0,1,5.43,5.43V773.136a5.407,5.407,0,0,1-5.43,5.43h-77.6a5.407,5.407,0,0,1-5.43-5.43V671.03A5.455,5.455,0,0,1,1127.43,665.6Z" transform="translate(-431.158 -356.791)" fill="#fff"/>
      <path id="Path_31827" data-name="Path 31827" d="M1192.166,727.481h-36.951a2.7,2.7,0,0,1-2.715-2.715V687.815a2.7,2.7,0,0,1,2.715-2.715h36.951a2.7,2.7,0,0,1,2.715,2.715v36.951A2.7,2.7,0,0,1,1192.166,727.481Z" transform="translate(-438.658 -361.586)" fill="#c92027"/>
      <path id="Path_31828" data-name="Path 31828" d="M1192.166,727.481h-36.951a2.7,2.7,0,0,1-2.715-2.715V687.815a2.7,2.7,0,0,1,2.715-2.715h36.951a2.7,2.7,0,0,1,2.715,2.715v36.951A2.7,2.7,0,0,1,1192.166,727.481Z" transform="translate(-438.658 -361.586)" fill="#fff" opacity="0.7"/>
      <path id="Path_31829" data-name="Path 31829" d="M1179.271,701.441a3.771,3.771,0,1,0-3.771-3.771A3.771,3.771,0,0,0,1179.271,701.441Z" transform="translate(-444.314 -363.75)" fill="#c92027"/>
      <path id="Path_31830" data-name="Path 31830" d="M1152.5,729.65V719.47l14.328-10.708a1.478,1.478,0,0,1,1.885.075l4.977,4.374,10.1-7.918a1.494,1.494,0,0,1,1.961.076l9.049,7.918v16.44a2.7,2.7,0,0,1-2.715,2.715h-36.951A2.807,2.807,0,0,1,1152.5,729.65Z" transform="translate(-438.658 -366.47)" fill="#c92027"/>
      <path id="Path_31831" data-name="Path 31831" d="M1195.43,761.905h-45.473a1.352,1.352,0,0,1-1.357-1.357v-2.79a1.352,1.352,0,0,1,1.357-1.357h45.473a1.352,1.352,0,0,1,1.358,1.357v2.79A1.352,1.352,0,0,1,1195.43,761.905Z" transform="translate(-437.699 -379.118)" fill="#c92027"/>
      <path id="Path_31832" data-name="Path 31832" d="M1195.43,761.905h-45.473a1.352,1.352,0,0,1-1.357-1.357v-2.79a1.352,1.352,0,0,1,1.357-1.357h45.473a1.352,1.352,0,0,1,1.358,1.357v2.79A1.352,1.352,0,0,1,1195.43,761.905Z" transform="translate(-437.699 -379.118)" fill="#fff" opacity="0.3"/>
      <path id="Path_31833" data-name="Path 31833" d="M1195.455,780.515h-45.4a1.357,1.357,0,1,1,0-2.715h45.4a1.357,1.357,0,0,1,0,2.715Z" transform="translate(-437.724 -384.38)" fill="#61656d"/>
      <path id="Path_31834" data-name="Path 31834" d="M1189.966,795.015h-29.109a1.357,1.357,0,1,1,0-2.715h29.109a1.357,1.357,0,0,1,0,2.715Z" transform="translate(-440.379 -387.945)" fill="#61656d"/>
      <path id="Path_31835" data-name="Path 31835" d="M579.785,256.1h200.82a6.485,6.485,0,0,1,6.485,6.485V372.61a6.485,6.485,0,0,1-6.485,6.485H579.785a6.485,6.485,0,0,1-6.485-6.485V262.585A6.485,6.485,0,0,1,579.785,256.1Z" transform="translate(-296.239 -256.1)" fill="#c92027"/>
      <path id="Path_31836" data-name="Path 31836" d="M579.785,256.1h200.82a6.485,6.485,0,0,1,6.485,6.485V372.61a6.485,6.485,0,0,1-6.485,6.485H579.785a6.485,6.485,0,0,1-6.485-6.485V262.585A6.485,6.485,0,0,1,579.785,256.1Z" transform="translate(-296.239 -256.1)" fill="#fff" opacity="0.2"/>
      <path id="Path_31837" data-name="Path 31837" d="M575.685,256.1H776.5a6.485,6.485,0,0,1,6.485,6.485V372.61A6.485,6.485,0,0,1,776.5,379.1H575.685a6.485,6.485,0,0,1-6.485-6.485V262.585A6.437,6.437,0,0,1,575.685,256.1Z" transform="translate(-295.231 -256.1)" fill="#c92027"/>
      <path id="Path_31838" data-name="Path 31838" d="M575.685,256.1H776.5a6.485,6.485,0,0,1,6.485,6.485V372.61A6.485,6.485,0,0,1,776.5,379.1H575.685a6.485,6.485,0,0,1-6.485-6.485V262.585A6.437,6.437,0,0,1,575.685,256.1Z" transform="translate(-295.231 -256.1)" fill="#fff" opacity="0.6"/>
      <path id="Path_31839" data-name="Path 31839" d="M801.9,357.47H750.771A3.782,3.782,0,0,1,747,353.7V302.571a3.782,3.782,0,0,1,3.771-3.771H801.9a3.782,3.782,0,0,1,3.771,3.771V353.7A3.831,3.831,0,0,1,801.9,357.47Z" transform="translate(-338.95 -266.599)" fill="#c92027"/>
      <path id="Path_31840" data-name="Path 31840" d="M801.9,357.47H750.771A3.782,3.782,0,0,1,747,353.7V302.571a3.782,3.782,0,0,1,3.771-3.771H801.9a3.782,3.782,0,0,1,3.771,3.771V353.7A3.831,3.831,0,0,1,801.9,357.47Z" transform="translate(-338.95 -266.599)" fill="#c92027"/>
      <path id="Path_31841" data-name="Path 31841" d="M801.9,357.47H750.771A3.782,3.782,0,0,1,747,353.7V302.571a3.782,3.782,0,0,1,3.771-3.771H801.9a3.782,3.782,0,0,1,3.771,3.771V353.7A3.831,3.831,0,0,1,801.9,357.47Z" transform="translate(-338.95 -266.599)" fill="#fff" opacity="0.8"/>
      <path id="Path_31842" data-name="Path 31842" d="M783.9,321.507a5.2,5.2,0,1,0-5.2-5.2A5.2,5.2,0,0,0,783.9,321.507Z" transform="translate(-346.745 -269.624)" fill="#fff"/>
      <path id="Path_31843" data-name="Path 31843" d="M747,360.564v-14.1l19.833-14.781a2.15,2.15,0,0,1,2.639.075l6.862,6.033,13.951-10.935a2.159,2.159,0,0,1,2.715.075l12.594,11.01v22.7a3.782,3.782,0,0,1-3.771,3.771H750.771A3.949,3.949,0,0,1,747,360.564Z" transform="translate(-338.95 -273.389)" fill="#c92027"/>
      <path id="Path_31844" data-name="Path 31844" d="M686.613,306.241H599.287a2.189,2.189,0,0,1-2.187-2.187v-3.167a2.188,2.188,0,0,1,2.187-2.187h87.326a2.188,2.188,0,0,1,2.187,2.187v3.167A2.142,2.142,0,0,1,686.613,306.241Z" transform="translate(-302.092 -266.575)" fill="#fff"/>
      <path id="Path_31845" data-name="Path 31845" d="M686.89,333.621H598.961a1.961,1.961,0,0,1,0-3.921H686.89a1.961,1.961,0,0,1,0,3.921Z" transform="translate(-302.067 -274.197)" fill="#c92027"/>
      <path id="Path_31846" data-name="Path 31846" d="M646.7,375.621H598.961a1.961,1.961,0,1,1,0-3.921H646.7a1.961,1.961,0,0,1,0,3.921Z" transform="translate(-302.067 -284.525)" fill="#c92027"/>
      <path id="Path_31847" data-name="Path 31847" d="M686.89,354.621H598.961a1.961,1.961,0,1,1,0-3.921H686.89a1.961,1.961,0,1,1,0,3.921Z" transform="translate(-302.067 -279.361)" fill="#c92027"/>
      <path id="Path_31848" data-name="Path 31848" d="M686.89,333.621H598.961a1.961,1.961,0,0,1,0-3.921H686.89a1.961,1.961,0,0,1,0,3.921Z" transform="translate(-302.067 -274.197)" fill="#fff" opacity="0.2"/>
      <path id="Path_31849" data-name="Path 31849" d="M646.7,375.621H598.961a1.961,1.961,0,1,1,0-3.921H646.7a1.961,1.961,0,0,1,0,3.921Z" transform="translate(-302.067 -284.525)" fill="#fff" opacity="0.2"/>
      <path id="Path_31850" data-name="Path 31850" d="M686.89,354.621H598.961a1.961,1.961,0,1,1,0-3.921H686.89a1.961,1.961,0,1,1,0,3.921Z" transform="translate(-302.067 -279.361)" fill="#fff" opacity="0.2"/>
      <path id="Path_31851" data-name="Path 31851" d="M1131.125,303.35a22.925,22.925,0,1,0-22.925-22.925A22.925,22.925,0,0,0,1131.125,303.35Z" transform="translate(-427.765 -256.444)" fill="#ddd"/>
      <path id="Path_31852" data-name="Path 31852" d="M1131,280.652h1.961l3.846-5.731.3-3.243a.743.743,0,0,1,1.056-.6c.829.377,1.659,1.508,1.734,4.676v3.771l5.957.075a1.352,1.352,0,0,1,1.358,1.357c.075,2.262.151,6.787.151,9.351a3.854,3.854,0,0,1-2.639,3.771,2.087,2.087,0,0,1-.679.075c-1.584,0-9.728-1.282-9.728-1.282H1131V280.652Z" transform="translate(-433.372 -259.764)" fill="#858990"/>
      <path id="Path_31853" data-name="Path 31853" d="M1123.6,283.8l1.207,12.367h3.318V283.8Z" transform="translate(-431.552 -262.911)" fill="#858990"/>
      <path id="Path_31854" data-name="Path 31854" d="M879.282,692.565a24.282,24.282,0,1,1,24.282-24.282A24.267,24.267,0,0,1,879.282,692.565Z" transform="translate(-365.506 -351.48)" fill="#ddd"/>
      <path id="Path_31855" data-name="Path 31855" d="M890.9,662.19a.86.86,0,0,0-1.659.452v.151l-16.892,9.125a.84.84,0,0,0-1.056-.452.858.858,0,0,0-.6,1.056l2.187,7.39a.858.858,0,0,0,1.056.6.841.841,0,0,0,.6-.98l2.941-.226v1.056a1.947,1.947,0,0,0,1.961,1.961h4.9a1.947,1.947,0,0,0,1.961-1.961V678.63l7.466-.528v.151a.86.86,0,1,0,1.659-.453Zm-5.958,18.325a.649.649,0,0,1-.6.6h-4.9a.649.649,0,0,1-.6-.6v-1.207l6.033-.452v1.659Z" transform="translate(-369.354 -355.795)" fill="#858990"/>
      <path id="Path_31856" data-name="Path 31856" d="M1060.459,1027.9H206.352a.452.452,0,1,1,0-.9h854.182a.4.4,0,0,1,.453.452A.5.5,0,0,1,1060.459,1027.9Z" transform="translate(-205.9 -445.655)" fill="#b2b6bb"/>
      <path id="Path_31857" data-name="Path 31857" d="M289.6,853.5l-4.3,106.179" transform="translate(-225.424 -402.994)" fill="none" stroke="#21252b" stroke-linecap="round" stroke-miterlimit="10" stroke-width="0.735"/>
      <path id="Path_31858" data-name="Path 31858" d="M249.6,914.7l19.079,22.4" transform="translate(-216.645 -418.042)" fill="none" stroke="#21252b" stroke-linecap="round" stroke-miterlimit="10" stroke-width="0.735"/>
      <path id="Path_31859" data-name="Path 31859" d="M302.894,950,285.7,976.092" transform="translate(-225.522 -426.722)" fill="none" stroke="#21252b" stroke-linecap="round" stroke-miterlimit="10" stroke-width="0.735"/>
      <path id="Path_31860" data-name="Path 31860" d="M311.879,891.9,288.2,918.973" transform="translate(-226.137 -412.436)" fill="none" stroke="#21252b" stroke-linecap="round" stroke-miterlimit="10" stroke-width="0.735"/>
      <path id="Path_31861" data-name="Path 31861" d="M311.49,905.128c5.614-6.6,7.31-14.375,3.789-17.37s-10.926-.076-16.539,6.522-7.31,14.375-3.789,17.37S305.876,911.726,311.49,905.128Z" transform="translate(-227.345 -411.128)" fill="#c92027"/>
      <path id="Path_31862" data-name="Path 31862" d="M316.063,888.5,295.4,912.028c.075,0,.075.075.151.075,3.544,3.016,10.935.076,16.515-6.485C317.571,899.208,319.305,891.667,316.063,888.5Z" transform="translate(-227.907 -411.6)" opacity="0.3"/>
      <path id="Path_31863" data-name="Path 31863" d="M259.246,925.872c2.728-2.256,1.5-8.248-2.75-13.383s-9.9-7.469-12.629-5.212-1.5,8.248,2.75,13.382S256.518,928.128,259.246,925.872Z" transform="translate(-214.879 -416.005)" fill="#c92027"/>
      <path id="Path_31864" data-name="Path 31864" d="M243.686,907.8l15.61,18.325-.075.075c-2.715,2.262-8.371-.075-12.669-5.2C242.479,916.02,241.2,910.138,243.686,907.8Z" transform="translate(-214.879 -416.346)" opacity="0.3"/>
      <path id="Path_31865" data-name="Path 31865" d="M253.4,955l20.135,15.686" transform="translate(-217.58 -427.951)" fill="none" stroke="#21252b" stroke-linecap="round" stroke-miterlimit="10" stroke-width="0.735"/>
      <path id="Path_31866" data-name="Path 31866" d="M265.339,963.657c2.211-2.764-.215-8.38-5.418-12.542s-11.215-5.3-13.426-2.531.215,8.38,5.419,12.542S263.128,966.421,265.339,963.657Z" transform="translate(-215.681 -426.002)" fill="#c92027"/>
      <path id="Path_31867" data-name="Path 31867" d="M246.378,949.4l19,14.781-.075.075c-2.187,2.79-8.22,1.659-13.423-2.489C246.831,957.7,244.418,952.19,246.378,949.4Z" transform="translate(-215.686 -426.575)" opacity="0.3"/>
      <path id="Path_31868" data-name="Path 31868" d="M296.068,858.854c.393-8.654-2.964-15.836-7.5-16.043s-8.531,6.643-8.923,15.3,2.964,15.836,7.5,16.043S295.674,867.509,296.068,858.854Z" transform="translate(-224.025 -400.365)" fill="#c92027"/>
      <path id="Path_31869" data-name="Path 31869" d="M279.69,858.231c.377-8.6,4.374-15.459,8.9-15.233l-1.433,31.3C282.632,873.992,279.313,866.828,279.69,858.231Z" transform="translate(-224.037 -400.41)" opacity="0.3"/>
      <path id="Path_31870" data-name="Path 31870" d="M306.058,958.139c3.77-5.894,4.181-12.365.918-14.451s-8.964,1-12.734,6.893-4.181,12.364-.918,14.452S302.288,964.034,306.058,958.139Z" transform="translate(-226.855 -425.01)" fill="#c92027"/>
      <path id="Path_31871" data-name="Path 31871" d="M294.284,950.553c-3.7,5.731-4.148,12.066-1.131,14.253l13.8-21.115-.83-.377C302.88,942.107,297.752,945.124,294.284,950.553Z" transform="translate(-226.866 -425.013)" opacity="0.3"/>
      <path id="Path_31872" data-name="Path 31872" d="M278.964,968.7,267.2,895.4" transform="translate(-220.973 -413.297)" fill="none" stroke="#21252b" stroke-linecap="round" stroke-miterlimit="10" stroke-width="0.735"/>
      <path id="Path_31873" data-name="Path 31873" d="M265.463,899.91c4.03-.645,6.3-7.4,5.069-15.092s-5.5-13.4-9.525-12.757-6.3,7.4-5.069,15.092S261.433,900.555,265.463,899.91Z" transform="translate(-218.121 -407.546)" fill="#c92027"/>
      <path id="Path_31874" data-name="Path 31874" d="M255.894,887.158c-1.207-7.692,1.056-14.479,5.053-15.158l4.449,27.9C261.4,900.656,257.1,894.925,255.894,887.158Z" transform="translate(-218.113 -407.543)" opacity="0.3"/>
      <path id="Path_31875" data-name="Path 31875" d="M274.326,1019.353h14.1a4.731,4.731,0,0,0,4.751-4.751V995.9H269.5v18.7A4.845,4.845,0,0,0,274.326,1019.353Z" transform="translate(-221.539 -438.008)" fill="#868a91"/>
      <path id="Path_31876" data-name="Path 31876" d="M293.217,992.6H268.482a1.282,1.282,0,1,0,0,2.564h24.735a1.271,1.271,0,0,0,1.282-1.282A1.378,1.378,0,0,0,293.217,992.6Z" transform="translate(-220.973 -437.197)" fill="#868a91"/>
      <path id="Path_31877" data-name="Path 31877" d="M292.689,995.064H271.121a1.282,1.282,0,1,1,0-2.564h-2.639a1.282,1.282,0,1,0,0,2.564h.528v18.627a4.731,4.731,0,0,0,4.751,4.751h7.692a6.953,6.953,0,0,1-6.862-5.656l-3.393-17.42h21.492Z" transform="translate(-220.973 -437.172)" fill="#61656d"/>
      <path id="Path_31878" data-name="Path 31878" d="M836.5,436.9a1.336,1.336,0,0,0-.377,1.81l5.807,9.954-.528-.452a2.06,2.06,0,0,0-3.092,2.715l1.207,1.508-.452-.528a1.942,1.942,0,0,0-2.79-.151,1.985,1.985,0,0,0-.076,2.715l1.131,1.207-.9-.9a1.686,1.686,0,0,0-2.413-.075,1.723,1.723,0,0,0-.3,2.187l5.43,9.8a20.4,20.4,0,0,0,5.882,6.561l4.6,9.125,12.367-7.466-5.656-8.22-4.6-11.085a14.37,14.37,0,0,0-2.112-4.148L838.39,437.2A1.22,1.22,0,0,0,836.5,436.9Z" transform="translate(-360.208 -300.478)" fill="#966363"/>
      <g id="Group_539" data-name="Group 539" transform="translate(473.582 151.35)" opacity="0.15">
        <path id="Path_31879" data-name="Path 31879" d="M838.349,465.849a1.849,1.849,0,0,1-1.207-.452l-2.564-2.338-.679-1.282,3.921,2.866a.8.8,0,0,0,.98.075.764.764,0,0,0,.3-.528.812.812,0,0,0-.151-.6l-3.016-3.921.377-.3,4.525,3.771a.824.824,0,0,0,1.131.075.928.928,0,0,0,.226-1.282l-3.167-4.826.452-.3,3.544,4.525a.074.074,0,0,0,.075.075l.377.453a.99.99,0,0,0,1.433.226l.754-.528-.6.98-.528.754a2.3,2.3,0,0,1-1.207-.226,1.924,1.924,0,0,1-3.167.754l-.151-.151a.833.833,0,0,1,0,.6,1.959,1.959,0,0,1-.679,1.207A1.158,1.158,0,0,1,838.349,465.849Z" transform="translate(-833.9 -456.8)" opacity="0.15"/>
      </g>
      <path id="Path_31880" data-name="Path 31880" d="M848.214,462.382l-3.167.226a4.357,4.357,0,0,1-4.449-3.544v-.075a.766.766,0,0,1,.679-.829l9.577-1.659" transform="translate(-361.963 -305.376)" fill="#966363"/>
      <path id="Path_31881" data-name="Path 31881" d="M851.079,457l-9.577,1.659c-.151,0-.3.226-.3.377a4,4,0,0,0,4.148,3.167l2.866-.226a6.263,6.263,0,0,0-2.262,5.807" transform="translate(-362.113 -305.499)" fill="none" stroke="#000" stroke-miterlimit="10" stroke-width="1.315" opacity="0.15"/>
      <g id="Group_540" data-name="Group 540" transform="translate(481.5 148.107)" opacity="0.15">
        <path id="Path_31882" data-name="Path 31882" d="M846.134,456.421l-1.734-3.7.377-.226,2.413,3.7Z" transform="translate(-844.4 -452.5)" opacity="0.15"/>
      </g>
      <path id="Path_31883" data-name="Path 31883" d="M864.853,481.969l-11.915,8.6-2.338-4.3,11.538-7.767Z" transform="translate(-364.424 -310.786)" fill="#fff"/>
      <path id="Path_31884" data-name="Path 31884" d="M1167.6,534.862l1.961-7.013a25.875,25.875,0,0,1,3.921-8.069l3.394-4.6a.393.393,0,0,1,.6-.075,3.38,3.38,0,0,1,.98,4.072l-2.64,5.731,14.253-11.915a1.387,1.387,0,0,1,1.885.076,1.3,1.3,0,0,1,0,1.81l-6.938,8.22,10.18-9.5a1.32,1.32,0,0,1,1.885,0,1.433,1.433,0,0,1,.075,2.036l-9.125,10.331,8.3-7.466a1.322,1.322,0,0,1,1.885.075,1.411,1.411,0,0,1,0,1.961l-7.466,8.069,6.862-5.2a1.163,1.163,0,0,1,1.584.075,1.184,1.184,0,0,1,0,1.659l-8.521,9.049a46.233,46.233,0,0,1-10.407,8.3l-.83.452-15.157,13.348L1154.1,544.665Z" transform="translate(-439.051 -319.186)" fill="#966363"/>
      <path id="Path_31885" data-name="Path 31885" d="M974.161,1005.089l-38.761.98,15.459-11.01a9.759,9.759,0,0,0,4.148-7.767L955.686,975l21.04.075Z" transform="translate(-385.276 -432.869)" fill="#966363"/>
      <path id="Path_31886" data-name="Path 31886" d="M976.305,993.764v-.226a2.457,2.457,0,0,0-2.112-2.715l-12.594-1.81.151-2.413H982.64l-1.885,20.512-16.892-1.885,5.58-2.187A11.232,11.232,0,0,0,976.305,993.764Z" transform="translate(-391.718 -435.722)" opacity="0.15"/>
      <path id="Path_31887" data-name="Path 31887" d="M1072.563,1004.286h-17.42L1051.9,974.8l20.587.075Z" transform="translate(-413.922 -432.82)" fill="#966363"/>
      <path id="Path_31888" data-name="Path 31888" d="M1068.484,1002.161l-.453-9.049a2.566,2.566,0,0,0-2.111-2.338l-12.518-1.885-.3-2.489,19.607.075.075,20.889Z" transform="translate(-414.217 -435.672)" opacity="0.15"/>
      <path id="Path_31889" data-name="Path 31889" d="M1047.349,680.5l3.846,230.758h-22.623l-19.682-196.521a2.526,2.526,0,0,0-2.489-2.262,2.4,2.4,0,0,0-2.413,2.262L983.023,911.258H960.4L965.6,680.5Z" transform="translate(-391.423 -360.455)" fill="#c92027"/>
      <path id="Path_31890" data-name="Path 31890" d="M1047.349,680.5l3.846,230.758h-22.623l-19.682-196.521a2.526,2.526,0,0,0-2.489-2.262,2.4,2.4,0,0,0-2.413,2.262L983.023,911.258H960.4L965.6,680.5Z" transform="translate(-391.423 -360.455)" fill="#fff" opacity="0.2"/>
      <path id="Path_31891" data-name="Path 31891" d="M1073.584,984.9h-24.132L1049,980h24.509Z" transform="translate(-413.209 -434.099)" fill="#c92027"/>
      <path id="Path_31892" data-name="Path 31892" d="M1078.231,984.9h-10.1l-.226-4.9h10.256Z" transform="translate(-417.856 -434.099)" opacity="0.15"/>
      <path id="Path_31893" data-name="Path 31893" d="M972.4,918.969l22.322-185.587a11.89,11.89,0,0,1,11.764-10.482h2.79a2.4,2.4,0,0,0-2.413,2.262L986.049,920.628Z" transform="translate(-394.374 -370.881)" opacity="0.15"/>
      <path id="Path_31894" data-name="Path 31894" d="M983.256,984.9H959.2l.377-4.9h24.207Z" transform="translate(-391.128 -434.099)" fill="#c92027"/>
      <path id="Path_31895" data-name="Path 31895" d="M986.428,984.9H972.1l.528-4.9h14.328Z" transform="translate(-394.3 -434.099)" opacity="0.15"/>
      <path id="Path_31896" data-name="Path 31896" d="M1072.282,677.156l3.921,225.706-9.728.075L1061.8,666.9Z" transform="translate(-416.356 -357.111)" opacity="0.15"/>
      <path id="Path_31897" data-name="Path 31897" d="M999.36,462.315a7.472,7.472,0,0,1,.6-14.931c.226,0,.83-.151.754.075C999.059,453.945,1001.02,462.315,999.36,462.315Z" transform="translate(-399.238 -303.122)" fill="#21252b"/>
      <path id="Path_31898" data-name="Path 31898" d="M1036.63,494.214c0,.377-9.351,20.889-16.213,21.191-5.958.3-9.728-19-9.653-19.381l.453-10.03v-5.2c-.3-1.207-1.734-2.338-1.734-3.921-.453-7.315-1.282-13.951-1.282-13.951s23.905-15.987,25.414,2.639l.6,2.715Z" transform="translate(-403.176 -305.385)" fill="#966363"/>
      <path id="Path_31899" data-name="Path 31899" d="M1002.821,435.312s-8.521,43.965,11.764,46.076c17.571,1.81,18.7-25.564,18.7-25.564l-1.357-17.646L1018.28,433.2Z" transform="translate(-401.417 -299.647)" fill="#966363"/>
      <path id="Path_31900" data-name="Path 31900" d="M1010.411,445.572a11.2,11.2,0,0,1,9.049-4.9,7.127,7.127,0,0,1,7.013,8.069l-.075,1.056a1.842,1.842,0,0,0,1.659,1.961,3.379,3.379,0,0,1,3.318,3.469l-.075,3.092a.676.676,0,0,0,.679.679s.9.151,1.056-.6l.453-3.318-3.167-18.7-15.535-4.072-6.485,5.505Z" transform="translate(-403.201 -299.426)" fill="#21252b"/>
      <path id="Path_31901" data-name="Path 31901" d="M1041.987,471.659A3.1,3.1,0,0,1,1039.8,470l2.413,4.148Z" transform="translate(-410.946 -308.696)" opacity="0.15"/>
      <path id="Path_31902" data-name="Path 31902" d="M1028.817,491.287a13.277,13.277,0,0,1-8.446,4.826,14.13,14.13,0,0,1-8.371,2.564l.226-4.977.679.377a12.4,12.4,0,0,0,15.308-3.318c.075-.151.377-.151.528-.075A.6.6,0,0,1,1028.817,491.287Z" transform="translate(-404.111 -313.769)" opacity="0.15"/>
      <path id="Path_31903" data-name="Path 31903" d="M1013.6,480.885l8.069-1.885a4.254,4.254,0,0,1-8.069,1.885Z" transform="translate(-404.504 -310.909)" fill="#fff"/>
      <path id="Path_31904" data-name="Path 31904" d="M1022.559,466.618a1.659,1.659,0,1,0-1.659-1.659A1.657,1.657,0,0,0,1022.559,466.618Z" transform="translate(-406.299 -307.048)" fill="#21252b"/>
      <path id="Path_31905" data-name="Path 31905" d="M1022,465.1a.3.3,0,1,0-.3-.3A.3.3,0,0,0,1022,465.1Z" transform="translate(-406.496 -307.343)" fill="#fff"/>
      <path id="Path_31906" data-name="Path 31906" d="M1005.459,467.218a1.659,1.659,0,1,0-1.659-1.659A1.657,1.657,0,0,0,1005.459,467.218Z" transform="translate(-402.094 -307.196)" fill="#21252b"/>
      <path id="Path_31907" data-name="Path 31907" d="M1005,465.6a.3.3,0,1,0-.3-.3A.3.3,0,0,0,1005,465.6Z" transform="translate(-402.316 -307.466)" fill="#fff"/>
      <g id="Group_541" data-name="Group 541" transform="translate(607.432 163.642)" opacity="0.3">
        <path id="Path_31908" data-name="Path 31908" d="M1013.208,476.946l2.111.075a.492.492,0,1,0,.075-.98l-2.111-.075c-.528-.075-.98-.528-.905-.98.075-.528.528-.98.98-.9a.647.647,0,0,0,.528-.452c.075-.226-.226-.452-.453-.528a1.988,1.988,0,0,0-2.036,1.81A1.889,1.889,0,0,0,1013.208,476.946Z" transform="translate(-1011.394 -473.1)" opacity="0.3"/>
      </g>
      <path id="Path_31909" data-name="Path 31909" d="M996.7,462.891l.075,1.81a6.375,6.375,0,1,0,12.745-.377l-.075-1.81a1.99,1.99,0,0,0-.528-1.433l2.489-.075a1.933,1.933,0,0,0-.453,1.433l.075,1.81a6.375,6.375,0,1,0,12.744-.377l-.075-1.81a2.349,2.349,0,0,0-2.413-2.262l-7.994.226h-.075l-6.184.151h-.98l-7.089.226A2.472,2.472,0,0,0,996.7,462.891Zm16.44-1.885,8.069-.226a1.418,1.418,0,0,1,1.433,1.357l.075,1.81a5.432,5.432,0,1,1-10.859.3l-.075-1.81A1.6,1.6,0,0,1,1013.14,461.005ZM997.6,462.891a1.418,1.418,0,0,1,1.357-1.433l7.089-.226h.98a1.418,1.418,0,0,1,1.433,1.357l.075,1.81a5.432,5.432,0,1,1-10.859.3Z" transform="translate(-400.349 -306.186)" fill="#21252b"/>
      <path id="Path_31910" data-name="Path 31910" d="M916.9,1015.507v-.829a4.972,4.972,0,0,1,4.977-4.977h6.938a5.532,5.532,0,0,0,3.921-1.584L950.458,991.3l5.505,7.24a4.724,4.724,0,0,0,7.39.151,4.895,4.895,0,0,1,3.62-1.734h3.7v18.25Z" transform="translate(-380.727 -436.877)" fill="#3f4249"/>
      <path id="Path_31911" data-name="Path 31911" d="M916.9,1023.3v2.715h53.919V1023Z" transform="translate(-380.727 -444.672)"/>
      <path id="Path_31912" data-name="Path 31912" d="M960.445,995.8l-11.99,9.728a3.343,3.343,0,0,1-4.449-.226l-.905-.9,13.8-13.122a1.791,1.791,0,0,1,1.961.679l1.433,2.036a1.626,1.626,0,0,1,.226,1.659Z" transform="translate(-387.169 -436.853)"/>
      <path id="Path_31913" data-name="Path 31913" d="M1056.717,996.2h-1.433a2.622,2.622,0,0,0-2.639,2.338l-.3,5.43a12.1,12.1,0,0,1-1.282,4.826l-.528.98a13.229,13.229,0,0,0-1.433,6.108v.98h27.6a13.49,13.49,0,0,0-2.338-7.541,12.191,12.191,0,0,1-2.036-5.58l-.6-5.43a2.678,2.678,0,0,0-2.639-2.112h-.98" transform="translate(-413.233 -438.082)" fill="#3f4249"/>
      <path id="Path_31914" data-name="Path 31914" d="M1076.525,1023.5H1049v2.639h27.525Z" transform="translate(-413.209 -444.795)"/>
      <path id="Path_31915" data-name="Path 31915" d="M1062.906,992.9h4.072a3.41,3.41,0,0,1,3.394,3.846l-.905,7.39a4.619,4.619,0,0,1-4.525,4,4.512,4.512,0,0,1-4.525-4.072l-.83-7.39A3.294,3.294,0,0,1,1062.906,992.9Z" transform="translate(-415.803 -437.271)"/>
      <path id="Path_31916" data-name="Path 31916" d="M1057,999.4h14.63" transform="translate(-415.176 -438.869)" fill="none" stroke="#fff" stroke-linecap="round" stroke-linejoin="round" stroke-miterlimit="10" stroke-width="1.315"/>
      <path id="Path_31917" data-name="Path 31917" d="M1057.6,1004h13.725" transform="translate(-415.323 -440)" fill="none" stroke="#fff" stroke-linecap="round" stroke-linejoin="round" stroke-miterlimit="10" stroke-width="1.315"/>
      <path id="Path_31918" data-name="Path 31918" d="M1058.1,1008.5h12.971" transform="translate(-415.446 -441.107)" fill="none" stroke="#fff" stroke-linecap="round" stroke-linejoin="round" stroke-miterlimit="10" stroke-width="1.315"/>
      <path id="Path_31919" data-name="Path 31919" d="M947.9,1001.9l5.354,5.052" transform="translate(-388.349 -439.484)" fill="none" stroke="#fff" stroke-linecap="round" stroke-linejoin="round" stroke-miterlimit="10" stroke-width="1.315"/>
      <path id="Path_31920" data-name="Path 31920" d="M951.7,998.4l5.505,5.2" transform="translate(-389.284 -438.623)" fill="none" stroke="#fff" stroke-linecap="round" stroke-linejoin="round" stroke-miterlimit="10" stroke-width="1.315"/>
      <path id="Path_31921" data-name="Path 31921" d="M955.6,995.1l5.43,5.128" transform="translate(-390.243 -437.812)" fill="none" stroke="#fff" stroke-linecap="round" stroke-linejoin="round" stroke-miterlimit="10" stroke-width="1.315"/>
      <path id="Path_31922" data-name="Path 31922" d="M969.1,686.1h70.509" transform="translate(-393.562 -361.832)" fill="none" stroke="#000" stroke-linecap="round" stroke-linejoin="round" stroke-miterlimit="10" stroke-width="1.491" opacity="0.3"/>
      <path id="Path_31923" data-name="Path 31923" d="M1100.121,541.672,1055.4,584.279a9.531,9.531,0,0,1-14.781-2.036l-15.761-29.712-2.564,77.447a1.932,1.932,0,0,1-1.961,1.885H939.193a.964.964,0,0,1-.9-.83l-4.525-95.094-35.9,17.269a9.366,9.366,0,0,1-12.292-3.921L853.3,491.3l12.443-8.6,31.6,39.138,34.237-17.5a23.4,23.4,0,0,1,8.672-2.489l32.653-3.092,9.426,17.948,15.761-17.872,28.128,7.466a20.609,20.609,0,0,1,13.272,10.859l17.722,35.82,31.974-22.85Z" transform="translate(-365.088 -311.818)" fill="#21252b"/>
      <path id="Path_31924" data-name="Path 31924" d="M1182.9,528.7s3.921,3.243,1.131,9.653" transform="translate(-446.133 -323.129)" fill="none" stroke="#000" stroke-miterlimit="10" stroke-width="1.403" opacity="0.15"/>
      <path id="Path_31925" data-name="Path 31925" d="M1034.517,442.008c-.6-4.751-3.092-8.3-7.24-9.2a11.2,11.2,0,0,0-5.279.226,1.19,1.19,0,0,1-1.508-.83,7.267,7.267,0,0,0-7.013-5.505,7.039,7.039,0,0,0-5.807,2.941,1.163,1.163,0,0,1-1.734.226s-4.826-3.846-11.161.075a10.294,10.294,0,0,0-3.544,13.348c2.564,5.052,9.2,6.561,13.272,2.715a9.437,9.437,0,0,0,2.79-6.41,12.079,12.079,0,0,0-.453-4.977h2.111a49.24,49.24,0,0,1,10.105-.075c-.075.075-.151.075-.226.151l6.561,2.187s2.036,17.345,3.092,17.194C1033.084,453.094,1035.121,446.307,1034.517,442.008Z" transform="translate(-398.726 -298.049)" fill="#21252b"/>
      <path id="Path_31926" data-name="Path 31926" d="M1003.141,455.776l2.036-.452c.151-.075.377-.3.3-.528a.429.429,0,0,0-.528-.3l-2.036.453c-.226.075-.528.075-.754.151a7.785,7.785,0,0,1-2.639-.377.43.43,0,0,0-.226.83,12.336,12.336,0,0,0,2.866.377A3.82,3.82,0,0,1,1003.141,455.776Z" transform="translate(-400.908 -304.878)" fill="#966363"/>
      <path id="Path_31927" data-name="Path 31927" d="M1020.959,526.338l-6.259-5.656,7.918-1.282,7.541,1.885-6.862,5.128A1.732,1.732,0,0,1,1020.959,526.338Z" transform="translate(-404.775 -320.842)" fill="#fff"/>
      <path id="Path_31928" data-name="Path 31928" d="M1025.2,514.31l12.066,3.016,5.656-13.876-.3-3.846a1.057,1.057,0,0,0-1.056-.9h-1.282l.377,3.921Z" transform="translate(-407.356 -315.753)" fill="#fff"/>
      <path id="Path_31929" data-name="Path 31929" d="M1011.187,502.943l.151-3.243h-.98a1.177,1.177,0,0,0-1.207,1.131L1009,516.517l12.217-2.036Z" transform="translate(-403.373 -315.998)" fill="#fff"/>
      <path id="Path_31930" data-name="Path 31930" d="M1031.815,522.264l-10.256-2.564-10.859,1.81" transform="translate(-403.791 -320.916)" fill="none" stroke="#000" stroke-miterlimit="10" stroke-width="0.74" opacity="0.15"/>
      <path id="Path_31931" data-name="Path 31931" d="M1170.069,542.7l9.879,10.105-3.243,3.167L1166.6,545.264Z" transform="translate(-442.125 -326.572)" fill="#fff"/>
      <path id="Path_31932" data-name="Path 31932" d="M1041.525,459.7a3.085,3.085,0,0,1,4.148-2.262c3.922,1.131,3.243,9.049-1.961,10.859-3.243.679-2.79-1.282-2.564-3.921Z" transform="translate(-411.239 -305.562)" fill="#966363"/>
      <path id="Path_31933" data-name="Path 31933" d="M1046.65,460.285a2.163,2.163,0,0,0-1.885-.226,2.364,2.364,0,0,0-1.282,1.282,4.04,4.04,0,0,0-.3,2.338v.679a.385.385,0,1,0,.754-.151v-.679a5.113,5.113,0,0,1,.226-1.961,1.965,1.965,0,0,1,.829-.9,1.787,1.787,0,0,1,1.207.151.467.467,0,0,0,.528-.151C1046.876,460.662,1046.8,460.436,1046.65,460.285Z" transform="translate(-411.763 -306.22)" opacity="0.3"/>
      <path id="Path_31934" data-name="Path 31934" d="M1121.815,573.712,1118.5,567l-2.413,8.144a1.14,1.14,0,0,0,1.734,1.282Z" transform="translate(-429.692 -332.547)" opacity="0.4"/>
      <path id="Path_31935" data-name="Path 31935" d="M911.7,532.682l1.885,2.187a1.512,1.512,0,0,0,2.262,0l7.39-8.069Z" transform="translate(-379.448 -322.662)" opacity="0.4"/>
      <path id="Path_31936" data-name="Path 31936" d="M960.1,552.887l2.564-1.207a.444.444,0,0,1,.6.6l-2.941,6.485Z" transform="translate(-391.349 -328.765)"/>
      <path id="Path_31937" data-name="Path 31937" d="M964,636.9h86.647l-.98,30.919a2.093,2.093,0,0,1-2.111,2.036H966.413a.964.964,0,0,1-.9-.829Z" transform="translate(-392.308 -349.734)" fill="#858990"/>
      <path id="Path_31938" data-name="Path 31938" d="M961.6,586.3h89.664l-1.207,38.158H963.41Z" transform="translate(-391.718 -337.292)" fill="#3f4249"/>
      <path id="Path_31939" data-name="Path 31939" d="M1076.4,573.591l-1.734-4a2.091,2.091,0,0,0-4,.679L1062.6,653h9.125a2.174,2.174,0,0,0,2.187-2.112Z" transform="translate(-416.553 -332.879)" opacity="0.4"/>
      <path id="Path_31940" data-name="Path 31940" d="M372.517,828.212,340.844,696.167a6.273,6.273,0,0,1,6.184-7.767h-8.6a6.374,6.374,0,0,0-6.184,7.767L363.92,828.212l102.861.226Z" transform="translate(-236.928 -362.398)" fill="#858990"/>
      <path id="Path_31941" data-name="Path 31941" d="M403.769,823.966,379.562,716.279a.884.884,0,0,0-.829-.679H377.3a.811.811,0,0,1,.679.6L402.186,823.89a.86.86,0,0,1-.829,1.056H400.3l2.564-.075A.729.729,0,0,0,403.769,823.966Z" transform="translate(-248.045 -369.086)" fill="#858990"/>
      <path id="Path_31942" data-name="Path 31942" d="M443.039,693.126a6.363,6.363,0,0,0-6.108-4.826h-87.1a6.374,6.374,0,0,0-6.184,7.767L375.32,828.112l101.051.226ZM394.625,818.309l-2.564.075a.884.884,0,0,1-.83-.679L367.025,709.943a.8.8,0,0,1,.83-.98h2.639a.883.883,0,0,1,.829.679L395.53,817.328A.931.931,0,0,1,394.625,818.309Z" transform="translate(-239.731 -362.373)" fill="#b1b5ba"/>
      <path id="Path_31943" data-name="Path 31943" d="M473.286,676.68a4.977,4.977,0,0,0,3.544.452c5.58-.9,9.8-1.659,10.256-7.315.6-8.9-1.282-28.581-8.371-39.817-4.826,2.489-5.58,3.62-5.58,3.62s-7.164-2.187-7.315-2.262C465.821,631.282,463.483,670.27,473.286,676.68Z" transform="translate(-269.752 -348.038)" fill="#21252b"/>
      <path id="Path_31944" data-name="Path 31944" d="M445.432,668.823l-4-47.434c-2.413-.377-6.259,2.79-7.39,4.072-9.049,10.331-11.236,31.673-9.954,45.926.452,5.5,4,6.259,9.426,7.315s11.764,1.584,14.1-1.131C448.75,676.138,445.432,668.823,445.432,668.823Z" transform="translate(-259.468 -345.913)" fill="#21252b"/>
      <path id="Path_31945" data-name="Path 31945" d="M590.761,811.558A12.307,12.307,0,0,0,578.7,801h-6.561l-2.564.6v.377l-55.8,7.089a17.234,17.234,0,0,0-14.554,12.82L460.3,971.429h9.351L507.96,824.151a8.228,8.228,0,0,1,6.938-6.108l63.119-8.069a3.369,3.369,0,0,1,3.771,2.79l24.132,158.514h9.2Z" transform="translate(-268.454 -390.085)" fill="#b1b5ba"/>
      <path id="Path_31946" data-name="Path 31946" d="M461.851,971.4H452.5l38.837-149.54a17.246,17.246,0,0,1,14.554-12.82l63.119-8.069a12.461,12.461,0,0,1,13.876,10.482L607.244,971.4h-9.2L573.912,812.884a3.328,3.328,0,0,0-3.771-2.79l-63.119,8.069a8.307,8.307,0,0,0-6.938,6.108Z" transform="translate(-266.536 -390.053)" fill="#858990"/>
      <path id="Path_31947" data-name="Path 31947" d="M619.945,882.949H483.225a4.525,4.525,0,1,1,0-9.049h136.72a4.538,4.538,0,0,1,4.525,4.525A4.444,4.444,0,0,1,619.945,882.949Z" transform="translate(-272.978 -408.01)" fill="#b1b5ba"/>
      <path id="Path_31948" data-name="Path 31948" d="M482.961,882.949H366.225a4.525,4.525,0,1,1,0-9.049H482.886a4.538,4.538,0,0,1,4.525,4.525A4.427,4.427,0,0,1,482.961,882.949Z" transform="translate(-244.209 -408.01)" fill="#858990"/>
      <path id="Path_31949" data-name="Path 31949" d="M501.466,876.816a4.573,4.573,0,0,1-4.3,6.108H367.159a4.057,4.057,0,0,1-1.659-.3l2.262-8.823h129.33A4.586,4.586,0,0,1,501.466,876.816Z" transform="translate(-245.144 -407.985)" fill="#858990"/>
      <path id="Path_31950" data-name="Path 31950" d="M713.6,1010.3h27.6c.452-.83,1.734-3.318.151-3.846l-18.777-8.069c-3.318-1.131-5.58-1.885-7.541-4.374a7.9,7.9,0,0,1-.98-1.735L699.423,959.1,681.4,967.772l15.309,26.545c1.357,1.961,1.659,4.525,1.734,6.863l.075,3.77a5.421,5.421,0,0,0,5.2,5.2h.075Z" transform="translate(-322.82 -428.96)" fill="#f69797"/>
      <path id="Path_31951" data-name="Path 31951" d="M744.876,1016.646c-.226.528-.452.98-.6,1.282h-27.6l-9.879-.151h-.075a5.367,5.367,0,0,1-5.2-5.2l-.075-3.771c-.075-2.338-.452-4.977-1.734-6.862l-5.505-9.5.3-2.639,7.089,6.561,6.561,12.292s5.052,6.862,20.135,7.466l15.082.528Z" transform="translate(-325.967 -436.508)" opacity="0.15"/>
      <path id="Path_31952" data-name="Path 31952" d="M661.967,951.156,645.9,957.792,635.724,941.2c-24.659-36.574-30.617-48.339-40.42-78.88h-88a22.5,22.5,0,0,1-22.473-22.1L484.6,826.2H598.923a17.991,17.991,0,0,1,16.59,11.086Z" transform="translate(-274.429 -396.281)" fill="#3f4249"/>
      <path id="Path_31953" data-name="Path 31953" d="M634.165,926.622c-19.456-33.483-24.509-60.932-33.709-88.608-.6-1.885-3.544-11.915-14.781-11.915H538.468c-11.613-.3-18.1,17.571-27.751,11.161L487.038,826.1H484.7l.226,14.026a22.451,22.451,0,0,0,22.473,22.1h88c10.558,31.522,15.836,42.532,40.42,78.88L646,957.616l4.148-1.734C650.077,956.032,637.709,932.655,634.165,926.622Z" transform="translate(-274.454 -396.255)" opacity="0.2"/>
      <path id="Path_31954" data-name="Path 31954" d="M725.6,1009.659l-4.9.754A32.422,32.422,0,0,1,702.6,1008l1.056,11.161a3.6,3.6,0,0,0,3.62,3.167H747.62a1.7,1.7,0,0,0,.528-3.318Z" transform="translate(-328.033 -440.984)" fill="#c92027"/>
      <path id="Path_31955" data-name="Path 31955" d="M749.053,1021.6l-33.86-2.036c-2.639-.151-4.826-3.7-5.656-6.259l-.98-3.243a32.427,32.427,0,0,1-5.957-1.961l1.056,11.161a3.6,3.6,0,0,0,3.62,3.167H747.62A1.743,1.743,0,0,0,749.053,1021.6Z" transform="translate(-328.033 -441.008)" opacity="0.2"/>
      <path id="Path_31956" data-name="Path 31956" d="M666.7,1010.3h27.6c.452-.83,1.734-3.318.151-3.846l-18.777-8.069c-3.318-1.131-5.581-1.885-7.541-4.374a7.892,7.892,0,0,1-.98-1.735L652.523,959.1,634.5,967.772l15.308,26.545c1.357,1.961,1.659,4.525,1.734,6.863l.075,3.77a5.421,5.421,0,0,0,5.2,5.2h.075Z" transform="translate(-311.288 -428.96)" fill="#f69797"/>
      <path id="Path_31957" data-name="Path 31957" d="M697.976,1016.646c-.226.528-.452.98-.6,1.282h-27.6l-9.879-.151h-.075a5.367,5.367,0,0,1-5.2-5.2l-.075-3.771c-.075-2.338-.452-4.977-1.734-6.862l-5.5-9.5.3-2.639,8.371,6.033,5.279,12.82s5.053,6.862,20.135,7.466l15.082.528Z" transform="translate(-314.435 -436.508)" opacity="0.15"/>
      <path id="Path_31958" data-name="Path 31958" d="M629.23,624.328l8.069-2.866a6.057,6.057,0,0,0,2.187-1.131l7.843-5.656a.457.457,0,0,0,.076-.6,3.84,3.84,0,0,0-4.525-.98l-3.092,1.357a2.6,2.6,0,0,1-3.62-2.262l-.453-9.351a2.387,2.387,0,0,1,.3-1.207l4.9-8.069a1.509,1.509,0,0,0-.6-2.112,1.488,1.488,0,0,0-1.734.3c-2.112,2.187-7.918,8.3-7.918,8.3l-.754,7.466,5.807-12.744-6.033,4.6a14.968,14.968,0,0,0-4.9,6.712l-4,11.387L599.82,636.017l-8.22,28.958Z" transform="translate(-300.739 -338.52)" fill="#f69797"/>
      <path id="Path_31959" data-name="Path 31959" d="M643.008,601.58v-.075l3.167-4.3L647.759,596l-4.148,5.882-1.508,4.3-.6-.226Z" transform="translate(-313.009 -339.678)" opacity="0.15"/>
      <path id="Path_31960" data-name="Path 31960" d="M640.8,605.653l1.282-3.771L646.235,596l-6.033,4.6a14.969,14.969,0,0,0-4.9,6.712A9.215,9.215,0,0,1,640.8,605.653Z" transform="translate(-311.485 -339.678)" opacity="0.15"/>
      <path id="Path_31961" data-name="Path 31961" d="M641.02,601.9l-2.187,3.167L638,608.31h-.6l.83-3.846a12.824,12.824,0,0,1,1.584-1.659Z" transform="translate(-312.001 -341.128)" opacity="0.15"/>
      <path id="Path_31962" data-name="Path 31962" d="M499,676.107l54.07-7.994L591.53,633.5l2.036,33.558-33.03,18.023a10.322,10.322,0,0,1-2.866,1.131l-54.748,14.026" transform="translate(-277.97 -348.898)" fill="#c92027"/>
      <path id="Path_31963" data-name="Path 31963" d="M488.67,680.261l-30.994,34.086L420.8,692.176l17.5-5.279c.151-.075.3-.075.452-.151a4.7,4.7,0,0,0,2.639-4.977l-1.961-17.8,18.325-8.672,4.223,18.1.679,2.941.98,4.072c.528,2.187,2.639,3.092,4.675,2.866Z" transform="translate(-258.741 -354.259)" fill="#f69797"/>
      <path id="Path_31964" data-name="Path 31964" d="M615.067,951.181,599,957.817,588.824,941.3c-24.659-36.574-30.617-48.339-40.42-78.88h-88a22.5,22.5,0,0,1-22.473-22.1L437.7,826.3H552.023a17.99,17.99,0,0,1,16.59,11.086Z" transform="translate(-262.897 -396.306)" fill="#3f4249"/>
      <path id="Path_31965" data-name="Path 31965" d="M588.873,926.421c-19.456-33.482-20.21-42.381-28.958-70.208-2.413-7.692-7.918-9.351-11.84-9.351l-49.771.226c-11.613-.3-31.748.9-41.325-5.581L440.238,826.2H437.9l.226,14.026a22.451,22.451,0,0,0,22.473,22.1h88c10.558,31.522,15.836,42.532,40.42,78.88L599.2,957.717l5.43-2.262C604.559,955.53,592.342,932.454,588.873,926.421Z" transform="translate(-262.946 -396.281)" opacity="0.2"/>
      <path id="Path_31966" data-name="Path 31966" d="M404.676,702.471l20.587-6.636,4.449,3.318a23.923,23.923,0,0,0,35.745-8.22l.6-1.207,32.351-4.826v20.889l-21.568,7.089-1.961-3.544,6.184,10.558a19.709,19.709,0,0,1,.9,18.325l-1.885,4.072a6.024,6.024,0,0,0-.6,3.016l.6,12.82a35.7,35.7,0,0,0,6.259,18.551l10.03,14.705h-3.771a76.953,76.953,0,0,0-39.893,11.161l-18.7,11.312a7.987,7.987,0,0,1-11.915-8.672l.754-3.243a92.451,92.451,0,0,0,1.056-36.951l-7.39-34.765-21.568.754L393.59,726C390.574,716.271,394.872,705.638,404.676,702.471Z" transform="translate(-251.817 -361.537)" fill="#c92027"/>
      <path id="Path_31967" data-name="Path 31967" d="M473.892,820.694l.3-.3a2,2,0,0,1,0-2.79l-.3-.3a2,2,0,0,1-2.79,0l-.3.3a2,2,0,0,1,0,2.79l.3.3A1.875,1.875,0,0,1,473.892,820.694Z" transform="translate(-271.036 -394.093)" fill="#c92027"/>
      <path id="Path_31968" data-name="Path 31968" d="M425.786,738.99a1.136,1.136,0,0,1,1.357.9l5.279,20.512c.679,2.941,2.639,6.787,5.279,8.37,6.108,3.7,13.122.679,13.122.679a1.27,1.27,0,0,1,1.734,1.433l-2.036,8.6c-6.108,16.892-4.374,35.745,3.243,40.571l-11.689,7.089a7.987,7.987,0,0,1-11.915-8.672l.754-3.243a92.451,92.451,0,0,0,1.056-36.952l-7.089-37.856A1.11,1.11,0,0,1,425.786,738.99Z" transform="translate(-259.73 -374.83)" opacity="0.3"/>
      <path id="Path_31969" data-name="Path 31969" d="M515.692,820.694l.3-.3a2,2,0,0,1,0-2.79l-.3-.3a2,2,0,0,1-2.79,0l-.3.3a2,2,0,0,1,0,2.79l.3.3A1.875,1.875,0,0,1,515.692,820.694Z" transform="translate(-281.314 -394.093)" fill="#c92027"/>
      <path id="Path_31970" data-name="Path 31970" d="M505.451,761a10.629,10.629,0,0,1-9.351,5.279l8.974,1.885-.226-4.148A6.839,6.839,0,0,1,505.451,761Z" transform="translate(-277.257 -380.249)" opacity="0.3"/>
      <path id="Path_31971" data-name="Path 31971" d="M593.386,665.8l-35.292,22.85-56.634,13.272a1.518,1.518,0,0,0-.754,2.338l2.639,4,55.276-14.177a8.8,8.8,0,0,0,1.961-.754l33.482-18.25Z" transform="translate(-278.318 -356.841)" opacity="0.3"/>
      <path id="Path_31972" data-name="Path 31972" d="M530.64,815.423l-8.069-7.164a4.562,4.562,0,0,0-3.016-1.282l-13.046,1.131L484.941,806.6,477.4,816.705l18.777,1.207,1.81.679a11.544,11.544,0,0,0,9.351-.3h.075l2.489-1.207a2.532,2.532,0,0,1,1.961-.075l6.41,2.64a.949.949,0,0,0,.98-.151,1.067,1.067,0,0,0,0-1.659l-4.751-3.544,7.089,5.128a1.2,1.2,0,0,0,1.131.151,1.147,1.147,0,0,0,.377-1.885l-5.053-4.977,6.636,6.485a1.16,1.16,0,0,0,1.282.226,1.249,1.249,0,0,0,.528-1.961l-4.977-5.882,7.617,5.58a1.214,1.214,0,0,0,1.734-.226A1.112,1.112,0,0,0,530.64,815.423Z" transform="translate(-272.659 -391.462)" fill="#f69797"/>
      <path id="Path_31973" data-name="Path 31973" d="M531.29,820.785c-.075,0-.075,0-.151-.075l-4.374-3.243c-.075-.075-.151-.226-.075-.3s.226-.151.3-.075l4.374,3.243c.075.075.151.226.075.3Z" transform="translate(-284.771 -394.033)" opacity="0.15"/>
      <path id="Path_31974" data-name="Path 31974" d="M536.083,820.134c-.076,0-.151,0-.151-.075l-4.751-4.675a.213.213,0,0,1,.3-.3l4.751,4.675a.229.229,0,0,1,0,.3C536.234,820.134,536.159,820.134,536.083,820.134Z" transform="translate(-285.869 -393.533)" opacity="0.15"/>
      <path id="Path_31975" data-name="Path 31975" d="M523.694,819.432c1.433.754,3.921,1.961,4.751,2.489,1.207.679,1.584-.226,1.584-.226a1.109,1.109,0,0,1-.377,1.056,1.155,1.155,0,0,1-.98.151l-6.41-2.639a2.532,2.532,0,0,0-1.961.075l1.282-.754A2.126,2.126,0,0,1,523.694,819.432Z" transform="translate(-283.207 -394.565)" opacity="0.15"/>
      <path id="Path_31976" data-name="Path 31976" d="M394.8,742.036l14.177,51.581a10.18,10.18,0,0,0,7.164,7.013l37.706,10.105,16.817-20.512-43.211-6.334L417.046,740Z" transform="translate(-252.348 -375.085)" fill="#c92027"/>
      <path id="Path_31977" data-name="Path 31977" d="M453.7,800.279l.151-.679,44.191,6.41-.075.3Z" transform="translate(-266.831 -389.74)" opacity="0.3"/>
      <path id="Path_31978" data-name="Path 31978" d="M485.689,817.4l12.594,1.433a6.2,6.2,0,0,1,2.79.98,11.654,11.654,0,0,0,6.41,1.734s-4.3,1.885-9.879-.9l-14.4-.829Z" transform="translate(-274.085 -394.117)" opacity="0.15"/>
      <path id="Path_31979" data-name="Path 31979" d="M678.7,1009.659l-4.9.754A32.421,32.421,0,0,1,655.7,1008l1.056,11.161a3.6,3.6,0,0,0,3.62,3.167h40.345a1.7,1.7,0,0,0,.528-3.318Z" transform="translate(-316.501 -440.984)" fill="#c92027"/>
      <path id="Path_31980" data-name="Path 31980" d="M702.253,1021.6l-33.86-2.036c-2.639-.151-4.826-3.7-5.656-6.259l-.98-3.243a32.424,32.424,0,0,1-5.958-1.961l1.056,11.161a3.6,3.6,0,0,0,3.62,3.167H700.82A1.864,1.864,0,0,0,702.253,1021.6Z" transform="translate(-316.525 -441.008)" opacity="0.2"/>
      <path id="Path_31981" data-name="Path 31981" d="M615.656,646.911a1.056,1.056,0,1,0-1.056-1.056A1.056,1.056,0,0,0,615.656,646.911Z" transform="translate(-306.395 -351.677)" fill="#f4f4f4"/>
      <path id="Path_31982" data-name="Path 31982" d="M601.756,681.111a1.056,1.056,0,1,0-1.056-1.056A1.056,1.056,0,0,0,601.756,681.111Z" transform="translate(-302.977 -360.086)" fill="#f4f4f4"/>
      <path id="Path_31983" data-name="Path 31983" d="M563.656,690.512a1.056,1.056,0,1,0-1.056-1.056A1.056,1.056,0,0,0,563.656,690.512Z" transform="translate(-293.608 -362.398)" fill="#f4f4f4"/>
      <path id="Path_31984" data-name="Path 31984" d="M531.056,711.612A1.056,1.056,0,1,0,530,710.556,1.056,1.056,0,0,0,531.056,711.612Z" transform="translate(-285.592 -367.586)" fill="#f4f4f4"/>
      <path id="Path_31985" data-name="Path 31985" d="M490.456,722.512a1.056,1.056,0,1,0-1.056-1.056A1.056,1.056,0,0,0,490.456,722.512Z" transform="translate(-275.609 -370.266)" fill="#f4f4f4"/>
      <path id="Path_31986" data-name="Path 31986" d="M503.356,757.312a1.056,1.056,0,1,0-1.056-1.056A1.056,1.056,0,0,0,503.356,757.312Z" transform="translate(-278.781 -378.823)" fill="#f4f4f4"/>
      <path id="Path_31987" data-name="Path 31987" d="M464.156,747.412a1.056,1.056,0,1,0-1.056-1.056A1.056,1.056,0,0,0,464.156,747.412Z" transform="translate(-269.143 -376.389)" fill="#f4f4f4"/>
      <path id="Path_31988" data-name="Path 31988" d="M470.256,807.312a1.056,1.056,0,1,0-1.056-1.056A1.056,1.056,0,0,0,470.256,807.312Z" transform="translate(-270.642 -391.117)" fill="#f4f4f4"/>
      <path id="Path_31989" data-name="Path 31989" d="M493.356,826.812a1.056,1.056,0,1,0-1.056-1.056A1.056,1.056,0,0,0,493.356,826.812Z" transform="translate(-276.322 -395.912)" fill="#f4f4f4"/>
      <path id="Path_31990" data-name="Path 31990" d="M497.156,787.611a1.056,1.056,0,1,0-1.056-1.056A1.056,1.056,0,0,0,497.156,787.611Z" transform="translate(-277.257 -386.273)" fill="#f4f4f4"/>
      <path id="Path_31991" data-name="Path 31991" d="M461.256,781.212a1.056,1.056,0,1,0-1.056-1.056A1.056,1.056,0,0,0,461.256,781.212Z" transform="translate(-268.429 -384.7)" fill="#f4f4f4"/>
      <path id="Path_31992" data-name="Path 31992" d="M402.256,715.812a1.056,1.056,0,1,0-1.056-1.056A1.056,1.056,0,0,0,402.256,715.812Z" transform="translate(-253.922 -368.619)" fill="#f4f4f4"/>
      <path id="Path_31993" data-name="Path 31993" d="M447.056,714.411A1.056,1.056,0,1,0,446,713.356,1.056,1.056,0,0,0,447.056,714.411Z" transform="translate(-264.938 -368.274)" fill="#f4f4f4"/>
      <path id="Path_31994" data-name="Path 31994" d="M408.756,771.912a1.056,1.056,0,1,0-1.056-1.056A1.056,1.056,0,0,0,408.756,771.912Z" transform="translate(-255.52 -382.413)" fill="#f4f4f4"/>
      <path id="Path_31995" data-name="Path 31995" d="M424.156,741.612a1.056,1.056,0,1,0-1.056-1.056A1.056,1.056,0,0,0,424.156,741.612Z" transform="translate(-259.307 -374.962)" fill="#f4f4f4"/>
      <path id="Path_31996" data-name="Path 31996" d="M434.956,796.112a1.056,1.056,0,1,0-1.056-1.056A1.056,1.056,0,0,0,434.956,796.112Z" transform="translate(-261.963 -388.363)" fill="#f4f4f4"/>
      <path id="Path_31997" data-name="Path 31997" d="M439.356,847.911a1.056,1.056,0,1,0-1.056-1.056A1.056,1.056,0,0,0,439.356,847.911Z" transform="translate(-263.044 -401.101)" fill="#f4f4f4"/>
      <path id="Path_31998" data-name="Path 31998" d="M454.756,821.212a1.056,1.056,0,1,0-1.056-1.056A1.056,1.056,0,0,0,454.756,821.212Z" transform="translate(-266.831 -394.535)" fill="#f4f4f4"/>
      <path id="Path_31999" data-name="Path 31999" d="M510.456,691.911a1.056,1.056,0,1,0-1.056-1.056A1.056,1.056,0,0,0,510.456,691.911Z" transform="translate(-280.527 -362.742)" fill="#f4f4f4"/>
      <path id="Path_32000" data-name="Path 32000" d="M397.65,724.766l13.8,51.053c1.659,5.807,6.485,9.276,12.82,10.331l39.289,4.374-10.18,12.367-37.555-10.03a10.417,10.417,0,0,1-7.315-7.239l-14.781-53.994c-2.715-10.482,1.282-20.361,11.085-23.528C398.178,710.89,395.916,717.9,397.65,724.766Z" transform="translate(-251.881 -367.242)" opacity="0.3"/>
      <path id="Path_32001" data-name="Path 32001" d="M388.5,867.486,396.192,838h1.056l-7.541,29.486Z" transform="translate(-250.799 -399.183)" fill="#858990"/>
      <path id="Path_32002" data-name="Path 32002" d="M506.549,873.8l1.357,9.125h-4.525L502.1,873.8Z" transform="translate(-278.732 -407.985)" opacity="0.3"/>
      <path id="Path_32003" data-name="Path 32003" d="M363.5,875.157a4.558,4.558,0,0,1,3.243-1.357h.6l-2.262,8.823" transform="translate(-244.652 -407.985)" opacity="0.3"/>
      <path id="Path_32004" data-name="Path 32004" d="M502.779,822.7h46.3a.676.676,0,0,1,.679.679v1.207a.676.676,0,0,1-.679.679h-46.3a.676.676,0,0,1-.679-.679v-1.207A.633.633,0,0,1,502.779,822.7Z" transform="translate(-278.732 -395.42)" fill="#21252b"/>
      <path id="Path_32005" data-name="Path 32005" d="M502.779,822.7h46.3a.676.676,0,0,1,.679.679v1.207a.676.676,0,0,1-.679.679h-46.3a.676.676,0,0,1-.679-.679v-1.207A.633.633,0,0,1,502.779,822.7Z" transform="translate(-278.732 -395.42)" opacity="0.6"/>
      <path id="Path_32006" data-name="Path 32006" d="M544.179,822.7h80.765a.676.676,0,0,1,.679.679v1.207a.676.676,0,0,1-.679.679H544.179a.676.676,0,0,1-.679-.679v-1.207A.676.676,0,0,1,544.179,822.7Z" transform="translate(-288.912 -395.42)" fill="#21252b"/>
      <g id="Group_542" data-name="Group 542" transform="translate(252.552 427.28)" opacity="0.6">
        <path id="Path_32007" data-name="Path 32007" d="M623.224,823.152h-82.2a.226.226,0,0,1,0-.452h82.2a.2.2,0,0,1,.226.226A.241.241,0,0,1,623.224,823.152Z" transform="translate(-540.8 -822.7)" opacity="0.6"/>
      </g>
      <path id="Path_32008" data-name="Path 32008" d="M543.555,803.939H555.7a2.085,2.085,0,0,0,1.961-1.584l10.181-53.617a1.969,1.969,0,0,0-1.961-2.338H553.735a2.085,2.085,0,0,0-1.961,1.584L541.594,801.6A1.975,1.975,0,0,0,543.555,803.939Z" transform="translate(-288.439 -376.659)" fill="#21252b"/>
      <path id="Path_32009" data-name="Path 32009" d="M543.555,803.939H555.7a2.085,2.085,0,0,0,1.961-1.584l10.181-53.617a1.969,1.969,0,0,0-1.961-2.338H553.735a2.085,2.085,0,0,0-1.961,1.584L541.594,801.6A1.975,1.975,0,0,0,543.555,803.939Z" transform="translate(-288.439 -376.659)" opacity="0.6"/>
      <path id="Path_32010" data-name="Path 32010" d="M545.873,803.939H624a2.085,2.085,0,0,0,1.961-1.584l10.181-53.617a1.969,1.969,0,0,0-1.961-2.338H556.054a2.085,2.085,0,0,0-1.961,1.584L543.988,801.6A1.89,1.89,0,0,0,545.873,803.939Z" transform="translate(-289.023 -376.659)" fill="#21252b"/>
      <path id="Path_32011" data-name="Path 32011" d="M603.524,781.321c-.452,1.056.075,2.036,1.131,2.036h.151a6.6,6.6,0,0,1-4.9,2.338c-2.338-.075-3.394-1.961-2.338-4.223A7.051,7.051,0,0,1,603.6,777.4a2.738,2.738,0,0,1,2.715,1.961A3.535,3.535,0,0,0,603.524,781.321Z" transform="translate(-302.105 -384.282)" opacity="0.6"/>
      <path id="Path_32012" data-name="Path 32012" d="M467.561,811.558A12.307,12.307,0,0,0,455.5,801h-6.561l-2.564.6v.377l-55.8,7.089a17.234,17.234,0,0,0-14.554,12.82L337.1,971.429h9.351L384.76,824.151a8.228,8.228,0,0,1,6.938-6.108l63.119-8.069a3.369,3.369,0,0,1,3.771,2.79l24.132,158.514h9.2Z" transform="translate(-238.161 -390.085)" fill="#b1b5ba"/>
      <path id="Path_32013" data-name="Path 32013" d="M338.551,971.4H329.2l38.912-149.54a17.246,17.246,0,0,1,14.554-12.82l63.119-8.069a12.461,12.461,0,0,1,13.876,10.482L484.019,971.4h-9.2L450.687,812.884a3.327,3.327,0,0,0-3.771-2.79L383.8,818.162a8.306,8.306,0,0,0-6.938,6.108Z" transform="translate(-236.218 -390.053)" fill="#858990"/>
      <path id="Path_32014" data-name="Path 32014" d="M463.093,669.275l-1.056.226c-7.843,1.659-15.912-3.846-17.571-11.689l-4.3-19.833a4.843,4.843,0,0,1,3.7-5.731l18.551-4a6.28,6.28,0,0,1,7.466,4.826l4,18.476C475.536,659.321,471.313,667.767,463.093,669.275Z" transform="translate(-263.48 -347.571)" fill="#f69797"/>
      <path id="Path_32015" data-name="Path 32015" d="M467.874,668.207l.679.679a3.554,3.554,0,0,0,5.731-1.357l.377-1.056c.075-.226-.075-.452-.3-.377l-6.335,1.659A.263.263,0,0,0,467.874,668.207Z" transform="translate(-270.297 -356.909)" fill="#fff"/>
      <path id="Path_32016" data-name="Path 32016" d="M462.484,656.967a1.584,1.584,0,1,0-1.584-1.584A1.583,1.583,0,0,0,462.484,656.967Z" transform="translate(-268.602 -353.89)" fill="#21252b"/>
      <path id="Path_32017" data-name="Path 32017" d="M463.9,656.8a.3.3,0,1,0-.3-.3A.3.3,0,0,0,463.9,656.8Z" transform="translate(-269.266 -354.48)" fill="#fff"/>
      <path id="Path_32018" data-name="Path 32018" d="M478.384,654.467a1.584,1.584,0,1,0-1.584-1.584A1.583,1.583,0,0,0,478.384,654.467Z" transform="translate(-272.511 -353.275)" fill="#21252b"/>
      <path id="Path_32019" data-name="Path 32019" d="M479.9,654.2a.3.3,0,1,0-.3-.3A.3.3,0,0,0,479.9,654.2Z" transform="translate(-273.2 -353.841)" fill="#fff"/>
      <g id="Group_543" data-name="Group 543" transform="translate(199.367 303.859)" opacity="0.3">
        <path id="Path_32020" data-name="Path 32020" d="M472.858,662.553l-2.036.528c-.226.076-.528-.075-.528-.3-.075-.226.075-.528.3-.528l2.036-.528a.933.933,0,1,0-.452-1.81c-.226.075-.528-.075-.528-.3-.075-.226.075-.528.3-.528a1.9,1.9,0,0,1,2.262,1.357A1.778,1.778,0,0,1,472.858,662.553Z" transform="translate(-470.274 -659.037)" opacity="0.3"/>
      </g>
      <path id="Path_32021" data-name="Path 32021" d="M472.071,634.76h.83c-6.335-21.04-29.033-20.889-38.158-10.181-5.505,6.485-7.843,17.043-7.843,17.043,1.81,3.921,6.787,7.013,8.371,9.728.679,1.207,2.112-4.449,3.092-5.2a12.04,12.04,0,0,1,2.187,1.961.863.863,0,0,0,1.508-.452,23.239,23.239,0,0,0-.3-7.918l-.528-2.338c5.053-1.659,20.286-7.616,23.679-8.748.829-.3,1.584.98,1.81,1.81L469.206,642l2.112-5.505Z" transform="translate(-260.241 -344.955)" fill="#21252b"/>
      <path id="Path_32022" data-name="Path 32022" d="M444.013,664.828s-6.561,2.262-9.653-4c-3.167-6.259,4.751-9.577,7.692-3.243l2.79,7.013Z" transform="translate(-261.895 -353.983)" fill="#f69797"/>
      <path id="Path_32023" data-name="Path 32023" d="M436.066,657.256a2.573,2.573,0,0,1,1.885-1.056,2.509,2.509,0,0,1,1.961.9,5.883,5.883,0,0,1,1.433,2.413l.226.679c.151.528-.679.905-.9.3l-.226-.754a5.463,5.463,0,0,0-1.131-1.961,1.813,1.813,0,0,0-1.282-.6,2.119,2.119,0,0,0-1.282.754.467.467,0,0,1-.6.076A.58.58,0,0,1,436.066,657.256Z" transform="translate(-262.469 -354.48)" opacity="0.3"/>
      <path id="Path_32024" data-name="Path 32024" d="M472.892,644.64a6.21,6.21,0,0,0-4.148,3.469,5.724,5.724,0,0,0-3.846.679,6.448,6.448,0,0,0-6.259-2.036,6.292,6.292,0,1,0,7.616,4.6,5.328,5.328,0,0,0-.829-1.885,5.287,5.287,0,0,1,3.092-.6,6.462,6.462,0,0,0-.075,3.393,6.292,6.292,0,1,0,12.217-3.016A6.5,6.5,0,0,0,472.892,644.64ZM461.43,658.214a5.478,5.478,0,1,1,4-6.636A5.5,5.5,0,0,1,461.43,658.214Zm14.328-2.187a5.478,5.478,0,1,1,4-6.636A5.43,5.43,0,0,1,475.758,656.027Z" transform="translate(-266.869 -351.592)" fill="#fff"/>
      <path id="Path_32025" data-name="Path 32025" d="M443.857,666.715a1.357,1.357,0,1,0-1.357-1.357A1.357,1.357,0,0,0,443.857,666.715Z" transform="translate(-264.077 -356.398)" fill="#c92027"/>
      <path id="Path_32026" data-name="Path 32026" d="M444.5,666.485a1.487,1.487,0,0,1-1.81-1.056,1.543,1.543,0,0,1,0-.83,1.356,1.356,0,0,0-.3,1.207,1.291,1.291,0,0,0,1.659.98,1.1,1.1,0,0,0,.679-.453C444.729,666.485,444.654,666.485,444.5,666.485Z" transform="translate(-264.044 -356.545)" opacity="0.15"/>
      <path id="Path_32027" data-name="Path 32027" d="M445.6,668.528l2.338-.528-1.81,5.807Z" transform="translate(-264.839 -357.381)" opacity="0.15"/>
      <path id="Path_32028" data-name="Path 32028" d="M469.93,632.707c-12.745-3.016-10.633,16.063-23.83,13.5-12.367-2.413-1.207-17.345-1.207-17.345l10.935-1.961,14.705,1.81Z" transform="translate(-263.529 -347.275)" fill="#21252b"/>
      <path id="Path_32029" data-name="Path 32029" d="M448.871,653.256A8.391,8.391,0,0,1,445.1,652.2" transform="translate(-264.717 -353.496)" fill="none" stroke="#f69797" stroke-linecap="round" stroke-miterlimit="10" stroke-width="1.299"/>
      <path id="Path_32030" data-name="Path 32030" d="M473.348,682.182l-.3-1.282h-.075a16.738,16.738,0,0,1-7.843.9.459.459,0,1,0-.151.9c.754.075,1.433.151,2.112.151a11.671,11.671,0,0,0,1.659-.075,5.71,5.71,0,0,0,4.977.98Z" transform="translate(-269.511 -360.553)" opacity="0.15"/>
      <path id="Path_32031" data-name="Path 32031" d="M442.8,668.7s2.262,12.594,8.9,21.115c0,0-8.9,2.111-15.761.528C429.6,688.91,442.8,668.7,442.8,668.7Z" transform="translate(-262.041 -357.554)" fill="#21252b"/>
      <path id="Path_32032" data-name="Path 32032" d="M409.9,353.4V542.079l-179.554-3.243L230.2,418.4l70.811-65Z" transform="translate(-211.875 -280.025)" fill="#eaeaea"/>
      <path id="Path_32033" data-name="Path 32033" d="M367.407,358.8l-70.66,180.459H274.5L346.442,358.8Z" transform="translate(-222.768 -281.353)" fill="#fff" opacity="0.2"/>
      <path id="Path_32034" data-name="Path 32034" d="M331.026,358.8,260.29,539.259H252.9L324.842,358.8Z" transform="translate(-217.457 -281.353)" fill="#fff" opacity="0.2"/>
      <path id="Path_32035" data-name="Path 32035" d="M215.551,544.823H410.413V348H301.821L293,356.22V536.679H215.4Zm186.643-8.22H301.218V356.144H402.193Z" transform="translate(-208.236 -278.697)" fill="#fff"/>
      <path id="Path_32036" data-name="Path 32036" d="M310.6,364.816h115V361.8H313.918Z" transform="translate(-231.645 -282.09)" fill="#fff"/>
      <path id="Path_32037" data-name="Path 32037" d="M303,371.716H423.733V368.7H306.318Z" transform="translate(-229.776 -283.787)" fill="#fff"/>
      <path id="Path_32038" data-name="Path 32038" d="M295.4,378.716H421.865V375.7H298.718Z" transform="translate(-227.907 -285.508)" fill="#fff"/>
      <path id="Path_32039" data-name="Path 32039" d="M287.8,385.716H420V382.7H291.118Z" transform="translate(-226.038 -287.229)" fill="#fff"/>
      <path id="Path_32040" data-name="Path 32040" d="M280.3,392.716H418.152V389.7H283.543Z" transform="translate(-224.194 -288.951)" fill="#fff"/>
      <path id="Path_32041" data-name="Path 32041" d="M272.6,399.616H416.258V396.6H275.918Z" transform="translate(-222.301 -290.647)" fill="#fff"/>
      <path id="Path_32042" data-name="Path 32042" d="M457.578,442.657h.151V358.8h.754v83.857h.151a1.031,1.031,0,0,1,1.056,1.056V455.4a1.031,1.031,0,0,1-1.056,1.056h-.98A1.031,1.031,0,0,1,456.6,455.4V443.713A.932.932,0,0,1,457.578,442.657Z" transform="translate(-267.542 -281.353)" fill="#fff"/>
      <path id="Path_32043" data-name="Path 32043" d="M460.933,364.745h1.584v-3.016h-1.584Z" transform="translate(-268.61 -282.073)" fill="#ddd"/>
      <path id="Path_32044" data-name="Path 32044" d="M460.933,371.786h1.584V368.77h-1.584Z" transform="translate(-268.61 -283.804)" fill="#ddd"/>
      <path id="Path_32045" data-name="Path 32045" d="M460.933,378.726h1.584V375.71h-1.584Z" transform="translate(-268.61 -285.511)" fill="#ddd"/>
      <path id="Path_32046" data-name="Path 32046" d="M460.933,385.666h1.584V382.65h-1.584Z" transform="translate(-268.61 -287.217)" fill="#ddd"/>
      <path id="Path_32047" data-name="Path 32047" d="M460.933,392.706h1.584V389.69h-1.584Z" transform="translate(-268.61 -288.948)" fill="#ddd"/>
      <path id="Path_32048" data-name="Path 32048" d="M460.933,399.646h1.584V396.63h-1.584Z" transform="translate(-268.61 -290.655)" fill="#ddd"/>
      <path id="Path_32049" data-name="Path 32049" d="M318.255,367h8.22v-1.282h-8.22Z" transform="translate(-233.527 -283.054)" fill="#ddd"/>
      <path id="Path_32050" data-name="Path 32050" d="M318.255,374.042h8.22V372.76h-8.22Z" transform="translate(-233.527 -284.785)" fill="#ddd"/>
      <path id="Path_32051" data-name="Path 32051" d="M318.255,380.982h8.22V379.7h-8.22Z" transform="translate(-233.527 -286.492)" fill="#ddd"/>
      <path id="Path_32052" data-name="Path 32052" d="M318.255,387.922h8.22V386.64h-8.22Z" transform="translate(-233.527 -288.198)" fill="#ddd"/>
      <path id="Path_32053" data-name="Path 32053" d="M318.255,394.962h8.22V393.68h-8.22Z" transform="translate(-233.527 -289.929)" fill="#ddd"/>
      <path id="Path_32054" data-name="Path 32054" d="M318.255,401.9h8.22v-1.282h-8.22Z" transform="translate(-233.527 -291.636)" fill="#ddd"/>
    </g>
  </g>
</svg>
