<?xml version="1.0" encoding="utf-8"?>
<!-- Generator: Adobe Illustrator 16.0.2, SVG Export Plug-In . SVG Version: 6.00 Build 0)  -->
<!DOCTYPE svg PUBLIC "-//W3C//DTD SVG 1.1//EN" "http://www.w3.org/Graphics/SVG/1.1/DTD/svg11.dtd">
<svg version="1.1" id="Layer_1" xmlns="http://www.w3.org/2000/svg" xmlns:xlink="http://www.w3.org/1999/xlink" x="0px" y="0px"
	 width="477.176px" height="371.789px" viewBox="0 0 477.176 371.789" enable-background="new 0 0 477.176 371.789"
	 xml:space="preserve">
<g>
	<g>
		<g>
			<linearGradient id="SVGID_1_" gradientUnits="userSpaceOnUse" x1="258.2144" y1="278.3936" x2="256.9283" y2="325.3349">
				<stop  offset="0.0034" style="stop-color:#B0B0B0"/>
				<stop  offset="1" style="stop-color:#FFFFFF"/>
			</linearGradient>
			<polygon fill="url(#SVGID_1_)" points="324.756,333.896 188.629,333.896 198.902,213.179 314.481,213.179 			"/>
			<linearGradient id="SVGID_2_" gradientUnits="userSpaceOnUse" x1="221.417" y1="280.7139" x2="294.1164" y2="403.5508">
				<stop  offset="0.0034" style="stop-color:#B0B0B0"/>
				<stop  offset="1" style="stop-color:#FFFFFF"/>
			</linearGradient>
			<path fill="url(#SVGID_2_)" d="M332.178,351.873H181.206c-7.395,0-12.887-6.846-11.283-14.063l0,0
				c1.176-5.29,5.866-9.052,11.283-9.052h150.973c5.419,0,10.107,3.762,11.282,9.052l0,0
				C345.066,345.027,339.573,351.873,332.178,351.873z"/>
		</g>
		<g>
			<g>
				<linearGradient id="SVGID_3_" gradientUnits="userSpaceOnUse" x1="238.4521" y1="449.3486" x2="268.9989" y2="-62.3074">
					<stop  offset="0.0034" style="stop-color:#B0B0B0"/>
					<stop  offset="1" style="stop-color:#FFFFFF"/>
				</linearGradient>
				<path fill="url(#SVGID_3_)" d="M437.766,41.172v205.319c0,11.378-9.247,20.625-20.625,20.625H96.243
					c-11.378,0-20.625-9.247-20.625-20.625V41.172c0-10.222,7.475-18.725,17.26-20.342c1.104-0.179,2.209-0.282,3.365-0.282h320.898
					C428.519,20.547,437.766,29.793,437.766,41.172z"/>
				<linearGradient id="SVGID_4_" gradientUnits="userSpaceOnUse" x1="259.5601" y1="194.7393" x2="251.9394" y2="282.3778">
					<stop  offset="0" style="stop-color:#DB9661"/>
					<stop  offset="0.024" style="stop-color:#DA9561"/>
					<stop  offset="1" style="stop-color:#BE6554"/>
				</linearGradient>
				<path fill="url(#SVGID_4_)" d="M437.766,208.042v38.449c0,11.378-9.247,20.625-20.625,20.625H96.243
					c-11.378,0-20.625-9.247-20.625-20.625v-38.449H437.766z"/>
			</g>
			<linearGradient id="SVGID_5_" gradientUnits="userSpaceOnUse" x1="92.8779" y1="107.6943" x2="437.7661" y2="107.6943">
				<stop  offset="0" style="stop-color:#FFFFFF"/>
				<stop  offset="1" style="stop-color:#FAF9F9;stop-opacity:0"/>
			</linearGradient>
			<path fill="url(#SVGID_5_)" d="M437.766,41.172v153.669C364.411,159.885,179.151,65.109,92.878,20.83
				c1.104-0.179,2.209-0.282,3.365-0.282h320.898C428.519,20.547,437.766,29.793,437.766,41.172z"/>
		</g>
		<g>
			<g>
				<rect x="138.544" y="41.094" fill="#FFFFFF" width="236.295" height="166.948"/>
				<linearGradient id="SVGID_6_" gradientUnits="userSpaceOnUse" x1="138.5444" y1="20.5469" x2="374.8394" y2="20.5469">
					<stop  offset="0" style="stop-color:#34346D"/>
					<stop  offset="1" style="stop-color:#5F3D8B"/>
				</linearGradient>
				<path fill="url(#SVGID_6_)" d="M374.839,17.388v23.706H138.544V17.388C138.544,7.782,146.327,0,155.933,0h201.518
					C367.057,0,374.839,7.782,374.839,17.388z"/>
				<linearGradient id="SVGID_7_" gradientUnits="userSpaceOnUse" x1="315.7651" y1="21.8311" x2="333.7437" y2="21.8311">
					<stop  offset="0.0034" style="stop-color:#B0B0B0"/>
					<stop  offset="1" style="stop-color:#FFFFFF"/>
				</linearGradient>
				<circle fill="url(#SVGID_7_)" cx="324.754" cy="21.832" r="8.989"/>
				<linearGradient id="SVGID_8_" gradientUnits="userSpaceOnUse" x1="338.8813" y1="21.8311" x2="356.8599" y2="21.8311">
					<stop  offset="0" style="stop-color:#DB9661"/>
					<stop  offset="0.024" style="stop-color:#DA9561"/>
					<stop  offset="1" style="stop-color:#BE6554"/>
				</linearGradient>
				<circle fill="url(#SVGID_8_)" cx="347.871" cy="21.832" r="8.989"/>
			</g>
			<g>
				<linearGradient id="SVGID_9_" gradientUnits="userSpaceOnUse" x1="277.3208" y1="196.7744" x2="315.8556" y2="112.1654">
					<stop  offset="0" style="stop-color:#F1DF80"/>
					<stop  offset="1" style="stop-color:#E9B855"/>
				</linearGradient>
				<path fill="url(#SVGID_9_)" d="M340.28,163.094h-82.958c-4.882,0-8.876-3.993-8.876-8.874v-9.218
					c0-4.881,3.994-8.875,8.876-8.875h82.958c4.882,0,8.875,3.994,8.875,8.875v9.218
					C349.155,159.101,345.162,163.094,340.28,163.094z"/>
				<linearGradient id="SVGID_10_" gradientUnits="userSpaceOnUse" x1="277.3198" y1="163.3853" x2="315.8551" y2="78.7752">
					<stop  offset="0" style="stop-color:#F1DF80"/>
					<stop  offset="1" style="stop-color:#E9B855"/>
				</linearGradient>
				<path fill="url(#SVGID_10_)" d="M340.28,129.705h-82.958c-4.882,0-8.876-3.994-8.876-8.875v-9.218
					c0-4.882,3.994-8.875,8.876-8.875h82.958c4.882,0,8.875,3.994,8.875,8.875v9.218
					C349.155,125.711,345.162,129.705,340.28,129.705z"/>
				<linearGradient id="SVGID_11_" gradientUnits="userSpaceOnUse" x1="258.7397" y1="160.8477" x2="267.9206" y2="140.6897">
					<stop  offset="0" style="stop-color:#34346D"/>
					<stop  offset="1" style="stop-color:#5F3D8B"/>
				</linearGradient>
				<polygon fill="url(#SVGID_11_)" points="270.953,148.008 267.725,148.008 270.008,145.726 267.742,143.459 265.458,145.741 
					265.458,142.514 262.252,142.514 262.252,145.741 259.971,143.459 257.707,145.726 259.988,148.008 256.758,148.008 
					256.758,151.213 259.988,151.213 257.707,153.496 259.971,155.762 262.252,153.479 262.252,156.708 265.458,156.708 
					265.458,153.479 267.742,155.762 270.008,153.496 267.725,151.213 270.953,151.213 				"/>
				<linearGradient id="SVGID_12_" gradientUnits="userSpaceOnUse" x1="276.0757" y1="160.8467" x2="285.2562" y2="140.6895">
					<stop  offset="0" style="stop-color:#34346D"/>
					<stop  offset="1" style="stop-color:#5F3D8B"/>
				</linearGradient>
				<polygon fill="url(#SVGID_12_)" points="288.291,148.008 285.062,148.008 287.345,145.726 285.079,143.459 282.796,145.741 
					282.796,142.514 279.59,142.514 279.59,145.741 277.309,143.459 275.041,145.726 277.326,148.008 274.096,148.008 
					274.096,151.213 277.326,151.213 275.041,153.496 277.309,155.762 279.59,153.479 279.59,156.708 282.796,156.708 
					282.796,153.479 285.079,155.762 287.345,153.496 285.062,151.213 288.291,151.213 				"/>
				<linearGradient id="SVGID_13_" gradientUnits="userSpaceOnUse" x1="293.4126" y1="160.8477" x2="302.5938" y2="140.6891">
					<stop  offset="0" style="stop-color:#34346D"/>
					<stop  offset="1" style="stop-color:#5F3D8B"/>
				</linearGradient>
				<polygon fill="url(#SVGID_13_)" points="305.627,148.008 302.4,148.008 304.681,145.726 302.417,143.459 300.133,145.741 
					300.133,142.514 296.928,142.514 296.928,145.741 294.645,143.459 292.378,145.726 294.66,148.008 291.434,148.008 
					291.434,151.213 294.66,151.213 292.378,153.496 294.645,155.762 296.928,153.479 296.928,156.708 300.133,156.708 
					300.133,153.479 302.417,155.762 304.681,153.496 302.4,151.213 305.627,151.213 				"/>
				<g>
					<linearGradient id="SVGID_14_" gradientUnits="userSpaceOnUse" x1="310.7495" y1="160.8477" x2="319.9305" y2="140.6894">
						<stop  offset="0" style="stop-color:#34346D"/>
						<stop  offset="1" style="stop-color:#5F3D8B"/>
					</linearGradient>
					<polygon fill="url(#SVGID_14_)" points="322.963,148.008 319.736,148.008 322.019,145.726 319.752,143.459 317.469,145.741 
						317.469,142.514 314.264,142.514 314.264,145.741 311.981,143.459 309.716,145.726 311.998,148.008 308.77,148.008 
						308.77,151.213 311.998,151.213 309.716,153.496 311.981,155.762 314.264,153.479 314.264,156.708 317.469,156.708 
						317.469,153.479 319.752,155.762 322.019,153.496 319.736,151.213 322.963,151.213 					"/>
				</g>
				<g>
					<linearGradient id="SVGID_15_" gradientUnits="userSpaceOnUse" x1="328.0874" y1="160.8477" x2="337.2679" y2="140.6904">
						<stop  offset="0" style="stop-color:#34346D"/>
						<stop  offset="1" style="stop-color:#5F3D8B"/>
					</linearGradient>
					<polygon fill="url(#SVGID_15_)" points="340.301,148.008 337.072,148.008 339.357,145.726 337.088,143.459 334.807,145.741 
						334.807,142.514 331.601,142.514 331.601,145.741 329.319,143.459 327.052,145.726 329.335,148.008 326.107,148.008 
						326.107,151.213 329.335,151.213 327.052,153.496 329.319,155.762 331.601,153.479 331.601,156.708 334.807,156.708 
						334.807,153.479 337.088,155.762 339.357,153.496 337.072,151.213 340.301,151.213 					"/>
				</g>
			</g>
			<g>
				<g>
					<linearGradient id="SVGID_16_" gradientUnits="userSpaceOnUse" x1="201.2285" y1="67.4175" x2="199.9443" y2="130.1297">
						<stop  offset="0.084" style="stop-color:#B0B0B0"/>
						<stop  offset="0.4296" style="stop-color:#FFFFFF"/>
						<stop  offset="0.7472" style="stop-color:#B0B0B0"/>
						<stop  offset="1" style="stop-color:#FFFFFF"/>
					</linearGradient>
					<path fill="url(#SVGID_16_)" d="M233.448,95.699v3.057c0,0.231-0.025,0.462-0.051,0.667c-0.308,2.594-2.518,4.598-5.189,4.598
						c-1.463,0-2.773-0.591-3.723-1.542c-0.36-0.359-0.668-0.771-0.9-1.207c-0.41-0.745-0.642-1.592-0.642-2.517v-2.184
						c0-0.205,0-0.411-0.025-0.617c-0.283-11.686-9.144-21.831-20.856-22.55c-12.97-0.821-23.784,9.503-23.784,22.294v28.792
						c0,0.051-0.051,0.102-0.103,0.102h-10.3c-0.051,0-0.103-0.051-0.103-0.102V96.727c0-17.696,13.587-33.004,31.284-33.826
						C217.857,62.001,233.448,77.079,233.448,95.699z"/>
				</g>
				<linearGradient id="SVGID_17_" gradientUnits="userSpaceOnUse" x1="200.6108" y1="93.7212" x2="200.6108" y2="208.6815">
					<stop  offset="0" style="stop-color:#A03E6C"/>
					<stop  offset="1" style="stop-color:#5A4096"/>
				</linearGradient>
				<path fill="url(#SVGID_17_)" d="M238.713,120.1v58.919c0,2.594-2.106,4.7-4.701,4.7h-66.805c-2.594,0-4.699-2.106-4.699-4.7
					V120.1c0-2.338,1.72-4.289,3.98-4.624c0.231-0.051,0.463-0.077,0.719-0.077h66.805
					C236.607,115.399,238.713,117.505,238.713,120.1z"/>
				<linearGradient id="SVGID_18_" gradientUnits="userSpaceOnUse" x1="218.9097" y1="125.5879" x2="197.3078" y2="155.2905">
					<stop  offset="0" style="stop-color:#FFFFFF"/>
					<stop  offset="1" style="stop-color:#FAF9F9;stop-opacity:0"/>
				</linearGradient>
				<path opacity="0.17" fill="url(#SVGID_18_)" d="M238.713,120.1v58.919c0,2.594-2.106,4.7-4.701,4.7h-5.341
					c-0.565-41.171-44.383-61.616-62.182-68.243c0.231-0.051,0.463-0.077,0.719-0.077h66.805
					C236.607,115.399,238.713,117.505,238.713,120.1z"/>
				<linearGradient id="SVGID_19_" gradientUnits="userSpaceOnUse" x1="200.6143" y1="123.7896" x2="200.6143" y2="176.8444">
					<stop  offset="0.084" style="stop-color:#B0B0B0"/>
					<stop  offset="0.4296" style="stop-color:#FFFFFF"/>
					<stop  offset="0.7472" style="stop-color:#B0B0B0"/>
					<stop  offset="1" style="stop-color:#FFFFFF"/>
				</linearGradient>
				<path fill="url(#SVGID_19_)" d="M211.124,144.304c0-5.805-4.705-10.51-10.509-10.51c-5.805,0-10.51,4.705-10.51,10.51
					c0,4.408,2.72,8.169,6.569,9.73v7.347c0,2.178,1.764,3.942,3.941,3.942c2.176,0,3.941-1.765,3.941-3.942v-7.347
					C208.405,152.474,211.124,148.712,211.124,144.304z"/>
			</g>
		</g>
	</g>
	<g>
		<g>
			
				<linearGradient id="SVGID_20_" gradientUnits="userSpaceOnUse" x1="2724.7368" y1="-1282.9683" x2="2741.7747" y2="-1261.9987" gradientTransform="matrix(0.5157 -0.8568 0.8568 0.5157 52.0084 3213.4324)">
				<stop  offset="0" style="stop-color:#DD9373"/>
				<stop  offset="1" style="stop-color:#EED0BD"/>
			</linearGradient>
			<path fill="url(#SVGID_20_)" d="M366.923,209.897c-1.344,0.246-2.552,0.734-2.004,1.852c0.185,0.374,0.604,0.561,0.999,0.692
				c1.167,0.39,2.412,0.551,3.644,0.477c-0.213,0.014-0.849,0.669-1.08,0.805c-0.429,0.251-0.885,0.454-1.329,0.675
				c-0.899,0.449-1.745,1.007-2.353,1.824c-1.532,2.056-0.332,4.167,1.317,5.647c0.671,0.604,1.424,1.179,2.313,1.353
				c1.676,0.327,3.271-0.746,4.761-1.336c2.584-1.021,5.054-2.337,7.345-3.911c1.259-0.866,2.486-1.832,3.349-3.094
				c0.139-0.203,0.269-0.421,0.294-0.663c0.022-0.236-0.059-0.468-0.143-0.687c-0.94-2.497-2.482-4.762-4.454-6.558
				c-0.155-0.139-0.32-0.281-0.523-0.322c-0.244-0.05-0.49,0.055-0.718,0.157c-1.688,0.758-3.361,1.717-5.19,2.049
				c-1.195,0.216-2.379,0.497-3.572,0.723C369.159,209.661,367.997,209.701,366.923,209.897z"/>
			<linearGradient id="SVGID_21_" gradientUnits="userSpaceOnUse" x1="374.7026" y1="185.8262" x2="444.1089" y2="185.8262">
				<stop  offset="0" style="stop-color:#A03E6C"/>
				<stop  offset="1" style="stop-color:#5A4096"/>
			</linearGradient>
			<path fill="url(#SVGID_21_)" d="M410.167,181.698c-1.628,2.111-3.269,4.239-5.269,6.001c-1.903,1.676-4.096,2.986-6.271,4.287
				c-7.976,4.768-15.951,9.534-23.925,14.3c0.918,4.487,2.243,8.891,3.952,13.14c5.551-3.062,11.101-6.124,16.651-9.187
				c8.361-4.613,16.846-9.318,23.585-16.085c2.516-2.526,4.758-5.308,6.991-8.086c5.018-6.232,10.032-12.466,15.048-18.698
				c1.417-1.76,2.89-3.652,3.144-5.897c0.435-3.855-3.22-7.752-6.716-8.885c-4.229-1.369-5.808,1.388-8.229,4.487
				C422.752,165.238,416.487,173.491,410.167,181.698z"/>
		</g>
		
			<linearGradient id="SVGID_22_" gradientUnits="userSpaceOnUse" x1="1288.0981" y1="-913.6968" x2="1338.3236" y2="-828.833" gradientTransform="matrix(0.8571 -0.5152 0.5152 0.8571 -297.584 1612.068)">
			<stop  offset="0.007" style="stop-color:#E9B855"/>
			<stop  offset="0.291" style="stop-color:#F1DF80"/>
			<stop  offset="0.5346" style="stop-color:#E9B855"/>
			<stop  offset="0.8881" style="stop-color:#F1DF80"/>
		</linearGradient>
		<path fill="url(#SVGID_22_)" d="M414.337,152.925c-0.254-0.106-0.512-0.182-0.768-0.273c1.824-2.164,3.17-4.827,3.772-7.923
			c1.337-6.872-1.733-14.054-7.647-17.799c-9.352-5.922-21.341-1.808-25.377,7.952c-0.7,1.687-1.104,3.422-1.252,5.151
			c-0.246-0.116-0.481-0.245-0.736-0.349c-9.816-4.062-21.276,1.606-23.6,12.534c-1.478,6.952,1.63,14.275,7.643,18.066
			c5.066,3.194,10.896,3.437,15.818,1.448l-17.793,43.004l-12.802-5.298c-3.536-1.463-7.587,0.218-9.05,3.753l0,0
			c-1.463,3.536,0.218,7.587,3.752,9.05l12.804,5.298l-1.986,4.801l-14.976-6.196c-2.094-0.864-4.622-0.148-5.692,1.848
			c-1.231,2.295-0.191,5.09,2.153,6.061l15.204,6.29l-2.575,6.224c-0.961,2.321-0.271,5.1,1.827,6.48
			c2.825,1.858,6.476,0.634,7.702-2.33l31.033-75.01c2.079,4.885,6.376,8.833,12.217,10.151c6.935,1.565,14.307-1.421,18.174-7.386
			C428.261,169.095,424.154,156.987,414.337,152.925z M401.992,131.236c7.641,1.332,11.229,9.989,6.775,16.336
			c-2.245,3.2-6.269,4.868-10.12,4.196c-7.637-1.332-11.229-9.989-6.775-16.335C394.119,132.233,398.142,130.564,401.992,131.236z
			 M374.036,165.952c-7.637-1.331-11.229-9.989-6.773-16.336c2.245-3.199,6.269-4.868,10.118-4.196
			c7.641,1.332,11.229,9.99,6.775,16.337C381.911,164.956,377.887,166.624,374.036,165.952z M406.043,179.195
			c-7.637-1.333-11.229-9.99-6.775-16.336c2.247-3.201,6.271-4.868,10.12-4.196c7.641,1.331,11.229,9.989,6.775,16.335
			C413.918,178.198,409.895,179.867,406.043,179.195z"/>
		<g>
			<g>
				
					<linearGradient id="SVGID_23_" gradientUnits="userSpaceOnUse" x1="5189.5181" y1="683.1973" x2="5211.9043" y2="689.1116" gradientTransform="matrix(-1.0538 -0.1357 -0.1277 0.9918 5968.6904 392.0479)">
					<stop  offset="0" style="stop-color:#33327A"/>
					<stop  offset="1" style="stop-color:#5E679F"/>
				</linearGradient>
				<path fill="url(#SVGID_23_)" d="M404.786,364.034c-1.508,0.586-3.208,1.403-3.497,2.92c-0.244,1.273,0.7,2.561,1.915,3.186
					c1.216,0.625,2.646,0.725,4.021,0.747c4.974,0.086,9.903-0.641,14.804-1.366c0.753-0.111,1.521-0.227,2.186-0.571
					c1.281-0.661,1.955-2.072,2.057-3.451c0.103-1.38-0.278-2.753-0.656-4.096c-0.123-0.436-0.265-0.901-0.631-1.19
					c-2.156-1.693-7.439-0.758-9.902-0.044C411.578,361.183,408.164,362.717,404.786,364.034z"/>
				
					<linearGradient id="SVGID_24_" gradientUnits="userSpaceOnUse" x1="5358.5591" y1="365.5479" x2="5380.9448" y2="371.4619" gradientTransform="matrix(-1 0 0 1 5821.6572 0)">
					<stop  offset="0" style="stop-color:#33327A"/>
					<stop  offset="1" style="stop-color:#5E679F"/>
				</linearGradient>
				<path fill="url(#SVGID_24_)" d="M455.513,365.182c-1.336,0.774-2.825,1.803-2.912,3.343c-0.074,1.295,0.96,2.452,2.171,2.916
					c1.208,0.464,2.556,0.381,3.842,0.228c4.651-0.55,9.167-1.902,13.654-3.247c0.69-0.205,1.394-0.42,1.971-0.846
					c1.116-0.818,1.575-2.305,1.506-3.685c-0.072-1.382-0.591-2.696-1.106-3.979c-0.165-0.416-0.353-0.86-0.732-1.1
					c-2.216-1.405-7.033,0.198-9.248,1.22C461.51,361.486,458.509,363.444,455.513,365.182z"/>
				<linearGradient id="SVGID_25_" gradientUnits="userSpaceOnUse" x1="441.0952" y1="297.79" x2="475.0386" y2="297.79">
					<stop  offset="0" style="stop-color:#34346D"/>
					<stop  offset="1" style="stop-color:#5F3D8B"/>
				</linearGradient>
				<path fill="url(#SVGID_25_)" d="M441.884,234.047c0,0-7.104,75.781,21.313,127.881l11.841-2.369c0,0-11.052-74.202-0.79-125.906
					L441.884,234.047z"/>
				
					<linearGradient id="SVGID_26_" gradientUnits="userSpaceOnUse" x1="186.2837" y1="850.8994" x2="220.2275" y2="850.8994" gradientTransform="matrix(0.9774 0.2112 -0.2112 0.9774 403.5931 -576.4109)">
					<stop  offset="0" style="stop-color:#34346D"/>
					<stop  offset="1" style="stop-color:#5F3D8B"/>
				</linearGradient>
				<path fill="url(#SVGID_26_)" d="M420.192,232.462c0,0-22.951,72.57-6.178,129.497l12.073,0.187c0,0,4.871-74.862,25.821-123.233
					L420.192,232.462z"/>
			</g>
			<g>
				<linearGradient id="SVGID_27_" gradientUnits="userSpaceOnUse" x1="445.0308" y1="204.748" x2="447.6497" y2="305.5757">
					<stop  offset="0" style="stop-color:#A03E6C"/>
					<stop  offset="1" style="stop-color:#5A4096"/>
				</linearGradient>
				<path fill="url(#SVGID_27_)" d="M475.751,249.423c0,0-15.729,8.649-60.664,0c-0.674-0.135-0.74-12.11-0.786-12.92
					c-0.404-10.065-0.426-20.152,0.046-30.196c0.562-11.324,1.661-22.736,4.492-33.768c2.158-8.335,5.371-17.996,12.604-23.591
					c1.08-0.831,2.247-1.528,3.461-2.067c1.55-0.741,3.189-1.236,4.875-1.55c3.572-0.629,7.369-0.427,10.964,0.472
					c3.64,0.899,7.079,2.494,9.886,4.561c11.952,8.853,12.223,25.164,13.661,38.307C476.471,208.71,478.716,229.337,475.751,249.423
					z"/>
				<g>
					<linearGradient id="SVGID_28_" gradientUnits="userSpaceOnUse" x1="371.563" y1="175.9976" x2="388.6016" y2="196.9681">
						<stop  offset="0" style="stop-color:#DD9373"/>
						<stop  offset="1" style="stop-color:#EED0BD"/>
					</linearGradient>
					<path fill="url(#SVGID_28_)" d="M382.511,179.928c-0.901-1.025-1.944-1.808-2.618-0.761c-0.225,0.35-0.168,0.806-0.079,1.212
						c0.271,1.202,0.772,2.353,1.471,3.368c-0.12-0.176-1.012-0.383-1.246-0.51c-0.437-0.24-0.846-0.525-1.263-0.791
						c-0.849-0.54-1.762-0.974-2.777-1.075c-2.551-0.252-3.741,1.864-4.158,4.04c-0.172,0.888-0.276,1.829,0.032,2.681
						c0.585,1.604,2.328,2.417,3.601,3.392c2.209,1.687,4.608,3.123,7.141,4.273c1.39,0.633,2.852,1.184,4.377,1.273
						c0.244,0.013,0.5,0.013,0.72-0.091c0.213-0.101,0.369-0.289,0.517-0.474c1.65-2.096,2.797-4.583,3.318-7.2
						c0.039-0.203,0.076-0.419,0.007-0.614c-0.083-0.234-0.301-0.391-0.506-0.533c-1.519-1.056-3.204-1.996-4.431-3.391
						c-0.803-0.912-1.654-1.783-2.463-2.688C383.867,181.721,383.235,180.747,382.511,179.928z"/>
					<linearGradient id="SVGID_29_" gradientUnits="userSpaceOnUse" x1="402.8979" y1="218.7354" x2="495.6286" y2="89.8727">
						<stop  offset="0" style="stop-color:#A03E6C"/>
						<stop  offset="1" style="stop-color:#5A4096"/>
					</linearGradient>
					<path fill="url(#SVGID_29_)" d="M448.92,160.18c-4.923,12.559-9.846,25.115-14.769,37.673
						c-15.671-4.043-31.344-8.088-47.018-12.13c-1.606,3.777-2.933,7.675-3.961,11.65c19.212,8.473,39.763,13.909,60.652,16.042
						c0.846,0.088,1.767,0.15,2.477-0.316c0.607-0.398,0.928-1.102,1.215-1.769c5.871-13.608,10.765-27.638,14.631-41.944
						c1.284-4.755,2.84-11.074-1.535-14.57C455.029,150.354,450.985,154.918,448.92,160.18z"/>
				</g>
				<g>
					<linearGradient id="SVGID_30_" gradientUnits="userSpaceOnUse" x1="444.1128" y1="134.9204" x2="439.4789" y2="160.6174">
						<stop  offset="0" style="stop-color:#DD9373"/>
						<stop  offset="1" style="stop-color:#EED0BD"/>
					</linearGradient>
					<path fill="url(#SVGID_30_)" d="M446.682,145.132v-13.885h-10.5v15.132c-0.426,0.165-0.861,0.302-1.277,0.501
						c-0.629,2.674,0.201,6.291,1.796,7.617c1.417,1.191,3.528,1.258,5.237,0.584c1.707-0.674,3.1-1.978,4.357-3.325
						c1.685-1.842,3.167-3.82,4.448-5.954C449.411,145.469,448.049,145.266,446.682,145.132z"/>
					<g>
						<linearGradient id="SVGID_31_" gradientUnits="userSpaceOnUse" x1="449.4409" y1="121.5571" x2="472.3366" y2="93.5574">
							<stop  offset="0" style="stop-color:#33327A"/>
							<stop  offset="1" style="stop-color:#5E679F"/>
						</linearGradient>
						<path fill="url(#SVGID_31_)" d="M466.275,94.292c3.457,3.708,4.935,8.91,5.143,13.977c0.346,8.395-2.604,16.881-8.077,23.254
							c-3.26,3.793-7.698,6.963-12.694,7.174c-0.829,0.035-1.741-0.046-2.334-0.626c-0.53-0.52-0.669-1.31-0.768-2.046
							c-0.717-5.371-0.721-10.812-0.597-16.229c0.091-3.966,0.25-7.931,0.478-11.892c0.309-5.392,0.763-12.441,4.746-16.611
							C455.813,87.482,463.415,91.225,466.275,94.292z"/>
						
							<linearGradient id="SVGID_32_" gradientUnits="userSpaceOnUse" x1="815.8218" y1="236.958" x2="842.3527" y2="231.893" gradientTransform="matrix(0.9979 0.0646 -0.0646 0.9979 -342.0601 -166.5544)">
							<stop  offset="0" style="stop-color:#DD9373"/>
							<stop  offset="1" style="stop-color:#EED0BD"/>
						</linearGradient>
						<path fill="url(#SVGID_32_)" d="M463.583,118.179c2.029,2.838,1.416,7.148-1.157,9.502c-2.575,2.355-6.714,2.656-9.747,0.932
							c-0.237-0.134-0.479-0.292-0.604-0.533c-0.105-0.205-0.115-0.444-0.122-0.673c-0.079-2.927-0.888-8.927,1.816-10.957
							C456.51,114.391,461.708,115.56,463.583,118.179z"/>
						
							<linearGradient id="SVGID_33_" gradientUnits="userSpaceOnUse" x1="798.7954" y1="220.7549" x2="798.2532" y2="268.2888" gradientTransform="matrix(0.9979 0.0646 -0.0646 0.9979 -342.0601 -166.5544)">
							<stop  offset="0" style="stop-color:#DD9373"/>
							<stop  offset="1" style="stop-color:#EED0BD"/>
						</linearGradient>
						<path fill="url(#SVGID_33_)" d="M437.205,93.083c-5.004,0.732-9.558,3.102-12.423,7.975
							c-1.962,3.334-2.619,7.261-3.052,11.106c-0.835,7.417-0.918,15.2,2.101,22.027c0.987,2.233,2.327,4.365,4.232,5.891
							c2.775,2.222,6.479,2.953,10.033,2.975c11.558,0.073,17.394-8.734,19.393-19.274c1.278-6.74,2.287-16.425-0.079-23.012
							C454.59,92.922,444.301,92.043,437.205,93.083z"/>
						
							<linearGradient id="SVGID_34_" gradientUnits="userSpaceOnUse" x1="398.646" y1="161.1489" x2="436.2297" y2="147.2524" gradientTransform="matrix(0.9997 0.024 -0.024 0.9997 35.848 -69.0392)">
							<stop  offset="0" style="stop-color:#33327A"/>
							<stop  offset="1" style="stop-color:#5E679F"/>
						</linearGradient>
						<path fill="url(#SVGID_34_)" d="M448.158,109.262c-2.08,0.748-4.342,1.22-6.501,0.741c-1.466-0.325-2.995-1.34-3.079-2.837
							c-1.839,1.443-3.797,2.939-6.113,3.251c-2.317,0.311-5.035-1.078-5.288-3.402c-2.507,2.585-6.75,3.281-9.953,1.633
							c-5.012-2.581-6.339-10.189-1.631-13.75c2.051-1.552,4.65-1.903,7.039-2.661c2.705-0.859,4.747-2.699,7.304-3.86
							c2.88-1.308,5.96-2.381,9.059-3.011c5.109-1.039,10.56-0.815,15.36,1.221c2.675,1.134,5.198,2.909,6.565,5.472
							C465.047,99.8,454.276,107.064,448.158,109.262z"/>
						<g>
							<g>
								<g>
									<g>
										<path fill="#1D1C55" d="M428.258,117.631c-1.879-0.121-2.07,2.778-0.188,2.899
											C429.949,120.651,430.14,117.752,428.258,117.631z"/>
										<path fill="#1D1C55" d="M442.931,118.549c-1.911-0.123-2.106,2.825-0.191,2.948
											C444.652,121.621,444.846,118.672,442.931,118.549z"/>
									</g>
									<path fill="#1D1C55" d="M438.833,130.377c-1.073,0.526-2.274,0.842-3.612,0.673c-1.132-0.144-1.895-0.649-2.859-1.03
										c-0.221-0.087-0.56,0.061-0.46,0.245c1.117,2.09,5.519,1.897,7.546,0.66C439.871,130.665,439.306,130.146,438.833,130.377z
										"/>
								</g>
								<path fill="#1D1C55" d="M436.839,126.744c-0.849,0.025-1.664-0.042-2.494-0.184c0.486-2.358,0.909-4.722,1.361-7.085
									c0.057-0.285-0.369-0.41-0.438-0.122c-0.611,2.479-1.258,4.942-1.823,7.434c-0.049,0.216,0.063,0.463,0.294,0.518
									c1.034,0.249,2.037,0.344,3.101,0.314C437.403,127.604,437.404,126.728,436.839,126.744z"/>
							</g>
							<path fill="#1D1C55" d="M429.387,114.362c-1.43,0-2.883-0.072-4.306,0.086c-0.957,0.106-0.957,1.381,0,1.487
								c1.423,0.16,2.876,0.086,4.306,0.086C430.456,116.021,430.458,114.362,429.387,114.362z"/>
							<path fill="#1D1C55" d="M445.721,114.362c-1.43,0-2.884-0.072-4.309,0.086c-0.954,0.106-0.956,1.381,0,1.487
								c1.425,0.16,2.879,0.086,4.309,0.086C446.788,116.021,446.792,114.362,445.721,114.362z"/>
						</g>
					</g>
				</g>
			</g>
		</g>
	</g>
	<g>
		
			<linearGradient id="SVGID_35_" gradientUnits="userSpaceOnUse" x1="543.646" y1="-570.3799" x2="689.397" y2="-570.3799" gradientTransform="matrix(0.9367 -0.35 0.35 0.9367 -294.2191 1037.3623)">
			<stop  offset="0" style="stop-color:#A03E6C"/>
			<stop  offset="1" style="stop-color:#5A4096"/>
		</linearGradient>
		<path fill="url(#SVGID_35_)" d="M8.462,293.681c-1.321-4.315-2.388-8.939-1.22-13.298c1.168-4.36,5.276-8.236,9.75-7.648
			c2.494,0.328,4.621,1.916,6.555,3.526c11.693,9.729,21.028,22.271,26.994,36.262c-9.752-23.265-19.663-47.268-19.909-72.493
			c-0.028-2.936,0.23-6.224,2.423-8.175c2.523-2.245,6.667-1.618,9.303,0.493c2.635,2.111,4.112,5.313,5.45,8.413
			c6.669,15.442,12.167,31.393,16.431,47.663c1.069-22.465,10.507-44.436,26.065-60.676c3.597-3.754,8.951-7.452,13.585-5.096
			c4.514,2.293,4.826,8.543,4.257,13.573c-2.123,18.793-7.817,37.176-16.689,53.876c16.874-12.587,35.488-25.761,56.534-25.272
			c1.93,0.045,4.055,0.296,5.364,1.716c2.188,2.37,0.745,6.181-0.921,8.942c-11.233,18.639-28.799,33.38-49.103,41.207
			c14.374-6.044,30.351-8.225,45.819-6.254c4.123,0.525,8.954,1.975,10.13,5.962c1.11,3.768-1.757,7.47-4.572,10.211
			c-23.615,22.997-59.013,32.671-91.501,28.871C35.242,352.212,15.813,317.675,8.462,293.681z"/>
		
			<linearGradient id="SVGID_36_" gradientUnits="userSpaceOnUse" x1="348.8765" y1="-323.1523" x2="482.0112" y2="-323.1523" gradientTransform="matrix(0.9661 -0.2582 0.2582 0.9661 -253.2029 746.2116)">
			<stop  offset="0" style="stop-color:#34346D"/>
			<stop  offset="1" style="stop-color:#5F3D8B"/>
		</linearGradient>
		<path fill="url(#SVGID_36_)" d="M3.165,346.863c-1.522-1.291-3.108-2.871-3.163-4.865c-0.113-4.149,5.688-5.286,9.8-4.719
			c12.965,1.79,25.544,6.333,36.661,13.244c-10.066-12.716-20.392-25.941-24.383-41.661c-0.575-2.267-0.878-5.027,0.838-6.615
			c2.5-2.314,6.457-0.007,8.939,2.328c11.688,10.996,21.934,23.523,30.393,37.162c-5.308-17.442-4.017-36.809,3.561-53.391
			c1.525-3.338,3.989-7.012,7.658-7.034c4.907-0.033,7.08,6.136,7.472,11.027c1.14,14.227-0.871,28.495-2.877,42.625
			c4.658-11.028,13.59-20.188,24.498-25.12c3.167-1.433,6.634-2.536,10.08-2.073c3.445,0.462,6.822,2.851,7.499,6.262
			c0.743,3.739-1.783,7.282-4.286,10.156c-5.927,6.805-12.575,12.981-19.798,18.39c10.161-5.19,21.554-7.949,32.964-7.98
			c2.449-0.009,5.194,0.242,6.797,2.095c1.813,2.095,1.293,5.481-0.438,7.646c-9.525,11.909-29.921,14.51-43.863,17.692
			C60.435,369.127,28.518,368.357,3.165,346.863z"/>
	</g>
</g>
</svg>
