<svg xmlns="http://www.w3.org/2000/svg" width="128.469" height="136.947" viewBox="0 0 128.469 136.947">
  <path id="floating-island-factory" d="M46.948,0a24.015,24.015,0,0,0-11.74,3.043,2.14,2.14,0,0,0,2.081,3.741,19.579,19.579,0,0,1,9.658-2.5c11.888,0,19.885,7.932,19.885,7.932a2.14,2.14,0,0,0,3.026,0,13.377,13.377,0,0,1,18.372,0,2.14,2.14,0,1,0,3.026-3.026A18.518,18.518,0,0,0,79.045,4.28a16.086,16.086,0,0,0-10.7,3.8A31.635,31.635,0,0,0,46.948,0ZM29.888,7.9a2.14,2.14,0,0,0-1.651.731,22.741,22.741,0,0,0-2.382,3.105,2.14,2.14,0,1,0,3.669,2.2,17.588,17.588,0,0,1,1.9-2.441A2.14,2.14,0,0,0,29.888,7.9Zm40.6,8.969c-3.951,0-6.666,2.115-8.806,3.782s-3.7,2.884-6.173,2.884a9.435,9.435,0,0,1-3.5-.61,2.14,2.14,0,1,0-1.563,3.983,13.823,13.823,0,0,0,5.061.907c3.951,0,6.666-2.12,8.806-3.786s3.7-2.88,6.173-2.88c3.484,0,4.827,1.676,4.827,1.676A2.14,2.14,0,1,0,78.5,19.969,11.625,11.625,0,0,0,70.486,16.872ZM14.708,17.1a2.14,2.14,0,0,0-1.571,3.444s6.992,9.416,18.832,9.416a22.942,22.942,0,0,0,11.786-3,2.14,2.14,0,1,0-2.174-3.687,18.474,18.474,0,0,1-9.612,2.412c-9.558,0-15.405-7.7-15.405-7.7A2.14,2.14,0,0,0,14.708,17.1Zm70.756.021a2.14,2.14,0,0,0-2.136,1.994L82.138,36.377H31.969a2.14,2.14,0,0,0-1.835,1.041l-6.419,10.7a2.14,2.14,0,0,0,1.835,3.239h2.14v6.821a6.282,6.282,0,0,0-2.14-.4c-2.776,0-4.735,2.016-5.621,4.505-.284-.04-.5-.226-.8-.226a6.452,6.452,0,0,0-6.419,6.419,6.207,6.207,0,0,0,1.271,3.594,7.2,7.2,0,0,0-1.271,3.9,7.361,7.361,0,0,0,.761,3.21H4.151a2.14,2.14,0,0,0-2.14,2.14v8.238a2.14,2.14,0,0,0,.731,1.931L36.98,121.439a2.14,2.14,0,0,0,1.839.489l9.09-1.872,3.544,7.092a2.14,2.14,0,0,0,.723.819l12.839,8.618a2.14,2.14,0,0,0,2.29.059L88.7,123.8a2.14,2.14,0,0,0,.815-.878L93.2,115.55h9.378a2.14,2.14,0,0,0,1.446-.564l25.678-23.538a2.14,2.14,0,0,0,.694-2.127V81.313a2.14,2.14,0,0,0-2.14-2.14h-13.24a6.282,6.282,0,0,0,.4-2.14c0-.3-.185-.514-.226-.8,2.489-.886,4.505-2.845,4.505-5.621s-2.016-4.735-4.505-5.621c.04-.284.226-.5.226-.8A6.452,6.452,0,0,0,109,57.775c-.3,0-.514.185-.8.226-.886-2.489-2.845-4.505-5.621-4.505-.255,0-.457.163-.706.192L98.291,19.037a2.14,2.14,0,0,0-2.127-1.918Zm2,4.28h6.771L98,57.775H87.6V51.356h2.14a2.14,2.14,0,0,0,1.835-3.239l-5.345-8.91ZM33.181,40.657H82.113l3.853,6.419H29.328Zm-1.212,10.7H83.325V79.173H31.969Zm70.614,6.419a2.106,2.106,0,0,1,2.14,2.14s-.006.091-.038.3a2.14,2.14,0,0,0,3.218,2.165,2.117,2.117,0,0,1,2.917,2.917,2.14,2.14,0,0,0,2.165,3.218c.205-.032.292-.038.3-.038a2.14,2.14,0,0,1,0,4.28s-.091-.006-.3-.038a2.14,2.14,0,0,0-2.165,3.218A2.117,2.117,0,0,1,109,79.173h-4.489L102.307,57.85C102.4,57.837,102.48,57.775,102.583,57.775Zm-77.034,4.28a2.106,2.106,0,0,1,2.14,2.14V79.173H20.2a3.176,3.176,0,0,1-3.21-3.21,3.132,3.132,0,0,1,1.1-2.386,2.14,2.14,0,0,0-.184-3.356,2.135,2.135,0,0,1,1.225-3.887,2.087,2.087,0,0,1,1.1.322,2.14,2.14,0,0,0,3.218-2.165c-.032-.205-.038-.292-.038-.3A2.106,2.106,0,0,1,25.549,62.055Zm62.055,0H98.441l.443,4.28H87.6Zm0,8.559H99.327l.886,8.559H87.6ZM6.291,83.453h119.83v4.28H109a2.14,2.14,0,1,0,0,4.28h13.758l-11.619,10.649V98.432a2.14,2.14,0,0,0-4.28,0v4.28a2.123,2.123,0,0,0,1.935,2.1l-7.046,6.461H91.884a2.14,2.14,0,0,0-1.914,1.183l-4,8-19.7,11.819L55.03,124.728,51,116.675a2.14,2.14,0,0,0-2.345-1.141L39,117.519,24.291,104.651a2.138,2.138,0,0,0,1.258-1.939v-4.28a2.14,2.14,0,0,0-4.28,0v3.578l-11.426-10H87.6a2.14,2.14,0,1,0,0-4.28H6.291Zm89.873,4.28a2.14,2.14,0,0,0,0,4.28h4.28a2.14,2.14,0,1,0,0-4.28ZM34.109,96.292a2.143,2.143,0,0,0-2.14,2.14v4.28a2.14,2.14,0,1,0,4.28,0v-4.28A2.143,2.143,0,0,0,34.109,96.292Zm10.7,0a2.143,2.143,0,0,0-2.14,2.14v4.28a2.14,2.14,0,1,0,4.28,0v-4.28A2.143,2.143,0,0,0,44.808,96.292Zm10.7,0a2.143,2.143,0,0,0-2.14,2.14v4.28a2.14,2.14,0,1,0,4.28,0v-4.28A2.143,2.143,0,0,0,55.507,96.292Zm10.7,0a2.143,2.143,0,0,0-2.14,2.14v4.28a2.14,2.14,0,1,0,4.28,0v-4.28A2.143,2.143,0,0,0,66.206,96.292Zm10.7,0a2.143,2.143,0,0,0-2.14,2.14v4.28a2.14,2.14,0,1,0,4.28,0v-4.28A2.143,2.143,0,0,0,76.905,96.292Zm10.7,0a2.143,2.143,0,0,0-2.14,2.14v4.28a2.14,2.14,0,1,0,4.28,0v-4.28A2.143,2.143,0,0,0,87.6,96.292Zm10.7,0a2.143,2.143,0,0,0-2.14,2.14v4.28a2.14,2.14,0,1,0,4.28,0v-4.28A2.143,2.143,0,0,0,98.3,96.292Z" transform="translate(-1.99)"/>
</svg>
