<svg xmlns="http://www.w3.org/2000/svg" width="164.811" height="164.817" viewBox="0 0 164.811 164.817">
  <path id="good-quality--v1" d="M83.319.914A8.117,8.117,0,0,0,78.14,2.733L65.6,12.886a2.7,2.7,0,0,1-2.15.578L47.5,10.928a8.269,8.269,0,0,0-8.955,5.178L32.756,31.181a2.714,2.714,0,0,1-1.573,1.573L16.108,38.542A8.269,8.269,0,0,0,10.93,47.5l2.536,15.952a2.75,2.75,0,0,1-.578,2.15L2.735,78.139a8.256,8.256,0,0,0,0,10.346l10.153,12.55a2.688,2.688,0,0,1,.578,2.15L10.93,119.137a8.269,8.269,0,0,0,5.178,8.955l15.075,5.777a2.762,2.762,0,0,1,1.573,1.583l5.788,15.064A8.251,8.251,0,0,0,47.5,155.7l15.952-2.525a2.75,2.75,0,0,1,2.15.578L78.14,163.9a8.228,8.228,0,0,0,10.346,0l12.55-10.153a2.746,2.746,0,0,1,2.15-.588l15.952,2.536a8.263,8.263,0,0,0,8.955-5.178l5.777-15.075a2.793,2.793,0,0,1,1.583-1.573l15.064-5.777a8.256,8.256,0,0,0,5.178-8.955l-2.525-15.952a2.75,2.75,0,0,1,.578-2.15L163.9,88.5a8.271,8.271,0,0,0,0-10.357L153.75,65.6a2.7,2.7,0,0,1-.578-2.15L155.7,47.5a8.256,8.256,0,0,0-5.178-8.955l-15.064-5.788a2.714,2.714,0,0,1-1.573-1.573l-5.788-15.075a8.281,8.281,0,0,0-8.955-5.178l-15.952,2.536a2.75,2.75,0,0,1-2.15-.578L88.5,2.733A8.2,8.2,0,0,0,83.319.914Zm0,5.467a2.713,2.713,0,0,1,1.723.61l12.55,10.164a8.259,8.259,0,0,0,6.451,1.733l15.952-2.536a2.754,2.754,0,0,1,2.985,1.723l5.788,15.075a8.172,8.172,0,0,0,4.718,4.718l15.075,5.788a2.747,2.747,0,0,1,1.723,2.985l-2.525,15.952a8.252,8.252,0,0,0,1.723,6.451l10.164,12.55a2.738,2.738,0,0,1,0,3.445l-10.164,12.55a8.252,8.252,0,0,0-1.723,6.451l2.525,15.952a2.747,2.747,0,0,1-1.723,2.985l-15.075,5.788a8.172,8.172,0,0,0-4.718,4.718l-5.788,15.075a2.747,2.747,0,0,1-2.985,1.723l-15.952-2.525a8.252,8.252,0,0,0-6.451,1.723l-12.55,10.164a2.738,2.738,0,0,1-3.445,0l-12.55-10.164a8.245,8.245,0,0,0-5.178-1.829,7.217,7.217,0,0,0-1.273.107l-15.952,2.525a2.754,2.754,0,0,1-2.985-1.723l-5.061-13.2h.717a13.6,13.6,0,0,0,10.506-5.028,2.75,2.75,0,0,0,.984.492,33.51,33.51,0,0,0,7.735.824c.588,0,1.145-.011,1.637-.043l45.1-2.825a9,9,0,0,0,6.248-14.871,9.711,9.711,0,0,0,3.937-7.789v-1.252a9.6,9.6,0,0,0-2.054-5.938,10.254,10.254,0,0,0,1.926-16.894,10.264,10.264,0,0,0,3.595-7.821v-.567a9.537,9.537,0,0,0-9.672-9.5H76.332L80.922,45.6A13.158,13.158,0,0,0,68.169,29.266h-.556a2.735,2.735,0,0,0-2.493,1.616L48.451,67.536a13.43,13.43,0,0,0-9.137-3.392H18.954a10.689,10.689,0,0,0-.075-1.551L16.354,46.641a2.747,2.747,0,0,1,1.723-2.985l15.075-5.788A8.172,8.172,0,0,0,37.87,33.15l5.788-15.075a2.767,2.767,0,0,1,2.985-1.723l15.952,2.525a8.241,8.241,0,0,0,6.451-1.723L81.6,6.991A2.735,2.735,0,0,1,83.319,6.381ZM97.11,27.694a2.736,2.736,0,0,0-2.257,2l-1.423,5.3a2.742,2.742,0,0,0,5.3,1.423l1.412-5.3a2.723,2.723,0,0,0-1.926-3.349A2.592,2.592,0,0,0,97.11,27.694Zm13.941,5.467a2.718,2.718,0,0,0-2.707,1.348l-2.739,4.74a2.732,2.732,0,1,0,4.729,2.739l2.739-4.74a2.734,2.734,0,0,0-1-3.745A2.652,2.652,0,0,0,111.05,33.161ZM69.335,34.83a7.674,7.674,0,0,1,6.27,9.447L70.683,63.963H67.613a2.739,2.739,0,1,0,0,5.478h41.64a4.2,4.2,0,0,1,4.194,4.2v.567a4.75,4.75,0,0,1-3.98,4.708l-4.14.685a2.742,2.742,0,0,0,.46,5.446h2.9a4.773,4.773,0,0,1,.781,9.479l-4.14.7a2.736,2.736,0,0,0,.46,5.435,4.2,4.2,0,0,1,4.194,4.194v1.262a4.222,4.222,0,0,1-3.381,4.119l-3.092.61a2.739,2.739,0,0,0,.535,5.424h.674a3.549,3.549,0,0,1,2.493,1.027,3.488,3.488,0,0,1,1.038,2.493,3.533,3.533,0,0,1-3.306,3.52l-45.107,2.814a29.666,29.666,0,0,1-7.457-.567,13.8,13.8,0,0,0,.631-3.894v-44a13.635,13.635,0,0,0-1.081-5.339,2.689,2.689,0,0,0,.835-1.016Zm52.713,7.018a2.671,2.671,0,0,0-1.926.8l-3.884,3.862a2.751,2.751,0,0,0,0,3.884,2.777,2.777,0,0,0,3.884,0l3.862-3.884a2.706,2.706,0,0,0,0-3.862A2.677,2.677,0,0,0,122.049,41.848Zm8.377,11.362a2.661,2.661,0,0,0-1.038.353l-4.74,2.739a2.734,2.734,0,0,0,1.369,5.1,2.67,2.67,0,0,0,1.369-.374l4.74-2.739a2.734,2.734,0,0,0-1.7-5.082Zm6.184,13.2a2.665,2.665,0,0,0-1.081.086l-5.3,1.412a2.744,2.744,0,0,0,.706,5.392,2.674,2.674,0,0,0,.706-.1l5.3-1.423a2.747,2.747,0,0,0-.332-5.371ZM16.964,69.28a2.394,2.394,0,0,0,.728.16H39.325a8.226,8.226,0,0,1,8.217,8.217v44a8.233,8.233,0,0,1-8.217,8.217H35.559a2.319,2.319,0,0,0-.374.075,7.734,7.734,0,0,0-2.033-1.188l-15.075-5.788a2.761,2.761,0,0,1-1.723-2.985l2.536-15.952a8.272,8.272,0,0,0-1.733-6.462L6.993,85.04a2.738,2.738,0,0,1,0-3.445Zm115.655,11.3a2.739,2.739,0,1,0,0,5.478H138.1a2.739,2.739,0,1,0,0-5.478Z" transform="translate(-0.913 -0.914)"/>
</svg>
