<?xml version="1.0" encoding="utf-8"?>
<!-- Generator: Adobe Illustrator 16.0.2, SVG Export Plug-In . SVG Version: 6.00 Build 0)  -->
<!DOCTYPE svg PUBLIC "-//W3C//DTD SVG 1.1//EN" "http://www.w3.org/Graphics/SVG/1.1/DTD/svg11.dtd">
<svg version="1.1" xmlns="http://www.w3.org/2000/svg" xmlns:xlink="http://www.w3.org/1999/xlink" x="0px" y="0px"
	 width="142.514px" height="159.043px" viewBox="0 0 142.514 159.043" enable-background="new 0 0 142.514 159.043"
	 xml:space="preserve">
<g id="Layer_1" display="none">
	<path id="support" display="inline" d="M64.246,2.6C27.794,2.6,2.33,24.347,2.33,55.483c0.12,17.786,4.379,35.3,12.441,51.157
		c1.396,2.789,1.957,5.924,1.616,9.023l-3.561,32.817c-0.214,2.042,0.467,4.076,1.867,5.578c1.43,1.529,3.432,2.392,5.525,2.384
		H85.84c2.123,0.005,4.148-0.89,5.578-2.46c1.406-1.54,2.059-3.623,1.779-5.69l-1.312-9.689l13.341,1.445h0.01l7.178,0.774
		c3.484,0.381,6.97-0.699,9.626-2.985c2.606-2.249,4.11-5.517,4.121-8.958v-21.813c0.013-1.244,0.967-2.276,2.206-2.385l7.401-0.809
		c1.477-0.146,2.811-0.948,3.628-2.188c0.811-1.209,1.007-2.729,0.532-4.104L126.51,58.489c-0.229-0.679-0.353-1.39-0.365-2.106
		C125.35,25.22,99.316,2.6,64.246,2.6z M66.703,7.501c1.683,0.056,3.346,0.16,4.972,0.329v44.683
		c-6.376-2.455-13.437-2.455-19.813,0V8.291c1.625-0.235,3.299-0.441,5.021-0.58c0.155,1.208,1.19,2.111,2.408,2.103h4.954
		C65.553,9.829,66.64,8.808,66.703,7.501L66.703,7.501z M76.629,8.501c25.827,4.563,43.932,23.343,44.561,48.001
		c0.024,1.195,0.23,2.379,0.609,3.512l13.429,39.079l-7.401,0.799c-3.714,0.348-6.569,3.442-6.617,7.174v21.812
		c-0.006,2.065-0.909,4.025-2.476,5.371c-1.592,1.371-3.678,2.023-5.767,1.804L86.15,133.16l-6.771-0.732
		c-1.335-0.152-2.547,0.792-2.728,2.124c-0.138,1.327,0.828,2.516,2.157,2.652c0.01,0.001,0.02,0.003,0.029,0.003l7.972,0.854
		l1.489,10.864c0.098,0.69-0.123,1.388-0.6,1.896c-0.473,0.525-1.149,0.824-1.857,0.817H20.219
		c-0.696,0.005-1.362-0.281-1.838-0.788c-0.474-0.501-0.703-1.186-0.629-1.868l3.562-32.809c0.439-4-0.29-8.04-2.1-11.635
		c-7.724-15.207-11.807-32-11.929-49.056c0-20.075,12.402-40.292,39.626-46.292v45.795c-7.656,4.76-12.332,13.118-12.381,22.132
		c0,14.583,12.219,26.443,27.243,26.443c1.832-0.002,3.659-0.18,5.457-0.535l2.563,7.475c1.604,4.49,5.646,7.661,10.39,8.15
		l14.066,1.511c1.175,5.213,6.353,8.485,11.563,7.31c5.212-1.173,8.484-6.351,7.31-11.563c-1.174-5.212-6.351-8.484-11.563-7.309
		c-3.439,0.774-6.185,3.358-7.164,6.745l-13.661-1.475c-2.849-0.287-5.276-2.191-6.23-4.891l-2.533-7.361
		c13.502-4.976,20.415-19.956,15.438-33.459c-2.017-5.473-5.812-10.111-10.776-13.171L76.629,8.501z M59.292,17.023
		c-1.327-0.038-2.434,1.008-2.472,2.335c-0.038,1.328,1.008,2.434,2.336,2.472c0.045,0.001,0.091,0.001,0.136,0h4.954
		c1.327,0.038,2.434-1.008,2.472-2.335c0.038-1.328-1.008-2.434-2.336-2.472c-0.045-0.001-0.091-0.001-0.136,0H59.292z
		 M59.292,29.042c-1.327-0.038-2.434,1.008-2.472,2.335c-0.038,1.328,1.008,2.435,2.336,2.473c0.045,0.001,0.091,0.001,0.136,0
		h4.954c1.327,0.037,2.434-1.008,2.472-2.335c0.038-1.328-1.008-2.435-2.336-2.472c-0.045-0.002-0.091-0.002-0.136,0H59.292z
		 M59.292,41.06c-1.327-0.037-2.434,1.009-2.472,2.336c-0.038,1.328,1.008,2.435,2.336,2.472c0.045,0.001,0.091,0.001,0.136,0h4.954
		c1.327,0.038,2.434-1.008,2.472-2.336c0.038-1.327-1.008-2.434-2.336-2.472c-0.045,0-0.091,0-0.136,0H59.292z M61.769,55.482
		c12.296,0,22.29,9.709,22.29,21.635c0,11.926-9.992,21.633-22.289,21.633c-12.297,0-22.291-9.707-22.291-21.632
		C39.48,65.193,49.473,55.483,61.769,55.482L61.769,55.482z M61.769,65.098c-6.639,0.197-11.86,5.738-11.662,12.375
		c0.196,6.639,5.737,11.859,12.375,11.663c6.5-0.192,11.668-5.518,11.668-12.02c-0.109-6.734-5.647-12.108-12.38-12.018
		L61.769,65.098z M61.769,69.905c3.982,0.118,7.115,3.443,6.997,7.426c-0.119,3.983-3.444,7.116-7.426,6.997
		c-3.9-0.116-7.001-3.311-7.001-7.212c0.07-4.04,3.392-7.262,7.432-7.21L61.769,69.905z M103.871,113.174
		c2.655,0.078,4.743,2.296,4.664,4.951c-0.08,2.654-2.296,4.741-4.952,4.663c-2.599-0.078-4.665-2.207-4.665-4.807
		C98.965,115.289,101.18,113.14,103.871,113.174L103.871,113.174z"/>
</g>
<g id="Layer_2" display="none">
	<g id="surface1" display="inline">
		<path d="M71,9.731C32.216,9.731,0.731,41.215,0.731,80c0,38.786,31.485,70.27,70.27,70.27c38.785,0,70.27-31.484,70.27-70.27
			C141.27,41.215,109.785,9.731,71,9.731z M71,13.989c36.484,0,66.011,29.531,66.011,66.011c0,36.485-29.526,66.011-66.011,66.011
			C34.52,146.011,4.99,116.485,4.99,80C4.99,43.52,34.52,13.989,71,13.989z M71,20.378c-1.174,0-2.129,0.955-2.129,2.129
			c0,1.174,0.956,2.129,2.129,2.129c1.175,0,2.13-0.955,2.13-2.129C73.13,21.333,72.175,20.378,71,20.378z M82.269,21.476
			c-1.035-0.024-1.934,0.699-2.143,1.721c-0.224,1.15,0.523,2.272,1.678,2.505c1.149,0.223,2.272-0.523,2.505-1.673
			c0.224-1.155-0.522-2.276-1.673-2.51C82.512,21.499,82.398,21.485,82.269,21.476z M59.797,21.485c-0.143,0-0.285,0.01-0.423,0.033
			c-1.16,0.233-1.906,1.355-1.673,2.51c0.109,0.551,0.433,1.041,0.908,1.359c0.465,0.305,1.036,0.423,1.597,0.314
			c1.155-0.233,1.901-1.345,1.668-2.505C61.675,22.208,60.81,21.495,59.797,21.485z M49.017,24.755
			c-0.285,0-0.566,0.047-0.832,0.157c-1.088,0.457-1.606,1.697-1.15,2.785c0.452,1.089,1.692,1.606,2.781,1.155
			c1.088-0.457,1.607-1.697,1.155-2.786C50.638,25.278,49.873,24.76,49.017,24.755z M93.049,24.755
			c-0.879-0.019-1.678,0.499-2.02,1.312c-0.447,1.088,0.066,2.329,1.155,2.786c1.093,0.451,2.329-0.066,2.78-1.155
			c0.457-1.088-0.057-2.329-1.15-2.785C93.577,24.813,93.311,24.76,93.049,24.755z M39.083,30.06c-0.432,0-0.855,0.124-1.212,0.366
			c-0.975,0.651-1.241,1.973-0.584,2.952c0.651,0.974,1.973,1.24,2.956,0.584c0.979-0.651,1.236-1.972,0.59-2.947
			C40.443,30.426,39.782,30.069,39.083,30.06z M102.974,30.06c-0.722-0.01-1.406,0.352-1.806,0.955
			c-0.656,0.975-0.39,2.296,0.584,2.947c0.979,0.656,2.306,0.39,2.952-0.584c0.318-0.466,0.433-1.046,0.323-1.597
			c-0.104-0.556-0.433-1.046-0.903-1.354C103.782,30.192,103.393,30.069,102.974,30.06z M60.353,35.283V49.69L50.69,69.353H39.06
			v4.259h14.283l11.269-22.924V39.542h0.557c1.697,0,3.693,1.35,5.3,3.793c1.606,2.438,2.662,5.798,2.662,8.807
			c0,0.233-0.114,1.55-0.314,3.038c-0.199,1.497-0.461,3.303-0.727,5.034c-0.533,3.474-1.056,6.664-1.056,6.664l-0.414,2.476h31.256
			c1.787,0,3.193,1.407,3.193,3.194s-1.406,3.194-3.193,3.194h-2.13l-0.355,4.226c0,0,0.998,0.191,1.943,0.742
			c0.951,0.557,1.606,1.122,1.606,2.485c0,1.831-1.389,3.195-3.194,3.195h-2.129l-0.348,4.226c0,0,0.989,0.185,1.935,0.741
			c0.951,0.556,1.607,1.121,1.607,2.485c0,1.787-1.407,3.194-3.194,3.194h-2.13l-0.199,4.249c0,0,0.941,0.11,1.839,0.608
			c0.899,0.49,1.555,0.975,1.555,2.595c0,1.787-1.407,3.194-3.194,3.194H58.224c-1.863,0-3.403-1.179-3.992-2.837l-0.5-1.422H39.06
			v4.259h12.229c1.497,2.42,3.893,4.26,6.935,4.26h37.264c4.093,0,7.453-3.361,7.453-7.454c0-1.829-0.709-3.217-1.597-4.349
			c2.182-1.297,3.726-3.584,3.726-6.298c0-1.82-0.755-3.175-1.687-4.292c2.238-1.288,3.816-3.604,3.816-6.355
			c0-1.819-0.756-3.175-1.688-4.292c2.239-1.288,3.816-3.607,3.816-6.354c0-4.093-3.359-7.453-7.452-7.453H75.625
			c0.199-1.245,0.332-2.029,0.675-4.235c0.267-1.754,0.542-3.574,0.741-5.124c0.2-1.545,0.348-2.695,0.348-3.594
			c0-3.959-1.274-7.966-3.361-11.146c-2.086-3.184-5.133-5.713-8.859-5.713H60.353z M30.376,37.213
			c-0.575,0-1.131,0.223-1.531,0.632c-0.832,0.822-0.832,2.182,0,3.004c0.822,0.832,2.182,0.832,3.004,0
			c0.832-0.822,0.832-2.182,0-3.004C31.459,37.446,30.932,37.222,30.376,37.213z M111.682,37.213c-0.571,0-1.132,0.223-1.531,0.632
			c-0.831,0.822-0.831,2.182,0,3.004c0.827,0.832,2.182,0.832,3.004,0c0.832-0.822,0.832-2.182,0-3.004
			C112.765,37.446,112.242,37.222,111.682,37.213z M118.83,45.93c-0.433-0.01-0.851,0.119-1.207,0.356
			c-0.975,0.651-1.241,1.973-0.585,2.947c0.65,0.979,1.973,1.245,2.946,0.59c0.979-0.656,1.245-1.973,0.591-2.952
			C120.185,46.287,119.529,45.93,118.83,45.93z M23.232,45.93c-0.722-0.015-1.406,0.342-1.806,0.941
			c-0.647,0.979-0.39,2.305,0.589,2.952c0.984,0.655,2.296,0.389,2.957-0.581c0.646-0.983,0.389-2.305-0.594-2.956
			C24.04,46.063,23.645,45.94,23.232,45.93z M124.135,55.869c-0.28-0.004-0.565,0.053-0.832,0.162
			c-1.088,0.447-1.606,1.697-1.155,2.776c0.456,1.088,1.697,1.606,2.785,1.155c1.088-0.447,1.606-1.697,1.155-2.785
			C125.755,56.396,124.99,55.869,124.135,55.869z M17.932,55.869c-0.879-0.014-1.678,0.499-2.011,1.316
			c-0.451,1.089,0.066,2.329,1.146,2.786c1.088,0.452,2.338-0.067,2.786-1.155c0.451-1.088-0.067-2.329-1.155-2.781
			C18.455,55.931,18.198,55.878,17.932,55.869z M127.395,66.658c-0.143-0.009-0.28,0.009-0.423,0.033
			c-1.149,0.233-1.896,1.354-1.673,2.505c0.233,1.155,1.354,1.906,2.505,1.678c1.155-0.233,1.905-1.355,1.678-2.51
			C129.281,67.376,128.412,66.658,127.395,66.658z M14.672,66.658c-1.041-0.024-1.939,0.689-2.144,1.707
			c-0.109,0.556,0,1.141,0.313,1.606c0.319,0.471,0.808,0.799,1.364,0.904c0.551,0.109,1.122-0.005,1.597-0.314
			c0.466-0.319,0.79-0.808,0.899-1.364c0.233-1.15-0.514-2.272-1.664-2.505C14.914,66.677,14.795,66.658,14.672,66.658z
			 M13.507,77.871c-1.174,0-2.129,0.956-2.129,2.129c0,1.175,0.955,2.13,2.129,2.13s2.129-0.955,2.129-2.13
			C15.636,78.826,14.681,77.871,13.507,77.871z M128.493,77.871c-1.174,0-2.13,0.956-2.13,2.129c0,1.175,0.956,2.13,2.13,2.13
			s2.129-0.955,2.129-2.13C130.622,78.826,129.667,77.871,128.493,77.871z M14.624,89.083c-0.142,0-0.285,0.02-0.427,0.043
			c-1.155,0.232-1.901,1.354-1.668,2.51c0.233,1.15,1.345,1.896,2.5,1.673c1.16-0.232,1.906-1.354,1.673-2.505
			C16.502,89.806,15.636,89.093,14.624,89.083z M127.448,89.083c-1.041-0.023-1.938,0.699-2.148,1.721
			c-0.224,1.15,0.523,2.272,1.673,2.505c1.155,0.224,2.277-0.522,2.51-1.673c0.228-1.154-0.522-2.277-1.678-2.51
			C127.686,89.108,127.572,89.093,127.448,89.083z M124.168,99.864c-0.88-0.015-1.678,0.509-2.021,1.321
			c-0.451,1.084,0.067,2.329,1.155,2.78c1.089,0.447,2.329-0.066,2.785-1.149c0.451-1.089-0.067-2.334-1.155-2.785
			C124.691,99.93,124.425,99.873,124.168,99.864z M17.899,99.873c-0.281,0-0.566,0.049-0.832,0.158
			c-0.514,0.218-0.932,0.631-1.146,1.154c-0.219,0.527-0.219,1.107-0.009,1.63c0.456,1.094,1.697,1.607,2.785,1.15
			c0.522-0.209,0.941-0.622,1.155-1.15c0.218-0.522,0.218-1.103,0-1.63C19.53,100.396,18.755,99.882,17.899,99.873z
			 M118.845,109.812c-0.723-0.015-1.407,0.343-1.807,0.941c-0.656,0.979-0.39,2.296,0.585,2.951
			c0.465,0.318,1.046,0.433,1.597,0.318c0.557-0.109,1.045-0.433,1.355-0.908c0.654-0.974,0.389-2.296-0.591-2.946
			C119.653,109.935,119.253,109.812,118.845,109.812z M23.222,109.812c-0.433-0.01-0.846,0.119-1.208,0.356
			c-0.969,0.66-1.236,1.973-0.589,2.956c0.655,0.97,1.982,1.235,2.961,0.58c0.974-0.646,1.24-1.973,0.585-2.951
			C24.577,110.168,23.921,109.821,23.222,109.812z M30.376,118.529c-0.575-0.009-1.131,0.219-1.531,0.622
			c-0.832,0.827-0.832,2.182,0,3.004c0.822,0.832,2.182,0.832,3.004,0c0.832-0.822,0.832-2.177,0-3.004
			C31.459,118.751,30.932,118.529,30.376,118.529z M111.682,118.529c-0.571-0.009-1.132,0.219-1.531,0.622
			c-0.831,0.827-0.831,2.182,0,3.004c0.827,0.832,2.182,0.832,3.004,0c0.832-0.822,0.832-2.177,0-3.004
			C112.765,118.751,112.242,118.529,111.682,118.529z M39.102,125.672c-0.722-0.014-1.407,0.343-1.806,0.941
			c-0.656,0.983-0.39,2.306,0.59,2.962c0.974,0.65,2.295,0.384,2.947-0.591c0.656-0.983,0.389-2.295-0.585-2.95
			C39.91,125.806,39.511,125.672,39.102,125.672z M102.965,125.672c-0.433-0.004-0.847,0.119-1.203,0.353
			c-0.476,0.313-0.799,0.808-0.908,1.364c-0.108,0.547,0.01,1.131,0.324,1.596c0.65,0.975,1.972,1.241,2.951,0.591
			c0.974-0.656,1.24-1.979,0.585-2.962C104.329,126.035,103.673,125.672,102.965,125.672z M49.051,130.982
			c-0.884-0.019-1.683,0.509-2.016,1.322c-0.446,1.083,0.067,2.328,1.15,2.779c1.088,0.447,2.338-0.066,2.786-1.149
			c0.452-1.089-0.067-2.34-1.155-2.786C49.573,131.048,49.317,130.992,49.051,130.982z M93.016,130.982
			c-0.28,0-0.565,0.057-0.822,0.166c-0.522,0.215-0.94,0.633-1.154,1.146c-0.219,0.527-0.219,1.117-0.01,1.641
			c0.456,1.083,1.697,1.597,2.785,1.149c0.528-0.219,0.941-0.632,1.159-1.149c0.215-0.523,0.215-1.113,0-1.63
			C94.647,131.505,93.876,130.992,93.016,130.982z M59.845,134.257c-1.036-0.024-1.944,0.698-2.144,1.715
			c-0.233,1.155,0.514,2.272,1.673,2.506c1.155,0.232,2.267-0.519,2.5-1.673c0.233-1.156-0.513-2.272-1.668-2.506
			C60.087,134.276,59.963,134.257,59.845,134.257z M82.222,134.266c-0.143-0.009-0.285,0.01-0.418,0.033
			c-1.154,0.233-1.901,1.35-1.678,2.506c0.114,0.556,0.442,1.04,0.907,1.354c0.471,0.319,1.046,0.434,1.603,0.324
			c0.551-0.114,1.041-0.438,1.359-0.904c0.304-0.475,0.423-1.051,0.313-1.606C84.11,134.984,83.234,134.266,82.222,134.266z
			 M71,135.365c-1.174,0-2.129,0.955-2.129,2.129s0.956,2.129,2.129,2.129c1.175,0,2.13-0.955,2.13-2.129S72.175,135.365,71,135.365
			z"/>
	</g>
</g>
<g id="Layer_3" display="none">
	<path id="password" display="inline" d="M69.152,1.391C41.947,1.421,19.9,23.469,19.869,50.674v12.968h-7.781
		c-4.294,0.008-7.773,3.489-7.782,7.783v77.816c0.009,4.294,3.487,7.772,7.782,7.782h119.317c4.295-0.01,7.773-3.488,7.781-7.782
		V71.425c-0.008-4.294-3.486-7.774-7.781-7.782h-7.783V50.675C123.592,23.47,101.544,1.422,74.339,1.391H69.152z M69.152,6.579
		h5.187c0.882,0,1.738,0.081,2.595,0.131v10.376c-0.861-0.071-1.713-0.132-2.595-0.132h-5.187c-0.88,0-1.736,0.062-2.593,0.132V6.71
		C67.419,6.659,68.27,6.579,69.152,6.579z M61.37,7.308v10.589c-15.182,3.618-25.906,17.17-25.936,32.778v12.968H25.057V50.674
		C25.093,29.344,40.378,11.09,61.37,7.308L61.37,7.308z M82.121,7.308c20.993,3.781,36.278,22.036,36.314,43.367v12.968h-10.375
		V50.674c-0.03-15.607-10.753-29.16-25.938-32.778L82.121,7.308z M69.154,22.142h5.186c15.753,0.017,28.518,12.781,28.534,28.533
		v12.968H40.619V50.674c0.017-15.752,12.782-28.516,28.533-28.532L69.154,22.142z M12.088,68.832h119.317
		c1.432,0.003,2.59,1.163,2.595,2.594v77.816c-0.005,1.429-1.163,2.59-2.595,2.595H12.088c-1.431-0.005-2.59-1.166-2.594-2.595
		V71.425C9.498,69.994,10.657,68.835,12.088,68.832z M97.483,81.799c-1.431,0.114-2.498,1.366-2.386,2.797
		c0.083,1.04,0.779,1.929,1.767,2.259l6.01,1.998v13.699h-2.594c-1.433,0-2.595,1.16-2.595,2.594c0,1.431,1.162,2.595,2.595,2.595
		l0,0h2.594v13.696l-6.01,1.993c-1.358,0.451-2.095,1.922-1.641,3.281c0.354,1.061,1.345,1.774,2.462,1.774
		c0.279-0.004,0.556-0.049,0.821-0.133l6.962-2.315l6.959,2.315c0.266,0.088,0.543,0.133,0.822,0.133
		c1.433,0,2.596-1.161,2.596-2.596c0-1.117-0.715-2.108-1.775-2.46l-6.006-1.996v-13.693h2.593c1.432,0,2.593-1.16,2.593-2.595
		c0-1.431-1.161-2.594-2.593-2.594h-2.593V88.853l6.006-1.995c1.361-0.454,2.096-1.925,1.642-3.283
		c-0.453-1.359-1.923-2.094-3.284-1.643l-6.959,2.316l-6.962-2.316c-0.33-0.107-0.678-0.151-1.025-0.131L97.483,81.799z
		 M35.432,99.958c-2.865,0-5.187,2.323-5.187,5.188c0,2.863,2.322,5.187,5.187,5.187c2.865,0,5.187-2.323,5.187-5.187
		c0.002-2.864-2.319-5.188-5.182-5.188C35.435,99.958,35.434,99.958,35.432,99.958z M58.777,99.958
		c-2.865,0-5.188,2.323-5.188,5.188c0,2.863,2.323,5.187,5.188,5.187s5.187-2.323,5.187-5.187c0.001-2.864-2.319-5.188-5.183-5.188
		C58.78,99.958,58.779,99.958,58.777,99.958z M82.121,99.958c-2.864,0-5.188,2.323-5.188,5.188c0,2.863,2.323,5.187,5.188,5.187
		c2.866,0,5.188-2.323,5.188-5.187c0-2.864-2.32-5.188-5.185-5.188C82.123,99.958,82.123,99.958,82.121,99.958z M17.274,141.46
		c-1.433,0-2.593,1.163-2.593,2.593c0,1.432,1.161,2.594,2.593,2.594h88.193c1.431,0,2.594-1.162,2.594-2.594
		c0-1.43-1.163-2.593-2.594-2.593H17.274z M115.84,141.46c-1.433,0-2.593,1.163-2.593,2.593c0,1.432,1.16,2.594,2.593,2.594h10.376
		c1.433,0,2.593-1.162,2.593-2.594c0-1.43-1.16-2.593-2.593-2.593H115.84z"/>
</g>
<g id="Layer_4">
	<path id="receipt" d="M42.831,16.39c-0.473-0.001-0.933,0.153-1.311,0.437l-7.461,5.591l-7.462-5.59
		c-0.664-0.5-1.554-0.58-2.296-0.205c-0.739,0.375-1.205,1.133-1.208,1.962v59.209h-2.192C10.007,77.804,1.177,86.636,1.165,97.531
		v43.855c0.008,3.63,2.948,6.569,6.578,6.577h127.191c3.63-0.008,6.571-2.947,6.579-6.577V97.531
		c-0.011-10.895-8.842-19.727-19.736-19.737h-2.193V22.969c0-0.582-0.23-1.139-0.643-1.55l-4.386-4.386
		c-0.769-0.773-1.99-0.861-2.86-0.205l-7.462,5.589l-7.462-5.59c-0.777-0.582-1.845-0.582-2.622,0l-7.456,5.59l-7.464-5.59
		c-0.778-0.582-1.846-0.582-2.621,0l-7.462,5.59l-7.461-5.59c-0.776-0.582-1.845-0.582-2.622,0l-7.461,5.59l-7.461-5.59
		C43.764,16.542,43.304,16.389,42.831,16.39z M42.831,21.323l7.461,5.594c0.776,0.583,1.844,0.583,2.622,0l7.46-5.591l7.462,5.594
		c0.777,0.582,1.844,0.582,2.622,0l7.46-5.594l7.461,5.594c0.777,0.582,1.845,0.582,2.621,0l7.462-5.594l7.461,5.594
		c0.777,0.582,1.845,0.582,2.621,0l7.254-5.44l2.397,2.399v64.881c-1.211,0-2.19,0.98-2.193,2.19v0.002v4.386
		c0,1.211,0.98,2.193,2.191,2.193c0.002,0,0.002,0,0.002,0v6.578H27.481v-6.578c1.211,0,2.193-0.981,2.193-2.191v-0.002v-4.386
		c0-1.211-0.98-2.192-2.191-2.192c0,0-0.001,0-0.002,0v-65.79l5.269,3.949c0.776,0.583,1.845,0.583,2.622,0L42.831,21.323z
		 M42.831,42.705c-1.211,0-2.193,0.982-2.193,2.192c0,1.212,0.981,2.193,2.193,2.193h35.086c1.212,0,2.193-0.981,2.193-2.193
		c0-1.21-0.981-2.192-2.193-2.192H42.831z M91.075,42.705c-1.21,0-2.192,0.982-2.192,2.192c0,1.212,0.982,2.193,2.192,2.193h8.772
		c1.21,0,2.192-0.981,2.192-2.193c0-1.21-0.982-2.192-2.192-2.192l0,0H91.075z M42.831,51.479c-1.211,0.001-2.192,0.983-2.191,2.195
		c0.001,1.21,0.981,2.189,2.191,2.191h24.124c1.21,0.001,2.192-0.98,2.195-2.191c0-1.212-0.98-2.194-2.191-2.195
		c-0.002,0-0.003,0-0.003,0H42.831z M95.461,51.479c-1.21-0.001-2.192,0.979-2.194,2.191c-0.002,1.21,0.979,2.193,2.191,2.195
		c0,0,0.002,0,0.003,0h4.387c1.21,0.001,2.192-0.98,2.195-2.191c0-1.212-0.981-2.194-2.191-2.195c-0.002,0-0.002,0-0.004,0H95.461z
		 M42.831,64.636c-1.211,0-2.192,0.984-2.191,2.195c0.001,1.208,0.981,2.189,2.191,2.191h21.931c1.211-0.002,2.191-0.984,2.19-2.194
		c-0.001-1.211-0.981-2.191-2.19-2.191H42.831z M91.075,64.636c-1.21-0.002-2.192,0.979-2.194,2.191
		c-0.003,1.21,0.98,2.192,2.19,2.194c0.002,0,0.002,0,0.004,0h8.772c1.21,0,2.192-0.98,2.195-2.191c0-1.21-0.981-2.195-2.191-2.195
		c-0.002,0-0.002,0-0.004,0H91.075z M42.831,73.408c-1.211,0-2.193,0.982-2.193,2.193s0.981,2.193,2.193,2.193h28.508
		c1.21,0.002,2.195-0.98,2.195-2.191c0.001-1.21-0.979-2.192-2.19-2.194c-0.002,0-0.003,0-0.005,0H42.831z M91.075,73.408
		c-1.21,0-2.192,0.982-2.192,2.193s0.982,2.193,2.192,2.193h8.772c1.21,0.002,2.192-0.98,2.195-2.191
		c0-1.21-0.981-2.192-2.191-2.194c-0.002,0-0.002,0-0.004,0H91.075z M20.902,82.18h2.192v8.771c-4.844-0.05-8.813,3.836-8.862,8.682
		c-0.05,4.845,3.836,8.813,8.681,8.862c0.061,0,0.122,0,0.182,0h96.49c4.846,0.049,8.812-3.836,8.864-8.682
		c0.049-4.844-3.838-8.813-8.682-8.862c-0.062,0-0.121,0-0.183,0V82.18h2.193c8.476,0.009,15.344,6.877,15.354,15.353v43.854
		c-0.004,1.208-0.983,2.189-2.193,2.191H7.743c-1.21-0.002-2.19-0.983-2.193-2.191V97.531C5.561,89.057,12.428,82.189,20.902,82.18z
		 M38.445,88.759c-1.21,0-2.192,0.98-2.193,2.19v0.002v4.386c0.001,1.211,0.984,2.191,2.195,2.191
		c1.209-0.002,2.189-0.982,2.19-2.191v-4.386c0-1.211-0.98-2.192-2.19-2.192C38.446,88.759,38.446,88.759,38.445,88.759z
		 M49.41,88.759c-1.211,0-2.192,0.98-2.193,2.19v0.002v4.386c0.001,1.211,0.984,2.191,2.195,2.191
		c1.209-0.002,2.189-0.982,2.19-2.191v-4.386c0.001-1.211-0.979-2.192-2.19-2.192C49.411,88.759,49.411,88.759,49.41,88.759z
		 M60.376,88.759c-1.211,0-2.193,0.98-2.193,2.19v0.002v4.386c0,1.211,0.983,2.191,2.195,2.191c1.208-0.002,2.189-0.982,2.191-2.191
		v-4.386c0-1.211-0.98-2.192-2.191-2.192c-0.002,0-0.002,0-0.004,0H60.376z M71.341,88.759c-1.211,0-2.194,0.98-2.194,2.19v0.002
		v4.386c0.002,1.211,0.985,2.191,2.195,2.191c1.209-0.002,2.19-0.982,2.192-2.191v-4.386C73.534,89.741,72.553,88.759,71.341,88.759
		c0,0,0,0-0.002,0H71.341z M82.306,88.759c-1.211,0-2.193,0.98-2.193,2.19v0.002v4.386c0,1.211,0.984,2.191,2.195,2.191
		c1.208-0.002,2.189-0.982,2.19-2.191v-4.386c0-1.211-0.98-2.192-2.19-2.192c-0.002,0-0.002,0-0.004,0H82.306z M93.271,88.759
		c-1.211,0-2.193,0.98-2.193,2.19v0.002v4.386c0.002,1.211,0.984,2.191,2.194,2.191c1.212-0.002,2.189-0.982,2.191-2.191v-4.386
		C95.463,89.741,94.484,88.759,93.271,88.759c0,0,0,0-0.002,0H93.271z M104.235,88.759c-1.21,0-2.19,0.98-2.191,2.19v0.002v4.386
		c0.001,1.211,0.983,2.191,2.193,2.191c1.211-0.002,2.191-0.982,2.191-2.191v-4.386c0-1.211-0.98-2.192-2.191-2.192
		C104.237,88.759,104.235,88.759,104.235,88.759L104.235,88.759z M23.094,95.337v8.771c-2.422,0.002-4.387-1.959-4.39-4.382
		c-0.002-2.421,1.96-4.386,4.382-4.39C23.089,95.337,23.092,95.337,23.094,95.337L23.094,95.337z M119.584,95.337
		c2.423,0,4.386,1.963,4.386,4.387c0,2.422-1.963,4.385-4.386,4.385V95.337z M18.709,117.155c-2.42,0.006-4.381,1.967-4.386,4.386
		v8.771c0.005,2.422,1.966,4.383,4.386,4.387h57.017c2.42-0.004,4.38-1.965,4.385-4.387v-8.771c-0.005-2.419-1.965-4.38-4.385-4.386
		H18.709z M93.269,117.155c-2.421,0.006-4.38,1.967-4.386,4.386v8.771c0.006,2.422,1.965,4.383,4.386,4.387h8.771
		c2.42-0.004,4.381-1.965,4.386-4.387v-8.771c-0.005-2.419-1.966-4.38-4.386-4.386H93.269z M115.198,117.155
		c-2.42,0.006-4.38,1.967-4.385,4.386v8.771c0.005,2.422,1.965,4.383,4.385,4.387h8.772c2.419-0.004,4.38-1.965,4.384-4.387v-8.771
		c-0.004-2.419-1.965-4.38-4.384-4.386H115.198z M18.709,121.541h57.017v8.771H18.709V121.541z M93.269,121.541h8.771v8.771h-8.771
		V121.541z M115.198,121.541h8.772v8.771h-8.772V121.541z"/>
</g>
</svg>
