<svg xmlns="http://www.w3.org/2000/svg" width="149" height="139.69" viewBox="0 0 149 139.69">
  <path id="receipt" d="M44.234,2a2.306,2.306,0,0,0-1.391.464L34.922,8.4,27,2.465a2.316,2.316,0,0,0-2.437-.218A2.343,2.343,0,0,0,23.281,4.33V67.189H20.953A20.976,20.976,0,0,0,0,88.142V134.7a7,7,0,0,0,6.984,6.984H142.016A7,7,0,0,0,149,134.7V88.142a20.976,20.976,0,0,0-20.953-20.953h-2.328V8.986a2.326,2.326,0,0,0-.682-1.646L120.38,2.684a2.316,2.316,0,0,0-3.037-.218L109.422,8.4,101.5,2.465a2.319,2.319,0,0,0-2.783,0L90.8,8.4,82.876,2.465a2.319,2.319,0,0,0-2.783,0L72.172,8.4,64.251,2.465a2.319,2.319,0,0,0-2.783,0L53.547,8.4,45.626,2.465A2.306,2.306,0,0,0,44.234,2Zm0,5.238,7.921,5.939a2.319,2.319,0,0,0,2.783,0L62.859,7.24l7.921,5.939a2.319,2.319,0,0,0,2.783,0L81.484,7.24l7.921,5.939a2.319,2.319,0,0,0,2.783,0l7.921-5.939,7.921,5.939a2.319,2.319,0,0,0,2.783,0l7.7-5.775,2.546,2.546V78.83a2.327,2.327,0,0,0-2.328,2.328v4.656a2.327,2.327,0,0,0,2.328,2.328v6.984H27.938V88.142a2.327,2.327,0,0,0,2.328-2.328V81.158a2.327,2.327,0,0,0-2.328-2.328V8.986l5.593,4.192a2.319,2.319,0,0,0,2.783,0Zm0,22.7a2.328,2.328,0,0,0,0,4.656h37.25a2.328,2.328,0,1,0,0-4.656Zm51.219,0a2.328,2.328,0,1,0,0,4.656h9.312a2.328,2.328,0,1,0,0-4.656ZM44.234,39.252a2.328,2.328,0,0,0,0,4.656H69.844a2.328,2.328,0,1,0,0-4.656Zm55.875,0a2.328,2.328,0,1,0,0,4.656h4.656a2.328,2.328,0,1,0,0-4.656ZM44.234,53.22a2.328,2.328,0,0,0,0,4.656H67.516a2.328,2.328,0,0,0,0-4.656Zm51.219,0a2.328,2.328,0,1,0,0,4.656h9.312a2.328,2.328,0,1,0,0-4.656ZM44.234,62.533a2.328,2.328,0,0,0,0,4.656H74.5a2.328,2.328,0,1,0,0-4.656Zm51.219,0a2.328,2.328,0,1,0,0,4.656h9.312a2.328,2.328,0,1,0,0-4.656Zm-74.5,9.312h2.328v9.313a9.313,9.313,0,1,0,0,18.625H125.719a9.313,9.313,0,1,0,0-18.625V71.845h2.328a16.317,16.317,0,0,1,16.3,16.3V134.7a2.333,2.333,0,0,1-2.328,2.328H6.984A2.333,2.333,0,0,1,4.656,134.7V88.142A16.317,16.317,0,0,1,20.953,71.845ZM39.578,78.83a2.327,2.327,0,0,0-2.328,2.328v4.656a2.328,2.328,0,0,0,4.656,0V81.158A2.327,2.327,0,0,0,39.578,78.83Zm11.641,0a2.327,2.327,0,0,0-2.328,2.328v4.656a2.328,2.328,0,0,0,4.656,0V81.158A2.327,2.327,0,0,0,51.219,78.83Zm11.641,0a2.327,2.327,0,0,0-2.328,2.328v4.656a2.328,2.328,0,0,0,4.656,0V81.158A2.327,2.327,0,0,0,62.859,78.83Zm11.641,0a2.327,2.327,0,0,0-2.328,2.328v4.656a2.328,2.328,0,0,0,4.656,0V81.158A2.327,2.327,0,0,0,74.5,78.83Zm11.641,0a2.327,2.327,0,0,0-2.328,2.328v4.656a2.328,2.328,0,0,0,4.656,0V81.158A2.327,2.327,0,0,0,86.141,78.83Zm11.641,0a2.327,2.327,0,0,0-2.328,2.328v4.656a2.328,2.328,0,0,0,4.656,0V81.158A2.327,2.327,0,0,0,97.781,78.83Zm11.641,0a2.327,2.327,0,0,0-2.328,2.328v4.656a2.328,2.328,0,0,0,4.656,0V81.158A2.327,2.327,0,0,0,109.422,78.83ZM23.281,85.814v9.313a4.656,4.656,0,1,1,0-9.312Zm102.438,0a4.656,4.656,0,1,1,0,9.313ZM18.625,108.977a4.665,4.665,0,0,0-4.656,4.656v9.313a4.665,4.665,0,0,0,4.656,4.656H79.156a4.665,4.665,0,0,0,4.656-4.656v-9.313a4.665,4.665,0,0,0-4.656-4.656Zm79.156,0a4.665,4.665,0,0,0-4.656,4.656v9.313a4.665,4.665,0,0,0,4.656,4.656h9.312a4.665,4.665,0,0,0,4.656-4.656v-9.313a4.665,4.665,0,0,0-4.656-4.656Zm23.281,0a4.665,4.665,0,0,0-4.656,4.656v9.313a4.665,4.665,0,0,0,4.656,4.656h9.312a4.665,4.665,0,0,0,4.656-4.656v-9.313a4.665,4.665,0,0,0-4.656-4.656ZM18.625,113.633H79.156v9.313H18.625Zm79.156,0h9.312v9.313H97.781Zm23.281,0h9.312v9.313h-9.312Z" transform="translate(0 -1.999)"/>
</svg>
