<svg xmlns="http://www.w3.org/2000/svg" width="132.062" height="127.935" viewBox="0 0 132.062 127.935">
  <path id="return-purchase" d="M72.221,0a2.064,2.064,0,0,0-1.459.6L54.255,17.112a2.063,2.063,0,0,0,2.918,2.918L70.158,7.045V33.015H22.118l-.58-7.327a14.526,14.526,0,0,0-9.269-12.34,6.218,6.218,0,1,0-.758,4.208,10.313,10.313,0,0,1,5.908,8.455l5.763,72.761A22.815,22.815,0,0,0,41.43,119.237a10.3,10.3,0,0,0,20.264.443H82.748a10.317,10.317,0,1,0,0-4.127H61.694a10.293,10.293,0,0,0-20.062-.508,18.713,18.713,0,0,1-13.324-11.873H108.09a6.223,6.223,0,0,0,6.053-4.893L125.476,45.4h.395a6.19,6.19,0,0,0,0-12.381H74.285V7.045L87.27,20.03a2.063,2.063,0,0,0,2.918-2.918L73.68.6A2.064,2.064,0,0,0,72.221,0ZM6.19,12.381a2.063,2.063,0,1,1-2.063,2.063A2.067,2.067,0,0,1,6.19,12.381ZM22.44,37.142H70.158V84.6a2.063,2.063,0,0,0,4.127,0V37.142h51.587a2.063,2.063,0,0,1,0,4.127h-43.2a2.063,2.063,0,1,0,0,4.127h38.585L110.105,97.41a2.068,2.068,0,0,1-2.015,1.636H27.365c-.024-.2-.056-.395-.073-.6L23.093,45.4H61.9a2.063,2.063,0,1,0,0-4.127H22.763Zm8.512,12.381a2.062,2.062,0,0,0-2.063,2.063v4.127a2.063,2.063,0,0,0,4.127,0V51.587A2.062,2.062,0,0,0,30.952,49.523Zm10.317,0a2.062,2.062,0,0,0-2.063,2.063v4.127a2.063,2.063,0,1,0,4.127,0V51.587A2.062,2.062,0,0,0,41.269,49.523Zm10.317,0a2.062,2.062,0,0,0-2.063,2.063v4.127a2.063,2.063,0,1,0,4.127,0V51.587A2.062,2.062,0,0,0,51.587,49.523Zm10.317,0a2.062,2.062,0,0,0-2.063,2.063v4.127a2.063,2.063,0,0,0,4.127,0V51.587A2.062,2.062,0,0,0,61.9,49.523Zm20.635,0a2.062,2.062,0,0,0-2.063,2.063v4.127a2.063,2.063,0,0,0,4.127,0V51.587A2.062,2.062,0,0,0,82.538,49.523Zm10.317,0a2.062,2.062,0,0,0-2.063,2.063v4.127a2.063,2.063,0,1,0,4.127,0V51.587A2.062,2.062,0,0,0,92.856,49.523Zm10.317,0a2.062,2.062,0,0,0-2.063,2.063v4.127a2.063,2.063,0,0,0,4.127,0V51.587A2.062,2.062,0,0,0,103.173,49.523Zm10.317,0a2.062,2.062,0,0,0-2.063,2.063v4.127a2.063,2.063,0,1,0,4.127,0V51.587A2.062,2.062,0,0,0,113.49,49.523Zm-61.9,61.9a6.19,6.19,0,1,1-6.19,6.19A6.2,6.2,0,0,1,51.587,111.427Zm41.269,0a6.19,6.19,0,1,1-6.19,6.19A6.2,6.2,0,0,1,92.856,111.427Z"/>
</svg>
