<svg xmlns="http://www.w3.org/2000/svg" width="142.514" height="159.044" viewBox="0 0 142.514 159.044">
  <path id="support" d="M68.009,0C30.324,0,4,22.482,4,54.671a118.447,118.447,0,0,0,12.862,52.885,16.757,16.757,0,0,1,1.67,9.329l-3.681,33.927a7.334,7.334,0,0,0,1.93,5.766,7.783,7.783,0,0,0,5.711,2.466h67.84A7.777,7.777,0,0,0,96.1,156.5a7.285,7.285,0,0,0,1.84-5.883L96.583,140.6l13.792,1.495h.01l7.421.8a13.073,13.073,0,0,0,9.951-3.087,12.282,12.282,0,0,0,4.261-9.261v-22.55a2.5,2.5,0,0,1,2.28-2.466l7.651-.835a5.093,5.093,0,0,0,3.751-2.262,4.806,4.806,0,0,0,.55-4.242L132.378,57.778A7.193,7.193,0,0,1,132,55.6C131.178,23.385,104.264,0,68.009,0Zm2.54,5.067c1.74.058,3.46.165,5.141.34V51.6a28.515,28.515,0,0,0-20.483,0V5.883c1.68-.243,3.41-.456,5.191-.6a2.493,2.493,0,0,0,2.49,2.174h5.121A2.514,2.514,0,0,0,70.55,5.067ZM80.811,6.1c26.7,4.718,45.417,24.132,46.067,49.624a12.25,12.25,0,0,0,.63,3.631l13.882,40.4-7.651.825a7.546,7.546,0,0,0-6.841,7.416v22.55a7.345,7.345,0,0,1-2.56,5.553,7.866,7.866,0,0,1-5.961,1.864l-27.724-2.99-7-.757a2.553,2.553,0,0,0-2.82,2.194,2.5,2.5,0,0,0,2.26,2.747l8.241.883,1.54,11.231a2.383,2.383,0,0,1-.62,1.961,2.548,2.548,0,0,1-1.92.845H22.493a2.581,2.581,0,0,1-1.9-.815,2.435,2.435,0,0,1-.65-1.932l3.681-33.917a21.515,21.515,0,0,0-2.17-12.027A113.789,113.789,0,0,1,9.121,54.671c0-20.754,12.822-41.654,40.966-47.857V54.157a27.118,27.118,0,0,0-12.8,22.88c0,15.075,12.632,27.336,28.164,27.336a29.15,29.15,0,0,0,5.641-.553l2.65,7.727a12.8,12.8,0,0,0,10.742,8.426l14.542,1.563a10,10,0,1,0,.15-4.98l-14.122-1.524a7.645,7.645,0,0,1-6.441-5.057l-2.62-7.61a26.937,26.937,0,0,0,4.821-48.206ZM62.888,14.91a2.486,2.486,0,1,0,0,4.97h5.121a2.486,2.486,0,1,0,0-4.97Zm0,12.425a2.486,2.486,0,1,0,0,4.97h5.121a2.486,2.486,0,1,0,0-4.97Zm0,12.425a2.486,2.486,0,1,0,0,4.97h5.121a2.486,2.486,0,1,0,0-4.97Zm2.56,14.91c12.712,0,23.043,10.037,23.043,22.366S78.161,99.4,65.449,99.4,42.406,89.365,42.406,77.037,52.737,54.671,65.449,54.671Zm0,9.94a12.431,12.431,0,1,0,12.8,12.425A12.629,12.629,0,0,0,65.449,64.612Zm0,4.97a7.459,7.459,0,1,1-7.681,7.455A7.585,7.585,0,0,1,65.449,69.582Zm43.526,44.731a4.972,4.972,0,1,1-5.121,4.97A5.057,5.057,0,0,1,108.975,114.313Z" transform="translate(-4)"/>
</svg>
